<?xml version="1.0" encoding="utf-8"?>
<!-- Generator: Adobe Illustrator 17.1.0, SVG Export Plug-In . SVG Version: 6.00 Build 0)  -->
<!DOCTYPE svg PUBLIC "-//W3C//DTD SVG 1.1//EN" "http://www.w3.org/Graphics/SVG/1.1/DTD/svg11.dtd">
<svg version="1.1" id="Layer_1" xmlns="http://www.w3.org/2000/svg" xmlns:xlink="http://www.w3.org/1999/xlink" x="0px" y="0px"
	 viewBox="0 0 100 100" style="enable-background:new 0 0 100 100;" xml:space="preserve">
<g>
	<circle style="fill:#99D6ED;" cx="50" cy="50" r="50"/>
	<g>
		<defs>
			<circle id="SVGID_1_" cx="50" cy="50" r="50"/>
		</defs>
		<clipPath id="SVGID_2_">
			<use xlink:href="#SVGID_1_"  style="overflow:visible;"/>
		</clipPath>
	</g>
	<g>
		<g>
			<path style="fill:#079ED4;" d="M50,81c5.3,0,9.6-4.1,10.9-9h-22C40.1,76.9,44.7,81,50,81z"/>
		</g>
		<g>
			<path style="fill:#FED110;" d="M78.4,62.9c-5.7,0-5.7-8.7-5.7-8.7V42.8c0-9.6-5.9-17.9-14.3-21.3c0-0.1,0-0.2,0-0.2
				c0-4-3.8-7.2-8.6-7.2s-8.6,3.2-8.6,7.2c0,0.1,0,0.2,0,0.2C32.9,24.9,27,33.1,27,42.8v11.4c0,0,0,8.7-5.7,8.7c0,0-4.3,0.1-4.3,5.7
				c0,2.4,2.2,3.4,4.6,3.4h14.3h2.9h22.9h2.9h14.3c2.4,0,4-1,4-3.4C82.7,63,78.4,62.9,78.4,62.9z"/>
		</g>
	</g>
</g>
<g>
</g>
<g>
</g>
<g>
</g>
<g>
</g>
<g>
</g>
<g>
</g>
</svg>
