<svg version="1.1" id="Layer_1" xmlns="http://www.w3.org/2000/svg" xmlns:xlink="http://www.w3.org/1999/xlink" x="0px" y="0px"
	 viewBox="0 0 100 100" style="enable-background:new 0 0 100 100;" xml:space="preserve">
<g>
	<circle style="fill:#99D6ED;" cx="50" cy="50" r="50"/>
	<rect x="11" y="36" style="fill-rule:evenodd;clip-rule:evenodd;fill:#1B8140;" width="72" height="34"/>
	<rect x="14" y="33" style="fill-rule:evenodd;clip-rule:evenodd;fill:#19A249;" width="72" height="34"/>
	<rect x="17" y="30" style="fill-rule:evenodd;clip-rule:evenodd;fill:#4EB748;" width="72" height="34"/>
	<ellipse style="fill-rule:evenodd;clip-rule:evenodd;fill:#1A9847;" cx="77" cy="47" rx="6" ry="7"/>
	<ellipse style="fill-rule:evenodd;clip-rule:evenodd;fill:#1A9847;" cx="29" cy="47" rx="6" ry="7"/>
	<path style="fill-rule:evenodd;clip-rule:evenodd;fill:#1A9847;" d="M41,48c0,8.3,5.6,15,12.5,15S65,56.3,65,48s-4.6-15-11.5-15
		S41,39.7,41,48z"/>
	<g>
		<path style="fill:#4EB748;" d="M47.6,52.4c0,0,0.8-0.2,2.7-0.4c0.3-0.5,0.4-1.2,0.4-1.8c-1.4-1-2.4-2.8-2.4-4.9
			c0-3.2,0.4-5.3,4.6-5.3h0.4c4.2,0,4.6,2.2,4.6,5.3c0,2.1-1,3.9-2.4,4.9c0,0.6,0.2,1.3,0.4,1.8c2.1,0.1,2.7,0.4,2.7,0.4
			c2,0.7,5.6,3.1,6.2,10.3l-13.1,0.7L42,63C42,57.4,44.8,53.1,47.6,52.4z"/>
	</g>
</g>
<g>
</g>
<g>
</g>
<g>
</g>
<g>
</g>
<g>
</g>
<g>
</g>
</svg>