<?xml version="1.0" encoding="utf-8"?>
<!-- Generator: Adobe Illustrator 18.0.0, SVG Export Plug-In . SVG Version: 6.00 Build 0)  -->
<!DOCTYPE svg PUBLIC "-//W3C//DTD SVG 1.1//EN" "http://www.w3.org/Graphics/SVG/1.1/DTD/svg11.dtd">
<svg version="1.1" id="Layer_1" xmlns="http://www.w3.org/2000/svg" xmlns:xlink="http://www.w3.org/1999/xlink" x="0px" y="0px"
	 viewBox="0 0 100 100" enable-background="new 0 0 100 100" xml:space="preserve">
<g>
	<circle fill="#99D6ED" cx="50" cy="50" r="50"/>
	<g>
		<g>
			<path fill="#697780" d="M58,28c1.7,0,3,1.3,3,3v4c0,1.7-1.3,3-3,3H42c-1.7,0-3-1.3-3-3v-4c0-1.7,1.3-3,3-3H58 M58,25H42
				c-3.3,0-6,2.7-6,6v4c0,3.3,2.7,6,6,6h16c3.3,0,6-2.7,6-6v-4C64,27.7,61.3,25,58,25L58,25z"/>
		</g>
	</g>
	<path fill="#D03228" d="M84,75H16V39c0-2.2,1.8-4,4-4h60c2.2,0,4,1.8,4,4V75z"/>
	<g>
		<defs>
			<circle id="SVGID_1_" cx="50" cy="50" r="50"/>
		</defs>
		<clipPath id="SVGID_2_">
			<use xlink:href="#SVGID_1_"  overflow="visible"/>
		</clipPath>
		<rect x="-0.1" y="75" clip-path="url(#SVGID_2_)" fill="#99A1A9" width="100" height="25"/>
	</g>
	<rect x="16" y="49" fill="#B02024" width="68" height="2"/>
	<path fill="#E8E4E7" d="M53,56h-6c-1.1,0-2-0.9-2-2v-8c0-1.1,0.9-2,2-2h6c1.1,0,2,0.9,2,2v8C55,55.1,54.1,56,53,56z"/>
	<rect x="47" y="46" fill="#AEB5BB" width="6" height="8"/>
</g>
</svg>
