<?xml version="1.0" encoding="utf-8"?>
<!-- Generator: Adobe Illustrator 17.1.0, SVG Export Plug-In . SVG Version: 6.00 Build 0)  -->
<!DOCTYPE svg PUBLIC "-//W3C//DTD SVG 1.1//EN" "http://www.w3.org/Graphics/SVG/1.1/DTD/svg11.dtd">
<svg version="1.1" id="Layer_1" xmlns="http://www.w3.org/2000/svg" xmlns:xlink="http://www.w3.org/1999/xlink" x="0px" y="0px"
	 viewBox="0 0 100 100" style="enable-background:new 0 0 100 100;" xml:space="preserve">
<g>
	<circle style="fill:#99D6ED;" cx="50.1" cy="50" r="50"/>
	<g>
		<defs>
			<circle id="SVGID_1_" cx="50.1" cy="50" r="50"/>
		</defs>
		<clipPath id="SVGID_2_">
			<use xlink:href="#SVGID_1_"  style="overflow:visible;"/>
		</clipPath>
		<rect x="47" y="11" style="clip-path:url(#SVGID_2_);fill:#273C4A;" width="6" height="90"/>
	</g>
	<polygon style="fill:#FFFFFF;" points="26,49 77,49 73,58 77,67 26,67 17,58 	"/>
	<polygon style="fill:#FFFFFF;" points="74,43 23,43 27,34 23,25 74,25 83,34 	"/>
	<circle style="fill:#273C4A;" cx="50" cy="13" r="6"/>
	<circle style="fill:#008BC1;" cx="82" cy="82" r="18"/>
	<g>
		<path style="fill:#FFFFFF;" d="M82,70c-6.6,0-12,5.4-12,12s5.4,12,12,12s12-5.4,12-12S88.6,70,82,70z M82,93c-6.1,0-11-4.9-11-11
			s4.9-11,11-11s11,4.9,11,11S88.1,93,82,93z"/>
		<circle style="fill:#FFFFFF;" cx="82" cy="87" r="1"/>
		<path style="fill:#FFFFFF;" d="M82.5,75.2c-1.6,0-2.9,0.6-4,2c-0.1,0.1-0.2,0.3-0.2,0.4c0,0.1,0.1,0.2,0.2,0.3
			c0.1,0.1,0.2,0.1,0.3,0.1c0.2,0,0.4-0.2,0.4-0.2c1-1.1,2-1.6,3.3-1.6c1.7,0,3,1.1,3,2.7v0c0,1.8-1.4,2.9-3.6,2.9
			c-0.1,0-0.1,0-0.2,0.1c-0.1,0.1,0,0.2,0,0.2l0.2,2.8l0,0h0.6l0.2-2.3c1.1-0.1,2-0.5,2.7-1.1c0.8-0.7,1.1-1.5,1.1-2.6v0
			C86.4,76.7,84.7,75.2,82.5,75.2z"/>
	</g>
</g>
<g>
</g>
<g>
</g>
<g>
</g>
<g>
</g>
<g>
</g>
<g>
</g>
</svg>
