<?xml version="1.0" encoding="utf-8"?>
<!-- Generator: Adobe Illustrator 17.1.0, SVG Export Plug-In . SVG Version: 6.00 Build 0)  -->
<!DOCTYPE svg PUBLIC "-//W3C//DTD SVG 1.1//EN" "http://www.w3.org/Graphics/SVG/1.1/DTD/svg11.dtd">
<svg version="1.1" id="Layer_1" xmlns="http://www.w3.org/2000/svg" xmlns:xlink="http://www.w3.org/1999/xlink" x="0px" y="0px"
	 viewBox="0 0 100 100" style="enable-background:new 0 0 100 100;" xml:space="preserve">
<g>
	<path style="fill:#FFFFFF;" d="M93.5,80L91,79.9c-0.2-0.8-0.5-1.7-0.8-2.4l1.7-1.9c0.1-0.1,0.1-0.2,0.1-0.4c0-0.1-0.1-0.3-0.1-0.4
		l-2.8-2.8c-0.2-0.2-0.5-0.2-0.7,0l-1.9,1.7c-0.7-0.3-1.6-0.6-2.4-0.8L84,70.5c0-0.3-0.2-0.5-0.5-0.5h-3c-0.3,0-0.5,0.2-0.5,0.5
		L79.9,73c-0.8,0.2-1.7,0.5-2.4,0.8l-1.9-1.7c-0.2-0.2-0.5-0.2-0.7,0l-2.8,2.8c-0.2,0.2-0.2,0.5,0,0.7l1.7,1.9
		c-0.3,0.7-0.6,1.6-0.8,2.4L70.5,80c-0.3,0-0.5,0.2-0.5,0.5v3c0,0.3,0.2,0.5,0.5,0.5l2.5,0.1c0.2,0.8,0.5,1.7,0.8,2.4l-1.7,1.9
		C72,88.5,72,88.6,72,88.7c0,0.1,0.1,0.3,0.1,0.4l2.8,2.8c0.2,0.2,0.5,0.2,0.7,0l1.9-1.7c0.7,0.3,1.6,0.6,2.4,0.8l0.1,2.5
		c0,0.3,0.2,0.5,0.5,0.5h3c0.3,0,0.5-0.2,0.5-0.5l0.1-2.5c0.8-0.2,1.7-0.5,2.4-0.8l1.9,1.7c0.2,0.2,0.5,0.2,0.7,0l2.8-2.8
		c0.2-0.2,0.2-0.5,0-0.7l-1.7-1.9c0.3-0.7,0.6-1.6,0.8-2.4l2.5-0.1c0.3,0,0.5-0.2,0.5-0.5v-3C94,80.2,93.8,80,93.5,80z M82,86
		c-2.2,0-4-1.8-4-4c0-2.2,1.8-4,4-4s4,1.8,4,4C86,84.2,84.2,86,82,86z"/>
	<circle style="fill:#99D6ED;" cx="50" cy="50" r="50"/>
	<rect x="11" y="36" style="fill-rule:evenodd;clip-rule:evenodd;fill:#1B8140;" width="72" height="34"/>
	<rect x="14" y="33" style="fill-rule:evenodd;clip-rule:evenodd;fill:#19A249;" width="72" height="34"/>
	<rect x="17" y="30" style="fill-rule:evenodd;clip-rule:evenodd;fill:#4EB748;" width="72" height="34"/>
	<ellipse style="fill-rule:evenodd;clip-rule:evenodd;fill:#1A9847;" cx="77" cy="47" rx="6" ry="7"/>
	<ellipse style="fill-rule:evenodd;clip-rule:evenodd;fill:#1A9847;" cx="29" cy="47" rx="6" ry="7"/>
	<path style="fill-rule:evenodd;clip-rule:evenodd;fill:#1A9847;" d="M41,48c0,8.3,5.6,15,12.5,15S65,56.3,65,48s-4.6-15-11.5-15
		S41,39.7,41,48z"/>
	<g>
		<path style="fill:#4EB748;" d="M47.6,52.4c0,0,0.8-0.2,2.7-0.4c0.3-0.5,0.4-1.2,0.4-1.8c-1.4-1-2.4-2.8-2.4-4.9
			c0-3.2,0.4-5.3,4.6-5.3h0.4c4.2,0,4.6,2.2,4.6,5.3c0,2.1-1,3.9-2.4,4.9c0,0.6,0.2,1.3,0.4,1.8c2.1,0.1,2.7,0.4,2.7,0.4
			c2,0.7,5.6,3.1,6.2,10.3l-13.1,0.7L42,63C42,57.4,44.8,53.1,47.6,52.4z"/>
	</g>
	<circle style="fill:#008BC1;" cx="82" cy="82" r="18"/>
	<g>
		<path style="fill:#FFFFFF;" d="M76.9,80.1c-0.2-0.2-0.5-0.2-0.7,0L74,82.3c0-0.1,0-0.2,0-0.3c0-4.4,3.6-8,8-8
			c2.6,0,5.1,1.3,6.6,3.5c0.2,0.2,0.5,0.3,0.7,0.1c0.2-0.2,0.3-0.5,0.1-0.7C87.7,74.5,85,73,82,73c-5,0-9,4-9,9c0,0.1,0,0.2,0,0.3
			l-2.2-2.2c-0.2-0.2-0.5-0.2-0.7,0s-0.2,0.5,0,0.7l3,3c0.1,0.1,0.2,0.1,0.4,0.1s0.3,0,0.4-0.1l3-3C77,80.7,77,80.3,76.9,80.1z"/>
		<path style="fill:#FFFFFF;" d="M93.9,83.6l-3-3c-0.2-0.2-0.5-0.2-0.7,0l-3,3c-0.2,0.2-0.2,0.5,0,0.7s0.5,0.2,0.7,0l2.1-2.1
			c-0.1,4.3-3.7,7.8-8,7.8c-2.5,0-5-1.2-6.5-3.3c-0.2-0.2-0.5-0.3-0.7-0.1c-0.2,0.2-0.3,0.5-0.1,0.7c1.7,2.3,4.4,3.7,7.3,3.7
			c4.9,0,8.9-3.9,9-8.8l2.2,2.2c0.1,0.1,0.2,0.1,0.4,0.1s0.3,0,0.4-0.1C94,84.2,94,83.8,93.9,83.6z"/>
	</g>
</g>
<g>
</g>
<g>
</g>
<g>
</g>
<g>
</g>
<g>
</g>
<g>
</g>
</svg>
