<?xml version="1.0" encoding="utf-8"?>
<!-- Generator: Adobe Illustrator 17.1.0, SVG Export Plug-In . SVG Version: 6.00 Build 0)  -->
<!DOCTYPE svg PUBLIC "-//W3C//DTD SVG 1.1//EN" "http://www.w3.org/Graphics/SVG/1.1/DTD/svg11.dtd">
<svg version="1.1" id="Layer_1" xmlns="http://www.w3.org/2000/svg" xmlns:xlink="http://www.w3.org/1999/xlink" x="0px" y="0px"
	 viewBox="0 0 100 100" style="enable-background:new 0 0 100 100;" xml:space="preserve">
<circle style="fill:#33B1DC;" cx="50" cy="50" r="50"/>
<g>
	<path style="fill:#074A77;" d="M75.9,24L75.9,24c-3.6-3.5-9.3-3.5-12.8,0L26.4,60.7c0,0,0,0,0,0l0,0l-0.6,0.6
		c-0.2,0.2-0.3,0.3-0.3,0.5L22,76.5c-0.1,0.4,0,0.8,0.3,1.1c0.2,0.2,0.5,0.3,0.8,0.3c0.1,0,0.2,0,0.3,0l14.8-3.5
		c0.2,0,0.4-0.2,0.5-0.3L75.9,37C79.5,33.4,79.5,27.6,75.9,24z"/>
	<path style="fill:#E59696;" d="M75.9,37c3.6-3.6,3.6-9.4,0-12.9l0,0c-3.6-3.5-9.3-3.5-12.8,0L75.9,37z"/>
	<path style="fill:#FEEB9E;" d="M24.9,62.6c0.1-0.4,0.3-0.7,0.6-1l0.4-0.3l12.9,12.9l-0.3,0.3c-0.3,0.3-0.7,0.6-1.1,0.7l-14.4,3
		c-0.7,0.2-1.4-0.5-1.2-1.2L24.9,62.6z"/>
	<path style="fill:#091A29;" d="M29,76.9l-6,1.3c-0.7,0.2-1.4-0.5-1.2-1.2l1.3-6l2,2L29,76.9z"/>
	<polygon style="fill:#DBD8DC;" points="63,24 75.9,37 70.8,42.1 57.9,29.2 	"/>
</g>
<g>
</g>
<g>
</g>
<g>
</g>
<g>
</g>
<g>
</g>
<g>
</g>
</svg>
