<?xml version="1.0" encoding="UTF-8" standalone="no"?>
<svg viewBox="0 0 100 100" version="1.1" xmlns="http://www.w3.org/2000/svg" xmlns:xlink="http://www.w3.org/1999/xlink">
    <!-- Generator: Sketch 40.1 (33804) - http://www.bohemiancoding.com/sketch -->
    <title>page icon - keys</title>
    <desc>Created with Sketch.</desc>
    <defs></defs>
    <g id="Change-Password" stroke="none" stroke-width="1" fill="none" fill-rule="evenodd">
        <g id="2-Change-Password---error" transform="translate(-670.000000, -25.000000)">
            <g id="Group" transform="translate(350.000000, 24.000000)">
                <g id="page-icon---keys">
                    <g transform="translate(319.000000, 0.000000)">
                        <g id="Lock" transform="translate(-3.000000, 1.000000)">
                            <path d="M54,100 C26.386,100 4,77.614 4,50 C4,22.386 26.386,0 54,0 C81.614,0 104,22.386 104,50 C104,77.614 81.614,100 54,100 Z" id="circle" fill="#004879"></path>
                            <g id="keys" transform="translate(50.066908, 52.060509) rotate(-315.000000) translate(-50.066908, -52.060509) translate(15.328578, 16.236607)">
                                <path d="M20.4246596,33.9920823 C17.1045623,30.6726469 15.2353445,26.2984376 15.1599549,21.6797394 C15.134825,20.2120674 15.35582,18.7901908 15.6832472,17.4059848 C12.7600537,20.955875 11.6247755,25.9003122 13.1673052,30.7258288 C14.9995673,36.4871987 20.0440162,40.2815778 25.5444981,40.710726 L26.2303954,41.9723183 L28.3708678,42.7272054 L25.2599395,44.2222071 L26.3604793,47.6797676 L30.7367698,49.5706788 L28.2710875,52.3671591 L29.1875881,55.4073897 L32.7353324,57.043471 L30.7064661,59.3938144 L31.9141774,63.1726822 L35.2209708,63.4149552 L36.0716903,65.3280254 L34.5335953,66.5615495 L34.6370712,66.7683679 L42.8589686,71.647805 L45.0918302,68.9192793 L35.802653,39.0547015 C34.909804,39.1972584 34.0051292,39.2785085 33.0841939,39.2785085 C28.3257819,39.2785085 23.8282768,37.3994156 20.4246596,33.9920823" id="Fill-4" fill="#CECCD0"></path>
                                <path d="M25.3168512,20.5688291 C23.5451964,18.8012704 23.5274577,16.0114378 25.2385052,14.3059246 C26.9613785,12.5922864 29.7470969,12.6151841 31.5120997,14.3864361 C33.2837545,16.1613812 33.3317969,18.9704183 31.6155756,20.6877497 C29.9023107,22.3969561 27.0811149,22.3467288 25.3168512,20.5688291 M22.8563427,31.5656592 C27.1328528,35.8475389 33.3502747,36.9126537 38.4368531,34.7735605 L39.6319995,35.5823682 L41.8796434,35.2721405 L39.7923871,38.023564 L42.3622844,40.5962372 L47.1192182,40.2727141 L46.2064132,43.8853885 L48.4156231,46.1736865 L52.3203592,46.001584 L51.5982454,49.0174395 L54.3994852,51.8242608 L57.4438933,50.5279525 L59.078073,51.836079 L58.2805697,53.6405696 L58.472,53.7794333 L68.0154322,54.3459681 L68.7434589,50.8957939 L45.4702562,27.2608819 C47.6713359,22.1820127 46.590013,16.4361542 42.3157203,12.1579677 C36.7635004,6.60046171 27.9037481,6.45864337 22.5414804,11.809331 C17.1489091,17.1873482 17.3063402,26.0111078 22.8563427,31.5656592" id="Fill-1" fill="#FFFFFF"></path>
                                <path d="M0,15.1331982 C0,21.572637 4.11981808,26.9624724 9.82281706,29.0978725 C9.76294887,28.6295765 9.70086335,28.1657124 9.65799477,27.6796891 C9.61216974,27.1345749 9.61808265,26.6138357 9.61956087,26.0923579 C5.55148073,24.0803102 2.71180706,19.9675785 2.71180706,15.1339369 C2.71180706,8.33034995 8.25072286,2.79500303 15.0586964,2.79500303 C21.8666699,2.79500303 27.4055857,8.32961131 27.4055857,15.1339369 C27.4055857,15.9538241 27.3021098,16.7441659 27.1409831,17.5182576 C27.2451981,18.0471219 27.5593213,18.5685997 28.3952585,18.7296226 C29.1506324,18.8751341 29.584492,18.4378609 29.8372688,17.9400195 C30.0139169,17.0314958 30.1173927,16.0956425 30.1173927,15.1339369 C30.1173927,6.83460969 23.3633745,0.0842046368 15.0586964,0.0842046368 C6.75475734,0.0842046368 0,6.83460969 0,15.1331982 Z" id="Fill-6" fill="#CECCD0"></path>
                            </g>
                        </g>
                        <g id="reset" transform="translate(66.000000, 65.000000)">
                            <circle id="Oval-12" fill="#1CB515" cx="17.5" cy="17.5" r="17.5"></circle>
                            <path d="M8.47714286,12.6360328 L11.2114286,14.2074614 C10.52,15.3703185 10.1428571,16.7217471 10.1428571,18.1360328 C10.1428571,22.4731757 13.6628571,25.9931757 18,25.9931757 C22.3371429,25.9931757 25.8571429,22.4731757 25.8571429,18.1360328 C25.8571429,13.9560328 22.5885714,10.5303185 18.4714286,10.2788899 L18.4714286,11.2217471 L18.4714286,12.0703185 C18.4714286,12.7617471 17.9685714,13.0446042 17.3714286,12.6988899 L15.6742857,11.7246042 C15.0771429,11.3788899 14.1028571,10.8131757 13.5057143,10.4674614 L11.8085714,9.49317565 C11.2114286,9.14746137 11.2114286,8.58174708 11.8085714,8.2360328 L13.5057143,7.26174708 C14.1028571,6.9160328 15.0771429,6.35031851 15.6742857,6.00460422 L17.3714286,5.06174708 C17.9685714,4.7160328 18.4714286,4.96746137 18.4714286,5.62746137 L18.4714286,7.1360328 C24.3171429,7.38746137 29,12.2274614 29,18.1360328 C29,24.2017471 24.0657143,29.1360328 18,29.1360328 C11.9342857,29.1360328 7,24.2017471 7,18.1360328 C7,16.1246042 7.53428571,14.2703185 8.47714286,12.6360328" id="rest-arrow" fill="#FFFFFF"></path>
                        </g>
                    </g>
                </g>
            </g>
        </g>
    </g>
</svg>
