<?xml version="1.0" encoding="utf-8"?>
<!-- Generator: Adobe Illustrator 17.1.0, SVG Export Plug-In . SVG Version: 6.00 Build 0)  -->
<!DOCTYPE svg PUBLIC "-//W3C//DTD SVG 1.1//EN" "http://www.w3.org/Graphics/SVG/1.1/DTD/svg11.dtd">
<svg version="1.1" id="Layer_1" xmlns="http://www.w3.org/2000/svg" xmlns:xlink="http://www.w3.org/1999/xlink" x="0px" y="0px"
	 viewBox="0 0 100 100" style="enable-background:new 0 0 100 100;" xml:space="preserve">
<g>
	<circle style="fill:#99D6ED;" cx="50" cy="50" r="50"/>
	<rect x="13.9" y="72" style="fill:#FFFFFF;" width="73" height="3"/>
	<rect x="20.9" y="34" style="fill:#DDD8DB;" width="58" height="32"/>
	<rect x="15.9" y="69" style="fill:#DDD8DB;" width="68" height="3"/>
	<rect x="17.9" y="66" style="fill:#FFFFFF;" width="64" height="3"/>
	<rect x="23.9" y="30" style="fill:#FFFFFF;" width="6" height="36"/>
	<rect x="32.9" y="30" style="fill:#FFFFFF;" width="6" height="36"/>
	<rect x="60.9" y="30" style="fill:#FFFFFF;" width="6" height="36"/>
	<rect x="69.9" y="30" style="fill:#FFFFFF;" width="6" height="36"/>
	<g>
		<defs>
			<circle id="SVGID_3_" cx="50" cy="50" r="50"/>
		</defs>
		<clipPath id="SVGID_1_">
			<use xlink:href="#SVGID_3_"  style="overflow:visible;"/>
		</clipPath>
		<rect x="-0.1" y="75" style="clip-path:url(#SVGID_1_);fill:#273C4A;" width="100" height="25"/>
	</g>
	<path style="fill:#FFFFFF;" d="M80.4,36h-61c-0.3,0-0.6-0.1-0.8-0.4l-2-2.7c-0.4-0.5-0.2-1.1,0.3-1.5l32.5-20.1
		c0.3-0.2,0.7-0.2,1.1,0L83,31.4c0.5,0.3,0.6,1,0.3,1.5l-2,2.7C81,35.9,80.8,36,80.4,36z"/>
	<circle style="fill:#008BC1;" cx="82" cy="82" r="18"/>
	<g>
		<path style="fill:#F3F3F3;" d="M82.2,86.4L79,89.5c-0.9,0.9-2.6,0.9-3.5,0l-0.7-0.7c-1-1-1-2.6,0-3.5l4.6-4.6
			c0.9-0.9,2.6-0.9,3.5,0l0.7,0.7c0.2,0.2,0.5,0.2,0.7,0c0.2-0.2,0.2-0.5,0-0.7L83.6,80c-1.3-1.3-3.6-1.3-4.9,0L74,84.6
			c-1.4,1.4-1.4,3.6,0,4.9l0.7,0.7c0.7,0.7,1.5,1,2.5,1c0.9,0,1.8-0.4,2.5-1l3.2-3.2c0.2-0.2,0.2-0.5,0-0.7
			C82.7,86.2,82.4,86.2,82.2,86.4z"/>
		<path style="fill:#F3F3F3;" d="M90.3,74.7L89.6,74c-1.3-1.3-3.6-1.3-4.9,0l-3.2,3.2c-0.2,0.2-0.2,0.5,0,0.7c0.2,0.2,0.5,0.2,0.7,0
			l3.2-3.2c0.9-0.9,2.6-0.9,3.5,0l0.7,0.7c0.5,0.5,0.7,1.1,0.7,1.8c0,0.7-0.3,1.3-0.7,1.8L85,83.5c-0.9,0.9-2.6,0.9-3.5,0
			c-0.2-0.2-0.5-0.2-0.7,0c-0.2,0.2-0.2,0.5,0,0.7c0.7,0.7,1.5,1,2.5,1c0.9,0,1.8-0.4,2.5-1l4.6-4.6c0.7-0.7,1-1.5,1-2.5
			C91.3,76.2,90.9,75.4,90.3,74.7z"/>
	</g>
	<rect x="43.9" y="46" style="fill:#C2C0C5;" width="12" height="20"/>
</g>
<g>
</g>
<g>
</g>
<g>
</g>
<g>
</g>
<g>
</g>
<g>
</g>
</svg>
