<?xml version="1.0" encoding="UTF-8" standalone="no"?>
<svg viewBox="0 0 100 100" version="1.1" xmlns="http://www.w3.org/2000/svg" xmlns:xlink="http://www.w3.org/1999/xlink">
    <!-- Generator: Sketch 40.1 (33804) - http://www.bohemiancoding.com/sketch -->
    <title>new user icon</title>
    <desc>Created with Sketch.</desc>
    <defs>
        <circle id="path-1" cx="50" cy="50" r="50"></circle>
    </defs>
    <g id="Change-Username" stroke="none" stroke-width="1" fill="none" fill-rule="evenodd">
        <g id="2-Change-Username---error" transform="translate(-670.000000, -25.000000)">
            <g id="Group" transform="translate(470.000000, 25.000000)">
                <g id="new-user-icon">
                    <g transform="translate(200.000000, 0.000000)">
                        <g id="Mask-+-Group-+-Group">
                            <g id="Group">
                                <mask id="mask-2" fill="white">
                                    <use xlink:href="#path-1"></use>
                                </mask>
                                <use id="Mask" fill="#008BC1" xlink:href="#path-1"></use>
                            </g>
                        </g>
                        <polyline id="Stroke-823" stroke="#FFFFFF" stroke-width="2" stroke-linejoin="round" fill="#FFFFFF" points="56.4285714 24 77 24 77 85.7314655 23 85.7314655 23 24 43 24"></polyline>
                        <g id="Stroke-824-+-Stroke-825" transform="translate(43.000000, 9.000000)">
                            <path d="M14,23.2758621 L0,23.2758621 L0,7.75862069 C0,3.27543103 1.16666667,0 7,0 C12.8333333,0 14,3.25991379 14,7.75862069 L14,23.2758621 L14,23.2758621 Z" id="Stroke-824" stroke="#E6E5E8" stroke-width="2" stroke-linejoin="round" fill="#E6E5E7"></path>
                            <path d="M10,8 C10,9.656 8.656,11 7,11 C5.341,11 4,9.656 4,8 C4,6.344 5.341,5 7,5 C8.656,5 10,6.344 10,8 L10,8 Z" id="Stroke-825" fill="#008BC1"></path>
                        </g>
                        <path d="M56,81 L68.8571429,81" id="Stroke-827" stroke="#231F1F" stroke-width="2"></path>
                        <path d="M49.9219814,77.7131163 L66.3412024,77.7131163 L66.3412024,68.3314088 C66.3412024,67.2558779 59.7919224,63.6584761 54.4257024,61.5084685 L54.4257024,57.244032 C54.4257024,57.244032 56.5357967,56.5285049 56.5357967,51.9040646 C58.0267219,51.9040646 58.6813326,47.6029953 56.6037704,47.6029953 C56.6037704,47.1483786 58.2473059,44.7893791 57.6080356,42.226395 C56.5357967,37.924535 45.8044146,37.924535 44.7303242,42.226395 C40.2120563,41.3002947 43.6580852,46.9831353 43.6580852,47.6029953 C41.5114914,47.6029953 42.1634571,51.9040646 43.6580852,51.9040646 C43.6580852,56.5285049 45.914971,57.244032 45.914971,57.244032 L45.914971,61.5084685 C40.5490155,63.6584761 34,67.2558779 34,68.3314088 L34,77.7131163 L49.9219814,77.7131163 L49.9219814,77.7131163 Z" id="Fill-13" fill="#89D0EA"></path>
                        <rect id="Rectangle-1" fill="#273641" x="22" y="68" width="56" height="19" rx="1"></rect>
                        <path d="M41.5,75 L58,75" id="Line" stroke="#C3C1C6" stroke-width="2" stroke-linecap="round" stroke-linejoin="round"></path>
                        <path d="M38,80 L62.5,80" id="Line-Copy" stroke="#C3C1C6" stroke-width="2" stroke-linecap="round" stroke-linejoin="round"></path>
                        <g id="mini-icon" transform="translate(68.000000, 68.000000)">
                            <ellipse id="Oval-2-Copy" fill="#37C438" cx="16" cy="16" rx="16" ry="16"></ellipse>
                            <g id="Stroke-2257-+-Stroke-2257-Copy" transform="translate(7.000000, 7.000000)" stroke="#FFFFFF" stroke-width="0.5" fill="#FFFFFF">
                                <path d="M17.4390944,2.1786113 L15.8252554,0.545221951 C15.4660767,0.18174065 14.9730119,0 14.4799471,0 C13.9868822,0 13.4941967,0.18174065 13.135018,0.545221951 L12.4617949,1.22665454 C12.4413137,1.24031354 12.4189362,1.24904013 12.4007307,1.26763155 C12.3825252,1.28584356 12.3734225,1.30860857 12.3597684,1.32947649 L10.940121,2.76594852 C10.9196399,2.77998694 10.896883,2.78871353 10.8786776,2.80730495 C10.8604721,2.82551696 10.8517486,2.84828197 10.8380945,2.86914989 L1.45734698,12.3606407 C1.4569677,12.3610201 1.45658842,12.3610201 1.45658842,12.3610201 L1.45582986,12.3625378 L1.26505171,12.5552815 C1.21498666,12.6061234 1.18009285,12.6698654 1.16378378,12.7396781 L0.010012136,17.7172472 C-0.0199510329,17.8470077 0.0183563096,17.9832184 0.111280061,18.0773137 C0.18372266,18.1501618 0.280818498,18.1900005 0.380569301,18.1900005 C0.409394628,18.1900005 0.438599236,18.1865858 0.467424563,18.1801357 L5.38707348,17.0126702 C5.45572327,16.9963553 5.51906313,16.9606901 5.56950746,16.9102276 L15.0788311,7.28859685 C15.1307926,7.27000543 15.1797198,7.24268742 15.2210614,7.20057215 C15.262403,7.1588363 15.2893319,7.1091327 15.3079166,7.05639377 L15.8047743,6.55404591 C15.8085671,6.55063116 15.8134977,6.54949291 15.8172905,6.54569874 C15.820704,6.54190458 15.8218419,6.53697216 15.8252554,6.53317799 L16.600505,5.74892345 C16.6524664,5.73033203 16.7013936,5.70301402 16.7431145,5.66089875 C16.7840768,5.61878349 16.811385,5.56907988 16.8295905,5.51672037 L16.8910339,5.45449601 C16.895206,5.45108126 16.8997574,5.44956359 16.9035502,5.44652826 C16.9069637,5.44273409 16.9081016,5.43818109 16.9111358,5.43438692 L17.4390944,4.89978864 C18.1809673,4.1493022 18.1809673,2.92833891 17.4390944,2.1786113 L17.4390944,2.1786113 Z M1.79149321,13.4028987 L4.73167657,16.3775264 L0.890701734,17.2888856 L1.79149321,13.4028987 L1.79149321,13.4028987 Z M5.39655549,15.9962126 C5.3787293,15.960168 5.35976527,15.9241234 5.32980211,15.8945289 L2.28607513,12.8151821 C2.25042276,12.778758 2.20870189,12.7521989 2.16508462,12.7336074 L11.1582074,3.63405417 L14.3862647,6.90007404 L5.39655549,15.9962126 L5.39655549,15.9962126 Z M15.2866769,5.99023254 C15.2798499,5.99630321 15.2734021,6.00313271 15.2665751,6.0095828 L14.9240847,6.35599034 L11.6964066,3.08997047 L12.6798812,2.09438077 L15.9083179,5.36078006 L15.2866769,5.99023254 L15.2866769,5.99023254 Z M16.9012745,4.35570494 L16.4461378,4.81631694 L13.2177011,1.55029707 L13.6728379,1.08968507 C13.8738566,0.88631766 14.1681784,0.7698367 14.4799471,0.7698367 C14.792095,0.7698367 15.0864168,0.88631766 15.2874355,1.08968507 L16.9016538,2.722695 C17.1163266,2.94010083 17.2350415,3.22997527 17.2350415,3.53882055 C17.2350415,3.84804525 17.1163266,4.13791969 16.9012745,4.35570494 L16.9012745,4.35570494 Z" id="icons/stroked/pencil"></path>
                            </g>
                        </g>
                    </g>
                </g>
            </g>
        </g>
    </g>
</svg>
