<?xml version="1.0" encoding="utf-8"?>
<!-- Generator: Adobe Illustrator 17.1.0, SVG Export Plug-In . SVG Version: 6.00 Build 0)  -->
<!DOCTYPE svg PUBLIC "-//W3C//DTD SVG 1.1//EN" "http://www.w3.org/Graphics/SVG/1.1/DTD/svg11.dtd">
<svg version="1.1" id="Layer_1" xmlns="http://www.w3.org/2000/svg" xmlns:xlink="http://www.w3.org/1999/xlink" x="0px" y="0px"
	 viewBox="0 0 100 100" style="enable-background:new 0 0 100 100;" xml:space="preserve">
<g>
	<g>
		<path style="fill:#FFFFFF;" d="M73.7,78l5.6,3.8c0.3,0.2,0.7,0,0.7-0.4v-1.9v-0.5c0.1,0,0.3,0,0.5,0l0,0c0,0,0.5,0,0.6,0
			c0.1,0,0.1,0,0.2,0c0.1,0,0.3,0,0.5,0c0.1,0,0.2,0,0.2,0c0.2,0,0.3,0,0.5,0c0.1,0,0.1,0,0.2,0c0.3,0,0.5,0,0.8,0c0,0,0.1,0,0.1,0
			c0.2,0,0.5,0,0.7,0c0.1,0,0.2,0,0.3,0c0.2,0,0.4,0,0.6,0.1c0.1,0,0.2,0,0.3,0c0.2,0,0.5,0,0.7,0.1c0.1,0,0.1,0,0.2,0
			c0.3,0,0.6,0.1,0.9,0.1c0.1,0,0.1,0,0.2,0c0.2,0,0.4,0.1,0.6,0.1c0.1,0,0.2,0,0.3,0.1c0.2,0,0.4,0.1,0.6,0.1c0.1,0,0.2,0,0.3,0.1
			c0.2,0.1,0.5,0.1,0.7,0.2c0,0,0,0,0.1,0c0.3,0.1,0.5,0.2,0.7,0.2c0.1,0,0.1,0.1,0.2,0.1c0.2,0.1,0.3,0.1,0.5,0.2
			c0.1,0,0.1,0.1,0.2,0.1c0.3,0.2,0.6,0.3,0.9,0.5c0.2,0.2,0.4,0.1,0.4-0.1c-0.1-0.3-0.2-0.6-0.4-1c-0.1-0.2-0.2-0.4-0.4-0.6
			c0,0,0,0,0-0.1c-0.2-0.2-0.3-0.4-0.5-0.6c-0.1-0.1-0.1-0.1-0.2-0.2c-0.1-0.1-0.3-0.3-0.4-0.4c-0.1-0.1-0.2-0.1-0.2-0.2
			c-0.1-0.1-0.3-0.3-0.4-0.4c-0.1-0.1-0.2-0.1-0.3-0.2c-0.2-0.1-0.3-0.2-0.5-0.4c-0.1-0.1-0.2-0.1-0.3-0.2c-0.2-0.1-0.5-0.3-0.7-0.4
			c0,0-0.1,0-0.1-0.1c-0.3-0.2-0.6-0.3-0.9-0.4c-0.1,0-0.2-0.1-0.3-0.1c-0.2-0.1-0.4-0.2-0.6-0.3c-0.1,0-0.2-0.1-0.3-0.1
			c-0.2-0.1-0.4-0.2-0.6-0.2c-0.1,0-0.2-0.1-0.4-0.1c-0.2-0.1-0.4-0.1-0.6-0.2c-0.1,0-0.2-0.1-0.3-0.1c-0.3-0.1-0.5-0.1-0.8-0.2
			c0,0-0.1,0-0.1,0c-0.3-0.1-0.6-0.1-0.9-0.2c-0.1,0-0.2,0-0.3,0c-0.2,0-0.4-0.1-0.7-0.1c-0.1,0-0.2,0-0.3,0c-0.3,0-1,0-1.2-0.1
			v-0.5v-1.9c0-0.4-0.5-0.6-0.8-0.4l-6,4.8l-0.7,0.5c-0.3,0.2-0.3,0.6,0,0.8L73.7,78z"/>
		<path style="fill:#FFFFFF;" d="M92.6,87.8l-1-0.6l-5.8-3.8c-0.3-0.2-0.7,0-0.7,0.4v1.9v0.5c-0.1,0-0.3,0-0.5,0l0,0
			c0,0-0.1,0-0.1,0c-0.1,0-0.1,0-0.2,0c-0.1,0-0.5,0-0.7,0c-0.1,0-0.2,0-0.2,0c-0.2,0-0.3,0-0.5,0c-0.1,0-0.1,0-0.2,0
			c-0.3,0-0.5,0-0.8,0c0,0-0.1,0-0.1,0c-0.2,0-0.5,0-0.7,0c-0.1,0-0.2,0-0.3,0c-0.2,0-0.4,0-0.6-0.1c-0.1,0-0.2,0-0.3,0
			c-0.2,0-0.5,0-0.7-0.1c-0.1,0-0.1,0-0.2,0c-0.3,0-0.6-0.1-0.9-0.1c-0.1,0-0.1,0-0.2,0c-0.2,0-0.4-0.1-0.6-0.1
			c-0.1,0-0.2,0-0.3-0.1c-0.2,0-0.4-0.1-0.6-0.1c-0.1,0-0.2,0-0.3-0.1c-0.2-0.1-0.5-0.1-0.7-0.2c0,0,0,0-0.1,0
			c-0.3-0.1-0.5-0.2-0.7-0.2c-0.1,0-0.1-0.1-0.2-0.1c-0.2-0.1-0.3-0.1-0.5-0.2c-0.1,0-0.1-0.1-0.2-0.1c-0.3-0.2-0.6-0.3-0.9-0.5
			c-0.2-0.2-0.4-0.1-0.4,0.1c0.1,0.3,0.2,0.6,0.4,1c0.1,0.2,0.2,0.4,0.4,0.6c0,0,0,0,0,0.1c0.2,0.2,0.3,0.4,0.5,0.6
			c0.1,0.1,0.1,0.1,0.2,0.2c0.1,0.1,0.3,0.3,0.4,0.4c0.1,0.1,0.2,0.1,0.2,0.2c0.1,0.1,0.3,0.3,0.4,0.4c0.1,0.1,0.2,0.1,0.3,0.2
			c0.2,0.1,0.3,0.2,0.5,0.4c0.1,0.1,0.2,0.1,0.3,0.2c0.2,0.1,0.5,0.3,0.7,0.4c0,0,0.1,0,0.1,0.1c0.3,0.2,0.6,0.3,0.9,0.4
			c0.1,0,0.2,0.1,0.3,0.1c0.2,0.1,0.4,0.2,0.6,0.3c0.1,0,0.2,0.1,0.3,0.1c0.2,0.1,0.4,0.2,0.6,0.2c0.1,0,0.2,0.1,0.4,0.1
			c0.2,0.1,0.4,0.1,0.6,0.2c0.1,0,0.2,0.1,0.3,0.1c0.3,0.1,0.5,0.1,0.8,0.2c0,0,0.1,0,0.1,0c0.3,0.1,0.6,0.1,0.9,0.2
			c0.1,0,0.2,0,0.3,0c0.2,0,0.4,0.1,0.7,0.1c0.1,0,0.5,0,0.6,0c0.3,0,0.5,0,0.8,0.1v0.5v1.9c0,0.4,0.5,0.6,0.8,0.4l6.2-4.8l0.7-0.5
			C93,88.4,92.9,88,92.6,87.8z"/>
	</g>
	<circle style="fill:#99D6ED;" cx="50" cy="50" r="50"/>
	<rect x="11" y="36" style="fill-rule:evenodd;clip-rule:evenodd;fill:#1B8140;" width="72" height="34"/>
	<rect x="14" y="33" style="fill-rule:evenodd;clip-rule:evenodd;fill:#19A249;" width="72" height="34"/>
	<rect x="17" y="30" style="fill-rule:evenodd;clip-rule:evenodd;fill:#4EB748;" width="72" height="34"/>
	<ellipse style="fill-rule:evenodd;clip-rule:evenodd;fill:#1A9847;" cx="77" cy="47" rx="6" ry="7"/>
	<ellipse style="fill-rule:evenodd;clip-rule:evenodd;fill:#1A9847;" cx="29" cy="47" rx="6" ry="7"/>
	<path style="fill-rule:evenodd;clip-rule:evenodd;fill:#1A9847;" d="M41,48c0,8.3,5.6,15,12.5,15S65,56.3,65,48s-4.6-15-11.5-15
		S41,39.7,41,48z"/>
	<g>
		<path style="fill:#4EB748;" d="M47.6,52.4c0,0,0.8-0.2,2.7-0.4c0.3-0.5,0.4-1.2,0.4-1.8c-1.4-1-2.4-2.8-2.4-4.9
			c0-3.2,0.4-5.3,4.6-5.3h0.4c4.2,0,4.6,2.2,4.6,5.3c0,2.1-1,3.9-2.4,4.9c0,0.6,0.2,1.3,0.4,1.8c2.1,0.1,2.7,0.4,2.7,0.4
			c2,0.7,5.6,3.1,6.2,10.3l-13.1,0.7L42,63C42,57.4,44.8,53.1,47.6,52.4z"/>
	</g>
	<circle style="fill:#008BC1;" cx="82" cy="82" r="18"/>
	<g>
		<path style="fill:#FFFFFF;" d="M79.7,82c0.1,0.1,0.2,0.1,0.3,0.1c0.1,0,0.2,0,0.2-0.1c0.2-0.1,0.3-0.3,0.3-0.4v-2.8
			c5,0,10.4,0.8,11.6,2.6c0.1,0.2,0.4,0.3,0.6,0.2c0.2-0.1,0.3-0.3,0.3-0.5c-0.7-4.4-7.1-7.7-12.5-8.1V70c0-0.2-0.1-0.4-0.3-0.4
			c-0.2-0.1-0.4-0.1-0.5,0l-8.5,6.3C71.1,76,71,76.2,71,76.3s0.1,0.3,0.2,0.4L79.7,82z M79.5,71v2.4c0,0.3,0.2,0.5,0.5,0.5
			c4.5,0.2,9.8,2.6,11.5,5.7c-3.2-1.7-9.8-1.8-11.2-1.8l-0.3,0c-0.3,0-0.5,0.2-0.5,0.5v2.4l-7.1-4.4L79.5,71z"/>
		<path style="fill:#FFFFFF;" d="M92.8,86.9l-8.5-5.3c-0.2-0.1-0.3-0.1-0.5,0c-0.2,0.1-0.3,0.3-0.3,0.4v2.8c-5,0-10.4-0.8-11.6-2.6
			c-0.1-0.2-0.4-0.3-0.6-0.2c-0.2,0.1-0.3,0.3-0.3,0.5c0.7,4.4,7.1,7.7,12.5,8.1v2.9c0,0.2,0.1,0.4,0.3,0.4c0.1,0,0.1,0.1,0.2,0.1
			c0.1,0,0.2,0,0.3-0.1l8.5-6.3c0.1-0.1,0.2-0.3,0.2-0.4S92.9,87,92.8,86.9z M84.5,92.7v-2.4c0-0.3-0.2-0.5-0.5-0.5
			c-4.5-0.2-9.8-2.6-11.5-5.7c3.2,1.7,9.8,1.8,11.2,1.8l0.3,0c0.3,0,0.5-0.2,0.5-0.5V83l7.1,4.4L84.5,92.7z"/>
	</g>
</g>
<g>
</g>
<g>
</g>
<g>
</g>
<g>
</g>
<g>
</g>
<g>
</g>
</svg>
