<svg xmlns="http://www.w3.org/2000/svg" viewBox="0 0 102 102"><defs><style>.a{fill:#004879;}.b{fill:#ceccd0;}.c{fill:#fff;}.d{fill:#1cb515;}</style></defs><title>modal-icon-change-password</title><path class="a" d="M51 102a51 51 0 1 1 51-51 51 51 0 0 1-51 51z"/><path class="b" d="M41.89 39.25A18.12 18.12 0 0 1 47 26.57a17.57 17.57 0 0 1 3.46-2.71A14.39 14.39 0 0 0 39 31.66a14.55 14.55 0 0 0 1.73 16.13l-.42 1.4 1 2.09L38 50.11l-1.7 3.29 1.79 4.52-3.8.24L32.76 61l1.38 3.74L31 65l-1.85 3.6 2.21 2.56-.77 2-2-.22-.07.22 2.41 9.45 3.58-.36L49.33 54a17.55 17.55 0 0 1-2.12-1.8 18.16 18.16 0 0 1-5.32-12.94"/><path class="c" d="M55.1 33.09a4.47 4.47 0 1 1 4.46 4.63 4.5 4.5 0 0 1-4.46-4.63m-9.71 6.16a14.56 14.56 0 0 0 8.93 13.55l.28 1.45 1.84 1.4-3.44.47v3.71L56.61 63l-3.26 2-.06 3.24 2.94 2.69-2.7 1.65v4l3.13 1.26.24 2.16-1.9.72v.24l6.47 7.29 3-2 .26-33.83a13.68 13.68 0 0 0 8.62-13.17 14 14 0 1 0-28 0"/><path class="b" d="M40.76 10.91a15.24 15.24 0 0 0-3 17.16c.29-.38.58-.76.9-1.14s.74-.8 1.12-1.17a12.54 12.54 0 1 1 20.73 4.92 11.88 11.88 0 0 1-1.91 1.53 1.47 1.47 0 0 0 0 1.78 1.29 1.29 0 0 0 1.61.47 15 15 0 0 0 2.23-1.82 15.36 15.36 0 0 0-21.68-21.73z"/><circle class="d" cx="84.15" cy="84.15" r="17.85"/><path class="c" d="M74.95 79.19l2.79 1.6a7.83 7.83 0 0 0-1.09 4 8 8 0 1 0 8.5-8v1.83a.68.68 0 0 1-1.12.64l-1.73-1L80.08 77l-1.73-1a.68.68 0 0 1 0-1.28l1.73-1 2.21-1.28 1.73-1c.61-.35 1.12-.1 1.12.58v1.54a11.23 11.23 0 1 1-11.7 11.24 11.13 11.13 0 0 1 1.51-5.61"/></svg>