<?xml version="1.0" encoding="UTF-8" standalone="no"?>
<svg width="100px" height="100px" viewBox="0 0 100 100" version="1.1" xmlns="http://www.w3.org/2000/svg" xmlns:xlink="http://www.w3.org/1999/xlink">
    <!-- Generator: Sketch 41.2 (35397) - http://www.bohemiancoding.com/sketch -->
    <title>Artboard</title>
    <desc>Created with Sketch.</desc>
    <defs>
        <path d="M100.8858,50 C100.8858,77.614 78.4998,100 50.8858,100 C23.2718,100 0.8858,77.614 0.8858,50 C0.8858,22.386 23.2718,0 50.8858,0 C78.4998,0 100.8858,22.386 100.8858,50" id="path-1"></path>
        <polygon id="path-3" points="0 77 77 77 77 0 0 0"></polygon>
    </defs>
    <g id="Page-1" stroke="none" stroke-width="1" fill="none" fill-rule="evenodd">
        <g id="Artboard">
            <g id="Group" transform="translate(-1.000000, 0.000000)">
                <circle id="Oval" fill="#D8D8D8" cx="51" cy="50" r="50"></circle>
                <mask id="mask-2" fill="white">
                    <use xlink:href="#path-1"></use>
                </mask>
                <use id="Mask" fill="#019ED5" xlink:href="#path-1"></use>
                <g id="Page-1" mask="url(#mask-2)">
                    <g transform="translate(-2.000000, -6.000000)">
                        <mask id="mask-4" fill="white">
                            <use xlink:href="#path-3"></use>
                        </mask>
                        <g id="Clip-4" stroke="none" fill="none"></g>
                        <polygon id="Fill-3" stroke="none" fill="#FFFFFF" fill-rule="evenodd" mask="url(#mask-4)" points="13.86 77 63.14 77 63.14 15.4 13.86 15.4"></polygon>
                        <path d="M59.29,31.57 L17.71,31.57 C17.28496,31.57 16.94,31.22504 16.94,30.8 C16.94,30.37496 17.28496,30.03 17.71,30.03 L59.29,30.03 C59.71504,30.03 60.06,30.37496 60.06,30.8 C60.06,31.22504 59.71504,31.57 59.29,31.57" id="Fill-5" stroke="none" fill="#C9CED2" fill-rule="evenodd" mask="url(#mask-4)"></path>
                        <path d="M37.73,25.41 L17.71,25.41 C17.28496,25.41 16.94,25.06504 16.94,24.64 C16.94,24.21496 17.28496,23.87 17.71,23.87 L37.73,23.87 C38.15504,23.87 38.5,24.21496 38.5,24.64 C38.5,25.06504 38.15504,25.41 37.73,25.41" id="Fill-6" stroke="none" fill="#C9CED2" fill-rule="evenodd" mask="url(#mask-4)"></path>
                        <path d="M31.57,21.56 L17.71,21.56 C17.28496,21.56 16.94,21.21504 16.94,20.79 C16.94,20.36496 17.28496,20.02 17.71,20.02 L31.57,20.02 C31.99504,20.02 32.34,20.36496 32.34,20.79 C32.34,21.21504 31.99504,21.56 31.57,21.56" id="Fill-7" stroke="none" fill="#C9CED2" fill-rule="evenodd" mask="url(#mask-4)"></path>
                        <path d="M56.21,35.42 L17.71,35.42 C17.28496,35.42 16.94,35.07504 16.94,34.65 C16.94,34.22496 17.28496,33.88 17.71,33.88 L56.21,33.88 C56.63504,33.88 56.98,34.22496 56.98,34.65 C56.98,35.07504 56.63504,35.42 56.21,35.42" id="Fill-8" stroke="none" fill="#C9CED2" fill-rule="evenodd" mask="url(#mask-4)"></path>
                        <path d="M57.75,39.27 L17.71,39.27 C17.28496,39.27 16.94,38.92504 16.94,38.5 C16.94,38.07496 17.28496,37.73 17.71,37.73 L57.75,37.73 C58.17504,37.73 58.52,38.07496 58.52,38.5 C58.52,38.92504 58.17504,39.27 57.75,39.27" id="Fill-9" stroke="none" fill="#C9CED2" fill-rule="evenodd" mask="url(#mask-4)"></path>
                        <path d="M50.05,43.12 L17.71,43.12 C17.28496,43.12 16.94,42.77504 16.94,42.35 C16.94,41.92496 17.28496,41.58 17.71,41.58 L50.05,41.58 C50.47504,41.58 50.82,41.92496 50.82,42.35 C50.82,42.77504 50.47504,43.12 50.05,43.12" id="Fill-10" stroke="none" fill="#C9CED2" fill-rule="evenodd" mask="url(#mask-4)"></path>
                        <path d="M56.21,49.28 L17.71,49.28 C17.28496,49.28 16.94,48.93504 16.94,48.51 C16.94,48.08496 17.28496,47.74 17.71,47.74 L56.21,47.74 C56.63504,47.74 56.98,48.08496 56.98,48.51 C56.98,48.93504 56.63504,49.28 56.21,49.28" id="Fill-11" stroke="none" fill="#C9CED2" fill-rule="evenodd" mask="url(#mask-4)"></path>
                        <path d="M58.52,53.13 L17.71,53.13 C17.28496,53.13 16.94,52.78504 16.94,52.36 L16.94,52.36 C16.94,51.93496 17.28496,51.59 17.71,51.59 L58.52,51.59 C58.94504,51.59 59.29,51.93496 59.29,52.36 L59.29,52.36 C59.29,52.78504 58.94504,53.13 58.52,53.13" id="Fill-12" stroke="none" fill="#C9CED2" fill-rule="evenodd" mask="url(#mask-4)"></path>
                        <path d="M57.75,56.98 L17.71,56.98 C17.28496,56.98 16.94,56.63504 16.94,56.21 L16.94,56.21 C16.94,55.78496 17.28496,55.44 17.71,55.44 L57.75,55.44 C58.17504,55.44 58.52,55.78496 58.52,56.21 L58.52,56.21 C58.52,56.63504 58.17504,56.98 57.75,56.98" id="Fill-13" stroke="none" fill="#C9CED2" fill-rule="evenodd" mask="url(#mask-4)"></path>
                        <path d="M50.05,60.83 L17.71,60.83 C17.28496,60.83 16.94,60.48504 16.94,60.06 L16.94,60.06 C16.94,59.63496 17.28496,59.29 17.71,59.29 L50.05,59.29 C50.47504,59.29 50.82,59.63496 50.82,60.06 L50.82,60.06 C50.82,60.48504 50.47504,60.83 50.05,60.83" id="Fill-14" stroke="none" fill="#C9CED2" fill-rule="evenodd" mask="url(#mask-4)"></path>
                        <path d="M26.95,64.68 L17.71,64.68 C17.28496,64.68 16.94,64.33504 16.94,63.91 L16.94,63.91 C16.94,63.48496 17.28496,63.14 17.71,63.14 L26.95,63.14 C27.37504,63.14 27.72,63.48496 27.72,63.91 L27.72,63.91 C27.72,64.33504 27.37504,64.68 26.95,64.68" id="Fill-15" stroke="none" fill="#C9CED2" fill-rule="evenodd" mask="url(#mask-4)"></path>
                    </g>
                </g>
                <g id="Page-1" mask="url(#mask-2)">
                    <g transform="translate(51.000000, 31.000000)">
                        <path d="M35.6966873,66 L5.87850545,66 C2.99657818,66 0.660323636,63.6495 0.660323636,60.75 L0.660323636,5.25 C0.660323636,2.3505 2.99657818,0 5.87850545,0 L35.6966873,0 C38.5786145,0 40.9148691,2.3505 40.9148691,5.25 L40.9148691,60.75 C40.9148691,63.6495 38.5786145,66 35.6966873,66" id="Fill-3" fill="#344653"></path>
                        <g id="Group-10" stroke-width="1" fill="none" transform="translate(2.236364, 3.750000)">
                            <polygon id="Fill-5" fill="#009FD6" points="0.660472727 51.75 36.4422909 51.75 36.4422909 5.25 0.660472727 5.25"></polygon>
                            <path d="M23.02396,1.5 L14.0785055,1.5 C13.6670145,1.5 13.3330509,1.164 13.3330509,0.75 C13.3330509,0.336 13.6670145,0 14.0785055,0 L23.02396,0 C23.4354509,0 23.7694145,0.336 23.7694145,0.75 C23.7694145,1.164 23.4354509,1.5 23.02396,1.5" id="Fill-7" fill="#737F89"></path>
                            <path d="M15.5694145,57 C15.5694145,55.34325 16.9045236,54 18.5512327,54 C20.1979418,54 21.5330509,55.34325 21.5330509,57 C21.5330509,58.65675 20.1979418,60 18.5512327,60 C16.9045236,60 15.5694145,58.65675 15.5694145,57" id="Fill-8" fill="#737F89"></path>
                        </g>
                        <g id="Page-1" stroke-width="1" fill="none" transform="translate(2.981818, 9.000000)">
                            <polygon id="Fill-3" fill="#FFFFFF" points="-3.55271368e-15 46.5 35.7818182 46.5 35.7818182 0 -3.55271368e-15 0"></polygon>
                            <path d="M33.8028646,13.3935246 L3.43943599,13.3935246 C3.12905428,13.3935246 2.87715028,13.1305633 2.87715028,12.8065574 C2.87715028,12.4825515 3.12905428,12.2195902 3.43943599,12.2195902 L33.8028646,12.2195902 C34.1132463,12.2195902 34.3651503,12.4825515 34.3651503,12.8065574 C34.3651503,13.1305633 34.1132463,13.3935246 33.8028646,13.3935246" id="Fill-5" fill="#C9CED2"></path>
                            <path d="M18.0588646,8.69778689 L3.43943599,8.69778689 C3.12905428,8.69778689 2.87715028,8.43482557 2.87715028,8.11081967 C2.87715028,7.78681377 3.12905428,7.52385246 3.43943599,7.52385246 L18.0588646,7.52385246 C18.3692463,7.52385246 18.6211503,7.78681377 18.6211503,8.11081967 C18.6211503,8.43482557 18.3692463,8.69778689 18.0588646,8.69778689" id="Fill-6" fill="#C9CED2"></path>
                            <path d="M13.5605788,5.76295082 L3.43943599,5.76295082 C3.12905428,5.76295082 2.87715028,5.49998951 2.87715028,5.17598361 C2.87715028,4.8519777 3.12905428,4.58901639 3.43943599,4.58901639 L13.5605788,4.58901639 C13.8709606,4.58901639 14.1228646,4.8519777 14.1228646,5.17598361 C14.1228646,5.49998951 13.8709606,5.76295082 13.5605788,5.76295082" id="Fill-7" fill="#C9CED2"></path>
                            <path d="M31.5537217,16.3283607 L3.43943599,16.3283607 C3.12905428,16.3283607 2.87715028,16.0653993 2.87715028,15.7413934 C2.87715028,15.4173875 3.12905428,15.1544262 3.43943599,15.1544262 L31.5537217,15.1544262 C31.8641034,15.1544262 32.1160074,15.4173875 32.1160074,15.7413934 C32.1160074,16.0653993 31.8641034,16.3283607 31.5537217,16.3283607" id="Fill-8" fill="#C9CED2"></path>
                            <path d="M32.6782931,19.2631967 L3.43943599,19.2631967 C3.12905428,19.2631967 2.87715028,19.0002354 2.87715028,18.6762295 C2.87715028,18.3522236 3.12905428,18.0892623 3.43943599,18.0892623 L32.6782931,18.0892623 C32.9886748,18.0892623 33.2405788,18.3522236 33.2405788,18.6762295 C33.2405788,19.0002354 32.9886748,19.2631967 32.6782931,19.2631967" id="Fill-9" fill="#C9CED2"></path>
                            <path d="M27.055436,22.1980328 L3.43943599,22.1980328 C3.12905428,22.1980328 2.87715028,21.9350715 2.87715028,21.6110656 C2.87715028,21.2870597 3.12905428,21.0240984 3.43943599,21.0240984 L27.055436,21.0240984 C27.3658177,21.0240984 27.6177217,21.2870597 27.6177217,21.6110656 C27.6177217,21.9350715 27.3658177,22.1980328 27.055436,22.1980328" id="Fill-10" fill="#C9CED2"></path>
                            <path d="M31.5537217,26.8937705 L3.43943599,26.8937705 C3.12905428,26.8937705 2.87715028,26.6308092 2.87715028,26.3068033 C2.87715028,25.9827974 3.12905428,25.7198361 3.43943599,25.7198361 L31.5537217,25.7198361 C31.8641034,25.7198361 32.1160074,25.9827974 32.1160074,26.3068033 C32.1160074,26.6308092 31.8641034,26.8937705 31.5537217,26.8937705" id="Fill-11" fill="#C9CED2"></path>
                            <path d="M33.2405788,29.8286066 L3.43943599,29.8286066 C3.12905428,29.8286066 2.87715028,29.5656452 2.87715028,29.2416393 L2.87715028,29.2416393 C2.87715028,28.9176334 3.12905428,28.6546721 3.43943599,28.6546721 L33.2405788,28.6546721 C33.5509606,28.6546721 33.8028646,28.9176334 33.8028646,29.2416393 L33.8028646,29.2416393 C33.8028646,29.5656452 33.5509606,29.8286066 33.2405788,29.8286066" id="Fill-12" fill="#C9CED2"></path>
                            <path d="M32.6782931,32.7634426 L3.43943599,32.7634426 C3.12905428,32.7634426 2.87715028,32.5004813 2.87715028,32.1764754 L2.87715028,32.1764754 C2.87715028,31.8524695 3.12905428,31.5895082 3.43943599,31.5895082 L32.6782931,31.5895082 C32.9886748,31.5895082 33.2405788,31.8524695 33.2405788,32.1764754 L33.2405788,32.1764754 C33.2405788,32.5004813 32.9886748,32.7634426 32.6782931,32.7634426" id="Fill-13" fill="#C9CED2"></path>
                            <path d="M27.055436,35.6982787 L3.43943599,35.6982787 C3.12905428,35.6982787 2.87715028,35.4353174 2.87715028,35.1113115 L2.87715028,35.1113115 C2.87715028,34.7873056 3.12905428,34.5243443 3.43943599,34.5243443 L27.055436,34.5243443 C27.3658177,34.5243443 27.6177217,34.7873056 27.6177217,35.1113115 L27.6177217,35.1113115 C27.6177217,35.4353174 27.3658177,35.6982787 27.055436,35.6982787" id="Fill-14" fill="#C9CED2"></path>
                            <path d="M10.1868646,38.6331148 L3.43943599,38.6331148 C3.12905428,38.6331148 2.87715028,38.3701534 2.87715028,38.0461475 L2.87715028,38.0461475 C2.87715028,37.7221416 3.12905428,37.4591803 3.43943599,37.4591803 L10.1868646,37.4591803 C10.4972463,37.4591803 10.7491503,37.7221416 10.7491503,38.0461475 L10.7491503,38.0461475 C10.7491503,38.3701534 10.4972463,38.6331148 10.1868646,38.6331148" id="Fill-15" fill="#C9CED2"></path>
                        </g>
                    </g>
                </g>
                <path d="M48.1093903,70.6046933 L46.3793903,69.5236933 L36.5603903,63.1256933 C36.0133903,62.7846933 35.3053903,63.1776933 35.3053903,63.8216933 L35.3053903,67.0876933 L35.3053903,67.9076933 C35.0573903,67.9096933 34.7763903,67.9076933 34.4943903,67.9066933 C34.4943903,67.9066933 34.4893903,67.9076933 34.4863903,67.9076933 C34.4433903,67.9076933 34.3933903,67.9066933 34.3493903,67.9056933 C34.2393903,67.9046933 34.1233903,67.9036933 34.0083903,67.9016933 C33.7613903,67.8986933 33.0853903,67.8946933 32.8183903,67.8886933 C32.6823903,67.8856933 32.5473903,67.8826933 32.4073903,67.8786933 C32.1223903,67.8706933 31.8273903,67.8606933 31.5253903,67.8496933 C31.3983903,67.8446933 31.2763903,67.8406933 31.1463903,67.8356933 C30.7173903,67.8176933 30.2763903,67.7956933 29.8223903,67.7696933 C29.7433903,67.7646933 29.6613903,67.7586933 29.5813903,67.7536933 C29.2043903,67.7306933 28.8223903,67.7056933 28.4333903,67.6756933 C28.2743903,67.6636933 28.1153903,67.6506933 27.9543903,67.6376933 C27.6243903,67.6106933 27.2933903,67.5816933 26.9583903,67.5496933 C26.7933903,67.5336933 26.6293903,67.5186933 26.4633903,67.5016933 C26.0793903,67.4626933 25.6933903,67.4186933 25.3073903,67.3726933 C25.1973903,67.3596933 25.0883903,67.3486933 24.9783903,67.3346933 C24.4893903,67.2736933 24.0013903,67.2046933 23.5163903,67.1306933 C23.3913903,67.1126933 23.2693903,67.0906933 23.1453903,67.0706933 C22.7833903,67.0126933 22.4243903,66.9516933 22.0693903,66.8856933 C21.9053903,66.8556933 21.7433903,66.8236933 21.5813903,66.7916933 C21.2533903,66.7266933 20.9303903,66.6576933 20.6103903,66.5856933 C20.4623903,66.5526933 20.3133903,66.5196933 20.1673903,66.4846933 C19.7493903,66.3846933 19.3413903,66.2776933 18.9463903,66.1636933 C18.9113903,66.1536933 18.8753903,66.1456933 18.8423903,66.1356933 C18.4183903,66.0116933 18.0143903,65.8766933 17.6233903,65.7356933 C17.5063903,65.6926933 17.3973903,65.6476933 17.2823903,65.6036933 C17.0113903,65.4986933 16.7493903,65.3896933 16.4983903,65.2746933 C16.3773903,65.2196933 16.2603903,65.1646933 16.1443903,65.1066933 C15.5813903,64.8286933 15.0783903,64.5236933 14.6553903,64.1906933 C14.2833903,63.8986933 13.8983903,64.0366933 14.0243903,64.4226933 C14.2043903,64.9726933 14.4423903,65.5106933 14.7283903,66.0356933 C14.9083903,66.3656933 15.1043903,66.6926933 15.3243903,67.0106933 C15.3473903,67.0446933 15.3653903,67.0806933 15.3883903,67.1136933 C15.6513903,67.4866933 15.9443903,67.8496933 16.2563903,68.2056933 C16.3513903,68.3146933 16.4583903,68.4196933 16.5583903,68.5266933 C16.7853903,68.7696933 17.0183903,69.0116933 17.2663903,69.2456933 C17.3983903,69.3696933 17.5353903,69.4916933 17.6723903,69.6126933 C17.9123903,69.8256933 18.1593903,70.0356933 18.4153903,70.2396933 C18.5633903,70.3576933 18.7113903,70.4756933 18.8633903,70.5906933 C19.1383903,70.7976933 19.4233903,70.9986933 19.7133903,71.1966933 C19.8573903,71.2956933 19.9983903,71.3956933 20.1453903,71.4916933 C20.5283903,71.7406933 20.9233903,71.9806933 21.3263903,72.2126933 C21.3893903,72.2486933 21.4483903,72.2876933 21.5113903,72.3226933 C21.9803903,72.5876933 22.4633903,72.8386933 22.9543903,73.0796933 C23.1023903,73.1526933 23.2553903,73.2186933 23.4043903,73.2896933 C23.7553903,73.4546933 24.1093903,73.6156933 24.4693903,73.7676933 C24.6543903,73.8466933 24.8433903,73.9216933 25.0313903,73.9966933 C25.3653903,74.1306933 25.7013903,74.2596933 26.0403903,74.3826933 C26.2363903,74.4546933 26.4323903,74.5246933 26.6303903,74.5926933 C26.9803903,74.7116933 27.3323903,74.8226933 27.6853903,74.9306933 C27.8673903,74.9856933 28.0483903,75.0436933 28.2293903,75.0956933 C28.6793903,75.2236933 29.1303903,75.3396933 29.5813903,75.4476933 C29.6643903,75.4676933 29.7473903,75.4916933 29.8303903,75.5106933 C30.3633903,75.6336933 30.8943903,75.7396933 31.4233903,75.8326933 C31.5813903,75.8596933 31.7373903,75.8796933 31.8943903,75.9046933 C32.2673903,75.9636933 32.6383903,76.0186933 33.0053903,76.0616933 C33.1963903,76.0846933 33.8063903,76.1016933 33.9963903,76.1196933 C34.4363903,76.1616933 34.8763903,76.2016933 35.3053903,76.2206933 L35.3053903,76.9826933 L35.3053903,80.2256933 C35.3053903,80.9006933 36.0743903,81.2856933 36.6153903,80.8836933 L47.0453903,72.7926933 L48.1653903,71.9576933 C48.6283903,71.6126933 48.5983903,70.9106933 48.1093903,70.6046933" id="Fill-1" fill="#FFDC24" mask="url(#mask-2)"></path>
            </g>
        </g>
    </g>
</svg>