<svg xmlns="http://www.w3.org/2000/svg" xmlns:xlink="http://www.w3.org/1999/xlink" viewBox="0 0 100 100"><circle fill="#D1EDFB" cx="50" cy="50" r="50"/><path fill="#1B8140" d="M35 39V29c0-.6.4-1 1-1s1 .4 1 1v10c0 .6-.4 1-1 1s-1-.4-1-1zM36 72.1l-4.2 4.2c-.4.4-1 .4-1.4 0-.4-.4-.4-1 0-1.4l4.2-4.2c.4-.4 1-.4 1.4 0 .3.4.3 1 0 1.4z"/><path fill="#19A249" d="M47 60c-2 0-2-2-2-2V45c0-5-4-9-9-9s-9 4-9 9v15c0 9.9 8.1 18 18 18h12V60H47z"/><path fill="#1B8140" d="M71 24.9v-10c0-.6.4-1 1-1s1 .4 1 1v10c0 .6-.4 1-1 1s-1-.4-1-1z"/><defs><circle id="a" cx="50" cy="50" r="50"/></defs><clipPath id="b"><use xlink:href="#a" overflow="visible"/></clipPath><path clip-path="url(#b)" fill="#1B8140" d="M81 66h10c.6 0 1 .4 1 1s-.4 1-1 1H81c-.6 0-1-.4-1-1s.4-1 1-1zM81.3 35.8l8.5-5.3c.5-.3 1.1-.2 1.4.3.3.5.2 1.1-.3 1.4l-8.5 5.3c-.5.3-1.1.2-1.4-.3-.3-.5-.2-1.1.3-1.4z"/><path clip-path="url(#b)" fill="#19A249" d="M89 100H55V41c0-9.4 7.6-17 17-17s17 7.6 17 17v59z"/><path clip-path="url(#b)" fill="#1B8140" d="M85 75h10c.6 0 1 .4 1 1s-.4 1-1 1H85c-.6 0-1-.4-1-1s.4-1 1-1z"/><path fill="#1B8140" d="M61 94H51c-.6 0-1-.4-1-1s.4-1 1-1h10c.6 0 1 .4 1 1s-.4 1-1 1zM62.9 57h-10c-.6 0-1-.4-1-1s.4-1 1-1h10c.6 0 1 .4 1 1s-.5 1-1 1zM48 75v6c0 .6-.4 1-1 1s-1-.4-1-1v-6c0-.6.4-1 1-1s1 .4 1 1zM47.1 41.8l-5.2 3c-.5.3-1.1.1-1.4-.4-.3-.5-.1-1.1.4-1.4l5.2-3c.5-.3 1.1-.1 1.4.4.3.5.1 1.1-.4 1.4zM58.4 34.7l-7.1-7.1c-.4-.4-.4-1 0-1.4.4-.4 1-.4 1.4 0l7.1 7.1c.4.4.4 1 0 1.4-.4.4-1 .4-1.4 0zM84 47h10c.6 0 1 .4 1 1s-.4 1-1 1H84c-.6 0-1-.4-1-1s.4-1 1-1zM76.4 29.6l5.9-8.1c.3-.4 1-.5 1.4-.2.4.3.5 1 .2 1.4l-5.9 8c-.3.4-1 .5-1.4.2-.4-.3-.5-.9-.2-1.3z"/><path fill-rule="evenodd" clip-rule="evenodd" fill="#FEDC13" d="M12.6 55.2c.8-2.2 5.5-6.5 6.7-8.9 1.3-2.4 4.7-10.3 7.8-10.8 5.6-.8 6.8 6.7 7.8 13.2 1 6.5-1.9 11.9-3.7 14.2-1.8 2.4-1.1-7.8-2.4-7.9-1.3-.1-2.3 5-4.7 5.1-2.4.1-1.9-7.9-4.9-4.6-2.9 3.4-8.2 4.2-6.6-.3z"/><path fill="#1B8140" d="M26.7 39.8l-3.5-4.2c-.4-.4-.3-1.1.1-1.4.4-.4 1.1-.3 1.4.1l3.5 4.2c.4.4.3 1.1-.1 1.4-.4.4-1 .3-1.4-.1z"/></svg>