<?xml version="1.0" encoding="utf-8"?>
<!-- Generator: Adobe Illustrator 21.0.0, SVG Export Plug-In . SVG Version: 6.00 Build 0)  -->
<svg version="1.1" id="Layer_1" xmlns="http://www.w3.org/2000/svg" xmlns:xlink="http://www.w3.org/1999/xlink" x="0px" y="0px"
	 viewBox="0 0 97 97" style="enable-background:new 0 0 97 97;" xml:space="preserve">
<style type="text/css">
	.st0{fill:#FFFFFF;}
	.st1{fill:#687680;}
	.st2{fill:#011829;}
	.st3{fill:#E29C79;}
	.st4{fill:#273B49;}
</style>
<g>
	<path id="path-1" class="st0" d="M48,0C21.5,0,0,21.5,0,48s21.5,48,48,48s48-21.5,48-48S74.5,0,48,0z"/>
</g>
<title>Page 1</title>
<path id="Fill-1" class="st1" d="M97,47.5C97,74.3,75.3,96,48.5,96S0,74.3,0,47.5S21.7-1,48.5-1S97,20.7,97,47.5"/>
<path id="Fill-3" class="st0" d="M80.6,73.6c-0.2,0.1-0.4,0.2-0.7,0.2c-0.4,0-1-0.3-1-1c0-0.6,0.4-1.1,0.6-1.2
	c0.1-0.1,0.4-0.2,0.6-0.2c0.8,0,1,0.7,1,1C81.2,72.9,80.8,73.5,80.6,73.6 M80.3,83.5c-0.8,1-2.5,2-3.2,2c-0.4,0-0.8-0.5-0.8-0.8
	c0-0.2,0.1-0.5,0.2-0.9c0.1-0.3,1.4-3.9,2-5.6c0.2-0.5,0-0.6-0.1-0.6c-0.4,0-1.4,0.8-1.8,1.1c-0.1,0.1-0.4-0.3-0.4-0.4
	s0.1-0.3,0.2-0.4c0.8-1.2,2.4-2.2,3.5-2.2c0.3,0,0.6,0.4,0.6,0.9c0,0.2-0.1,0.5-0.2,0.8l-2,5.6c0,0,0,0.2,0.1,0.2
	c0.3,0,1.1-0.5,1.6-0.8c0.2-0.1,0.4-0.2,0.5-0.2s0.2,0,0.2,0.2C80.8,82.8,80.6,83.1,80.3,83.5"/>
<path id="Fill-5" class="st2" d="M69.7,28.9L61,7c-0.2-0.6-1-0.8-1.5-0.4L40.6,22.8C40.4,23,40.2,23,40,23H25c-0.5,0-1,0.4-1,1v24.5
	c0,0.7,0.7,1.2,1.3,0.9l43.9-19.2C69.7,29.9,69.9,29.4,69.7,28.9"/>
<path id="Fill-7" class="st3" d="M24,49.4v18.5c0,0.6,0.6,1.1,1.1,0.9l3.7-0.7l1.9,14.4L62.4,70l4.8-6.7c0,0,9.2-8.1,1-31.7L24,49.4
	z"/>
<path id="Fill-9" class="st4" d="M24,60.5c0,0,4.9,5.1,16.3,1c10.4-3.8,27.5-19.1,30.3-21.7c0.2-0.2,0.4-0.6,0.3-0.9L70,34.6
	L24,50.9V60.5z"/>
<path id="Fill-11" class="st2" d="M13.8,54.7l63.3-21.8c0.4-0.1,0.7-0.5,0.7-0.9V19.9c0-0.7-0.8-1.2-1.5-0.8L13.4,53.8
	C12.8,54.1,13.2,54.9,13.8,54.7"/>
<g id="Group-16">
	<path id="Fill-14" class="st2" d="M23,77.8L84.5,47l-1.9,21.1c0,0,14.4,6.7,14.4,22.1L95,97H24c0,0,0-7,4.8-11.5L23,77.8z"/>
</g>
<path id="Fill-17" class="st0" d="M30.2,54l3.7-2.9c0.6-0.5,1.5,0,1.5,0.8V54c0,0.5-0.3,0.8-0.8,0.9L31,55.7
	C30,55.9,29.4,54.6,30.2,54"/>
</svg>
