<svg xmlns="http://www.w3.org/2000/svg" viewBox="0 0 100 100"><circle fill="#074A77" cx="50" cy="50" r="50"/><defs><ellipse id="a" cx="50" cy="50" rx="50" ry="49.8"/></defs><path fill="#FFF" d="M26 19l4 3 4-3 4 3 4-3 4 3 4-3 4 3 4-3 4 3 4-3 4 3 4-3 4 3 4-3v81H26"/><path fill="#FFF" d="M18 19l4 3 4-3 4 3 4-3 4 3 4-3 4 3 4-3 4 3 4-3 4 3 4-3 4 3 4-3v81H18"/><text transform="translate(25 84)" fill="#0BA44A" font-family="'ProximaNova-Regular'" font-size="18">$</text><path fill="#CDCCD0" d="M68 33H32c-.6 0-1-.4-1-1s.4-1 1-1h36c.6 0 1 .4 1 1s-.4 1-1 1zM37 47H27c-.6 0-1-.4-1-1s.4-1 1-1h10c.6 0 1 .4 1 1s-.4 1-1 1zM44 53H27c-.6 0-1-.4-1-1s.4-1 1-1h17c.6 0 1 .4 1 1s-.4 1-1 1zM37 59H27c-.6 0-1-.4-1-1s.4-1 1-1h10c.6 0 1 .4 1 1s-.4 1-1 1zM40 65H27c-.6 0-1-.4-1-1s.4-1 1-1h13c.6 0 1 .4 1 1s-.4 1-1 1zM75 47H65c-.6 0-1-.4-1-1s.4-1 1-1h10c.6 0 1 .4 1 1s-.4 1-1 1zM75 53h-7c-.6 0-1-.4-1-1s.4-1 1-1h7c.6 0 1 .4 1 1s-.4 1-1 1zM75 65h-9c-.6 0-1-.4-1-1s.4-1 1-1h9c.6 0 1 .4 1 1s-.4 1-1 1zM61 37H39c-.6 0-1-.4-1-1s.4-1 1-1h22c.6 0 1 .4 1 1s-.4 1-1 1zM75 59H62c-.6 0-1-.4-1-1s.4-1 1-1h13c.6 0 1 .4 1 1s-.4 1-1 1z"/><circle fill="#008BC1" cx="81" cy="81.8" r="18"/><g fill="#FFF"><path d="M91 74h-5v-1c0-1.1-.9-2-2-2h-6c-1.1 0-2 .9-2 2v1h-5c-1.1 0-2 .9-2 2v13c0 1.1.9 2 2 2h20c1.1 0 2-.9 2-2V76c0-1.1-.9-2-2-2zm1 15c0 .6-.4 1-1 1H71c-.6 0-1-.4-1-1V76c0-.6.4-1 1-1h6v-2c0-.6.4-1 1-1h6c.6 0 1 .4 1 1v2h6c.6 0 1 .4 1 1v13z"/><path d="M81 76c-3.3 0-6 2.7-6 6s2.7 6 6 6 6-2.7 6-6-2.7-6-6-6zm0 11c-2.8 0-5-2.2-5-5s2.2-5 5-5 5 2.2 5 5-2.2 5-5 5z"/></g></svg>