<svg xmlns="http://www.w3.org/2000/svg" viewBox="0 0 100 100"><defs><style>.a,.c,.j{fill:#fff;}.b{fill:#008bc1;}.c,.j{stroke:#fff;}.c,.d,.h{stroke-linejoin:round;}.c,.d,.e,.h{stroke-width:2px;}.d{fill:#e6e5e7;stroke:#e6e5e8;}.e,.h{fill:none;}.e{stroke:#231f1f;}.f{fill:#89d0ea;}.g{fill:#273641;}.h{stroke:#c3c1c6;stroke-linecap:round;}.i{fill:#37c438;}.j{stroke-width:0.5px;}</style></defs><title>modal-icon-change-username</title><circle class="a" cx="50" cy="50" r="50"/><circle class="b" cx="50" cy="50" r="50"/><path class="c" d="M56.43 24H77v61.73H23V24h20"/><path class="d" d="M57 32.28H43V16.76C43 12.28 44.17 9 50 9s7 3.26 7 7.76v15.52z"/><path class="b" d="M53 17a3 3 0 1 1-3-3 3 3 0 0 1 3 3z"/><path class="e" d="M56 81h12.86"/><path class="f" d="M49.92 77.71h16.42v-9.38c0-1.08-6.55-4.67-11.92-6.82v-4.27s2.11-.72 2.11-5.34c1.49 0 2.15-4.3.07-4.3 0-.45 1.64-2.81 1-5.38-1.07-4.3-11.8-4.3-12.88 0-4.52-.93-1.07 4.76-1.07 5.38-2.15 0-1.49 4.3 0 4.3 0 4.62 2.26 5.34 2.26 5.34v4.26C40.55 63.66 34 67.26 34 68.33v9.38h15.92z"/><rect class="g" x="22" y="68" width="56" height="19" rx="1" ry="1"/><path class="h" d="M41.5 75H58M38 80h24.5"/><circle class="i" cx="84" cy="84" r="16"/><path class="j" d="M92.44 77.18l-1.61-1.63a1.93 1.93 0 0 0-2.69 0l-.67.68h-.06v.06l-1.42 1.44h-.06v.06l-9.38 9.49-.19.19a.39.39 0 0 0-.1.18l-1.15 5a.39.39 0 0 0 .1.36.38.38 0 0 0 .27.11h.09L80.39 92a.38.38 0 0 0 .18-.1l9.51-9.62a.37.37 0 0 0 .14-.09.38.38 0 0 0 .09-.14l.5-.5.78-.78a.37.37 0 0 0 .14-.09.38.38 0 0 0 .09-.14l.06-.06.53-.53a1.94 1.94 0 0 0 0-2.72zM76.79 88.4l2.94 3-3.84.91.9-3.89zM80.4 91a.36.36 0 0 0-.07-.1l-3-3.08a.37.37 0 0 0-.12-.08l9-9.1 3.23 3.27-9 9.1zm9.89-10l-.34.35-3.25-3.26 1-1 3.23 3.27-.64.64zm1.61-1.63l-.46.46-3.23-3.27.46-.46a1.18 1.18 0 0 1 1.61 0l1.61 1.63a1.17 1.17 0 0 1 0 1.63z"/></svg>