<svg xmlns="http://www.w3.org/2000/svg" viewBox="0 0 100 100"><path fill="#FFF" d="M82 70c-6.6 0-12 5.4-12 12s5.4 12 12 12 12-5.4 12-12-5.4-12-12-12zm1.7 16.9c-.8 1-2.6 2.1-3.4 2.1-.4 0-.8-.5-.8-.8 0-.2.1-.6.2-.9.1-.3 1.5-4 2-5.8.2-.5 0-.6-.1-.6-.4 0-1.5.8-1.9 1.2-.1.1-.4-.3-.4-.4 0-.1.1-.3.2-.5.9-1.2 2.5-2.3 3.6-2.3.3 0 .6.5.6 1 0 .3-.1.6-.2.9l-2 5.9s0 .2.1.2c.3 0 1.2-.5 1.6-.9.2-.1.4-.2.5-.2.1 0 .2 0 .2.2.2.3 0 .6-.2.9zm.3-10.2c-.2.1-.4.2-.7.2-.5 0-1-.3-1-1 0-.6.4-1.1.6-1.3.1-.1.4-.2.6-.2.8 0 1 .7 1 1 .1.5-.3 1.1-.5 1.3z"/><circle fill="#99D6ED" cx="50" cy="50" r="50"/><path fill-rule="evenodd" clip-rule="evenodd" fill="#1B8140" d="M11 36h72v34H11z"/><path fill-rule="evenodd" clip-rule="evenodd" fill="#19A249" d="M14 33h72v34H14z"/><path fill-rule="evenodd" clip-rule="evenodd" fill="#4EB748" d="M17 30h72v34H17z"/><ellipse fill-rule="evenodd" clip-rule="evenodd" fill="#1A9847" cx="77" cy="47" rx="6" ry="7"/><ellipse fill-rule="evenodd" clip-rule="evenodd" fill="#1A9847" cx="29" cy="47" rx="6" ry="7"/><path fill-rule="evenodd" clip-rule="evenodd" fill="#1A9847" d="M41 48c0 8.3 5.6 15 12.5 15S65 56.3 65 48s-4.6-15-11.5-15S41 39.7 41 48z"/><path fill="#4EB748" d="M47.6 52.4s.8-.2 2.7-.4c.3-.5.4-1.2.4-1.8-1.4-1-2.4-2.8-2.4-4.9 0-3.2.4-5.3 4.6-5.3h.4c4.2 0 4.6 2.2 4.6 5.3 0 2.1-1 3.9-2.4 4.9 0 .6.2 1.3.4 1.8 2.1.1 2.7.4 2.7.4 2 .7 5.6 3.1 6.2 10.3l-13.1.7L42 63c0-5.6 2.8-9.9 5.6-10.6z"/><circle fill="#008BC1" cx="82" cy="82" r="18"/><g fill="#FFF"><path d="M89 78h-1v-3c0-3.3-2.7-6-6-6s-6 2.7-6 6v3h-1c-1.1 0-2 .9-2 2v11c0 1.1.9 2 2 2h14c1.1 0 2-.9 2-2V80c0-1.1-.9-2-2-2zm-12-3c0-2.8 2.2-5 5-5s5 2.2 5 5v3H77v-3zm13 16c0 .6-.4 1-1 1H75c-.6 0-1-.4-1-1V80c0-.6.4-1 1-1h14c.6 0 1 .4 1 1v11z"/><path d="M82 83c-.8 0-1.5.7-1.5 1.5 0 .7.4 1.2 1 1.4V88c0 .3.2.5.5.5s.5-.2.5-.5v-2.1c.6-.2 1-.8 1-1.4 0-.8-.7-1.5-1.5-1.5z"/></g></svg>