<?xml version="1.0" encoding="utf-8"?>
<!-- Generator: Adobe Illustrator 21.0.0, SVG Export Plug-In . SVG Version: 6.00 Build 0)  -->
<svg version="1.1" id="Layer_1" xmlns="http://www.w3.org/2000/svg" xmlns:xlink="http://www.w3.org/1999/xlink" x="0px" y="0px"
	 viewBox="0 0 70 69" style="enable-background:new 0 0 70 69;" xml:space="preserve">
<style type="text/css">
	.st0{fill:#273B49;}
	.st1{fill:#FEFEFE;}
	.st2{filter:url(#Adobe_OpacityMaskFilter);}
	.st3{fill:#FFFFFF;}
	.st4{mask:url(#mask-2);fill:#687680;}
	.st5{filter:url(#Adobe_OpacityMaskFilter_1_);}
	.st6{mask:url(#mask-4);fill:#687680;}
	.st7{filter:url(#Adobe_OpacityMaskFilter_2_);}
	.st8{mask:url(#mask-6);fill:#687680;}
	.st9{filter:url(#Adobe_OpacityMaskFilter_3_);}
	.st10{mask:url(#mask-8);fill:#687680;}
	.st11{filter:url(#Adobe_OpacityMaskFilter_4_);}
	.st12{mask:url(#mask-10);fill:#687680;}
	.st13{filter:url(#Adobe_OpacityMaskFilter_5_);}
	.st14{mask:url(#mask-12);fill:#687680;}
	.st15{filter:url(#Adobe_OpacityMaskFilter_6_);}
	.st16{mask:url(#mask-14);fill:#687680;}
	.st17{filter:url(#Adobe_OpacityMaskFilter_7_);}
	.st18{mask:url(#mask-16);fill:#687680;}
	.st19{filter:url(#Adobe_OpacityMaskFilter_8_);}
	.st20{mask:url(#mask-18);fill:#687680;}
	.st21{filter:url(#Adobe_OpacityMaskFilter_9_);}
	.st22{mask:url(#mask-20);fill:#687680;}
	.st23{filter:url(#Adobe_OpacityMaskFilter_10_);}
	.st24{mask:url(#mask-22);fill:#687680;}
	.st25{filter:url(#Adobe_OpacityMaskFilter_11_);}
	.st26{mask:url(#mask-24);fill:#687680;}
	.st27{filter:url(#Adobe_OpacityMaskFilter_12_);}
	.st28{mask:url(#mask-26);fill:#687680;}
	.st29{filter:url(#Adobe_OpacityMaskFilter_13_);}
	.st30{mask:url(#mask-28);fill:#687680;}
	.st31{filter:url(#Adobe_OpacityMaskFilter_14_);}
	.st32{mask:url(#mask-30);fill:#687680;}
	.st33{filter:url(#Adobe_OpacityMaskFilter_15_);}
	.st34{mask:url(#mask-32);fill:#DEE1E3;}
	.st35{filter:url(#Adobe_OpacityMaskFilter_16_);}
	.st36{mask:url(#mask-34);fill:#FEFEFE;}
	.st37{fill:none;stroke:#029DD4;stroke-width:2;}
	.st38{filter:url(#Adobe_OpacityMaskFilter_17_);}
	.st39{mask:url(#mask-36);fill:#029DD4;}
	.st40{fill:none;stroke:#029DD4;stroke-width:2;stroke-linecap:round;}
</style>
<title>Page 1</title>
<desc>Created with Sketch.</desc>
<path id="Fill-1" class="st0" d="M70.2,32.4c0,19.5-15.8,35.3-35.4,35.3c-19.5,0-35.4-15.8-35.4-35.3S15.3-2.8,34.8-2.8
	C54.4-2.8,70.2,12.9,70.2,32.4"/>
<path id="Fill-3" class="st1" d="M12.8,17.1v43.8c5.9,4.9,13.4,7.8,21.6,7.8s15.8-2.9,21.6-7.8V17.1H12.8z"/>
<g id="Group-8" transform="translate(16.763889, 24.988647)">
	<g id="Clip-7">
	</g>
	<defs>
		<filter id="Adobe_OpacityMaskFilter" filterUnits="userSpaceOnUse" x="-10.2" y="-10" width="40.1" height="21.8">
			<feColorMatrix  type="matrix" values="1 0 0 0 0  0 1 0 0 0  0 0 1 0 0  0 0 0 1 0"/>
		</filter>
	</defs>
	<mask maskUnits="userSpaceOnUse" x="-10.2" y="-10" width="40.1" height="21.8" id="mask-2">
		<g class="st2">
			<path id="path-1" class="st3" d="M0.7,0.3C0.3,0.3,0,0.6,0,1s0.3,0.7,0.7,0.7H19c0.4,0,0.7-0.3,0.7-0.7S19.4,0.3,19,0.3H0.7
				L0.7,0.3z"/>
		</g>
	</mask>
	<polygon id="Fill-6" class="st4" points="-10.2,11.9 29.9,11.9 29.9,-10 -10.2,-10 	"/>
</g>
<g id="Group-11" transform="translate(16.763889, 29.919203)">
	<g id="Clip-10">
	</g>
	<defs>
		<filter id="Adobe_OpacityMaskFilter_1_" filterUnits="userSpaceOnUse" x="-10.2" y="-10.1" width="34" height="21.8">
			<feColorMatrix  type="matrix" values="1 0 0 0 0  0 1 0 0 0  0 0 1 0 0  0 0 0 1 0"/>
		</filter>
	</defs>
	<mask maskUnits="userSpaceOnUse" x="-10.2" y="-10.1" width="34" height="21.8" id="mask-4">
		<g class="st5">
			<path id="path-3" class="st3" d="M0.7,0.1C0.3,0.1,0,0.4,0,0.8c0,0.4,0.3,0.7,0.7,0.7h12.2c0.4,0,0.7-0.3,0.7-0.7
				c0-0.4-0.3-0.7-0.7-0.7H0.7L0.7,0.1z"/>
		</g>
	</mask>
	<polygon id="Fill-9" class="st6" points="-10.2,11.7 23.8,11.7 23.8,-10.1 -10.2,-10.1 	"/>
</g>
<g id="Group-14" transform="translate(16.763889, 33.863647)">
	<g id="Clip-13">
	</g>
	<defs>
		<filter id="Adobe_OpacityMaskFilter_2_" filterUnits="userSpaceOnUse" x="-10.2" y="-9.3" width="37.4" height="21.8">
			<feColorMatrix  type="matrix" values="1 0 0 0 0  0 1 0 0 0  0 0 1 0 0  0 0 0 1 0"/>
		</filter>
	</defs>
	<mask maskUnits="userSpaceOnUse" x="-10.2" y="-9.3" width="37.4" height="21.8" id="mask-6">
		<g class="st7">
			<path id="path-5" class="st3" d="M0.7,0.9C0.3,0.9,0,1.2,0,1.6C0,2,0.3,2.3,0.7,2.3h15.6C16.7,2.3,17,2,17,1.6
				c0-0.4-0.3-0.7-0.7-0.7H0.7L0.7,0.9z"/>
		</g>
	</mask>
	<polygon id="Fill-12" class="st8" points="-10.2,12.5 27.2,12.5 27.2,-9.3 -10.2,-9.3 	"/>
</g>
<g id="Group-17" transform="translate(16.763889, 38.794203)">
	<g id="Clip-16">
	</g>
	<defs>
		<filter id="Adobe_OpacityMaskFilter_3_" filterUnits="userSpaceOnUse" x="-10.2" y="-9.5" width="38.8" height="21.8">
			<feColorMatrix  type="matrix" values="1 0 0 0 0  0 1 0 0 0  0 0 1 0 0  0 0 0 1 0"/>
		</filter>
	</defs>
	<mask maskUnits="userSpaceOnUse" x="-10.2" y="-9.5" width="38.8" height="21.8" id="mask-8">
		<g class="st9">
			<path id="path-7" class="st3" d="M0.7,0.7C0.3,0.7,0,1,0,1.4c0,0.4,0.3,0.7,0.7,0.7h16.9c0.4,0,0.7-0.3,0.7-0.7
				c0-0.4-0.3-0.7-0.7-0.7H0.7L0.7,0.7z"/>
		</g>
	</mask>
	<polygon id="Fill-15" class="st10" points="-10.2,12.3 28.6,12.3 28.6,-9.5 -10.2,-9.5 	"/>
</g>
<g id="Group-20" transform="translate(16.763889, 43.724758)">
	<g id="Clip-19">
	</g>
	<defs>
		<filter id="Adobe_OpacityMaskFilter_4_" filterUnits="userSpaceOnUse" x="-10.2" y="-9.7" width="34" height="21.8">
			<feColorMatrix  type="matrix" values="1 0 0 0 0  0 1 0 0 0  0 0 1 0 0  0 0 0 1 0"/>
		</filter>
	</defs>
	<mask maskUnits="userSpaceOnUse" x="-10.2" y="-9.7" width="34" height="21.8" id="mask-10">
		<g class="st11">
			<path id="path-9" class="st3" d="M0.7,0.6C0.3,0.6,0,0.9,0,1.3c0,0.4,0.3,0.7,0.7,0.7h12.2c0.4,0,0.7-0.3,0.7-0.7
				c0-0.4-0.3-0.7-0.7-0.7H0.7L0.7,0.6z"/>
		</g>
	</mask>
	<polygon id="Fill-18" class="st12" points="-10.2,12.2 23.8,12.2 23.8,-9.7 -10.2,-9.7 	"/>
</g>
<g id="Group-23" transform="translate(16.763889, 48.655314)">
	<g id="Clip-22">
	</g>
	<defs>
		<filter id="Adobe_OpacityMaskFilter_5_" filterUnits="userSpaceOnUse" x="-10.2" y="-9.8" width="42.8" height="21.8">
			<feColorMatrix  type="matrix" values="1 0 0 0 0  0 1 0 0 0  0 0 1 0 0  0 0 0 1 0"/>
		</filter>
	</defs>
	<mask maskUnits="userSpaceOnUse" x="-10.2" y="-9.8" width="42.8" height="21.8" id="mask-12">
		<g class="st13">
			<path id="path-11" class="st3" d="M0.7,0.4C0.3,0.4,0,0.7,0,1.1c0,0.4,0.3,0.7,0.7,0.7h21c0.4,0,0.7-0.3,0.7-0.7
				c0-0.4-0.3-0.7-0.7-0.7H0.7L0.7,0.4z"/>
		</g>
	</mask>
	<polygon id="Fill-21" class="st14" points="-10.2,12 32.6,12 32.6,-9.8 -10.2,-9.8 	"/>
</g>
<g id="Group-26" transform="translate(16.763889, 53.585869)">
	<g id="Clip-25">
	</g>
	<defs>
		<filter id="Adobe_OpacityMaskFilter_6_" filterUnits="userSpaceOnUse" x="-10.2" y="-10" width="37.4" height="21.8">
			<feColorMatrix  type="matrix" values="1 0 0 0 0  0 1 0 0 0  0 0 1 0 0  0 0 0 1 0"/>
		</filter>
	</defs>
	<mask maskUnits="userSpaceOnUse" x="-10.2" y="-10" width="37.4" height="21.8" id="mask-14">
		<g class="st15">
			<path id="path-13" class="st3" d="M0.7,0.2C0.3,0.2,0,0.5,0,0.9c0,0.4,0.3,0.7,0.7,0.7h15.6c0.4,0,0.7-0.3,0.7-0.7
				c0-0.4-0.3-0.7-0.7-0.7H0.7L0.7,0.2z"/>
		</g>
	</mask>
	<polygon id="Fill-24" class="st16" points="-10.2,11.8 27.2,11.8 27.2,-10 -10.2,-10 	"/>
</g>
<g id="Group-29" transform="translate(16.763889, 58.516425)">
	<g id="Clip-28">
	</g>
	<defs>
		<filter id="Adobe_OpacityMaskFilter_7_" filterUnits="userSpaceOnUse" x="-10.2" y="-10.2" width="40.8" height="21.8">
			<feColorMatrix  type="matrix" values="1 0 0 0 0  0 1 0 0 0  0 0 1 0 0  0 0 0 1 0"/>
		</filter>
	</defs>
	<mask maskUnits="userSpaceOnUse" x="-10.2" y="-10.2" width="40.8" height="21.8" id="mask-16">
		<g class="st17">
			<path id="path-15" class="st3" d="M0.7,0.1C0.3,0.1,0,0.4,0,0.7c0,0.4,0.3,0.7,0.7,0.7h18.9c0.4,0,0.7-0.3,0.7-0.7
				c0-0.4-0.3-0.7-0.7-0.7H0.7L0.7,0.1z"/>
		</g>
	</mask>
	<polygon id="Fill-27" class="st18" points="-10.2,11.7 30.6,11.7 30.6,-10.2 -10.2,-10.2 	"/>
</g>
<g id="Group-32" transform="translate(44.375000, 24.988647)">
	<g id="Clip-31">
	</g>
	<defs>
		<filter id="Adobe_OpacityMaskFilter_8_" filterUnits="userSpaceOnUse" x="-10.1" y="-10" width="27.9" height="21.8">
			<feColorMatrix  type="matrix" values="1 0 0 0 0  0 1 0 0 0  0 0 1 0 0  0 0 0 1 0"/>
		</filter>
	</defs>
	<mask maskUnits="userSpaceOnUse" x="-10.1" y="-10" width="27.9" height="21.8" id="mask-18">
		<g class="st19">
			<path id="path-17" class="st3" d="M0.9,0.3C0.5,0.3,0.2,0.6,0.2,1s0.3,0.7,0.7,0.7h6.1c0.4,0,0.7-0.3,0.7-0.7S7.3,0.3,6.9,0.3
				H0.9L0.9,0.3z"/>
		</g>
	</mask>
	<polygon id="Fill-30" class="st20" points="-10.1,11.9 17.9,11.9 17.9,-10 -10.1,-10 	"/>
</g>
<g id="Group-35" transform="translate(45.361111, 29.919203)">
	<g id="Clip-34">
	</g>
	<defs>
		<filter id="Adobe_OpacityMaskFilter_9_" filterUnits="userSpaceOnUse" x="-9.7" y="-10.1" width="26.6" height="21.8">
			<feColorMatrix  type="matrix" values="1 0 0 0 0  0 1 0 0 0  0 0 1 0 0  0 0 0 1 0"/>
		</filter>
	</defs>
	<mask maskUnits="userSpaceOnUse" x="-9.7" y="-10.1" width="26.6" height="21.8" id="mask-20">
		<g class="st21">
			<path id="path-19" class="st3" d="M1.2,0.1c-0.4,0-0.7,0.3-0.7,0.7c0,0.4,0.3,0.7,0.7,0.7H6c0.4,0,0.7-0.3,0.7-0.7
				c0-0.4-0.3-0.7-0.7-0.7H1.2L1.2,0.1z"/>
		</g>
	</mask>
	<polygon id="Fill-33" class="st22" points="-9.7,11.7 16.9,11.7 16.9,-10.1 -9.7,-10.1 	"/>
</g>
<g id="Group-38" transform="translate(44.375000, 33.863647)">
	<g id="Clip-37">
	</g>
	<defs>
		<filter id="Adobe_OpacityMaskFilter_10_" filterUnits="userSpaceOnUse" x="-9.4" y="-9.3" width="27.2" height="21.8">
			<feColorMatrix  type="matrix" values="1 0 0 0 0  0 1 0 0 0  0 0 1 0 0  0 0 0 1 0"/>
		</filter>
	</defs>
	<mask maskUnits="userSpaceOnUse" x="-9.4" y="-9.3" width="27.2" height="21.8" id="mask-22">
		<g class="st23">
			<path id="path-21" class="st3" d="M1.5,0.9c-0.4,0-0.7,0.3-0.7,0.7c0,0.4,0.3,0.7,0.7,0.7h5.4c0.4,0,0.7-0.3,0.7-0.7
				c0-0.4-0.3-0.7-0.7-0.7H1.5L1.5,0.9z"/>
		</g>
	</mask>
	<polygon id="Fill-36" class="st24" points="-9.4,12.5 17.9,12.5 17.9,-9.3 -9.4,-9.3 	"/>
</g>
<g id="Group-41" transform="translate(44.375000, 38.794203)">
	<g id="Clip-40">
	</g>
	<defs>
		<filter id="Adobe_OpacityMaskFilter_11_" filterUnits="userSpaceOnUse" x="-10.1" y="-9.5" width="27.9" height="21.8">
			<feColorMatrix  type="matrix" values="1 0 0 0 0  0 1 0 0 0  0 0 1 0 0  0 0 0 1 0"/>
		</filter>
	</defs>
	<mask maskUnits="userSpaceOnUse" x="-10.1" y="-9.5" width="27.9" height="21.8" id="mask-24">
		<g class="st25">
			<path id="path-23" class="st3" d="M0.9,0.7C0.5,0.7,0.2,1,0.2,1.4c0,0.4,0.3,0.7,0.7,0.7h6.1c0.4,0,0.7-0.3,0.7-0.7
				c0-0.4-0.3-0.7-0.7-0.7H0.9L0.9,0.7z"/>
		</g>
	</mask>
	<polygon id="Fill-39" class="st26" points="-10.1,12.3 17.9,12.3 17.9,-9.5 -10.1,-9.5 	"/>
</g>
<g id="Group-44" transform="translate(45.361111, 43.724758)">
	<g id="Clip-43">
	</g>
	<defs>
		<filter id="Adobe_OpacityMaskFilter_12_" filterUnits="userSpaceOnUse" x="-9.7" y="-9.7" width="26.6" height="21.8">
			<feColorMatrix  type="matrix" values="1 0 0 0 0  0 1 0 0 0  0 0 1 0 0  0 0 0 1 0"/>
		</filter>
	</defs>
	<mask maskUnits="userSpaceOnUse" x="-9.7" y="-9.7" width="26.6" height="21.8" id="mask-26">
		<g class="st27">
			<path id="path-25" class="st3" d="M1.2,0.6c-0.4,0-0.7,0.3-0.7,0.7c0,0.4,0.3,0.7,0.7,0.7H6c0.4,0,0.7-0.3,0.7-0.7
				c0-0.4-0.3-0.7-0.7-0.7H1.2L1.2,0.6z"/>
		</g>
	</mask>
	<polygon id="Fill-42" class="st28" points="-9.7,12.2 16.9,12.2 16.9,-9.7 -9.7,-9.7 	"/>
</g>
<g id="Group-47" transform="translate(44.375000, 48.655314)">
	<g id="Clip-46">
	</g>
	<defs>
		<filter id="Adobe_OpacityMaskFilter_13_" filterUnits="userSpaceOnUse" x="-9.4" y="-9.8" width="27.2" height="21.8">
			<feColorMatrix  type="matrix" values="1 0 0 0 0  0 1 0 0 0  0 0 1 0 0  0 0 0 1 0"/>
		</filter>
	</defs>
	<mask maskUnits="userSpaceOnUse" x="-9.4" y="-9.8" width="27.2" height="21.8" id="mask-28">
		<g class="st29">
			<path id="path-27" class="st3" d="M1.5,0.4c-0.4,0-0.7,0.3-0.7,0.7c0,0.4,0.3,0.7,0.7,0.7h5.4c0.4,0,0.7-0.3,0.7-0.7
				c0-0.4-0.3-0.7-0.7-0.7H1.5L1.5,0.4z"/>
		</g>
	</mask>
	<polygon id="Fill-45" class="st30" points="-9.4,12 17.9,12 17.9,-9.8 -9.4,-9.8 	"/>
</g>
<g id="Group-50" transform="translate(42.402778, 53.585869)">
	<g id="Clip-49">
	</g>
	<defs>
		<filter id="Adobe_OpacityMaskFilter_14_" filterUnits="userSpaceOnUse" x="-9.4" y="-10" width="29.3" height="21.8">
			<feColorMatrix  type="matrix" values="1 0 0 0 0  0 1 0 0 0  0 0 1 0 0  0 0 0 1 0"/>
		</filter>
	</defs>
	<mask maskUnits="userSpaceOnUse" x="-9.4" y="-10" width="29.3" height="21.8" id="mask-30">
		<g class="st31">
			<path id="path-29" class="st3" d="M1.5,0.2c-0.4,0-0.7,0.3-0.7,0.7c0,0.4,0.3,0.7,0.7,0.7h7.4c0.4,0,0.7-0.3,0.7-0.7
				c0-0.4-0.3-0.7-0.7-0.7H1.5L1.5,0.2z"/>
		</g>
	</mask>
	<polygon id="Fill-48" class="st32" points="-9.4,11.8 19.8,11.8 19.8,-10 -9.4,-10 	"/>
</g>
<g id="Group-53" transform="translate(35.500000, 10.196981)">
	<g id="Clip-52">
	</g>
	<defs>
		<filter id="Adobe_OpacityMaskFilter_15_" filterUnits="userSpaceOnUse" x="-10.1" y="-10.2" width="49.3" height="49.4">
			<feColorMatrix  type="matrix" values="1 0 0 0 0  0 1 0 0 0  0 0 1 0 0  0 0 0 1 0"/>
		</filter>
	</defs>
	<mask maskUnits="userSpaceOnUse" x="-10.1" y="-10.2" width="49.3" height="49.4" id="mask-32">
		<g class="st33">
			<path id="path-31" class="st3" d="M0.2,14.5c0,7.5,6.1,13.6,13.5,13.6c7.5,0,13.5-6.1,13.5-13.6S21.2,0.9,13.7,0.9
				C6.2,0.9,0.2,7,0.2,14.5L0.2,14.5z"/>
		</g>
	</mask>
	<polygon id="Fill-51" class="st34" points="-10.1,39.2 39.2,39.2 39.2,-10.2 -10.1,-10.2 	"/>
</g>
<g id="Group-56" transform="translate(35.500000, 16.113647)">
	<g id="Clip-55">
	</g>
	<defs>
		<filter id="Adobe_OpacityMaskFilter_16_" filterUnits="userSpaceOnUse" x="-45.3" y="-9.3" width="79.5" height="60">
			<feColorMatrix  type="matrix" values="1 0 0 0 0  0 1 0 0 0  0 0 1 0 0  0 0 0 1 0"/>
		</filter>
	</defs>
	<mask maskUnits="userSpaceOnUse" x="-45.3" y="-9.3" width="79.5" height="60" id="mask-34">
		<g class="st35">
			<path id="path-33" class="st3" d="M4.5,1C3,3.1,2.2,5.8,2.2,8.6c0,7.5,6.1,13.6,13.5,13.6c3.1,0,6-1.1,8.3-2.8V1H4.5L4.5,1z"/>
		</g>
	</mask>
	<polygon id="Fill-54" class="st36" points="-45.3,50.8 34.2,50.8 34.2,-9.3 -45.3,-9.3 	"/>
</g>
<path id="Stroke-57" class="st37" d="M62.7,24.7c0,7.5-6.1,13.6-13.5,13.6c-7.5,0-13.5-6.1-13.5-13.6s6.1-13.6,13.5-13.6
	C56.7,11.1,62.7,17.2,62.7,24.7L62.7,24.7z"/>
<g id="Group-61" transform="translate(45.361111, 18.085869)">
	<g id="Clip-60">
	</g>
	<defs>
		<filter id="Adobe_OpacityMaskFilter_17_" filterUnits="userSpaceOnUse" x="-9.5" y="-10.7" width="27.1" height="32.9">
			<feColorMatrix  type="matrix" values="1 0 0 0 0  0 1 0 0 0  0 0 1 0 0  0 0 0 1 0"/>
		</filter>
	</defs>
	<mask maskUnits="userSpaceOnUse" x="-9.5" y="-10.7" width="27.1" height="32.9" id="mask-36">
		<g class="st38">
			<path id="path-35" class="st3" d="M3.7,0.9v1C2,2,0.8,3,0.8,4.4c0,1.7,1.4,2.1,2.8,2.5v3.3c-0.8-0.1-1.5-0.4-2-0.9
				C1.4,9.2,1,9.2,0.9,9.4l0,0C0.7,9.7,0.7,10,0.9,10.2c0.7,0.6,1.6,1,2.7,1.1v1.2c0,0,0,0.4,0.4,0.4c0.4,0,0.4-0.4,0.4-0.4v-1.2
				c2.1-0.2,2.9-1.4,2.9-2.7c0-1.8-1.5-2.3-2.9-2.7V3C5.1,3,5.6,3.3,6.1,3.6c0.2,0.2,0.5,0.1,0.7-0.1C7,3.3,7,3,6.7,2.8
				C6.1,2.3,5.4,2,4.5,1.9v-1c0,0,0-0.4-0.4-0.4C3.7,0.5,3.7,0.9,3.7,0.9L3.7,0.9z M2,4.3C2,3.5,2.7,3,3.7,2.9v2.8
				C2.7,5.4,2,5.1,2,4.3L2,4.3z M4.5,7.2c0.9,0.3,1.7,0.7,1.7,1.5c0,0.6-0.4,1.4-1.7,1.5V7.2L4.5,7.2z"/>
		</g>
	</mask>
	<polygon id="Fill-59" class="st39" points="-9.5,22.2 17.6,22.2 17.6,-10.7 -9.5,-10.7 	"/>
</g>
<g id="Group-66" transform="translate(35.500000, 10.196981)">
	<path id="Stroke-62" class="st40" d="M23.3,24.1l10.1,10.1"/>
	<path id="Stroke-64" class="st37" d="M27.2,14.5c0,7.5-6.1,13.6-13.5,13.6C6.2,28.1,0.2,22,0.2,14.5S6.2,0.9,13.7,0.9
		C21.2,0.9,27.2,7,27.2,14.5L27.2,14.5z"/>
</g>
</svg>
