<svg xmlns="http://www.w3.org/2000/svg" viewBox="0 0 100 100"><g fill="#FFF"><path d="M73.7 78l5.6 3.8c.3.2.7 0 .7-.4V79h4.6c.2 0 .4 0 .6.1h.3c.2 0 .5 0 .7.1h.2c.3 0 .6.1.9.1h.2c.2 0 .4.1.6.1.1 0 .2 0 .3.1.2 0 .4.1.6.1.1 0 .2 0 .3.1.2.1.5.1.7.2h.1c.3.1.5.2.7.2.1 0 .1.1.2.1.2.1.3.1.5.2.1 0 .1.1.2.1.3.2.6.3.9.5.2.2.4.1.4-.1-.1-.3-.2-.6-.4-1-.1-.2-.2-.4-.4-.6v-.1c-.2-.2-.3-.4-.5-.6l-.2-.2-.4-.4c-.1-.1-.2-.1-.2-.2l-.4-.4c-.1-.1-.2-.1-.3-.2-.2-.1-.3-.2-.5-.4-.1-.1-.2-.1-.3-.2-.2-.1-.5-.3-.7-.4 0 0-.1 0-.1-.1-.3-.2-.6-.3-.9-.4-.1 0-.2-.1-.3-.1l-.6-.3c-.1 0-.2-.1-.3-.1-.2-.1-.4-.2-.6-.2-.1 0-.2-.1-.4-.1-.2-.1-.4-.1-.6-.2-.1 0-.2-.1-.3-.1-.3-.1-.5-.1-.8-.2h-.1c-.3-.1-.6-.1-.9-.2h-.3c-.2 0-.4-.1-.7-.1h-.3c-.3 0-1 0-1.2-.1v-2.4c0-.4-.5-.6-.8-.4l-6 4.8-.7.5c-.3.2-.3.6 0 .8l.9.7zM92.6 87.8l-1-.6-5.8-3.8c-.3-.2-.7 0-.7.4v2.4h-.5-2.7H80.8c-.2 0-.4 0-.6-.1h-.3c-.2 0-.5 0-.7-.1H79c-.3 0-.6-.1-.9-.1h-.2c-.2 0-.4-.1-.6-.1-.1 0-.2 0-.3-.1-.2 0-.4-.1-.6-.1-.1 0-.2 0-.3-.1-.2-.1-.5-.1-.7-.2h-.1c-.3-.1-.5-.2-.7-.2-.1 0-.1-.1-.2-.1-.2-.1-.3-.1-.5-.2-.1 0-.1-.1-.2-.1-.3-.2-.6-.3-.9-.5-.2-.2-.4-.1-.4.1.1.3.2.6.4 1 .1.2.2.4.4.6v.1c.2.2.3.4.5.6l.2.2.4.4c.1.1.2.1.2.2l.4.4c.1.1.2.1.3.2.2.1.3.2.5.4.1.1.2.1.3.2.2.1.5.3.7.4 0 0 .1 0 .1.1.3.2.6.3.9.4.1 0 .2.1.3.1l.6.3c.1 0 .2.1.3.1.2.1.4.2.6.2.1 0 .2.1.4.1.2.1.4.1.6.2.1 0 .2.1.3.1.3.1.5.1.8.2h.1c.3.1.6.1.9.2h.3c.2 0 .4.1.7.1h.6c.3 0 .5 0 .8.1v2.4c0 .4.5.6.8.4l6.2-4.8.7-.5c.3-.3.2-.7-.1-.9z"/></g><circle fill="#99D6ED" cx="50" cy="50" r="50"/><path fill-rule="evenodd" clip-rule="evenodd" fill="#1B8140" d="M11 36h72v34H11z"/><path fill-rule="evenodd" clip-rule="evenodd" fill="#19A249" d="M14 33h72v34H14z"/><path fill-rule="evenodd" clip-rule="evenodd" fill="#4EB748" d="M17 30h72v34H17z"/><ellipse fill-rule="evenodd" clip-rule="evenodd" fill="#1A9847" cx="77" cy="47" rx="6" ry="7"/><ellipse fill-rule="evenodd" clip-rule="evenodd" fill="#1A9847" cx="29" cy="47" rx="6" ry="7"/><path fill-rule="evenodd" clip-rule="evenodd" fill="#1A9847" d="M41 48c0 8.3 5.6 15 12.5 15S65 56.3 65 48s-4.6-15-11.5-15S41 39.7 41 48z"/><path fill="#4EB748" d="M47.6 52.4s.8-.2 2.7-.4c.3-.5.4-1.2.4-1.8-1.4-1-2.4-2.8-2.4-4.9 0-3.2.4-5.3 4.6-5.3h.4c4.2 0 4.6 2.2 4.6 5.3 0 2.1-1 3.9-2.4 4.9 0 .6.2 1.3.4 1.8 2.1.1 2.7.4 2.7.4 2 .7 5.6 3.1 6.2 10.3l-13.1.7L42 63c0-5.6 2.8-9.9 5.6-10.6z"/><circle fill="#008BC1" cx="82" cy="82" r="18"/><g fill="#FFF"><path d="M79.7 82c.1.1.2.1.3.1.1 0 .2 0 .2-.1.2-.1.3-.3.3-.4v-2.8c5 0 10.4.8 11.6 2.6.1.2.4.3.6.2.2-.1.3-.3.3-.5-.7-4.4-7.1-7.7-12.5-8.1v-3c0-.2-.1-.4-.3-.4-.2-.1-.4-.1-.5 0l-8.5 6.3c-.1.1-.2.3-.2.4s.1.3.2.4l8.5 5.3zm-.2-11v2.4c0 .3.2.5.5.5 4.5.2 9.8 2.6 11.5 5.7-3.2-1.7-9.8-1.8-11.2-1.8H80c-.3 0-.5.2-.5.5v2.4l-7.1-4.4 7.1-5.3z"/><path d="M92.8 86.9l-8.5-5.3c-.2-.1-.3-.1-.5 0s-.3.3-.3.4v2.8c-5 0-10.4-.8-11.6-2.6-.1-.2-.4-.3-.6-.2-.2.1-.3.3-.3.5.7 4.4 7.1 7.7 12.5 8.1v2.9c0 .2.1.4.3.4.1 0 .1.1.2.1s.2 0 .3-.1l8.5-6.3c.1-.1.2-.3.2-.4s-.1-.2-.2-.3zm-8.3 5.8v-2.4c0-.3-.2-.5-.5-.5-4.5-.2-9.8-2.6-11.5-5.7 3.2 1.7 9.8 1.8 11.2 1.8h.3c.3 0 .5-.2.5-.5V83l7.1 4.4-7.1 5.3z"/></g></svg>