<?xml version="1.0" encoding="utf-8"?>
<!-- Generator: Adobe Illustrator 19.0.0, SVG Export Plug-In . SVG Version: 6.00 Build 0)  -->
<svg version="1.1" id="Layer_1" xmlns="http://www.w3.org/2000/svg" xmlns:xlink="http://www.w3.org/1999/xlink" x="0px" y="0px"
	 viewBox="0 0 100 100" style="enable-background:new 0 0 100 100;" xml:space="preserve">
<style type="text/css">
	.st0{fill:#FEDB22;}
	.st1{fill:#FFFFFF;}
	.st2{fill:#C9CFD2;}
	.st3{fill:#D03228;}
</style>
<g>
	<path class="st0" d="M100,50c0-27.6-22.4-50-50-50S0,22.4,0,50c0,15.4,7,29.2,18,38.4V20h64v68.4C93,79.2,100,65.4,100,50z"/>
	<path class="st1" d="M18,20v68.4c8.7,7.2,19.8,11.6,32,11.6s23.3-4.4,32-11.6V20H18z"/>
</g>
<path class="st2" d="M77,41H23c-0.6,0-1-0.4-1-1s0.4-1,1-1h54c0.6,0,1,0.4,1,1S77.6,41,77,41z M63,33H37c-0.6,0-1-0.4-1-1
	c0-0.6,0.4-1,1-1h26c0.6,0,1,0.4,1,1C64,32.6,63.6,33,63,33z M59,28H41c-0.6,0-1-0.4-1-1s0.4-1,1-1h18c0.6,0,1,0.4,1,1
	S59.6,28,59,28z M73,46H23c-0.6,0-1-0.4-1-1s0.4-1,1-1h50c0.6,0,1,0.4,1,1S73.6,46,73,46z M75,51H23c-0.6,0-1-0.4-1-1s0.4-1,1-1h52
	c0.6,0,1,0.4,1,1S75.6,51,75,51z M65,56H23c-0.6,0-1-0.4-1-1s0.4-1,1-1h42c0.6,0,1,0.4,1,1S65.6,56,65,56z M73,64H23
	c-0.6,0-1-0.4-1-1s0.4-1,1-1h50c0.6,0,1,0.4,1,1S73.6,64,73,64z M76,69H23c-0.6,0-1-0.4-1-1s0.4-1,1-1h53c0.6,0,1,0.4,1,1
	S76.6,69,76,69L76,69z M75,74H23c-0.6,0-1-0.4-1-1s0.4-1,1-1h52c0.6,0,1,0.4,1,1S75.6,74,75,74z M65,79H23c-0.6,0-1-0.4-1-1
	s0.4-1,1-1h42c0.6,0,1,0.4,1,1S65.6,79,65,79z M35,84H23c-0.6,0-1-0.4-1-1s0.4-1,1-1h12c0.6,0,1,0.4,1,1S35.6,84,35,84z"/>
<path class="st3" d="M31,34l-4-2l-4,2V20c0-0.6,0.4-1,1-1h6c0.6,0,1,0.4,1,1V34L31,34L31,34z"/>
</svg>
