<svg xmlns="http://www.w3.org/2000/svg" viewBox="0 0 100 100"><circle fill="#273C4A" cx="50" cy="50" r="50"/><path fill="#697780" d="M45.1 24.2s-5-9-22.7-9c0 0 4.6 3.9 4.6 24.8s18.1-15.8 18.1-15.8zM56.4 24.2s5-9 22.7-9c0 0-4.2 3.9-4.2 24.8S56.4 24.2 56.4 24.2z"/><path fill="#091A29" d="M28 20.9s2.3 4.1 2.3 14.8l9.1-9.1s-1.1-5.7-11.4-5.7zM73.5 20.9s-2.3 4.1-2.3 14.8l-9.1-9.1s1.2-5.7 11.4-5.7z"/><path fill="#697780" d="M45 23h11.7c10 0 18.3 8.1 18.3 18v13.2c0 6.6-5.7 12-12.3 12H39c-6.6 0-12-5.4-12-12V41c0-9.9 8.1-18 18-18z"/><path fill="#697780" d="M37.1 65.2L64 65v17c0 4.4-3.2 8.2-7.6 8.2H45.1c-4.4 0-8-3.6-8-8v-17z"/><path fill="#F29EC4" d="M50.9 67.5c3.4 0 6.1 2.7 6.1 6v15.3c0 3.3-2.7 6-6 6h-.1c-3.3 0-6-2.7-6-6V73.5c0-3.4 2.7-6 6-6z"/><path fill="#079ED4" d="M26.9 87l.8-4.3L25 80l-12.4 8.2 6 9.1c1.1 1.7 3.4 2.1 5 1l7.6-5-1.7-3.9-2.6-2.4zM23.3 75l-1.6-1.5-10.1 6.7c-1.7 1.1-2.1 3.4-1 5l12.7-8.4V75zM27.2 75.4l15.2-5.7c-.7-1.9-2.8-2.8-4.7-2.1l-11.3 4.2 1.2 1.8-.4 1.8z"/><path fill="#079ED4" d="M47.4 83.4l-5.1-13.6 1.3 3.4L28.1 79l2.1 3.1-1.8 4 2 3.1.8 4.2 14.2-5.3c1.8-.7 2.7-2.8 2-4.7z"/><path fill="#074A77" d="M12.6 88.2l-2-3M23.4 78.4l-.1-1.6-12.7 8.4 2 3L25 80M26.8 77l1.3 2 15.5-5.8-1.2-3.4-15.2 5.6"/><path fill="#FFF" d="M39.4 80l2.3 5.6 2.2-4.5h13.7l2.3 4.5 2.2-5.6"/><path fill="#697780" d="M34 57h34v15c0 5.5-4.5 10-10 10H44c-5.5 0-10-4.5-10-10V57z"/><path fill="#697780" d="M30.5 62.7s3.4 3 3.4 6.8 4.8-5.1 4.8-5.1l-8.2-1.7z"/><ellipse fill="#091A29" cx="41" cy="49.3" rx="4" ry="3.4"/><path fill="#697780" d="M71.9 62s-3.8 3.4-3.8 6.7c0 3.9-4.1-5.1-4.1-5.1l7.9-1.6z"/><path fill="#091A29" d="M47 68h8c1.7 0 2.9 2.3 2.9 4v1.1c0 2.8-2.2 4.9-4.9 4.9h-4c-2.8 0-5-2.2-5-5v-1.1c0-1.6 1.3-3.9 3-3.9z"/><path fill="#697780" d="M36 44.9s5.8 4.5 11.4 4.5h6.8l12.5-4.5-5.7-3.4-25 3.4z"/><path fill="#273C4A" d="M51.1 54s8.2.1 14 5c0 0 5-3.1 5-9s-3.1-12-7-12-12 1.2-12 16z"/><ellipse fill="#091A29" cx="61" cy="49.3" rx="4" ry="3.7"/><g><path fill="#273C4A" d="M66.7 44.9L61 41.5l-7.1 1c-1.1 1.6-2 3.9-2.5 7h2.7c4.8-.1 12.6-4.6 12.6-4.6z"/></g></svg>