<svg xmlns="http://www.w3.org/2000/svg" viewBox="0 0 100 100"><circle fill="#FEDB22" cx="50" cy="50" r="50"/><path fill="#FFF" d="M18 20h64v80H18z"/><g fill="#C9CFD2"><path d="M77 41H23c-.6 0-1-.4-1-1s.4-1 1-1h54c.6 0 1 .4 1 1s-.4 1-1 1zM63 33H37c-.6 0-1-.4-1-1s.4-1 1-1h26c.6 0 1 .4 1 1s-.4 1-1 1zM59 28H41c-.6 0-1-.4-1-1s.4-1 1-1h18c.6 0 1 .4 1 1s-.4 1-1 1zM73 46H23c-.6 0-1-.4-1-1s.4-1 1-1h50c.6 0 1 .4 1 1s-.4 1-1 1zM75 51H23c-.6 0-1-.4-1-1s.4-1 1-1h52c.6 0 1 .4 1 1s-.4 1-1 1zM65 56H23c-.6 0-1-.4-1-1s.4-1 1-1h42c.6 0 1 .4 1 1s-.4 1-1 1zM73 64H23c-.6 0-1-.4-1-1s.4-1 1-1h50c.6 0 1 .4 1 1s-.4 1-1 1zM76 69H23c-.6 0-1-.4-1-1s.4-1 1-1h53c.6 0 1 .4 1 1s-.4 1-1 1zM75 74H23c-.6 0-1-.4-1-1s.4-1 1-1h52c.6 0 1 .4 1 1s-.4 1-1 1zM65 79H23c-.6 0-1-.4-1-1s.4-1 1-1h42c.6 0 1 .4 1 1s-.4 1-1 1zM35 84H23c-.6 0-1-.4-1-1s.4-1 1-1h12c.6 0 1 .4 1 1s-.4 1-1 1z"/></g><circle fill="#008BC1" cx="82" cy="82" r="18"/><path fill-rule="evenodd" clip-rule="evenodd" fill="#FFF" d="M91.5 74h-19c-1.4 0-2.5 1.1-2.5 2.5v11c0 1.4 1.1 2.5 2.5 2.5h19c1.4 0 2.5-1.1 2.5-2.5v-11c0-1.4-1.1-2.5-2.5-2.5zM93 87.5c0 .8-.7 1.5-1.5 1.5h-19c-.8 0-1.5-.7-1.5-1.5V81h22v6.5zm0-9.5H71v-1.5c0-.8.7-1.5 1.5-1.5h19c.8 0 1.5.7 1.5 1.5V78z"/><path fill="#D03228" d="M31 34l-4-2-4 2V20c0-.6.4-1 1-1h6c.6 0 1 .4 1 1v14z"/></svg>