<?xml version="1.0" encoding="utf-8"?>
<!-- Generator: Adobe Illustrator 21.0.0, SVG Export Plug-In . SVG Version: 6.00 Build 0)  -->
<svg version="1.1" id="Layer_1" xmlns="http://www.w3.org/2000/svg" xmlns:xlink="http://www.w3.org/1999/xlink" x="0px" y="0px"
	 viewBox="0 0 97 96" style="enable-background:new 0 0 97 96;" xml:space="preserve">
<style type="text/css">
	.st0{fill:#FFFFFF;}
	.st1{fill:#273B49;}
	.st2{fill:#AEB5BB;}
	.st3{fill:#D03027;}
	.st4{fill:#019ED5;}
	.st5{fill:#0178A2;}
</style>
<g>
	<path id="path-3" class="st0" d="M48.7,0C22.4,0,1,21.4,1,47.8s21.4,47.8,47.7,47.8c26.4,0,47.7-21.4,47.7-47.8S75.1,0,48.7,0z"/>
</g>
<g>
	<path id="path-1" class="st0" d="M91.1,69.8c3.4-6.6,5.3-14.1,5.3-22s-1.9-15.4-5.3-22H25.8v44H91.1z"/>
</g>
<title>Page 1</title>
<path id="Fill-1" class="st1" d="M96.9,47c0,26.8-21.7,48.6-48.5,48.6S0,74,0,47S21.7-1.5,48.5-1.5S96.9,20.2,96.9,47"/>
<g id="Group-8" transform="translate(.954)">
	<g id="Group-5" transform="translate(24.815 25.834)">
		<path id="Fill-3" class="st0" d="M80.2,44H0V16.3C0,7.3,7.3,0,16.2,0h63.9L80.2,44L80.2,44z"/>
	</g>
	<path id="Fill-6" class="st2" d="M57.3,96.6h11.4V69.8H57.3V96.6z"/>
</g>
<g id="Group-21">
	<path id="Fill-9" class="st2" d="M57.3,69.8H24.8V42.1c0-9,7.3-16.3,16.2-16.3s16.2,7.3,16.2,16.3L57.3,69.8L57.3,69.8z"/>
	<path id="Fill-11" class="st0" d="M59.2,69.8H11.5c-1.1,0-1.9-0.9-1.9-1.9c0-1.1,0.9-1.9,1.9-1.9h47.7V69.8z"/>
	<path id="Fill-13" class="st3" d="M66.8,15.3c-1.1,0-1.9,0.9-1.9,1.9V44c0,1.1,0.9,1.9,1.9,1.9c1.1,0,1.9-0.9,1.9-1.9V17.2
		C68.7,16.1,67.9,15.3,66.8,15.3"/>
	<path id="Fill-15" class="st3" d="M65.9,22h9.5c0.5,0,1-0.4,1-1v-5.7c0-0.5-0.4-1-1-1h-9.5c-0.5,0-1,0.4-1,1V21
		C64.9,21.5,65.3,22,65.9,22"/>
	<path id="Fill-17" class="st4" d="M57.3,66H39.1c-1.6,0-2.9-1.3-2.9-2.9V47.8c0-1.6,1.3-2.9,2.9-2.9h18.1V66H57.3z"/>
	<path id="Fill-19" class="st5" d="M36.3,52.6h21v-3.9h-21V52.6z"/>
</g>
</svg>
