<svg xmlns="http://www.w3.org/2000/svg" viewBox="0 0 100 100"><circle fill="#33B1DC" cx="50" cy="50" r="50"/><path fill="#074A77" d="M75.9 24c-3.6-3.5-9.3-3.5-12.8 0L26.4 60.7l-.6.6c-.2.2-.3.3-.3.5L22 76.5c-.1.4 0 .8.3 1.1.2.2.5.3.8.3h.3l14.8-3.5c.2 0 .4-.2.5-.3L75.9 37c3.6-3.6 3.6-9.4 0-13z"/><path fill="#E59696" d="M75.9 37c3.6-3.6 3.6-9.4 0-12.9s-9.3-3.5-12.8 0L75.9 37z"/><path fill="#FEEB9E" d="M24.9 62.6c.1-.4.3-.7.6-1l.4-.3 12.9 12.9-.3.3c-.3.3-.7.6-1.1.7l-14.4 3c-.7.2-1.4-.5-1.2-1.2l3.1-14.4z"/><path fill="#091A29" d="M29 76.9l-6 1.3c-.7.2-1.4-.5-1.2-1.2l1.3-6 2 2 3.9 3.9z"/><path fill="#DBD8DC" d="M63 24l12.9 13-5.1 5.1-12.9-12.9"/></svg>