<svg id="Layer_1" xmlns="http://www.w3.org/2000/svg" viewBox="9.8 -9 97 97" enable-background="new 9.8 -9 97 97"><style>.st0{fill:#273B49;} .st1{filter:url(#Adobe_OpacityMaskFilter);} .st2{fill:#FFFFFF;} .st3{mask:url(#mask-2);fill:#E6E4E6;} .st4{filter:url(#Adobe_OpacityMaskFilter_1_);} .st5{mask:url(#mask-4);fill:#67C3E5;} .st6{filter:url(#Adobe_OpacityMaskFilter_2_);} .st7{mask:url(#mask-6);fill:#0D4978;} .st8{fill:#10BD1B;}</style><title>Page 1</title><g id="Page-1_1_"><g id="Locked-Chat"><g id="Page-1"><path id="Fill-1" class="st0" d="M106.9 39.5c0 26.8-21.7 48.5-48.5 48.5S9.8 66.3 9.8 39.5 31.6-9 58.4-9s48.5 21.8 48.5 48.5"/><g id="Group-5" transform="translate(30.08 15.525)"><defs><filter id="Adobe_OpacityMaskFilter" filterUnits="userSpaceOnUse" x="2.9" y="-15.1" width="50.8" height="56.3"><feColorMatrix values="1 0 0 0 0 0 1 0 0 0 0 0 1 0 0 0 0 0 1 0"/></filter></defs><mask maskUnits="userSpaceOnUse" x="2.9" y="-15.1" width="50.8" height="56.3" id="mask-2"><g class="st1"><path id="path-1" class="st2" d="M23.7-8.1C16-8.1 9.8-1.9 9.8 5.7v28.6h36.9V5.7c0-7.6-6.2-13.8-13.8-13.8h-9.2zM15.4 5.7c0-4.6 3.7-8.3 8.3-8.3h9.2c4.6 0 8.3 3.7 8.3 8.3v23H15.4v-23z"/></g></mask><path id="Fill-3" class="st3" d="M2.9-15.1h50.8v56.3H2.9v-56.3z"/></g><g id="Group-8" transform="translate(24.257 41.723)"><defs><filter id="Adobe_OpacityMaskFilter_1_" filterUnits="userSpaceOnUse" x="2.2" y="-15.8" width="63.7" height="50.8"><feColorMatrix values="1 0 0 0 0 0 1 0 0 0 0 0 1 0 0 0 0 0 1 0"/></filter></defs><mask maskUnits="userSpaceOnUse" x="2.2" y="-15.8" width="63.7" height="50.8" id="mask-4"><g class="st4"><path id="path-3" class="st2" d="M14.7-8.8c-3.1 0-5.5 2.5-5.5 5.5v25.8c0 3.1 2.5 5.5 5.5 5.5h38.7c3.1 0 5.5-2.5 5.5-5.5V-3.3c0-3.1-2.5-5.5-5.5-5.5H14.7z"/></g></mask><path id="Fill-6" class="st5" d="M2.2-15.8H66V35H2.2v-50.8z"/></g><g id="Group-11" transform="translate(44.634 52.396)"><defs><filter id="Adobe_OpacityMaskFilter_2_" filterUnits="userSpaceOnUse" x="2.2" y="-15.4" width="23.2" height="28.7"><feColorMatrix values="1 0 0 0 0 0 1 0 0 0 0 0 1 0 0 0 0 0 1 0"/></filter></defs><mask maskUnits="userSpaceOnUse" x="2.2" y="-15.4" width="23.2" height="28.7" id="mask-6"><g class="st6"><path id="path-5" class="st2" d="M9.1-3.8c0 2.2 1.6 4.1 3.7 4.5v4.7c0 .5.4.9.9.9s.9-.4.9-.9V.7c2.1-.4 3.7-2.3 3.7-4.5 0-2.5-2.1-4.6-4.6-4.6-2.5 0-4.6 2.1-4.6 4.6z"/></g></mask><path id="Fill-9" class="st7" d="M2.2-15.4h23.2v28.7H2.2v-28.7z"/></g><g id="Group-16"><path id="Fill-12" class="st8" d="M106.9 70.6c0 9.6-7.8 17.5-17.5 17.5s-17.5-7.9-17.5-17.5 7.9-17.5 17.5-17.5 17.5 7.9 17.5 17.5"/><path id="Fill-14" class="st2" d="M86.3 77.5c-.1 0-.2 0-.3-.1l-4.9-4.9c-.2-.2-.2-.4 0-.6.2-.2.4-.2.6 0l4.6 4.6 11.1-12.8c.1-.2.4-.2.6 0 .2.1.2.4 0 .6L86.6 77.4s-.2.1-.3.1z"/></g></g></g></g></svg>