<svg id="Layer_1" data-name="Layer 1" xmlns="http://www.w3.org/2000/svg" xmlns:xlink="http://www.w3.org/1999/xlink" viewBox="0 0 100 100"><defs><style>.cls-1{fill:#687680;}.cls-2{clip-path:url(#clip-path);}.cls-3{fill:#edac85;}.cls-4{fill:#079ed4;}.cls-5{fill:#074a77;}.cls-6{fill:#fdc796;}</style><clipPath id="clip-path" transform="translate(-434.88 -40.49)"><circle class="cls-1" cx="484.88" cy="90.49" r="50"/></clipPath></defs><title>keep-card</title><circle class="cls-1" cx="50" cy="50" r="50"/><g class="cls-2"><path class="cls-3" d="M460,140s21.18,3.39,17.29-30.47H466.43l-4.3,3.75L462,122.09l-2,11.53V140Z" transform="translate(-434.88 -40.49)"/><path class="cls-3" d="M482.72,63.18l3.33,0.7s6.63,3.17,1.87,9.8l-10.76,1.87,3.56-9.22Z" transform="translate(-434.88 -40.49)"/><rect class="cls-4" x="22.36" y="30.43" width="60.25" height="40.17" rx="5.48" ry="5.48"/><rect class="cls-5" x="22.36" y="35.91" width="60.25" height="5.48"/><path class="cls-6" d="M459.68,140.49c5.6-2.59,7.93-7.89,7.33-13.78-0.44-4.33-4.79-11.61-.34-15,1.81-1.37,4.22-1.71,6.27-2.58a75.37,75.37,0,0,0,7.48-3.17c4.32-2.42,1.73-8.11,1.73-8.11-2-3.84-7.2-2.56-7.2-2.56l-17.72,4.41V78.51c0-5.27,1.89-6.24,3.75-6.55a35.16,35.16,0,0,1,4.47,0l2.73,0.43,10.52,1.28c5.48,0.57,6.34-4.13,6.34-4.13,1-4.27-3.17-6.69-3.17-6.69l-11.53-1.57c-4-.71-5.48,1-5.48,1L447.15,80.93a7.5,7.5,0,0,0-1.44,4v55.58h14Z" transform="translate(-434.88 -40.49)"/></g></svg>