<svg id="Layer_1" xmlns="http://www.w3.org/2000/svg" viewBox="0 0 96 96"><style>.st0{fill:#273B49;} .st1{fill:#FFDC24;}</style><title>Page 1</title><g id="Page-1_1_"><g id="You_x27_re-Almost-Done"><g id="Page-1"><path id="Fill-1" class="st0" d="M96 48c0 26.5-21.5 48-48 48S0 74.5 0 48 21.5 0 48 0s48 21.5 48 48"/><path id="Fill-3" class="st1" d="M81.2 63.1L53.4 15.8c-1.5-2.3-3.4-3.5-5.4-3.5s-3.9 1.2-5.4 3.5L14.8 63.1c-2.9 4.7-.8 8.9 4.7 8.9h57c5.6 0 7.7-4.2 4.7-8.9"/><path id="Fill-5" class="st0" d="M48 57.6c-1.6 0-2.9 1.3-2.9 2.9s1.3 2.9 2.9 2.9c1.6 0 2.9-1.3 2.9-2.9s-1.3-2.9-2.9-2.9"/><path id="Fill-7" class="st0" d="M47.9 53.2c.8.1 1.5-.5 1.5-1.3l1.3-17.3v-.4c-.1-1.5-1.4-2.6-2.9-2.5-1.5.1-2.6 1.4-2.5 2.9l1.3 17.3c0 .6.6 1.2 1.3 1.3"/></g></g></g></svg>