<svg xmlns="http://www.w3.org/2000/svg" xmlns:xlink="http://www.w3.org/1999/xlink" viewBox="0 0 100 100"><circle fill="#99D6ED" cx="61" cy="3052" r="50"/><path fill="#FFF" d="M25 3074h73v3H25z"/><path fill="#DDD8DB" d="M32 3036h58v32H32zM27 3071h68v3H27z"/><path fill="#FFF" d="M28 3068h64v3H28zM35 3032h6v36h-6zM44 3032h6v36h-6zM72 3032h6v36h-6zM81 3032h6v36h-6z"/><defs><circle id="a" cx="61" cy="3052" r="50"/></defs><clipPath id="b"><use xlink:href="#a" overflow="visible"/></clipPath><path clip-path="url(#b)" fill="#273C4A" d="M10.9 3077h100v25h-100z"/><path fill="#FFF" d="M91 3038H30c-.3 0-.6-.1-.8-.4l-2-2.7c-.4-.5-.2-1.1.3-1.5l32.5-20.1c.3-.2.7-.2 1.1 0l32.5 20.1c.5.3.6 1 .3 1.5l-2 2.7c-.2.3-.5.4-.9.4z"/><circle fill="#008BC1" cx="93" cy="3084" r="18"/><path fill="#C2C0C5" d="M55 3048h12v20H55z"/><path fill="#FFF" d="M104 3078v12H82v-12h22m1-1H81v14h24v-14z"/><path fill="#FFF" d="M100.5 3080c.8 0 1.5.7 1.5 1.5v5c0 .8-.7 1.5-1.5 1.5h-15c-.8 0-1.5-.7-1.5-1.5v-5c0-.8.7-1.5 1.5-1.5h15m0-1h-15c-1.4 0-2.5 1.1-2.5 2.5v5c0 1.4 1.1 2.5 2.5 2.5h15c1.4 0 2.5-1.1 2.5-2.5v-5c0-1.4-1.1-2.5-2.5-2.5z"/><path fill="#FFF" d="M93 3082c1.1 0 2 .9 2 2s-.9 2-2 2-2-.9-2-2 .9-2 2-2m0-1c-1.7 0-3 1.3-3 3s1.3 3 3 3 3-1.3 3-3-1.3-3-3-3z"/><circle fill="#FFF" cx="99" cy="3084" r="1"/><circle fill="#FFF" cx="87" cy="3084" r="1"/><circle fill="#99D6ED" cx="61" cy="3052" r="50"/><path fill="#FFF" d="M25 3074h73v3H25z"/><path fill="#DDD8DB" d="M32 3036h58v32H32zM27 3071h68v3H27z"/><path fill="#FFF" d="M28 3068h64v3H28zM35 3032h6v36h-6zM44 3032h6v36h-6zM72 3032h6v36h-6zM81 3032h6v36h-6z"/><defs><circle id="c" cx="61" cy="3052" r="50"/></defs><clipPath id="d"><use xlink:href="#c" overflow="visible"/></clipPath><path clip-path="url(#d)" fill="#273C4A" d="M10.9 3077h100v25h-100z"/><path fill="#FFF" d="M91 3038H30c-.3 0-.6-.1-.8-.4l-2-2.7c-.4-.5-.2-1.1.3-1.5l32.5-20.1c.3-.2.7-.2 1.1 0l32.5 20.1c.5.3.6 1 .3 1.5l-2 2.7c-.2.3-.5.4-.9.4z"/><circle fill="#008BC1" cx="93" cy="3084" r="18"/><path fill="#C2C0C5" d="M55 3048h12v20H55z"/><g fill="#FFF"><path d="M104 3076v12H82v-12h22m1-1H81v14h24v-14z"/><path d="M93 3080c1.1 0 2 .9 2 2s-.9 2-2 2-2-.9-2-2 .9-2 2-2m0-1c-1.7 0-3 1.3-3 3s1.3 3 3 3 3-1.3 3-3-1.3-3-3-3z"/><circle cx="99" cy="3082" r="1"/><circle cx="87" cy="3082" r="1"/></g><path fill="#FFF" d="M101 3093H81v-1h21"/><path fill="#008BC1" d="M103 3086l3 3v1h-4v-1l-2-2h3v-1z"/><g><path fill="#FFF" d="M81 3091h22.9l-1.5 1.8c-.2.2-.2.5 0 .7s.5.2.7 0l2.5-2.7.1-.1v-.2-.2l-.1-.1-2.5-2.7c-.1-.1-.2-.1-.3-.1-.1 0-.3.1-.4.2-.2.2-.2.5 0 .7l1.5 1.8H81v.9z"/></g><path fill="#FFF" d="M100.5 3078c.8 0 1.5.7 1.5 1.5v5c0 .8-.7 1.5-1.5 1.5h-15c-.8 0-1.5-.7-1.5-1.5v-5c0-.8.7-1.5 1.5-1.5h15m0-1h-15c-1.4 0-2.5 1.1-2.5 2.5v5c0 1.4 1.1 2.5 2.5 2.5h15c1.4 0 2.5-1.1 2.5-2.5v-5c0-1.4-1.1-2.5-2.5-2.5z"/><g><circle fill="#99D6ED" cx="61" cy="3052" r="50"/><path fill="#FFF" d="M25 3074h73v3H25z"/><path fill="#DDD8DB" d="M32 3036h58v32H32zM27 3071h68v3H27z"/><path fill="#FFF" d="M28 3068h64v3H28zM35 3032h6v36h-6zM44 3032h6v36h-6zM72 3032h6v36h-6zM81 3032h6v36h-6z"/><defs><circle id="e" cx="61" cy="3052" r="50"/></defs><clipPath id="f"><use xlink:href="#e" overflow="visible"/></clipPath><path clip-path="url(#f)" fill="#273C4A" d="M10.9 3077h100v25h-100z"/><path fill="#FFF" d="M91 3038H30c-.3 0-.6-.1-.8-.4l-2-2.7c-.4-.5-.2-1.1.3-1.5l32.5-20.1c.3-.2.7-.2 1.1 0l32.5 20.1c.5.3.6 1 .3 1.5l-2 2.7c-.2.3-.5.4-.9.4z"/><circle fill="#008BC1" cx="93" cy="3084" r="18"/><path fill="#C2C0C5" d="M55 3048h12v20H55z"/><g><path fill="#FFF" d="M93 3073c6.1 0 11 4.9 11 11s-4.9 11-11 11-11-4.9-11-11 4.9-11 11-11m0-1c-6.6 0-12 5.4-12 12s5.4 12 12 12 12-5.4 12-12-5.4-12-12-12z"/></g></g><circle fill="#DDD8DB" cx="61" cy="3027" r="5"/><path fill="none" stroke="#FFF" stroke-linecap="round" stroke-linejoin="round" stroke-miterlimit="10" d="M93 3077v14"/><g><path fill="#FFF" d="M93 3089.9c-1.5 0-2.9-.5-3.9-1.4-.1-.1-.2-.2-.2-.4s.1-.3.2-.4c.1-.1.3-.2.4-.2.2 0 .3.1.3.1.6.5 1.7 1.2 3.2 1.2 2.1 0 2.8-1.1 2.8-2.1 0-1.5-1.5-1.9-3.1-2.3-1.8-.5-3.7-1-3.7-3.2 0-1.8 1.6-3.1 3.8-3.1 1.4 0 2.6.4 3.6 1.2.1 0 .1.2.1.4 0 .1 0 .3-.2.5-.1.1-.3.2-.4.2-.1 0-.2 0-.2-.1-.8-.7-1.8-1-3-1-1.4 0-2.5.8-2.5 1.9 0 1.2 1.3 1.6 2.8 2 1.9.5 4 1.1 4 3.5.1 1.5-1 3.2-4 3.2z"/></g><g><circle fill="#99D6ED" cx="61" cy="3052" r="50"/><path fill="#FFF" d="M25 3074h73v3H25z"/><path fill="#DDD8DB" d="M32 3036h58v32H32zM27 3071h68v3H27z"/><path fill="#FFF" d="M28 3068h64v3H28zM35 3032h6v36h-6zM44 3032h6v36h-6zM72 3032h6v36h-6zM81 3032h6v36h-6z"/><defs><circle id="g" cx="61" cy="3052" r="50"/></defs><clipPath id="h"><use xlink:href="#g" overflow="visible"/></clipPath><path clip-path="url(#h)" fill="#273C4A" d="M10.9 3077h100v25h-100z"/><path fill="#FFF" d="M91 3038H30c-.3 0-.6-.1-.8-.4l-2-2.7c-.4-.5-.2-1.1.3-1.5l32.5-20.1c.3-.2.7-.2 1.1 0l32.5 20.1c.5.3.6 1 .3 1.5l-2 2.7c-.2.3-.5.4-.9.4z"/><circle fill="#008BC1" cx="93" cy="3084" r="18"/><path fill="#C2C0C5" d="M55 3048h12v20H55z"/><path fill="#FFF" d="M104 3078v12H82v-12h22m1-1H81v14h24v-14z"/><path fill="#FFF" d="M100.5 3080c.8 0 1.5.7 1.5 1.5v5c0 .8-.7 1.5-1.5 1.5h-15c-.8 0-1.5-.7-1.5-1.5v-5c0-.8.7-1.5 1.5-1.5h15m0-1h-15c-1.4 0-2.5 1.1-2.5 2.5v5c0 1.4 1.1 2.5 2.5 2.5h15c1.4 0 2.5-1.1 2.5-2.5v-5c0-1.4-1.1-2.5-2.5-2.5z"/><path fill="#FFF" d="M93 3082c1.1 0 2 .9 2 2s-.9 2-2 2-2-.9-2-2 .9-2 2-2m0-1c-1.7 0-3 1.3-3 3s1.3 3 3 3 3-1.3 3-3-1.3-3-3-3z"/><circle fill="#FFF" cx="99" cy="3084" r="1"/><circle fill="#FFF" cx="87" cy="3084" r="1"/></g><g><circle fill="#99D6ED" cx="61" cy="3052" r="50"/><path fill="#FFF" d="M25 3074h73v3H25z"/><path fill="#DDD8DB" d="M32 3036h58v32H32zM27 3071h68v3H27z"/><path fill="#FFF" d="M28 3068h64v3H28zM35 3032h6v36h-6zM44 3032h6v36h-6zM72 3032h6v36h-6zM81 3032h6v36h-6z"/><defs><circle id="i" cx="61" cy="3052" r="50"/></defs><clipPath id="j"><use xlink:href="#i" overflow="visible"/></clipPath><path clip-path="url(#j)" fill="#273C4A" d="M10.9 3077h100v25h-100z"/><path fill="#FFF" d="M91 3038H30c-.3 0-.6-.1-.8-.4l-2-2.7c-.4-.5-.2-1.1.3-1.5l32.5-20.1c.3-.2.7-.2 1.1 0l32.5 20.1c.5.3.6 1 .3 1.5l-2 2.7c-.2.3-.5.4-.9.4z"/><circle fill="#008BC1" cx="93" cy="3084" r="18"/><path fill="#C2C0C5" d="M55 3048h12v20H55z"/><g fill="#FFF"><path d="M104 3076v12H82v-12h22m1-1H81v14h24v-14z"/><path d="M93 3080c1.1 0 2 .9 2 2s-.9 2-2 2-2-.9-2-2 .9-2 2-2m0-1c-1.7 0-3 1.3-3 3s1.3 3 3 3 3-1.3 3-3-1.3-3-3-3z"/><circle cx="99" cy="3082" r="1"/><circle cx="87" cy="3082" r="1"/></g><path fill="#FFF" d="M101 3093H81v-1h21"/><path fill="#008BC1" d="M103 3086l3 3v1h-4v-1l-2-2h3v-1z"/><g><path fill="#FFF" d="M81 3091h22.9l-1.5 1.8c-.2.2-.2.5 0 .7s.5.2.7 0l2.5-2.7.1-.1v-.2-.2l-.1-.1-2.5-2.7c-.1-.1-.2-.1-.3-.1-.1 0-.3.1-.4.2-.2.2-.2.5 0 .7l1.5 1.8H81v.9z"/></g><path fill="#FFF" d="M100.5 3078c.8 0 1.5.7 1.5 1.5v5c0 .8-.7 1.5-1.5 1.5h-15c-.8 0-1.5-.7-1.5-1.5v-5c0-.8.7-1.5 1.5-1.5h15m0-1h-15c-1.4 0-2.5 1.1-2.5 2.5v5c0 1.4 1.1 2.5 2.5 2.5h15c1.4 0 2.5-1.1 2.5-2.5v-5c0-1.4-1.1-2.5-2.5-2.5z"/></g><g><circle fill="#99D6ED" cx="61" cy="3052" r="50"/><path fill="#FFF" d="M25 3074h73v3H25z"/><path fill="#DDD8DB" d="M32 3036h58v32H32zM27 3071h68v3H27z"/><path fill="#FFF" d="M28 3068h64v3H28zM35 3032h6v36h-6zM44 3032h6v36h-6zM72 3032h6v36h-6zM81 3032h6v36h-6z"/><defs><circle id="k" cx="61" cy="3052" r="50"/></defs><clipPath id="l"><use xlink:href="#k" overflow="visible"/></clipPath><path clip-path="url(#l)" fill="#273C4A" d="M10.9 3077h100v25h-100z"/><path fill="#FFF" d="M91 3038H30c-.3 0-.6-.1-.8-.4l-2-2.7c-.4-.5-.2-1.1.3-1.5l32.5-20.1c.3-.2.7-.2 1.1 0l32.5 20.1c.5.3.6 1 .3 1.5l-2 2.7c-.2.3-.5.4-.9.4z"/><circle fill="#008BC1" cx="93" cy="3084" r="18"/><path fill="#C2C0C5" d="M55 3048h12v20H55z"/><g><path fill="#FFF" d="M93 3073c6.1 0 11 4.9 11 11s-4.9 11-11 11-11-4.9-11-11 4.9-11 11-11m0-1c-6.6 0-12 5.4-12 12s5.4 12 12 12 12-5.4 12-12-5.4-12-12-12z"/></g></g><circle fill="#DDD8DB" cx="61" cy="3027" r="5"/><path fill="none" stroke="#FFF" stroke-linecap="round" stroke-linejoin="round" stroke-miterlimit="10" d="M93 3077v14"/><g><path fill="#FFF" d="M93 3089.9c-1.5 0-2.9-.5-3.9-1.4-.1-.1-.2-.2-.2-.4s.1-.3.2-.4c.1-.1.3-.2.4-.2.2 0 .3.1.3.1.6.5 1.7 1.2 3.2 1.2 2.1 0 2.8-1.1 2.8-2.1 0-1.5-1.5-1.9-3.1-2.3-1.8-.5-3.7-1-3.7-3.2 0-1.8 1.6-3.1 3.8-3.1 1.4 0 2.6.4 3.6 1.2.1 0 .1.2.1.4 0 .1 0 .3-.2.5-.1.1-.3.2-.4.2-.1 0-.2 0-.2-.1-.8-.7-1.8-1-3-1-1.4 0-2.5.8-2.5 1.9 0 1.2 1.3 1.6 2.8 2 1.9.5 4 1.1 4 3.5.1 1.5-1 3.2-4 3.2z"/></g><g><circle fill="#99D6ED" cx="61" cy="3052" r="50"/><path fill="#FFF" d="M25 3074h73v3H25z"/><path fill="#DDD8DB" d="M32 3036h58v32H32zM27 3071h68v3H27z"/><path fill="#FFF" d="M28 3068h64v3H28zM35 3032h6v36h-6zM44 3032h6v36h-6zM72 3032h6v36h-6zM81 3032h6v36h-6z"/><defs><circle id="m" cx="61" cy="3052" r="50"/></defs><clipPath id="n"><use xlink:href="#m" overflow="visible"/></clipPath><path clip-path="url(#n)" fill="#273C4A" d="M10.9 3077h100v25h-100z"/><path fill="#FFF" d="M91 3038H30c-.3 0-.6-.1-.8-.4l-2-2.7c-.4-.5-.2-1.1.3-1.5l32.5-20.1c.3-.2.7-.2 1.1 0l32.5 20.1c.5.3.6 1 .3 1.5l-2 2.7c-.2.3-.5.4-.9.4z"/><circle fill="#008BC1" cx="93" cy="3084" r="18"/><path fill="#C2C0C5" d="M55 3048h12v20H55z"/><path fill="#FFF" d="M104 3078v12H82v-12h22m1-1H81v14h24v-14z"/><path fill="#FFF" d="M100.5 3080c.8 0 1.5.7 1.5 1.5v5c0 .8-.7 1.5-1.5 1.5h-15c-.8 0-1.5-.7-1.5-1.5v-5c0-.8.7-1.5 1.5-1.5h15m0-1h-15c-1.4 0-2.5 1.1-2.5 2.5v5c0 1.4 1.1 2.5 2.5 2.5h15c1.4 0 2.5-1.1 2.5-2.5v-5c0-1.4-1.1-2.5-2.5-2.5z"/><path fill="#FFF" d="M93 3082c1.1 0 2 .9 2 2s-.9 2-2 2-2-.9-2-2 .9-2 2-2m0-1c-1.7 0-3 1.3-3 3s1.3 3 3 3 3-1.3 3-3-1.3-3-3-3z"/><circle fill="#FFF" cx="99" cy="3084" r="1"/><circle fill="#FFF" cx="87" cy="3084" r="1"/></g><g><circle fill="#99D6ED" cx="61" cy="3052" r="50"/><path fill="#FFF" d="M25 3074h73v3H25z"/><path fill="#DDD8DB" d="M32 3036h58v32H32zM27 3071h68v3H27z"/><path fill="#FFF" d="M28 3068h64v3H28zM35 3032h6v36h-6zM44 3032h6v36h-6zM72 3032h6v36h-6zM81 3032h6v36h-6z"/><defs><circle id="o" cx="61" cy="3052" r="50"/></defs><clipPath id="p"><use xlink:href="#o" overflow="visible"/></clipPath><path clip-path="url(#p)" fill="#273C4A" d="M10.9 3077h100v25h-100z"/><path fill="#FFF" d="M91 3038H30c-.3 0-.6-.1-.8-.4l-2-2.7c-.4-.5-.2-1.1.3-1.5l32.5-20.1c.3-.2.7-.2 1.1 0l32.5 20.1c.5.3.6 1 .3 1.5l-2 2.7c-.2.3-.5.4-.9.4z"/><circle fill="#008BC1" cx="93" cy="3084" r="18"/><path fill="#C2C0C5" d="M55 3048h12v20H55z"/><g fill="#FFF"><path d="M104 3076v12H82v-12h22m1-1H81v14h24v-14z"/><path d="M93 3080c1.1 0 2 .9 2 2s-.9 2-2 2-2-.9-2-2 .9-2 2-2m0-1c-1.7 0-3 1.3-3 3s1.3 3 3 3 3-1.3 3-3-1.3-3-3-3z"/><circle cx="99" cy="3082" r="1"/><circle cx="87" cy="3082" r="1"/></g><path fill="#FFF" d="M101 3093H81v-1h21"/><path fill="#008BC1" d="M103 3086l3 3v1h-4v-1l-2-2h3v-1z"/><g><path fill="#FFF" d="M81 3091h22.9l-1.5 1.8c-.2.2-.2.5 0 .7s.5.2.7 0l2.5-2.7.1-.1v-.2-.2l-.1-.1-2.5-2.7c-.1-.1-.2-.1-.3-.1-.1 0-.3.1-.4.2-.2.2-.2.5 0 .7l1.5 1.8H81v.9z"/></g><path fill="#FFF" d="M100.5 3078c.8 0 1.5.7 1.5 1.5v5c0 .8-.7 1.5-1.5 1.5h-15c-.8 0-1.5-.7-1.5-1.5v-5c0-.8.7-1.5 1.5-1.5h15m0-1h-15c-1.4 0-2.5 1.1-2.5 2.5v5c0 1.4 1.1 2.5 2.5 2.5h15c1.4 0 2.5-1.1 2.5-2.5v-5c0-1.4-1.1-2.5-2.5-2.5z"/></g><g><circle fill="#99D6ED" cx="61" cy="3052" r="50"/><path fill="#FFF" d="M25 3074h73v3H25z"/><path fill="#DDD8DB" d="M32 3036h58v32H32zM27 3071h68v3H27z"/><path fill="#FFF" d="M28 3068h64v3H28zM35 3032h6v36h-6zM44 3032h6v36h-6zM72 3032h6v36h-6zM81 3032h6v36h-6z"/><defs><circle id="q" cx="61" cy="3052" r="50"/></defs><clipPath id="r"><use xlink:href="#q" overflow="visible"/></clipPath><path clip-path="url(#r)" fill="#273C4A" d="M10.9 3077h100v25h-100z"/><path fill="#FFF" d="M91 3038H30c-.3 0-.6-.1-.8-.4l-2-2.7c-.4-.5-.2-1.1.3-1.5l32.5-20.1c.3-.2.7-.2 1.1 0l32.5 20.1c.5.3.6 1 .3 1.5l-2 2.7c-.2.3-.5.4-.9.4z"/><circle fill="#008BC1" cx="93" cy="3084" r="18"/><path fill="#C2C0C5" d="M55 3048h12v20H55z"/><g><path fill="#FFF" d="M93 3073c6.1 0 11 4.9 11 11s-4.9 11-11 11-11-4.9-11-11 4.9-11 11-11m0-1c-6.6 0-12 5.4-12 12s5.4 12 12 12 12-5.4 12-12-5.4-12-12-12z"/></g></g><circle fill="#DDD8DB" cx="61" cy="3027" r="5"/><path fill="none" stroke="#FFF" stroke-linecap="round" stroke-linejoin="round" stroke-miterlimit="10" d="M93 3077v14"/><g><path fill="#FFF" d="M93 3089.9c-1.5 0-2.9-.5-3.9-1.4-.1-.1-.2-.2-.2-.4s.1-.3.2-.4c.1-.1.3-.2.4-.2.2 0 .3.1.3.1.6.5 1.7 1.2 3.2 1.2 2.1 0 2.8-1.1 2.8-2.1 0-1.5-1.5-1.9-3.1-2.3-1.8-.5-3.7-1-3.7-3.2 0-1.8 1.6-3.1 3.8-3.1 1.4 0 2.6.4 3.6 1.2.1 0 .1.2.1.4 0 .1 0 .3-.2.5-.1.1-.3.2-.4.2-.1 0-.2 0-.2-.1-.8-.7-1.8-1-3-1-1.4 0-2.5.8-2.5 1.9 0 1.2 1.3 1.6 2.8 2 1.9.5 4 1.1 4 3.5.1 1.5-1 3.2-4 3.2z"/></g><g><circle fill="#99D6ED" cx="61" cy="3052" r="50"/><path fill="#FFF" d="M25 3074h73v3H25z"/><path fill="#DDD8DB" d="M32 3036h58v32H32zM27 3071h68v3H27z"/><path fill="#FFF" d="M28 3068h64v3H28zM35 3032h6v36h-6zM44 3032h6v36h-6zM72 3032h6v36h-6zM81 3032h6v36h-6z"/><defs><circle id="s" cx="61" cy="3052" r="50"/></defs><clipPath id="t"><use xlink:href="#s" overflow="visible"/></clipPath><path clip-path="url(#t)" fill="#273C4A" d="M10.9 3077h100v25h-100z"/><path fill="#FFF" d="M91 3038H30c-.3 0-.6-.1-.8-.4l-2-2.7c-.4-.5-.2-1.1.3-1.5l32.5-20.1c.3-.2.7-.2 1.1 0l32.5 20.1c.5.3.6 1 .3 1.5l-2 2.7c-.2.3-.5.4-.9.4z"/><circle fill="#008BC1" cx="93" cy="3084" r="18"/><path fill="#C2C0C5" d="M55 3048h12v20H55z"/><path fill="#FFF" d="M104 3078v12H82v-12h22m1-1H81v14h24v-14z"/><path fill="#FFF" d="M100.5 3080c.8 0 1.5.7 1.5 1.5v5c0 .8-.7 1.5-1.5 1.5h-15c-.8 0-1.5-.7-1.5-1.5v-5c0-.8.7-1.5 1.5-1.5h15m0-1h-15c-1.4 0-2.5 1.1-2.5 2.5v5c0 1.4 1.1 2.5 2.5 2.5h15c1.4 0 2.5-1.1 2.5-2.5v-5c0-1.4-1.1-2.5-2.5-2.5z"/><path fill="#FFF" d="M93 3082c1.1 0 2 .9 2 2s-.9 2-2 2-2-.9-2-2 .9-2 2-2m0-1c-1.7 0-3 1.3-3 3s1.3 3 3 3 3-1.3 3-3-1.3-3-3-3z"/><circle fill="#FFF" cx="99" cy="3084" r="1"/><circle fill="#FFF" cx="87" cy="3084" r="1"/></g><g><circle fill="#99D6ED" cx="61" cy="3052" r="50"/><path fill="#FFF" d="M25 3074h73v3H25z"/><path fill="#DDD8DB" d="M32 3036h58v32H32zM27 3071h68v3H27z"/><path fill="#FFF" d="M28 3068h64v3H28zM35 3032h6v36h-6zM44 3032h6v36h-6zM72 3032h6v36h-6zM81 3032h6v36h-6z"/><defs><circle id="u" cx="61" cy="3052" r="50"/></defs><clipPath id="v"><use xlink:href="#u" overflow="visible"/></clipPath><path clip-path="url(#v)" fill="#273C4A" d="M10.9 3077h100v25h-100z"/><path fill="#FFF" d="M91 3038H30c-.3 0-.6-.1-.8-.4l-2-2.7c-.4-.5-.2-1.1.3-1.5l32.5-20.1c.3-.2.7-.2 1.1 0l32.5 20.1c.5.3.6 1 .3 1.5l-2 2.7c-.2.3-.5.4-.9.4z"/><circle fill="#008BC1" cx="93" cy="3084" r="18"/><path fill="#C2C0C5" d="M55 3048h12v20H55z"/><g fill="#FFF"><path d="M104 3076v12H82v-12h22m1-1H81v14h24v-14z"/><path d="M93 3080c1.1 0 2 .9 2 2s-.9 2-2 2-2-.9-2-2 .9-2 2-2m0-1c-1.7 0-3 1.3-3 3s1.3 3 3 3 3-1.3 3-3-1.3-3-3-3z"/><circle cx="99" cy="3082" r="1"/><circle cx="87" cy="3082" r="1"/></g><path fill="#FFF" d="M101 3093H81v-1h21"/><path fill="#008BC1" d="M103 3086l3 3v1h-4v-1l-2-2h3v-1z"/><g><path fill="#FFF" d="M81 3091h22.9l-1.5 1.8c-.2.2-.2.5 0 .7s.5.2.7 0l2.5-2.7.1-.1v-.2-.2l-.1-.1-2.5-2.7c-.1-.1-.2-.1-.3-.1-.1 0-.3.1-.4.2-.2.2-.2.5 0 .7l1.5 1.8H81v.9z"/></g><path fill="#FFF" d="M100.5 3078c.8 0 1.5.7 1.5 1.5v5c0 .8-.7 1.5-1.5 1.5h-15c-.8 0-1.5-.7-1.5-1.5v-5c0-.8.7-1.5 1.5-1.5h15m0-1h-15c-1.4 0-2.5 1.1-2.5 2.5v5c0 1.4 1.1 2.5 2.5 2.5h15c1.4 0 2.5-1.1 2.5-2.5v-5c0-1.4-1.1-2.5-2.5-2.5z"/></g><g><circle fill="#99D6ED" cx="61" cy="3052" r="50"/><path fill="#FFF" d="M25 3074h73v3H25z"/><path fill="#DDD8DB" d="M32 3036h58v32H32zM27 3071h68v3H27z"/><path fill="#FFF" d="M28 3068h64v3H28zM35 3032h6v36h-6zM44 3032h6v36h-6zM72 3032h6v36h-6zM81 3032h6v36h-6z"/><defs><circle id="w" cx="61" cy="3052" r="50"/></defs><clipPath id="x"><use xlink:href="#w" overflow="visible"/></clipPath><path clip-path="url(#x)" fill="#273C4A" d="M10.9 3077h100v25h-100z"/><path fill="#FFF" d="M91 3038H30c-.3 0-.6-.1-.8-.4l-2-2.7c-.4-.5-.2-1.1.3-1.5l32.5-20.1c.3-.2.7-.2 1.1 0l32.5 20.1c.5.3.6 1 .3 1.5l-2 2.7c-.2.3-.5.4-.9.4z"/><circle fill="#008BC1" cx="93" cy="3084" r="18"/><path fill="#C2C0C5" d="M55 3048h12v20H55z"/><g><path fill="#FFF" d="M93 3073c6.1 0 11 4.9 11 11s-4.9 11-11 11-11-4.9-11-11 4.9-11 11-11m0-1c-6.6 0-12 5.4-12 12s5.4 12 12 12 12-5.4 12-12-5.4-12-12-12z"/></g></g><circle fill="#DDD8DB" cx="61" cy="3027" r="5"/><path fill="none" stroke="#FFF" stroke-linecap="round" stroke-linejoin="round" stroke-miterlimit="10" d="M93 3077v14"/><g><path fill="#FFF" d="M93 3089.9c-1.5 0-2.9-.5-3.9-1.4-.1-.1-.2-.2-.2-.4s.1-.3.2-.4c.1-.1.3-.2.4-.2.2 0 .3.1.3.1.6.5 1.7 1.2 3.2 1.2 2.1 0 2.8-1.1 2.8-2.1 0-1.5-1.5-1.9-3.1-2.3-1.8-.5-3.7-1-3.7-3.2 0-1.8 1.6-3.1 3.8-3.1 1.4 0 2.6.4 3.6 1.2.1 0 .1.2.1.4 0 .1 0 .3-.2.5-.1.1-.3.2-.4.2-.1 0-.2 0-.2-.1-.8-.7-1.8-1-3-1-1.4 0-2.5.8-2.5 1.9 0 1.2 1.3 1.6 2.8 2 1.9.5 4 1.1 4 3.5.1 1.5-1 3.2-4 3.2z"/></g><g><circle fill="#99D6ED" cx="50" cy="50" r="50"/><path fill="#FFF" d="M14 72h73v3H14z"/><path fill="#DDD8DB" d="M21 34h58v32H21zM16 69h68v3H16z"/><path fill="#FFF" d="M17 66h64v3H17zM24 30h6v36h-6zM33 30h6v36h-6zM61 30h6v36h-6zM70 30h6v36h-6z"/><defs><circle id="y" cx="50" cy="50" r="50"/></defs><clipPath id="z"><use xlink:href="#y" overflow="visible"/></clipPath><path clip-path="url(#z)" fill="#273C4A" d="M-.1 75h100v25H-.1z"/><path fill="#FFF" d="M80 36H19c-.3 0-.6-.1-.8-.4l-2-2.7c-.4-.5-.2-1.1.3-1.5L49 11.3c.3-.2.7-.2 1.1 0l32.5 20.1c.5.3.6 1 .3 1.5l-2 2.7c-.2.3-.5.4-.9.4z"/><circle fill="#008BC1" cx="82" cy="82" r="18"/><path fill="#C2C0C5" d="M44 46h12v20H44z"/><path fill="#FFF" d="M93 76v12H71V76h22m1-1H70v14h24V75z"/><path fill="#FFF" d="M89.5 78c.8 0 1.5.7 1.5 1.5v5c0 .8-.7 1.5-1.5 1.5h-15c-.8 0-1.5-.7-1.5-1.5v-5c0-.8.7-1.5 1.5-1.5h15m0-1h-15c-1.4 0-2.5 1.1-2.5 2.5v5c0 1.4 1.1 2.5 2.5 2.5h15c1.4 0 2.5-1.1 2.5-2.5v-5c0-1.4-1.1-2.5-2.5-2.5z"/><path fill="#FFF" d="M82 80c1.1 0 2 .9 2 2s-.9 2-2 2-2-.9-2-2 .9-2 2-2m0-1c-1.7 0-3 1.3-3 3s1.3 3 3 3 3-1.3 3-3-1.3-3-3-3z"/><circle fill="#FFF" cx="88" cy="82" r="1"/><circle fill="#FFF" cx="76" cy="82" r="1"/></g><g><circle fill="#99D6ED" cx="50" cy="50" r="50"/><path fill="#FFF" d="M14 72h73v3H14z"/><path fill="#DDD8DB" d="M21 34h58v32H21zM16 69h68v3H16z"/><path fill="#FFF" d="M17 66h64v3H17zM24 30h6v36h-6zM33 30h6v36h-6zM61 30h6v36h-6zM70 30h6v36h-6z"/><defs><circle id="A" cx="50" cy="50" r="50"/></defs><clipPath id="B"><use xlink:href="#A" overflow="visible"/></clipPath><path clip-path="url(#B)" fill="#273C4A" d="M-.1 75h100v25H-.1z"/><path fill="#FFF" d="M80 36H19c-.3 0-.6-.1-.8-.4l-2-2.7c-.4-.5-.2-1.1.3-1.5L49 11.3c.3-.2.7-.2 1.1 0l32.5 20.1c.5.3.6 1 .3 1.5l-2 2.7c-.2.3-.5.4-.9.4z"/><circle fill="#008BC1" cx="82" cy="82" r="18"/><path fill="#C2C0C5" d="M44 46h12v20H44z"/><g fill="#FFF"><path d="M93 74v12H71V74h22m1-1H70v14h24V73z"/><path d="M82 78c1.1 0 2 .9 2 2s-.9 2-2 2-2-.9-2-2 .9-2 2-2m0-1c-1.7 0-3 1.3-3 3s1.3 3 3 3 3-1.3 3-3-1.3-3-3-3z"/><circle cx="88" cy="80" r="1"/><circle cx="76" cy="80" r="1"/></g><path fill="#FFF" d="M90 91H70v-1h21"/><path fill="#008BC1" d="M92 84l3 3v1h-4v-1l-2-2h3v-1z"/><g><path fill="#FFF" d="M70 89h22.9l-1.5 1.8c-.2.2-.2.5 0 .7s.5.2.7 0l2.5-2.7.1-.1v-.2-.2l-.1-.1-2.6-2.7c-.1-.1-.2-.1-.3-.1-.1 0-.3.1-.4.2-.2.2-.2.5 0 .7l1.5 1.8H70v.9z"/></g><path fill="#FFF" d="M89.5 76c.8 0 1.5.7 1.5 1.5v5c0 .8-.7 1.5-1.5 1.5h-15c-.8 0-1.5-.7-1.5-1.5v-5c0-.8.7-1.5 1.5-1.5h15m0-1h-15c-1.4 0-2.5 1.1-2.5 2.5v5c0 1.4 1.1 2.5 2.5 2.5h15c1.4 0 2.5-1.1 2.5-2.5v-5c0-1.4-1.1-2.5-2.5-2.5z"/></g><g><circle fill="#99D6ED" cx="50" cy="50" r="50"/><path fill="#FFF" d="M14 72h73v3H14z"/><path fill="#DDD8DB" d="M21 34h58v32H21zM16 69h68v3H16z"/><path fill="#FFF" d="M17 66h64v3H17zM24 30h6v36h-6zM33 30h6v36h-6zM61 30h6v36h-6zM70 30h6v36h-6z"/><defs><circle id="C" cx="50" cy="50" r="50"/></defs><clipPath id="D"><use xlink:href="#C" overflow="visible"/></clipPath><path clip-path="url(#D)" fill="#273C4A" d="M-.1 75h100v25H-.1z"/><path fill="#FFF" d="M80 36H19c-.3 0-.6-.1-.8-.4l-2-2.7c-.4-.5-.2-1.1.3-1.5L49 11.3c.3-.2.7-.2 1.1 0l32.5 20.1c.5.3.6 1 .3 1.5l-2 2.7c-.2.3-.5.4-.9.4z"/><circle fill="#008BC1" cx="82" cy="82" r="18"/><path fill="#C2C0C5" d="M44 46h12v20H44z"/><g><path fill="#FFF" d="M82 71c6.1 0 11 4.9 11 11s-4.9 11-11 11-11-4.9-11-11 4.9-11 11-11m0-1c-6.6 0-12 5.4-12 12s5.4 12 12 12 12-5.4 12-12-5.4-12-12-12z"/></g></g><circle fill="#DDD8DB" cx="50" cy="25" r="5"/><path fill="none" stroke="#FFF" stroke-linecap="round" stroke-linejoin="round" stroke-miterlimit="10" d="M82 75v14"/><g><path fill="#FFF" d="M82 87.9c-1.5 0-2.9-.5-3.9-1.4-.1-.1-.2-.2-.2-.4s.1-.3.2-.4c.1-.1.3-.2.4-.2.2 0 .3.1.3.1.6.5 1.7 1.2 3.2 1.2 2.1 0 2.8-1.1 2.8-2.1 0-1.5-1.5-1.9-3.1-2.3-1.8-.5-3.7-1-3.7-3.2 0-1.8 1.6-3.1 3.8-3.1 1.4 0 2.6.4 3.6 1.2.1 0 .1.2.1.4 0 .1 0 .3-.2.5-.1.1-.3.2-.4.2-.1 0-.2 0-.2-.1-.8-.7-1.8-1-3-1-1.4 0-2.5.8-2.5 1.9 0 1.2 1.3 1.6 2.8 2 1.9.5 4 1.1 4 3.5.1 1.5-1 3.2-4 3.2z"/></g></svg>