<svg xmlns="http://www.w3.org/2000/svg" xmlns:xlink="http://www.w3.org/1999/xlink" viewBox="0 0 100 100"><circle fill="#019ED5" cx="50" cy="50" r="50"/><defs><circle id="a" cx="50" cy="50" r="50"/></defs><clipPath id="b"><use xlink:href="#a" overflow="visible"/></clipPath><path clip-path="url(#b)" fill="#0178A2" d="M1 75h100v25H1z"/><path fill="none" stroke="#DBBF21" stroke-width="2" stroke-linecap="round" stroke-linejoin="round" stroke-miterlimit="10" d="M11.6 51L25 32.2l13 19M61.6 40.8L75 22l13 19"/><path fill="#FFDC24" d="M76.6 23.9L24.2 34.1c-1.1.2-2.1-.5-2.3-1.6-.2-1.1.5-2.1 1.6-2.3L75.9 20c1.1-.2 2.1.5 2.3 1.6.2 1-.5 2-1.6 2.3z"/><path fill="#DFB91D" d="M50 20c1.1 0 2 .9 2 2v47c0 1.1-.9 2-2 2v-1c-1.1 0-2 .1-2-1V22c0-1.1.9-2 2-2z"/><path fill="#FFDC24" d="M25 65c8.3 0 15-6.7 15-15H10c0 8.3 6.7 15 15 15zM75 54.8c8.3 0 15-6.7 15-15H60c0 8.3 6.7 15 15 15z"/><path fill="#DFB91D" d="M50 56c2.2 0 4 1.8 4 4v10c0 2.2-1.8 4-4 4s-4-1.8-4-4V60c0-2.2 1.8-4 4-4z"/><path fill="#DFB91D" d="M50 67c-8.3 0-15 3.6-15 8h30c0-4.4-6.7-8-15-8z"/><circle fill="#DFB91D" cx="50" cy="27" r="4"/></svg>