<svg xmlns="http://www.w3.org/2000/svg" xmlns:xlink="http://www.w3.org/1999/xlink" viewBox="0 0 100 100"><circle fill="#99D6ED" cx="50" cy="50" r="50"/><path fill="#FFF" d="M13.9 72h73v3h-73z"/><path fill="#DDD8DB" d="M20.9 34h58v32h-58zM15.9 69h68v3h-68z"/><path fill="#FFF" d="M17.9 66h64v3h-64zM23.9 30h6v36h-6zM32.9 30h6v36h-6zM60.9 30h6v36h-6zM69.9 30h6v36h-6z"/><defs><circle id="a" cx="50" cy="50" r="50"/></defs><clipPath id="b"><use xlink:href="#a" overflow="visible"/></clipPath><path clip-path="url(#b)" fill="#273C4A" d="M-.1 75h100v25H-.1z"/><path fill="#FFF" d="M80.4 36h-61c-.3 0-.6-.1-.8-.4l-2-2.7c-.4-.5-.2-1.1.3-1.5l32.5-20.1c.3-.2.7-.2 1.1 0L83 31.4c.5.3.6 1 .3 1.5l-2 2.7c-.3.3-.5.4-.9.4z"/><circle fill="#008BC1" cx="82" cy="82" r="18"/><g fill="#F3F3F3"><path d="M82.2 86.4L79 89.5c-.9.9-2.6.9-3.5 0l-.7-.7c-1-1-1-2.6 0-3.5l4.6-4.6c.9-.9 2.6-.9 3.5 0l.7.7c.2.2.5.2.7 0 .2-.2.2-.5 0-.7l-.7-.7c-1.3-1.3-3.6-1.3-4.9 0L74 84.6c-1.4 1.4-1.4 3.6 0 4.9l.7.7c.7.7 1.5 1 2.5 1 .9 0 1.8-.4 2.5-1l3.2-3.2c.2-.2.2-.5 0-.7-.2-.1-.5-.1-.7.1z"/><path d="M90.3 74.7l-.7-.7c-1.3-1.3-3.6-1.3-4.9 0l-3.2 3.2c-.2.2-.2.5 0 .7.2.2.5.2.7 0l3.2-3.2c.9-.9 2.6-.9 3.5 0l.7.7c.5.5.7 1.1.7 1.8s-.3 1.3-.7 1.8L85 83.5c-.9.9-2.6.9-3.5 0-.2-.2-.5-.2-.7 0-.2.2-.2.5 0 .7.7.7 1.5 1 2.5 1 .9 0 1.8-.4 2.5-1l4.6-4.6c.7-.7 1-1.5 1-2.5-.1-.9-.5-1.7-1.1-2.4z"/></g><path fill="#C2C0C5" d="M43.9 46h12v20h-12z"/></svg>