<svg xmlns="http://www.w3.org/2000/svg" xmlns:xlink="http://www.w3.org/1999/xlink" viewBox="0 0 100 100"><defs><circle id="a" cx="50" cy="50" r="50"/></defs><clipPath id="b"><use xlink:href="#a" overflow="visible"/></clipPath><circle clip-path="url(#b)" fill="#99D6ED" cx="50" cy="50" r="50"/><path clip-path="url(#b)" fill-rule="evenodd" clip-rule="evenodd" fill="#039ED5" d="M1 78h100l-.1 35.5H.9"/><g clip-path="url(#b)"><g fill-rule="evenodd" clip-rule="evenodd"><path fill="#F4F1F3" d="M18 77c0 .6.5 1 1 1h62c.5 0 1-.4 1-1V46H18v31z"/><path fill="#D22E2F" d="M45 46h10v32H45z"/></g><path fill-rule="evenodd" clip-rule="evenodd" fill="#FFF" d="M15 45c0 .6.4 1 1 1h68c.6 0 1-.4 1-1V33c0-.6-.4-1-1-1H16c-.6 0-1 .4-1 1v12z"/><path fill-rule="evenodd" clip-rule="evenodd" fill="#AD1F24" d="M44 32h12v14H44z"/><g fill-rule="evenodd" clip-rule="evenodd" fill="#D22E2F"><path d="M61 18.5c.7-.8 1.8-.7 2.4.2l4.2 6.5c.6.9.2 2-.8 2.3L54 32v-5l7-8.5zM46 27c0-.6.5-1 1-1h6c.6 0 1 .5 1 1v5h-8v-5zM39 18.5c-.7-.8-1.8-.7-2.4.2l-4.2 6.5c-.6.9-.2 2 .8 2.3L46 32v-5l-7-8.5z"/><g><path d="M61.5 36.5l-.5 2.3c-.1.5-.6.7-1 .3l-7-7v-5l11 8.1c.4.3.4.7-.2.8l-2.3.5zM38.4 36.5l-2.3-.5c-.5-.1-.6-.5-.2-.8L47 27v5l-7 7.1c-.4.4-.8.3-1-.3l-.6-2.3z"/></g></g></g></svg>