<svg xmlns="http://www.w3.org/2000/svg" xmlns:xlink="http://www.w3.org/1999/xlink" viewBox="0 0 100 100"><circle fill="#697780" cx="50" cy="50" r="50"/><defs><circle id="a" cx="50" cy="50" r="50"/></defs><clipPath id="b"><use xlink:href="#a" overflow="visible"/></clipPath><path clip-path="url(#b)" fill="#273C4A" d="M0 75h100v25H0z"/><path fill-rule="evenodd" clip-rule="evenodd" fill="#F8CC0F" d="M59.5 34.3c-.2-.2-.5-.2-.7-.2H41.5c-.3 0-.5.1-.7.2C34.2 39.1 24 53 24 62c0 7.4 3.6 19 26.1 19S76 69.4 76 62c0-9-9.9-22.9-16.5-27.7M41.5 31.5c0 .7.6 1.2 1.2 1.2h14.8c.7 0 1.2-.6 1.2-1.2 0-5.6 5.8-12.7 5.9-12.8.4-.4.4-1 .1-1.5-.3-.5-.9-.6-1.4-.4l-8.8 3.3-3.2-6.4c-.4-.8-1.8-.8-2.2 0l-3.2 6.4-8.9-3.3c-.5-.2-1.1 0-1.4.4-.3.5-.3 1.1.1 1.5 0 .1 5.8 7.2 5.8 12.8"/><path fill-rule="evenodd" clip-rule="evenodd" fill="#F2F1F2" d="M50.1 21.3l4.3-1.1-4.3 1.1z"/><path fill-rule="evenodd" clip-rule="evenodd" fill="#FFE34F" d="M45.8 20.1l3.2.8c.8.2 1.6.2 2.3 0l3.2-.8s-2.8-5.5-3.2-6.4c-.4-.9-1.7-1-2.2 0-.6 1-3.3 6.4-3.3 6.4z"/><path fill="#273C4A" stroke="#273C4A" stroke-width="1.133" stroke-miterlimit="10" d="M50.9 65.3v-7.4c2.3.7 4.2 1.5 4.2 3.8-.1.8-.4 3.3-4.2 3.6zm-1.2-8.9c-2.3-.7-4-1.4-4-3.2 0-1.8 1.7-3.2 4-3.4v6.6zm1.2.3v-6.9c1.5.1 2.8.7 3.7 1.7 0 0 .5.6.9.1.4-.4 0-.9 0-.9-1.2-1.2-2.7-1.8-4.6-2V47s0-.5-.6-.5-.6.5-.6.5v1.7c-3.6.2-5.3 2.4-5.3 4.4 0 3 2.8 3.8 5.3 4.5v7.7c-2.3-.2-3.9-1.3-4.6-2.2 0 0-.5-.5-.9-.1s0 .8 0 .8c1.3 1.5 3.3 2.4 5.6 2.5V68s0 .6.6.6.6-.6.6-.6v-1.7c4-.2 5.4-2.6 5.4-4.7-.1-3.1-2.7-4.1-5.5-4.9z"/><path fill-rule="evenodd" clip-rule="evenodd" fill="#FFF" d="M59.5 35h-19c-.8 0-1.5-.7-1.5-1.5s.7-1.5 1.5-1.5h19c.8 0 1.5.7 1.5 1.5s-.7 1.5-1.5 1.5z"/><g><path fill="#FFF" d="M82 70c-6.6 0-12 5.4-12 12s5.4 12 12 12 12-5.4 12-12-5.4-12-12-12zm1.7 16.9c-.8 1-2.6 2.1-3.4 2.1-.4 0-.8-.5-.8-.8 0-.2.1-.6.2-.9.1-.3 1.5-4 2-5.8.2-.5 0-.6-.1-.6-.4 0-1.5.8-1.9 1.2-.1.1-.4-.3-.4-.4 0-.1.1-.3.2-.5.9-1.2 2.5-2.3 3.6-2.3.3 0 .6.5.6 1 0 .3-.1.6-.2.9l-2 5.9s0 .2.1.2c.3 0 1.2-.5 1.6-.9.2-.1.4-.2.5-.2.1 0 .2 0 .2.2.2.3 0 .6-.2.9zm.3-10.2c-.2.1-.4.2-.7.2-.5 0-1-.3-1-1 0-.6.4-1.1.6-1.3.1-.1.4-.2.6-.2.8 0 1 .7 1 1 .1.5-.3 1.1-.5 1.3z"/></g><circle fill="#008BC1" cx="82" cy="82" r="18"/><g fill="#FFF"><path d="M76.9 80.1c-.2-.2-.5-.2-.7 0L74 82.3V82c0-4.4 3.6-8 8-8 2.6 0 5.1 1.3 6.6 3.5.2.2.5.3.7.1.2-.2.3-.5.1-.7C87.7 74.5 85 73 82 73c-5 0-9 4-9 9v.3l-2.2-2.2c-.2-.2-.5-.2-.7 0s-.2.5 0 .7l3 3c.1.1.2.1.4.1s.3 0 .4-.1l3-3c.1-.1.1-.5 0-.7zM93.9 83.6l-3-3c-.2-.2-.5-.2-.7 0l-3 3c-.2.2-.2.5 0 .7s.5.2.7 0l2.1-2.1c-.1 4.3-3.7 7.8-8 7.8-2.5 0-5-1.2-6.5-3.3-.2-.2-.5-.3-.7-.1-.2.2-.3.5-.1.7 1.7 2.3 4.4 3.7 7.3 3.7 4.9 0 8.9-3.9 9-8.8l2.2 2.2c.1.1.2.1.4.1s.3 0 .4-.1c0-.2 0-.6-.1-.8z"/></g></svg>