<svg xmlns="http://www.w3.org/2000/svg" viewBox="0 0 100 100"><path fill="#FFF" d="M93.5 80l-2.5-.1c-.2-.8-.5-1.7-.8-2.4l1.7-1.9c.1-.1.1-.2.1-.4 0-.1-.1-.3-.1-.4L89.1 72c-.2-.2-.5-.2-.7 0l-1.9 1.7c-.7-.3-1.6-.6-2.4-.8l-.1-2.4c0-.3-.2-.5-.5-.5h-3c-.3 0-.5.2-.5.5l-.1 2.5c-.8.2-1.7.5-2.4.8l-1.9-1.7c-.2-.2-.5-.2-.7 0l-2.8 2.8c-.2.2-.2.5 0 .7l1.7 1.9c-.3.7-.6 1.6-.8 2.4l-2.5.1c-.3 0-.5.2-.5.5v3c0 .3.2.5.5.5l2.5.1c.2.8.5 1.7.8 2.4l-1.7 1.9c-.1.1-.1.2-.1.3 0 .1.1.3.1.4l2.8 2.8c.2.2.5.2.7 0l1.9-1.7c.7.3 1.6.6 2.4.8l.1 2.5c0 .3.2.5.5.5h3c.3 0 .5-.2.5-.5l.1-2.5c.8-.2 1.7-.5 2.4-.8l1.9 1.7c.2.2.5.2.7 0l2.8-2.8c.2-.2.2-.5 0-.7l-1.7-1.9c.3-.7.6-1.6.8-2.4l2.5-.1c.3 0 .5-.2.5-.5v-3c0-.3-.2-.5-.5-.5zM82 86c-2.2 0-4-1.8-4-4s1.8-4 4-4 4 1.8 4 4-1.8 4-4 4z"/><circle fill="#99D6ED" cx="50" cy="50" r="50"/><path fill-rule="evenodd" clip-rule="evenodd" fill="#1B8140" d="M11 36h72v34H11z"/><path fill-rule="evenodd" clip-rule="evenodd" fill="#19A249" d="M14 33h72v34H14z"/><path fill-rule="evenodd" clip-rule="evenodd" fill="#4EB748" d="M17 30h72v34H17z"/><ellipse fill-rule="evenodd" clip-rule="evenodd" fill="#1A9847" cx="77" cy="47" rx="6" ry="7"/><ellipse fill-rule="evenodd" clip-rule="evenodd" fill="#1A9847" cx="29" cy="47" rx="6" ry="7"/><path fill-rule="evenodd" clip-rule="evenodd" fill="#1A9847" d="M41 48c0 8.3 5.6 15 12.5 15S65 56.3 65 48s-4.6-15-11.5-15S41 39.7 41 48z"/><path fill="#4EB748" d="M47.6 52.4s.8-.2 2.7-.4c.3-.5.4-1.2.4-1.8-1.4-1-2.4-2.8-2.4-4.9 0-3.2.4-5.3 4.6-5.3h.4c4.2 0 4.6 2.2 4.6 5.3 0 2.1-1 3.9-2.4 4.9 0 .6.2 1.3.4 1.8 2.1.1 2.7.4 2.7.4 2 .7 5.6 3.1 6.2 10.3l-13.1.7L42 63c0-5.6 2.8-9.9 5.6-10.6z"/><circle fill="#008BC1" cx="82" cy="82" r="18"/><g fill="#FFF"><path d="M76.9 80.1c-.2-.2-.5-.2-.7 0L74 82.3V82c0-4.4 3.6-8 8-8 2.6 0 5.1 1.3 6.6 3.5.2.2.5.3.7.1.2-.2.3-.5.1-.7C87.7 74.5 85 73 82 73c-5 0-9 4-9 9v.3l-2.2-2.2c-.2-.2-.5-.2-.7 0s-.2.5 0 .7l3 3c.1.1.2.1.4.1s.3 0 .4-.1l3-3c.1-.1.1-.5 0-.7zM93.9 83.6l-3-3c-.2-.2-.5-.2-.7 0l-3 3c-.2.2-.2.5 0 .7s.5.2.7 0l2.1-2.1c-.1 4.3-3.7 7.8-8 7.8-2.5 0-5-1.2-6.5-3.3-.2-.2-.5-.3-.7-.1-.2.2-.3.5-.1.7 1.7 2.3 4.4 3.7 7.3 3.7 4.9 0 8.9-3.9 9-8.8l2.2 2.2c.1.1.2.1.4.1s.3 0 .4-.1c0-.2 0-.6-.1-.8z"/></g></svg>