<?xml version="1.0" encoding="utf-8"?>
<!-- Generator: Adobe Illustrator 21.0.0, SVG Export Plug-In . SVG Version: 6.00 Build 0)  -->
<svg version="1.1" id="Layer_1" xmlns="http://www.w3.org/2000/svg" xmlns:xlink="http://www.w3.org/1999/xlink" x="0px" y="0px"
	 viewBox="0 0 70 70" style="enable-background:new 0 0 70 70;" xml:space="preserve">
<style type="text/css">
	.st0{fill:#273B49;}
	.st1{filter:url(#Adobe_OpacityMaskFilter);}
	.st2{fill:#FFFFFF;}
	.st3{mask:url(#mask-2);fill:#FFFFFF;}
	.st4{filter:url(#Adobe_OpacityMaskFilter_1_);}
	.st5{mask:url(#mask-4);fill:#67C3E5;}
	.st6{filter:url(#Adobe_OpacityMaskFilter_2_);}
	.st7{mask:url(#mask-6);fill:#0178A2;}
</style>
<title>Lock Icon</title>
<desc>Created with Sketch.</desc>
<path id="Blue-circle" class="st0" d="M69.9,33.9c0,19.6-15.9,35.5-35.5,35.5S-1,53.5-1,33.9S14.9-1.6,34.5-1.6S69.9,14.3,69.9,33.9
	"/>
<g id="Lock-handle" transform="translate(21.485149, 11.089109)">
	<g id="Clip-4">
	</g>
	<defs>
		<filter id="Adobe_OpacityMaskFilter" filterUnits="userSpaceOnUse" x="-4.4" y="-4.4" width="36.3" height="40.2">
			<feColorMatrix  type="matrix" values="1 0 0 0 0  0 1 0 0 0  0 0 1 0 0  0 0 0 1 0"/>
		</filter>
	</defs>
	<mask maskUnits="userSpaceOnUse" x="-4.4" y="-4.4" width="36.3" height="40.2" id="mask-2">
		<g class="st1">
			<path id="path-1" class="st2" d="M10.5,0.6C5,0.6,0.6,5,0.6,10.5l0,0v20.4h26.3V10.5c0-5.4-4.4-9.9-9.9-9.9l0,0H10.5z M4.6,10.5
				c0-3.3,2.7-5.9,5.9-5.9l0,0h6.6c3.3,0,5.9,2.7,5.9,5.9l0,0v16.5H4.6V10.5z"/>
		</g>
	</mask>
	<polygon id="Fill-3" class="st3" points="-4.4,-4.4 31.9,-4.4 31.9,35.9 -4.4,35.9 	"/>
</g>
<g id="Lock-bar" transform="translate(17.326733, 29.801980)">
	<g id="Clip-7">
	</g>
	<defs>
		<filter id="Adobe_OpacityMaskFilter_1_" filterUnits="userSpaceOnUse" x="-4.8" y="-4.8" width="45.5" height="36.3">
			<feColorMatrix  type="matrix" values="1 0 0 0 0  0 1 0 0 0  0 0 1 0 0  0 0 0 1 0"/>
		</filter>
	</defs>
	<mask maskUnits="userSpaceOnUse" x="-4.8" y="-4.8" width="45.5" height="36.3" id="mask-4">
		<g class="st4">
			<path id="path-3" class="st2" d="M4.1,0.1c-2.2,0-3.9,1.8-3.9,3.9l0,0v18.4c0,2.2,1.8,3.9,3.9,3.9l0,0h27.6
				c2.2,0,3.9-1.8,3.9-3.9l0,0V4.1c0-2.2-1.8-3.9-3.9-3.9l0,0H4.1z"/>
		</g>
	</mask>
	<polygon id="Fill-6" class="st5" points="-4.8,-4.8 40.7,-4.8 40.7,31.5 -4.8,31.5 	"/>
</g>
<g id="Keyhole" transform="translate(31.881188, 37.425743)">
	<g id="Clip-10">
	</g>
	<defs>
		<filter id="Adobe_OpacityMaskFilter_2_" filterUnits="userSpaceOnUse" x="-4.9" y="-4.6" width="16.5" height="20.5">
			<feColorMatrix  type="matrix" values="1 0 0 0 0  0 1 0 0 0  0 0 1 0 0  0 0 0 1 0"/>
		</filter>
	</defs>
	<mask maskUnits="userSpaceOnUse" x="-4.9" y="-4.6" width="16.5" height="20.5" id="mask-6">
		<g class="st6">
			<path id="path-5" class="st2" d="M0.1,3.7c0,1.6,1.1,2.9,2.6,3.2l0,0v3.4C2.7,10.7,3,11,3.4,11l0,0C3.8,11,4,10.7,4,10.3l0,0V6.9
				c1.5-0.3,2.6-1.6,2.6-3.2l0,0c0-1.8-1.5-3.3-3.3-3.3l0,0C1.6,0.4,0.1,1.9,0.1,3.7L0.1,3.7z"/>
		</g>
	</mask>
	<polygon id="Fill-9" class="st7" points="-4.9,-4.6 11.7,-4.6 11.7,15.9 -4.9,15.9 	"/>
</g>
</svg>
