<?xml version="1.0" encoding="UTF-8" standalone="no"?>
<svg width="96px" height="98px" viewBox="0 0 96 98" version="1.1" xmlns="http://www.w3.org/2000/svg" xmlns:xlink="http://www.w3.org/1999/xlink">
    <!-- Generator: Sketch 42 (36781) - http://www.bohemiancoding.com/sketch -->
    <title>Page 1</title>
    <desc>Created with Sketch.</desc>
    <defs>
        <path d="M0.75024,86.7311305 C8.96320139,93.3141832 19.3826123,97.2509335 30.72,97.2509335 C42.0573877,97.2509335 52.4767986,93.3141832 60.68976,86.7311305 L60.68976,0.241329382 L0.75024,0.241329382 L0.75024,86.7311305 L0.75024,86.7311305 Z" id="path-1"></path>
    </defs>
    <g id="Page-1" stroke="none" stroke-width="1" fill="none" fill-rule="evenodd">
        <g>
            <path d="M96,49.7447159 C96,76.2947937 74.50944,97.8182979 48,97.8182979 C21.49056,97.8182979 0,76.2947937 0,49.7447159 C0,23.194638 21.49056,1.67113386 48,1.67113386 C74.50944,1.67113386 96,23.194638 96,49.7447159" id="Fill-1" fill="#D0E8F3"></path>
            <g id="Group-5" transform="translate(17.280000, 0.567268)">
                <mask id="mask-2" fill="white">
                    <use xlink:href="#path-1"></use>
                </mask>
                <g id="Clip-4"></g>
                <path d="M53.96976,98.0701073 L7.47024,98.0701073 C3.75888,98.0701073 0.75024,95.0568552 0.75024,91.3398058 L0.75024,6.97163086 C0.75024,3.2545815 3.75888,0.241329382 7.47024,0.241329382 L53.96976,0.241329382 C57.68112,0.241329382 60.68976,3.2545815 60.68976,6.97163086 L60.68976,91.3398058 C60.68976,95.0568552 57.68112,98.0701073 53.96976,98.0701073" id="Fill-3" fill="#334653" mask="url(#mask-2)"></path>
            </g>
            <g id="Group-35" transform="translate(21.120000, 6.336098)">
                <polygon id="Fill-6" fill="#039ED5" points="0.24 76.737936 53.52 76.737936 53.52 7.81291855 0.24 7.81291855"></polygon>
                <path d="M33.689952,2.25426641 L20.070432,2.25426641 C19.539552,2.25426641 19.110432,1.82352711 19.110432,1.29279477 L19.110432,0.992815616 C19.110432,0.461121799 19.539552,0.0313439755 20.070432,0.0313439755 L33.689952,0.0313439755 C34.219872,0.0313439755 34.649952,0.461121799 34.649952,0.992815616 L34.649952,1.29279477 C34.649952,1.82352711 34.219872,2.25426641 33.689952,2.25426641" id="Fill-8" fill="#737F88"></path>
                <path d="M22.44,84.5194145 C22.44,82.0638159 24.42816,80.0726081 26.88,80.0726081 C29.33184,80.0726081 31.32,82.0638159 31.32,84.5194145 C31.32,86.975013 29.33184,88.9662208 26.88,88.9662208 C24.42816,88.9662208 22.44,86.975013 22.44,84.5194145" id="Fill-9" fill="#737F88"></path>
                <path d="M37.382592,62.9665854 L16.377792,62.9665854 C11.380992,62.9665854 7.330752,58.9101366 7.330752,53.9056767 L7.330752,32.8686772 C7.330752,27.8642173 11.380992,23.806807 16.377792,23.806807 L37.382592,23.806807 C42.379392,23.806807 46.429632,27.8642173 46.429632,32.8686772 L46.429632,53.9056767 C46.429632,58.9101366 42.379392,62.9665854 37.382592,62.9665854" id="Fill-10" fill="#A4D2EF"></path>
                <path d="M37.385568,62.9665854 L16.374048,62.9665854 C11.379168,62.9665854 7.329888,58.911098 7.329888,53.9085611 L7.329888,38.0317799 C7.329888,33.029243 11.379168,28.9737556 16.374048,28.9737556 L37.385568,28.9737556 C42.380448,28.9737556 46.429728,33.029243 46.429728,38.0317799 L46.429728,53.9085611 C46.429728,58.911098 42.380448,62.9665854 37.385568,62.9665854" id="Fill-11" fill="#2283BF"></path>
                <path d="M37.381824,62.9665854 L16.377984,62.9665854 C11.381184,62.9665854 7.329984,58.9091751 7.329984,53.9047152 L7.329984,43.2025744 C7.329984,38.1981145 11.381184,34.1407042 16.377984,34.1407042 L37.381824,34.1407042 C42.378624,34.1407042 46.429824,38.1981145 46.429824,43.2025744 L46.429824,53.9047152 C46.429824,58.9091751 42.378624,62.9665854 37.381824,62.9665854" id="Fill-12" fill="#F4F5F5"></path>
                <path d="M38.839968,43.2449753 C37.047648,41.2653052 25.518048,43.0459507 20.615328,44.118953 L20.500128,44.1439513 C20.477088,44.1477972 20.461728,44.169911 20.465568,44.1939478 C20.469408,44.2179846 20.491488,44.2333681 20.515488,44.2295222 L20.628768,44.2074084 C24.691488,43.4824588 33.139488,42.4786824 34.956768,44.2833647 C35.511648,44.8342879 35.379168,45.543854 34.735968,46.3812958 C35.083488,46.6043572 35.330208,46.9552943 35.441568,47.3937254 C37.951968,45.7207648 39.638688,44.1266448 38.839968,43.2449753 M31.378848,49.2945548 C31.377888,49.2955163 31.375968,49.2964778 31.375008,49.2964778 C30.238368,50.1031525 28.891488,50.9492475 27.442848,51.8376473 L27.386208,51.8712988 C27.367008,51.8847594 27.362208,51.9116807 27.375648,51.9318716 C27.389088,51.951101 27.415968,51.9559083 27.435168,51.9424477 L27.484128,51.916488 C28.712928,51.274225 30.124128,50.5117779 31.543968,49.7301015 C31.551648,49.7252941 31.559328,49.7214483 31.566048,49.7176024 C31.488288,49.5887652 31.423968,49.4483903 31.378848,49.2945548" id="Fill-13" fill="#FEFEFE"></path>
                <path d="M31.51632,48.7371897 C31.47504,47.5488108 32.40528,46.3335106 33.756,46.3335106 C34.65936,46.3335106 35.24976,46.9363534 35.28336,47.8593661 C35.32656,49.1131252 34.45776,50.2640067 33.04368,50.2640067 C32.14032,50.2640067 31.54896,49.6621255 31.51632,48.7371897 M32.10384,48.7746871 C32.12688,49.4707926 32.56656,50.0409453 33.14064,50.0409453 C34.25328,50.0409453 34.72656,48.6737326 34.69296,47.7603346 C34.66992,47.0623061 34.21872,46.4931149 33.6456,46.4931149 C32.68848,46.4931149 32.0712,47.8545588 32.10384,48.7746871" id="Fill-14" fill="#FEFEFE"></path>
                <path d="M19.896576,47.6919739 C19.891776,47.8015817 19.872576,47.8967674 19.843776,48.0640634 L19.645056,49.180332 C19.627776,49.2793636 19.664256,49.3572428 19.756416,49.4110852 L19.750656,49.4543514 L18.613056,49.4524285 L18.602496,49.1687944 C18.437376,49.2687874 18.237696,49.3533969 18.056256,49.402432 C17.876736,49.4485826 17.730816,49.469735 17.511936,49.469735 C17.144256,49.469735 16.934016,49.4312761 16.788096,49.3034004 C16.641216,49.1716788 16.569216,49.0851463 16.576896,48.9043897 C16.582656,48.7995892 16.636416,48.6659447 16.714176,48.5726819 C16.792896,48.4774962 16.900416,48.4159621 17.016576,48.3611582 C17.133696,48.3044314 17.271936,48.2640495 17.473536,48.232321 C17.674176,48.1996309 17.954496,48.1669409 18.329856,48.1361738 C18.526656,48.1198288 18.646656,48.0736782 18.703296,48.0515643 C18.782016,48.0207972 18.812736,47.9871457 18.824256,47.9227271 C18.845376,47.808312 18.808896,47.7429319 18.656256,47.7121648 C18.246336,47.6323627 17.478336,47.7650458 17.082816,47.8640773 L17.297856,47.282387 C17.820096,47.2064307 18.309696,47.1573957 18.824256,47.1573957 C19.643136,47.1573957 19.905216,47.3919948 19.896576,47.6919739 M18.722496,48.4226924 C18.674496,48.4409603 18.612096,48.4592283 18.534336,48.4755733 C18.457536,48.4928798 18.316416,48.5178781 18.111936,48.5505681 C17.970816,48.5726819 17.873856,48.6024876 17.818176,48.6419079 C17.764416,48.6822897 17.732736,48.7284403 17.724096,48.7861286 C17.713536,48.8476628 17.732736,48.8966979 17.786496,48.9351568 C17.840256,48.9726541 17.930496,48.9918836 18.058176,48.9918836 C18.154176,48.9918836 18.248256,48.9765 18.338496,48.9476559 C18.430656,48.9178503 18.508416,48.876507 18.567936,48.825549 C18.612096,48.7880516 18.643776,48.739978 18.666816,48.6822897 C18.680256,48.6438308 18.699456,48.5582599 18.722496,48.4226924" id="Fill-15" fill="#FEFEFE"></path>
                <path d="M23.648352,46.7065616 C23.680992,46.5229206 23.969952,46.3738924 24.292512,46.3738924 C24.616032,46.3738924 24.852192,46.5229206 24.821472,46.7065616 C24.786912,46.8902027 24.498912,47.0382694 24.174432,47.0382694 C23.849952,47.0382694 23.615712,46.8902027 23.648352,46.7065616 L23.648352,46.7065616 Z M23.193312,49.4544476 L23.587872,47.2228719 L24.676512,47.2228719 L24.281952,49.4544476 L23.193312,49.4544476 Z" id="Fill-16" fill="#FEFEFE"></path>
                <path d="M29.718144,47.6962044 C29.713344,47.8058122 29.694144,47.9019593 29.664384,48.0673324 L29.467584,49.185524 C29.450304,49.2835941 29.486784,49.3614733 29.577984,49.4162772 L29.571264,49.4556975 L28.434624,49.4576204 L28.425984,49.1730248 C28.258944,49.2739794 28.058304,49.3576274 27.878784,49.4066624 C27.697344,49.4537746 27.551424,49.4739655 27.331584,49.4739655 C26.964864,49.4739655 26.755584,49.4364681 26.610624,49.3085923 C26.461824,49.1759092 26.390784,49.0893768 26.398464,48.9095816 C26.402304,48.8047812 26.457024,48.6701752 26.535744,48.5778739 C26.614464,48.4817267 26.721984,48.421154 26.839104,48.3653887 C26.956224,48.3105848 27.095424,48.2692415 27.293184,48.2365515 C27.495744,48.2048229 27.776064,48.1711714 28.151424,48.1394428 C28.347264,48.1230978 28.467264,48.0779086 28.522944,48.0567563 C28.602624,48.0259892 28.633344,47.9913762 28.645824,47.9279191 C28.665984,47.8154269 28.629504,47.7481239 28.478784,47.7173568 C28.066944,47.6356317 27.300864,47.7692762 26.905344,47.8683078 L27.119424,47.2875789 C27.643584,47.2106612 28.130304,47.1616262 28.645824,47.1616262 C29.463744,47.1616262 29.724864,47.3962252 29.718144,47.6962044 M28.544064,48.4288458 C28.496064,48.4451908 28.432704,48.4634588 28.355904,48.4807653 C28.279104,48.4990332 28.137984,48.5221085 27.932544,48.55576 C27.792384,48.5778739 27.692544,48.6076795 27.638784,48.6470998 C27.586944,48.6855587 27.556224,48.7336323 27.544704,48.7903591 C27.533184,48.8528548 27.556224,48.9018898 27.607104,48.9393872 C27.661824,48.9768846 27.753024,48.9961141 27.880704,48.9961141 C27.975744,48.9961141 28.068864,48.981692 28.160064,48.9528478 C28.253184,48.9211193 28.329984,48.8816989 28.390464,48.8307409 C28.432704,48.7932435 28.464384,48.743247 28.487424,48.6855587 C28.501824,48.6480613 28.520064,48.5624903 28.544064,48.4288458" id="Fill-17" fill="#FEFEFE"></path>
                <path d="M16.427712,48.6521956 C16.073472,48.7223831 15.873792,48.7493043 15.523392,48.7493043 C15.003072,48.7493043 14.590272,48.4906684 14.612352,48.0166629 C14.627712,47.7013002 15.002112,47.0340389 15.950592,47.0340389 C16.249152,47.0340389 16.483392,47.0878813 16.797312,47.266715 L16.935552,46.4917689 C16.508352,46.3302416 16.225152,46.3062048 15.858432,46.3100507 C14.615232,46.3235113 13.419072,46.8898181 13.271232,48.0416612 C13.120512,49.2127336 14.548032,49.5069439 15.181632,49.5040595 C15.547392,49.503098 15.928512,49.4877145 16.283712,49.4511786 L16.427712,48.6521956 Z" id="Fill-18" fill="#FEFEFE"></path>
                <path d="M25.276992,47.2102766 L25.355712,46.756462 L26.494272,46.5074409 L26.373312,47.2102766 L26.931072,47.2102766 L26.824512,47.6592839 L26.284032,47.6583224 L25.954752,49.4524285 C25.954752,49.4524285 24.858432,49.4456982 24.854592,49.4524285 L25.181952,47.6631298 L24.768192,47.6631298 L24.851712,47.2102766 L25.276992,47.2102766 Z" id="Fill-19" fill="#FEFEFE"></path>
                <polygon id="Fill-20" fill="#FEFEFE" points="30.823584 49.4526208 29.714784 49.4545437 30.272544 46.3412986 31.352544 46.3720657"></polygon>
                <path d="M19.770144,50.2245864 L20.300064,47.2344096 L21.256224,47.2344096 L21.182304,47.6161138 C21.265824,47.5016987 21.398304,47.4084359 21.580704,47.3324797 C21.765024,47.2565234 21.973344,47.2007581 22.198944,47.2007581 C22.448544,47.2007581 22.602144,47.2142187 22.789344,47.3113273 C22.974624,47.4084359 23.104224,47.5497723 23.175264,47.7343748 C23.246304,47.916093 23.261664,48.1199249 23.222304,48.3420249 C23.157984,48.7102685 22.978464,49.000633 22.684704,49.2140797 C22.391904,49.4275264 22.129824,49.4842532 21.754464,49.4852147 C21.621984,49.4852147 21.510624,49.4717541 21.418464,49.4486788 C21.328224,49.4256034 21.256224,49.3967593 21.201504,49.3621463 C21.149664,49.3265719 21.093984,49.2775368 21.021984,49.1996576 L20.844384,50.2245864 L19.770144,50.2245864 Z M21.752544,47.7459125 C21.610464,47.7459125 21.480864,47.7891787 21.366624,47.8757111 C21.252384,47.9632051 21.180384,48.0891579 21.150624,48.2583769 C21.116064,48.4525941 21.137184,48.5920075 21.213984,48.67854 C21.291744,48.7650724 21.403104,48.8073772 21.549984,48.8073772 C21.648864,48.8073772 21.751584,48.7900707 21.827424,48.7525733 C21.920544,48.7035382 21.984864,48.6506573 22.040544,48.5689322 C22.101024,48.4823998 22.140384,48.3862526 22.160544,48.2747219 C22.191264,48.0987726 22.165344,47.967051 22.083744,47.879557 C22.004064,47.7901402 21.894624,47.7459125 21.752544,47.7459125 L21.752544,47.7459125 Z" id="Fill-21" fill="#FEFEFE"></path>
                <path d="M39.635712,49.3933941 L39.722112,49.4520439 C39.504192,49.8962438 39.059712,50.2539113 38.539392,50.2539113 C38.113152,50.2539113 37.763712,49.9693156 37.744512,49.4356989 C37.710912,48.4799961 38.604672,47.5915963 39.337152,47.5915963 C39.652032,47.5915963 39.942912,47.7290867 39.956352,48.0675247 C39.983232,48.8280488 38.916672,49.0607249 38.214912,49.07707 C38.191872,49.1559106 38.183232,49.2357128 38.187072,49.3578197 C38.198592,49.6731824 38.389632,49.9385486 38.783232,49.9385486 C39.123072,49.9385486 39.463872,49.6635677 39.635712,49.3933941 M39.539712,48.0204126 C39.533952,47.8406174 39.443712,47.719472 39.258432,47.719472 C38.812032,47.719472 38.336832,48.5953727 38.254272,48.9491942 C38.987712,48.9491942 39.557952,48.5117246 39.539712,48.0204126" id="Fill-22" fill="#FEFEFE"></path>
                <path d="M35.266944,47.9949336 C35.342784,47.9843574 35.464704,47.9718583 35.516544,47.9718583 C35.597184,47.9718583 35.672064,47.9862804 35.675904,48.0660825 C35.677824,48.1131946 35.592384,48.4516327 35.575104,48.5304733 L35.405184,49.2804212 C35.336064,49.5871307 35.262144,49.9092237 35.195904,50.1630522 L35.632704,50.1630522 L35.877504,48.9746732 C36.626304,48.1939583 36.914304,47.9391683 37.090944,47.9391683 C37.170624,47.9391683 37.225344,47.981473 37.229184,48.0766587 C37.233024,48.2141492 37.148544,48.525666 37.118784,48.6150828 L36.868224,49.4823303 C36.811584,49.6765475 36.769344,49.8524968 36.773184,49.9774882 C36.780864,50.1678595 36.896064,50.252469 37.065984,50.252469 C37.385664,50.252469 37.616064,49.9197999 37.818624,49.5928995 L37.760064,49.4852147 C37.677504,49.6169363 37.488384,49.9044163 37.339584,49.9044163 C37.292544,49.9044163 37.247424,49.8726877 37.246464,49.7938471 C37.241664,49.6919311 37.284864,49.54098 37.313664,49.4400255 L37.592064,48.4247115 C37.665984,48.1449232 37.702464,47.965128 37.700544,47.8699423 C37.693824,47.6795709 37.582464,47.5911155 37.413504,47.5911155 C37.126464,47.5911155 36.745344,47.8016778 35.937984,48.7314209 L35.926464,48.7314209 L36.028224,48.2776063 C36.082944,48.0295466 36.136704,47.7699493 36.189504,47.5911155 C35.910144,47.6920701 35.510784,47.8045622 35.263104,47.8526358 L35.266944,47.9949336 Z" id="Fill-23" fill="#FEFEFE"></path>
                <path d="M38.839968,43.1415209 C37.047648,41.1618508 25.518048,42.9424963 20.615328,44.0154987 L20.500128,44.0404969 C20.477088,44.0443428 20.461728,44.0664567 20.465568,44.0904934 C20.469408,44.1145302 20.491488,44.1299138 20.515488,44.1260679 L20.628768,44.1039541 C24.691488,43.3790044 33.139488,42.375228 34.956768,44.1799103 C35.511648,44.7308336 35.379168,45.4403996 34.735968,46.2778414 C35.083488,46.5009029 35.330208,46.85184 35.441568,47.2902711 C37.951968,45.6173104 39.638688,44.0231904 38.839968,43.1415209 M31.378848,49.1911005 C31.377888,49.192062 31.375968,49.1930234 31.375008,49.1930234 C30.238368,49.9996982 28.891488,50.8457932 27.442848,51.734193 L27.386208,51.7678445 C27.367008,51.7813051 27.362208,51.8082263 27.375648,51.8284172 C27.389088,51.8476466 27.415968,51.852454 27.435168,51.8389934 L27.484128,51.8130337 C28.712928,51.1707706 30.124128,50.4083236 31.543968,49.6266472 C31.551648,49.6218398 31.559328,49.6179939 31.566048,49.614148 C31.488288,49.4853108 31.423968,49.344936 31.378848,49.1911005" id="Fill-24" fill="#A91E22"></path>
                <path d="M31.51632,48.6336392 C31.47504,47.4452603 32.40528,46.2299601 33.756,46.2299601 C34.65936,46.2299601 35.24976,46.8328029 35.28336,47.7558156 C35.32656,49.0095747 34.45776,50.1604562 33.04368,50.1604562 C32.14032,50.1604562 31.54896,49.558575 31.51632,48.6336392 M32.10384,48.6711366 C32.12688,49.3672421 32.56656,49.9373948 33.14064,49.9373948 C34.25328,49.9373948 34.72656,48.5701821 34.69296,47.6567841 C34.66992,46.9587556 34.21872,46.3895644 33.6456,46.3895644 C32.68848,46.3895644 32.0712,47.7510083 32.10384,48.6711366" id="Fill-25" fill="#014E7F"></path>
                <path d="M19.896576,47.5885196 C19.891776,47.6981273 19.872576,47.793313 19.843776,47.9606091 L19.645056,49.0768777 C19.627776,49.1759092 19.664256,49.2537885 19.756416,49.3076309 L19.750656,49.3508971 L18.613056,49.3489741 L18.602496,49.06534 C18.437376,49.1653331 18.237696,49.2499426 18.056256,49.2989776 C17.876736,49.3451283 17.730816,49.3662806 17.511936,49.3662806 C17.144256,49.3662806 16.934016,49.3278218 16.788096,49.199946 C16.641216,49.0682244 16.569216,48.981692 16.576896,48.8009353 C16.582656,48.6961349 16.636416,48.5624903 16.714176,48.4692276 C16.792896,48.3740419 16.900416,48.3125077 17.016576,48.2577038 C17.133696,48.200977 17.271936,48.1605952 17.473536,48.1288666 C17.674176,48.0961766 17.954496,48.0634866 18.329856,48.0327195 C18.526656,48.0163745 18.646656,47.9702238 18.703296,47.94811 C18.782016,47.9173429 18.812736,47.8836914 18.824256,47.8192728 C18.845376,47.7048576 18.808896,47.6394776 18.656256,47.6087105 C18.246336,47.5289083 17.478336,47.6615914 17.082816,47.760623 L17.297856,47.1789327 C17.820096,47.1029764 18.309696,47.0539413 18.824256,47.0539413 C19.643136,47.0539413 19.905216,47.2885404 19.896576,47.5885196 M18.722496,48.319238 C18.674496,48.337506 18.612096,48.3557739 18.534336,48.372119 C18.457536,48.3894254 18.316416,48.4144237 18.111936,48.4471137 C17.970816,48.4692276 17.873856,48.4990332 17.818176,48.5384536 C17.764416,48.5788354 17.732736,48.624986 17.724096,48.6826743 C17.713536,48.7442085 17.732736,48.7932435 17.786496,48.8317024 C17.840256,48.8691998 17.930496,48.8884292 18.058176,48.8884292 C18.154176,48.8884292 18.248256,48.8730457 18.338496,48.8442015 C18.430656,48.8143959 18.508416,48.7730526 18.567936,48.7220946 C18.612096,48.6845972 18.643776,48.6365237 18.666816,48.5788354 C18.680256,48.5403765 18.699456,48.4548055 18.722496,48.319238" id="Fill-26" fill="#014E7F"></path>
                <path d="M23.648352,46.6030111 C23.680992,46.4193701 23.969952,46.270342 24.292512,46.270342 C24.616032,46.270342 24.852192,46.4193701 24.821472,46.6030111 C24.786912,46.7866522 24.498912,46.9347189 24.174432,46.9347189 C23.849952,46.9347189 23.615712,46.7866522 23.648352,46.6030111 L23.648352,46.6030111 Z M23.193312,49.3508971 L23.587872,47.1193214 L24.676512,47.1193214 L24.281952,49.3508971 L23.193312,49.3508971 Z" id="Fill-27" fill="#014E7F"></path>
                <path d="M29.718144,47.59275 C29.713344,47.7023578 29.694144,47.798505 29.664384,47.9638781 L29.467584,49.0820696 C29.450304,49.1801397 29.486784,49.2580189 29.577984,49.3128228 L29.571264,49.3522431 L28.434624,49.3541661 L28.425984,49.0695705 C28.258944,49.170525 28.058304,49.254173 27.878784,49.3032081 C27.697344,49.3503202 27.551424,49.3705111 27.331584,49.3705111 C26.964864,49.3705111 26.755584,49.3330137 26.610624,49.205138 C26.461824,49.0724549 26.390784,48.9859225 26.398464,48.8061273 C26.402304,48.7013268 26.457024,48.5667208 26.535744,48.4744195 C26.614464,48.3782724 26.721984,48.3176997 26.839104,48.2619343 C26.956224,48.2071304 27.095424,48.1657871 27.293184,48.1330971 C27.495744,48.1013685 27.776064,48.067717 28.151424,48.0359885 C28.347264,48.0196435 28.467264,47.9744543 28.522944,47.9533019 C28.602624,47.9225348 28.633344,47.8879218 28.645824,47.8244647 C28.665984,47.7119725 28.629504,47.6446695 28.478784,47.6139024 C28.066944,47.5321773 27.300864,47.6658219 26.905344,47.7648535 L27.119424,47.1841246 C27.643584,47.1072069 28.130304,47.0581718 28.645824,47.0581718 C29.463744,47.0581718 29.724864,47.2927709 29.718144,47.59275 M28.544064,48.3253914 C28.496064,48.3417365 28.432704,48.3600044 28.355904,48.3773109 C28.279104,48.3955789 28.137984,48.4186542 27.932544,48.4523057 C27.792384,48.4744195 27.692544,48.5042252 27.638784,48.5436455 C27.586944,48.5821044 27.556224,48.6301779 27.544704,48.6869048 C27.533184,48.7494004 27.556224,48.7984355 27.607104,48.8359329 C27.661824,48.8734303 27.753024,48.8926597 27.880704,48.8926597 C27.975744,48.8926597 28.068864,48.8782376 28.160064,48.8493935 C28.253184,48.8176649 28.329984,48.7782446 28.390464,48.7272866 C28.432704,48.6897892 28.464384,48.6397927 28.487424,48.5821044 C28.501824,48.544607 28.520064,48.459036 28.544064,48.3253914" id="Fill-28" fill="#014E7F"></path>
                <path d="M16.427712,48.5487413 C16.073472,48.6189287 15.873792,48.6458499 15.523392,48.6458499 C15.003072,48.6458499 14.590272,48.3872141 14.612352,47.9132085 C14.627712,47.5978458 15.002112,46.9305845 15.950592,46.9305845 C16.249152,46.9305845 16.483392,46.9844269 16.797312,47.1632607 L16.935552,46.3883145 C16.508352,46.2267873 16.225152,46.2027505 15.858432,46.2065964 C14.615232,46.220057 13.419072,46.7863638 13.271232,47.9382068 C13.120512,49.1092793 14.548032,49.4034896 15.181632,49.4006052 C15.547392,49.3996437 15.928512,49.3842602 16.283712,49.3477242 L16.427712,48.5487413 Z" id="Fill-29" fill="#014E7F"></path>
                <path d="M25.276992,47.1067261 L25.355712,46.6529115 L26.494272,46.4038904 L26.373312,47.1067261 L26.931072,47.1067261 L26.824512,47.5557334 L26.284032,47.5547719 L25.954752,49.348878 C25.954752,49.348878 24.858432,49.3421477 24.854592,49.348878 L25.181952,47.5595793 L24.768192,47.5595793 L24.851712,47.1067261 L25.276992,47.1067261 Z" id="Fill-30" fill="#014E7F"></path>
                <polygon id="Fill-31" fill="#014E7F" points="30.823584 49.3490703 29.714784 49.3509932 30.272544 46.2377481 31.352544 46.2685152"></polygon>
                <path d="M19.770144,50.1210359 L20.300064,47.1308591 L21.256224,47.1308591 L21.182304,47.5125633 C21.265824,47.3981482 21.398304,47.3048854 21.580704,47.2289292 C21.765024,47.1529729 21.973344,47.0972076 22.198944,47.0972076 C22.448544,47.0972076 22.602144,47.1106682 22.789344,47.2077768 C22.974624,47.3048854 23.104224,47.4462218 23.175264,47.6308243 C23.246304,47.8125425 23.261664,48.0163745 23.222304,48.2384744 C23.157984,48.606718 22.978464,48.8970825 22.684704,49.1105292 C22.391904,49.3239759 22.129824,49.3807027 21.754464,49.3816642 C21.621984,49.3816642 21.510624,49.3682036 21.418464,49.3451283 C21.328224,49.3220529 21.256224,49.2932088 21.201504,49.2585958 C21.149664,49.2230214 21.093984,49.1739863 21.021984,49.0961071 L20.844384,50.1210359 L19.770144,50.1210359 Z M21.752544,47.642362 C21.610464,47.642362 21.480864,47.6856282 21.366624,47.7721607 C21.252384,47.8596546 21.180384,47.9856074 21.150624,48.1548264 C21.116064,48.3490436 21.137184,48.488457 21.213984,48.5749895 C21.291744,48.6615219 21.403104,48.7038267 21.549984,48.7038267 C21.648864,48.7038267 21.751584,48.6865202 21.827424,48.6490228 C21.920544,48.5999877 21.984864,48.5471068 22.040544,48.4653817 C22.101024,48.3788493 22.140384,48.2827021 22.160544,48.1711714 C22.191264,47.9952221 22.165344,47.8635005 22.083744,47.7760065 C22.004064,47.6865897 21.894624,47.642362 21.752544,47.642362 L21.752544,47.642362 Z" id="Fill-32" fill="#014E7F"></path>
                <path d="M39.635712,49.2898436 L39.722112,49.3484934 C39.504192,49.7926933 39.059712,50.1503608 38.539392,50.1503608 C38.113152,50.1503608 37.763712,49.8657652 37.744512,49.3321484 C37.710912,48.3764456 38.604672,47.4880458 39.337152,47.4880458 C39.652032,47.4880458 39.942912,47.6255362 39.956352,47.9639742 C39.983232,48.7244983 38.916672,48.9571745 38.214912,48.9735195 C38.191872,49.0523601 38.183232,49.1321623 38.187072,49.2542692 C38.198592,49.5696319 38.389632,49.8349981 38.783232,49.8349981 C39.123072,49.8349981 39.463872,49.5600172 39.635712,49.2898436 M39.539712,47.9168621 C39.533952,47.7370669 39.443712,47.6159215 39.258432,47.6159215 C38.812032,47.6159215 38.336832,48.4918222 38.254272,48.8456437 C38.987712,48.8456437 39.557952,48.4081741 39.539712,47.9168621" id="Fill-33" fill="#014E7F"></path>
                <path d="M35.266944,47.8913831 C35.342784,47.8808069 35.464704,47.8683078 35.516544,47.8683078 C35.597184,47.8683078 35.672064,47.8827299 35.675904,47.962532 C35.677824,48.0096441 35.592384,48.3480822 35.575104,48.4269228 L35.405184,49.1768707 C35.336064,49.4835802 35.262144,49.8056732 35.195904,50.0595017 L35.632704,50.0595017 L35.877504,48.8711227 C36.626304,48.0904078 36.914304,47.8356178 37.090944,47.8356178 C37.170624,47.8356178 37.225344,47.8779225 37.229184,47.9731082 C37.233024,48.1105987 37.148544,48.4221155 37.118784,48.5115323 L36.868224,49.3787798 C36.811584,49.572997 36.769344,49.7489463 36.773184,49.8739377 C36.780864,50.064309 36.896064,50.1489185 37.065984,50.1489185 C37.385664,50.1489185 37.616064,49.8162494 37.818624,49.489349 L37.760064,49.3816642 C37.677504,49.5133858 37.488384,49.8008658 37.339584,49.8008658 C37.292544,49.8008658 37.247424,49.7691373 37.246464,49.6902966 C37.241664,49.5883806 37.284864,49.4374295 37.313664,49.336475 L37.592064,48.321161 C37.665984,48.0413727 37.702464,47.8615775 37.700544,47.7663918 C37.693824,47.5760204 37.582464,47.487565 37.413504,47.487565 C37.126464,47.487565 36.745344,47.6981273 35.937984,48.6278704 L35.926464,48.6278704 L36.028224,48.1740558 C36.082944,47.9259961 36.136704,47.6663988 36.189504,47.487565 C35.910144,47.5885196 35.510784,47.7010118 35.263104,47.7490853 L35.266944,47.8913831 Z" id="Fill-34" fill="#014E7F"></path>
            </g>
        </g>
    </g>
</svg>