<svg xmlns="http://www.w3.org/2000/svg" xmlns:xlink="http://www.w3.org/1999/xlink" viewBox="0 0 100 100"><circle fill="#99D6ED" cx="50" cy="50" r="50"/><defs><circle id="a" cx="50" cy="50" r="50"/></defs><clipPath id="b"><use xlink:href="#a" overflow="visible"/></clipPath><path clip-path="url(#b)" fill="#273C4A" d="M46.9 11h6v90h-6z"/><path fill="#FFF" d="M25.9 49h51l-4 9 4 9h-51l-9-9M73.9 43h-51l4-9-4-9h51l9 9"/><circle fill="#273C4A" cx="49.9" cy="13" r="6"/><circle fill="#008BC1" cx="81.9" cy="82" r="18"/><g fill="#FFF"><path d="M81.9 70c-6.6 0-12 5.4-12 12s5.4 12 12 12 12-5.4 12-12-5.3-12-12-12zm0 23c-6.1 0-11-4.9-11-11s4.9-11 11-11 11 4.9 11 11-4.9 11-11 11z"/><circle cx="81.9" cy="87" r="1"/><path d="M82.4 75.2c-1.6 0-2.9.6-4 2-.1.1-.2.3-.2.4 0 .1.1.2.2.3.1.1.2.1.3.1.2 0 .4-.2.4-.2 1-1.1 2-1.6 3.3-1.6 1.7 0 3 1.1 3 2.7 0 1.8-1.4 2.9-3.6 2.9-.1 0-.1 0-.2.1s0 .2 0 .2l.2 2.8h.6l.2-2.3c1.1-.1 2-.5 2.7-1.1.8-.7 1.1-1.5 1.1-2.6-.1-2.2-1.7-3.7-4-3.7z"/></g></svg>