<svg xmlns="http://www.w3.org/2000/svg" viewBox="0 0 100 100"><circle fill="#273C4A" cx="50" cy="50" r="50"/><defs><circle id="a" cx="50" cy="50" r="50"/></defs><path fill="#079ED4" d="M50 81c5.3 0 9.6-4.1 10.9-9h-22c1.2 4.9 5.8 9 11.1 9z"/><path fill="#FED110" d="M78.4 62.9c-5.7 0-5.7-8.7-5.7-8.7V42.8c0-9.6-5.9-17.9-14.3-21.3v-.2c0-4-3.8-7.2-8.6-7.2s-8.6 3.2-8.6 7.2v.2C32.9 24.9 27 33.1 27 42.8v11.4s0 8.7-5.7 8.7c0 0-4.3.1-4.3 5.7 0 2.4 2.2 3.4 4.6 3.4h57.3c2.4 0 4-1 4-3.4-.2-5.6-4.5-5.7-4.5-5.7z"/></svg>