<svg width="96" height="96" viewBox="0 0 96 96" xmlns="http://www.w3.org/2000/svg"><title>Dispute</title><g fill="none" fill-rule="evenodd"><path d="M96 48c0 26.51-21.49 48-48 48S0 74.51 0 48 21.49 0 48 0s48 21.49 48 48" fill="#004879"/><path d="M48.96 17.26c-18.557 0-33.6 12.537-33.6 28 0 7.69 2.38 12.44 8.4 17.5L19.233 75.78s-.548 1.07.065 1.77c.612.7 1.78.145 1.78.145l15.813-6.324c3.752 1.203 7.81 1.89 12.07 1.89 18.557 0 33.6-12.535 33.6-28 0-15.463-15.043-28-33.6-28" fill="#FEFEFE"/><path d="M46.75 51.83l-1.023-24.95h6.896l-.968 24.95H46.75zm-1.29 7.812c0-2.047 1.667-3.773 3.715-3.773s3.773 1.725 3.773 3.772c0 1.993-1.725 3.718-3.773 3.718s-3.716-1.725-3.716-3.718z" fill="#118DCD"/></g></svg>