<svg id="Layer_1" xmlns="http://www.w3.org/2000/svg" viewBox="-343.7 258 97 97" enable-background="new -343.7 258 97 97"><style>.st0{filter:url(#Adobe_OpacityMaskFilter);} .st1{fill:#FFFFFF;} .st2{mask:url(#mask-2);fill:#344655;} .st3{filter:url(#Adobe_OpacityMaskFilter_1_);} .st4{mask:url(#mask-4);fill:#AEB5BB;} .st5{filter:url(#Adobe_OpacityMaskFilter_2_);} .st6{mask:url(#mask-6);fill:#687680;} .st7{filter:url(#Adobe_OpacityMaskFilter_3_);} .st8{mask:url(#mask-8);fill:#019ED5;}</style><title>Artboard 1</title><g id="Page-1_1_"><g id="Artboard-1"><g id="Group"><g id="Page-1"><g id="Group-3" transform="translate(1.03 .66)"><defs><filter id="Adobe_OpacityMaskFilter" filterUnits="userSpaceOnUse" x="-344.8" y="257.3" width="97" height="97"><feColorMatrix values="1 0 0 0 0 0 1 0 0 0 0 0 1 0 0 0 0 0 1 0"/></filter></defs><mask maskUnits="userSpaceOnUse" x="-344.8" y="257.3" width="97" height="97" id="mask-2"><g class="st0"><path id="path-1" class="st1" d="M-247.8 257.3h-97v97h97z"/></g></mask><path id="Fill-1" class="st2" d="M-247.8 305.8c0 26.8-21.7 48.5-48.5 48.5s-48.5-21.7-48.5-48.5 21.7-48.5 48.5-48.5 48.5 21.7 48.5 48.5"/></g><g id="Group-13"><g id="Group-6" transform="translate(62.14 35.58)"><defs><filter id="Adobe_OpacityMaskFilter_1_" filterUnits="userSpaceOnUse" x="-345" y="257.9" width="41.4" height="56.3"><feColorMatrix values="1 0 0 0 0 0 1 0 0 0 0 0 1 0 0 0 0 0 1 0"/></filter></defs><mask maskUnits="userSpaceOnUse" x="-345" y="257.9" width="41.4" height="56.3" id="mask-4"><g class="st3"><path id="path-3" class="st1" d="M-335.6 314.2c15.8-8 26.7-24.4 26.7-43.3 0-4.5-.6-8.9-1.8-13H-345v56.3h9.4z"/></g></mask><path id="Fill-4" class="st4" d="M-345 314.2c0-5.1 1.1-21.3 5.7-22.8 0 0 1.4-.7 6.8-1.1.7-1.3 1-3.2 1.1-4.7-3.6-2.7-6.1-7.6-6.1-13.3 0-8.5 1.1-14.5 12.3-14.5 11.3 0 12.3 6 12.3 14.5 0 5.7-2.5 10.7-6.2 13.3.1 1.6.4 3.5 1.1 4.8 5 .4 8.1 1 8.1 1 3.6.8 6.3 17.7 6.3 22.8H-345z"/></g><g id="Group-9" transform="translate(1.03 35.58)"><defs><filter id="Adobe_OpacityMaskFilter_2_" filterUnits="userSpaceOnUse" x="-347.9" y="257.9" width="41.4" height="56.3"><feColorMatrix values="1 0 0 0 0 0 1 0 0 0 0 0 1 0 0 0 0 0 1 0"/></filter></defs><mask maskUnits="userSpaceOnUse" x="-347.9" y="257.9" width="41.4" height="56.3" id="mask-6"><g class="st5"><path id="path-5" class="st1" d="M-343 257.9c-1.1 4.1-1.8 8.5-1.8 13 0 18.9 10.9 35.4 26.7 43.3h11.6v-56.3H-343z"/></g></mask><path id="Fill-7" class="st6" d="M-347.9 314.2c0-5.1 1.1-21.3 5.7-22.8 0 0 1.4-.7 6.8-1.1.7-1.3 1-3.2 1.1-4.7-3.6-2.7-6.1-7.6-6.1-13.3 0-8.5 1.1-14.5 12.3-14.5 11.3 0 12.3 6 12.3 14.5 0 5.7-2.5 10.7-6.2 13.3.1 1.6.4 3.5 1.1 4.8 5 .4 8.1 1 8.1 1 3.6.8 6.3 17.7 6.3 22.8h-41.4z"/></g><g id="Group-12" transform="translate(17.52 19.09)"><defs><filter id="Adobe_OpacityMaskFilter_3_" filterUnits="userSpaceOnUse" x="-344.1" y="257.3" width="64.8" height="80.2"><feColorMatrix values="1 0 0 0 0 0 1 0 0 0 0 0 1 0 0 0 0 0 1 0"/></filter></defs><mask maskUnits="userSpaceOnUse" x="-344.1" y="257.3" width="64.8" height="80.2" id="mask-8"><g class="st7"><path id="path-7" class="st1" d="M-344.1 324.4c8.5 7.2 19.4 11.5 31.3 11.5 13 0 24.8-5.1 33.5-13.4v-65.2h-64.8v67.1z"/></g></mask><path id="Fill-10" class="st8" d="M-344.1 337.5c0-7.3.2-26.4 11-32.4 0 0 2.1-1 9.7-1.5 1-1.8 1.4-4.5 1.6-6.8-5.2-3.8-8.7-10.8-8.7-18.9 0-12.1 1.5-20.6 17.5-20.6s17.5 8.5 17.5 20.6c0 8.1-3.5 15.2-8.8 19 .1 2.3.5 5 1.5 6.8 7.1.5 11.6 1.4 11.6 1.4 8.4 3.4 11.8 25.2 11.8 32.4h-64.7z"/></g></g></g></g></g></g></svg>