<?xml version="1.0" encoding="UTF-8" standalone="no"?>
<svg width="96px" height="95px" viewBox="0 0 96 95" version="1.1" xmlns="http://www.w3.org/2000/svg" xmlns:xlink="http://www.w3.org/1999/xlink">
    <!-- Generator: Sketch 40.3 (33839) - http://www.bohemiancoding.com/sketch -->
    <title>Page 1</title>
    <desc>Created with Sketch.</desc>
    <defs>
        <polygon id="path-1" points="95.0161882 0.0216470588 0.898541176 0.0216470588 0.898541176 94.1388235 95.0161882 94.1388235 95.0161882 0.0216470588"></polygon>
        <path d="M2.56826821,0.9152 C0.962186297,5.65678803 0.0912941176,10.7375045 0.0912941176,16.0216471 C0.0912941176,41.5450903 20.4128416,62.3235711 45.7599943,63.0593641 L45.76,0.9152 L2.56826821,0.9152 L2.56826821,0.9152 Z" id="path-3"></path>
        <path d="M47.1510588,0.0207058824 C21.1604706,0.0207058824 0.0912941176,21.0898824 0.0912941176,47.0804706 L0.0912941176,47.0804706 C0.0912941176,73.0691765 21.1604706,94.1383529 47.1510588,94.1383529 L47.1510588,94.1383529 C73.1397647,94.1383529 94.2089412,73.0691765 94.2089412,47.0804706 L94.2089412,47.0804706 C94.2089412,21.0898824 73.1397647,0.0207058824 47.1510588,0.0207058824 L47.1510588,0.0207058824 Z" id="path-5"></path>
    </defs>
    <g id="Page-1" stroke="none" stroke-width="1" fill="none" fill-rule="evenodd">
        <g id="Fraud-Copy-2" transform="translate(-673.000000, -28.000000)">
            <g id="Page-1" transform="translate(673.000000, 27.000000)">
                <g id="Group-3" transform="translate(0.000000, 0.919529)">
                    <mask id="mask-2" fill="white">
                        <use xlink:href="#path-1"></use>
                    </mask>
                    <g id="Clip-2"></g>
                    <path d="M95.0161882,47.08 C95.0161882,73.0696471 73.9470118,94.1388235 47.9573647,94.1388235 C21.9677176,94.1388235 0.898541176,73.0696471 0.898541176,47.08 C0.898541176,21.0903529 21.9677176,0.0211764706 47.9573647,0.0211764706 C73.9470118,0.0211764706 95.0161882,21.0903529 95.0161882,47.08" id="Fill-1" fill="#677680" mask="url(#mask-2)"></path>
                </g>
                <g id="Group-20" transform="translate(0.941176, 0.919529)">
                    <g id="Group-6" transform="translate(0.000000, 31.058824)">
                        <mask id="mask-4" fill="white">
                            <use xlink:href="#path-3"></use>
                        </mask>
                        <g id="Clip-5"></g>
                        <path d="M36.0348235,63.8224941 L1.25458824,63.8224941 C-4.11670588,63.8224941 -8.47058824,59.4686118 -8.47058824,54.0973176 L-8.47058824,10.6394353 C-8.47058824,5.26908235 -4.11670588,0.9152 1.25458824,0.9152 L36.0348235,0.9152 C41.4061176,0.9152 45.76,5.26908235 45.76,10.6394353 L45.76,54.0973176 C45.76,59.4686118 41.4061176,63.8224941 36.0348235,63.8224941" id="Fill-4" fill="#081928" mask="url(#mask-4)"></path>
                    </g>
                    <path d="M45.7527529,57.8901647 C45.7527529,52.5433412 45.7546353,47.1965176 45.7480471,41.8506353 C45.7433412,38.0407529 43.6821647,34.7532235 40.5339294,33.1089882 L40.5339294,93.7828706 C43.6049882,92.1640471 45.7207529,88.9264 45.7367529,85.3866353 C45.7762824,76.2214588 45.7527529,67.0553412 45.7527529,57.8901647" id="Fill-7" fill="#334653"></path>
                    <path d="M65.9456941,80.8913882 C65.9456941,80.8913882 42.3927529,83.9483294 46.0049882,52.5026824 L56.0624,52.5026824 L60.0558118,55.9812706 L60.1894588,64.1440941 L62.0633412,74.8490353 L65.9456941,80.8913882 Z" id="Fill-9" fill="#EDAB85"></path>
                    <path d="M62.4307765,19.8526118 L62.4307765,61.4883765 C62.4307765,64.0879059 60.3234824,66.1942588 57.7248941,66.1942588 L33.1046588,66.1942588 C30.5060706,66.1942588 28.3987765,64.0879059 28.3987765,61.4883765 L28.3987765,19.8526118 C28.3987765,17.2540235 30.5060706,15.1467294 33.1046588,15.1467294 L57.7248941,15.1467294 C60.3234824,15.1467294 62.4307765,17.2540235 62.4307765,19.8526118" id="Fill-11" fill="#C2C0C5"></path>
                    <mask id="mask-6" fill="white">
                        <use xlink:href="#path-5"></use>
                    </mask>
                    <g id="Clip-14"></g>
                    <polygon id="Fill-13" fill="#F0F1F1" mask="url(#mask-6)" points="34.4743529 66.1948235 40.5289412 66.1948235 40.5289412 15.1472941 34.4743529 15.1472941"></polygon>
                    <path d="M62.2001882,81.1233882 C60.7620706,81.1233882 59.3550118,80.6725647 58.1983059,79.8189176 C54.6058353,77.1666824 53.1404235,72.9408 53.6044235,68.3280941 C54.0100706,64.3026824 53.3568941,55.1196235 53.0020706,52.4730353 C52.3658353,46.6076235 50.9380706,43.2400941 51.6684235,40.2960941 C52.3997176,37.3520941 56.6152471,36.5248 58.6886588,37.8198588 C60.8157176,39.1488 62.5380706,51.8038588 62.5380706,51.8038588 L62.5380706,32.2471529 C62.5380706,27.3568 62.4778353,20.0457412 62.4778353,20.0457412 C62.4778353,20.0457412 67.7832471,22.0532706 70.6604235,25.0640941 C73.2891294,27.8151529 73.3964235,33.4669176 73.3964235,33.4669176 L73.3964235,42.2913882 L73.3964235,73.5798588 C73.3964235,77.7464471 70.0185412,81.1233882 65.8528941,81.1233882 L62.2001882,81.1233882 Z" id="Fill-15" fill="#FCC696" mask="url(#mask-6)"></path>
                    <path d="M73.6873412,98.8235294 L52.5711059,98.8235294 C52.0515765,98.8235294 51.6299294,98.4018824 51.6299294,97.8823529 L51.6299294,79.552 C51.6299294,79.0324706 52.0515765,78.6108235 52.5711059,78.6108235 L73.6873412,78.6108235 C74.2068706,78.6108235 74.6285176,79.0324706 74.6285176,79.552 L74.6285176,97.8823529 C74.6285176,98.4018824 74.2068706,98.8235294 73.6873412,98.8235294" id="Fill-16" fill="#334653" mask="url(#mask-6)"></path>
                    <polygon id="Fill-17" fill="#98A1A8" mask="url(#mask-6)" points="-1.91529412 85.1341176 30.3454118 85.1341176 30.3454118 61.2489412 -1.91529412 61.2489412"></polygon>
                    <polygon id="Fill-18" fill="#C1E5F3" mask="url(#mask-6)" points="-1.38635294 54.7802353 30.8743529 54.7802353 30.8743529 36.6061176 -1.38635294 36.6061176"></polygon>
                    <path d="M0.784941176,82.1364706 L4.23717647,82.1364706 L4.23717647,78.5741176 L0.784941176,78.5741176 L0.784941176,82.1364706 Z M19.392,82.1251765 L22.8442353,82.1251765 L22.8442353,78.5628235 L19.392,78.5628235 L19.392,82.1251765 Z M25.4738824,82.1251765 L28.9261176,82.1251765 L28.9261176,78.5628235 L25.4738824,78.5628235 L25.4738824,82.1251765 Z M25.6112941,68.9684706 L29.0512941,68.9684706 L29.0512941,65.4767059 L25.6112941,65.4767059 L25.6112941,68.9684706 Z M25.52,75.5858824 L29.0371765,75.5858824 L29.0371765,72.1054118 L25.52,72.1054118 L25.52,75.5858824 Z M19.3882353,75.6037647 L22.8470588,75.6037647 L22.8470588,72.0969412 L19.3882353,72.0969412 L19.3882353,75.6037647 Z M19.3769412,68.9628235 L22.8743529,68.9628235 L22.8743529,65.4974118 L19.3769412,65.4974118 L19.3769412,68.9628235 Z M12.9995294,82.1072941 L16.4649412,82.1072941 L16.4649412,78.5421176 L12.9995294,78.5421176 L12.9995294,82.1072941 Z M13.0682353,68.9618824 L16.624,68.9618824 L16.624,65.5011765 L13.0682353,65.5011765 L13.0682353,68.9618824 Z M13.0352941,75.5915294 L16.5185882,75.5915294 L16.5185882,72.1167059 L13.0352941,72.1167059 L13.0352941,75.5915294 Z M6.95905882,82.1242353 L10.4047059,82.1242353 L10.4047059,78.5647059 L6.95905882,78.5647059 L6.95905882,82.1242353 Z M7.06352941,68.9421176 L10.5609412,68.9421176 L10.5609412,65.4927059 L7.06352941,65.4927059 L7.06352941,68.9421176 Z M6.97788235,75.6329412 L10.4235294,75.6329412 L10.4235294,72.1007059 L6.97788235,72.1007059 L6.97788235,75.6329412 Z M0.747294118,68.9458824 L4.22494118,68.9458824 L4.22494118,65.4795294 L0.747294118,65.4795294 L0.747294118,68.9458824 Z M0.709647059,75.6028235 L4.19670588,75.6028235 L4.19670588,72.1232941 L0.709647059,72.1232941 L0.709647059,75.6028235 Z M-0.679529412,54.8847059 L30.3708235,54.8847059 L30.3708235,39.5755294 L-0.679529412,39.5755294 L-0.679529412,54.8847059 Z M1.48611765,32.0075294 C-4.22211765,32.0244706 -8.46870588,36.2861176 -8.46870588,42.0037647 C-8.46870588,56.416 -8.47529412,70.8272941 -8.464,85.2367059 C-8.46211765,89.8870588 -5.02305882,93.9331765 -0.445176471,94.7388235 C-0.305882353,94.7632941 -0.174117647,94.832 -0.0385882353,94.8809412 L36.9007059,94.8809412 L36.9007059,32.0385882 C35.4541176,31.9152941 2.39058824,32.0056471 1.48611765,32.0075294 L1.48611765,32.0075294 Z" id="Fill-19" fill="#334653" mask="url(#mask-6)"></path>
                </g>
            </g>
        </g>
    </g>
</svg>