<svg xmlns="http://www.w3.org/2000/svg" xmlns:xlink="http://www.w3.org/1999/xlink" viewBox="0 0 100 100"><circle fill="#99D6ED" cx="50" cy="50" r="50"/><defs><circle id="a" cx="50" cy="50" r="50"/></defs><clipPath id="b"><use xlink:href="#a" overflow="visible"/></clipPath><path clip-path="url(#b)" fill="#697780" d="M0 75h100v25H0z"/><path fill="#074A77" d="M50 13c-10.5 0-19 8.5-19 19v19h6V32c0-7.2 5.8-13 13-13s13 5.8 13 13v19h6V32c0-10.5-8.5-19-19-19z"/><path fill="#079ED4" d="M30 39h40c2.8 0 5 2.2 5 5v26c0 2.8-2.2 5-5 5H30c-2.8 0-5-2.2-5-5V44c0-2.8 2.2-5 5-5z"/><circle fill="#273C4A" cx="50" cy="54" r="4"/><path fill="#273C4A" d="M50 56c.6 0 1 .4 1 1v6c0 .6-.4 1-1 1s-1-.4-1-1v-6c0-.6.4-1 1-1z"/></svg>