<svg xmlns="http://www.w3.org/2000/svg" viewBox="0 0 100 100"><circle fill="#273C4A" cx="50" cy="50" r="50"/><path fill="#FFF" d="M15 30h70v70H15z"/><path fill="#697780" d="M15 30h70v14H15z"/><path fill="#CDCCD0" d="M27 36c-1.1 0-2-.9-2-2v-8c0-1.1.9-2 2-2s2 .9 2 2v8c0 1.1-.9 2-2 2zM73 36c-1.1 0-2-.9-2-2v-8c0-1.1.9-2 2-2s2 .9 2 2v8c0 1.1-.9 2-2 2z"/><path fill="#008BC1" d="M65 64h10v10H65z"/><path fill="#67C4E6" d="M25 54h10v10H25z"/><path fill="#FED110" d="M63.2 68.1l-1.5-.9-8.4-5.5c-.5-.3-1.1 0-1.1.6v3.5h-.7H48.6c-.4 0-.7 0-1.1-.1h-.2c-.3 0-.6 0-1-.1h-.4c-.3 0-.6 0-.9-.1h-.4c-.3 0-.7-.1-1-.1h-.3c-.4-.1-.8-.1-1.2-.2-.1 0-.2 0-.3-.1-.3 0-.6-.1-.9-.2-.1 0-.3-.1-.4-.1-.3-.1-.6-.1-.8-.2-.1 0-.3-.1-.4-.1-.4-.1-.7-.2-1-.3h-.1c-.4-.1-.7-.2-1-.3-.1 0-.2-.1-.3-.1-.2-.1-.5-.2-.7-.3-.1 0-.2-.1-.3-.1-.5-.2-.9-.5-1.3-.8-.3-.2-.6-.1-.5.2.2.5.4.9.6 1.4.2.3.3.6.5.8 0 0 0 .1.1.1.2.3.5.6.7.9l.3.3.6.6.3.3c.2.2.4.4.6.5.1.1.3.2.4.3.2.2.5.3.7.5.1.1.2.2.4.3.3.2.7.4 1 .6.1 0 .1.1.2.1l1.2.6c.1.1.3.1.4.2.3.1.6.3.9.4.2.1.3.1.5.2l.9.3c.2.1.3.1.5.2l.9.3c.2 0 .3.1.5.1l1.2.3c.1 0 .1 0 .2.1.5.1.9.2 1.4.3.1 0 .3 0 .4.1.3.1.6.1.9.1h.8c.4 0 .8.1 1.1.1v3.5c0 .6.7.9 1.1.6l8.9-6.9 1-.7c.3-.4.3-1-.1-1.2z"/></svg>