<?xml version="1.0" encoding="utf-8"?>
<!-- Generator: Adobe Illustrator 17.1.0, SVG Export Plug-In . SVG Version: 6.00 Build 0)  -->
<!DOCTYPE svg PUBLIC "-//W3C//DTD SVG 1.1//EN" "http://www.w3.org/Graphics/SVG/1.1/DTD/svg11.dtd">
<svg version="1.1" id="Layer_1" xmlns="http://www.w3.org/2000/svg" xmlns:xlink="http://www.w3.org/1999/xlink" x="0px" y="0px"
	 viewBox="0 0 100 100" style="enable-background:new 0 0 100 100;" xml:space="preserve">
<g>
	<circle style="fill:#99D6ED;" cx="50" cy="50" r="50"/>
	<g>
		<rect x="15" y="30" style="fill:#FFFFFF;" width="70" height="70"/>
	</g>
	<rect x="15" y="30" style="fill:#697780;" width="70" height="14"/>
	<path style="fill:#CDCCD0;" d="M27,36L27,36c-1.1,0-2-0.9-2-2v-8c0-1.1,0.9-2,2-2h0c1.1,0,2,0.9,2,2v8C29,35.1,28.1,36,27,36z"/>
	<path style="fill:#CDCCD0;" d="M73,36L73,36c-1.1,0-2-0.9-2-2v-8c0-1.1,0.9-2,2-2h0c1.1,0,2,0.9,2,2v8C75,35.1,74.1,36,73,36z"/>
	<rect x="65" y="64" style="fill:#008BC1;" width="10" height="10"/>
	<rect x="25" y="54" style="fill:#67C4E6;" width="10" height="10"/>
	<path style="fill:#FED110;" d="M63.2,68.1l-1.5-0.9l-8.4-5.5c-0.5-0.3-1.1,0-1.1,0.6v2.8v0.7c-0.2,0-0.5,0-0.7,0c0,0,0,0,0,0
		c0,0-0.1,0-0.1,0c-0.1,0-0.2,0-0.3,0c-0.2,0-0.8,0-1,0c-0.1,0-0.2,0-0.4,0c-0.2,0-0.5,0-0.8,0c-0.1,0-0.2,0-0.3,0
		c-0.4,0-0.7,0-1.1-0.1c-0.1,0-0.1,0-0.2,0c-0.3,0-0.6,0-1-0.1c-0.1,0-0.3,0-0.4,0c-0.3,0-0.6,0-0.9-0.1c-0.1,0-0.3,0-0.4,0
		c-0.3,0-0.7-0.1-1-0.1c-0.1,0-0.2,0-0.3,0c-0.4-0.1-0.8-0.1-1.2-0.2c-0.1,0-0.2,0-0.3-0.1c-0.3,0-0.6-0.1-0.9-0.2
		c-0.1,0-0.3-0.1-0.4-0.1c-0.3-0.1-0.6-0.1-0.8-0.2c-0.1,0-0.3-0.1-0.4-0.1c-0.4-0.1-0.7-0.2-1-0.3c0,0-0.1,0-0.1,0
		c-0.4-0.1-0.7-0.2-1-0.3c-0.1,0-0.2-0.1-0.3-0.1c-0.2-0.1-0.5-0.2-0.7-0.3c-0.1,0-0.2-0.1-0.3-0.1c-0.5-0.2-0.9-0.5-1.3-0.8
		c-0.3-0.2-0.6-0.1-0.5,0.2c0.2,0.5,0.4,0.9,0.6,1.4c0.2,0.3,0.3,0.6,0.5,0.8c0,0,0,0.1,0.1,0.1c0.2,0.3,0.5,0.6,0.7,0.9
		c0.1,0.1,0.2,0.2,0.3,0.3c0.2,0.2,0.4,0.4,0.6,0.6c0.1,0.1,0.2,0.2,0.3,0.3c0.2,0.2,0.4,0.4,0.6,0.5c0.1,0.1,0.3,0.2,0.4,0.3
		c0.2,0.2,0.5,0.3,0.7,0.5c0.1,0.1,0.2,0.2,0.4,0.3c0.3,0.2,0.7,0.4,1,0.6c0.1,0,0.1,0.1,0.2,0.1c0.4,0.2,0.8,0.4,1.2,0.6
		c0.1,0.1,0.3,0.1,0.4,0.2c0.3,0.1,0.6,0.3,0.9,0.4c0.2,0.1,0.3,0.1,0.5,0.2c0.3,0.1,0.6,0.2,0.9,0.3c0.2,0.1,0.3,0.1,0.5,0.2
		c0.3,0.1,0.6,0.2,0.9,0.3c0.2,0,0.3,0.1,0.5,0.1c0.4,0.1,0.8,0.2,1.2,0.3c0.1,0,0.1,0,0.2,0.1c0.5,0.1,0.9,0.2,1.4,0.3
		c0.1,0,0.3,0,0.4,0.1c0.3,0.1,0.6,0.1,0.9,0.1c0.2,0,0.7,0,0.8,0c0.4,0,0.8,0.1,1.1,0.1v0.7v2.8c0,0.6,0.7,0.9,1.1,0.6l8.9-6.9
		l1-0.7C63.6,68.9,63.6,68.3,63.2,68.1z"/>
</g>
<g>
</g>
<g>
</g>
<g>
</g>
<g>
</g>
<g>
</g>
<g>
</g>
</svg>
