<?xml version="1.0" encoding="utf-8"?>
<!-- Generator: Adobe Illustrator 19.0.0, SVG Export Plug-In . SVG Version: 6.00 Build 0)  -->
<svg version="1.1" id="Layer_1" xmlns="http://www.w3.org/2000/svg" xmlns:xlink="http://www.w3.org/1999/xlink" x="0px" y="0px"
	 viewBox="0 0 65.2 60" style="enable-background:new 0 0 65.2 60;" xml:space="preserve">
<style type="text/css">
	.st0{fill:#687680;}
</style>
<g id="XMLID_7_">
	<path id="XMLID_10_" class="st0" d="M33.2,28.6V17.4c2.4,0.2,4.4,1.2,5.9,2.8c0,0,0.8,0.9,1.5,0.2c0.7-0.7-0.1-1.5-0.1-1.5
		c-1.8-1.9-4.3-3-7.2-3.2v-2.9c0,0,0-0.9-0.9-0.9c-0.9,0-0.9,0.9-0.9,0.9v2.8c-5.7,0.3-8.3,3.9-8.3,7.2c0,4.9,4.3,6.2,8.3,7.3v12.6
		c-3.7-0.2-6-2.2-7.3-3.6c0,0-0.7-0.8-1.4-0.1c-0.6,0.6,0,1.4,0,1.4c2.1,2.4,5.2,3.9,8.7,4.1v2.7c0,0,0,0.9,0.9,0.9
		c0.9,0,0.9-0.9,0.9-0.9v-2.7c6.3-0.4,8.5-4.2,8.5-7.6C41.7,31.6,37.7,29.9,33.2,28.6z M31.3,28.1C27.7,27,25,25.9,25,22.8
		c0-2.9,2.7-5.3,6.3-5.5V28.1z M33.2,42.7V30.6c3.6,1.1,6.6,2.4,6.6,6.1C39.7,38,39.2,42.2,33.2,42.7z"/>
	<path id="XMLID_2_" class="st0" d="M9.1,45.8l1.7-6.1c0.1-0.4,0.4-0.6,0.8-0.6c0.4,0.1,0.6,0.2,0.7,0.4c0.1,0.2,0.1,0.4,0.1,0.6
		L9.9,48c-0.1,0.3-0.3,0.4-0.4,0.5c-0.1,0.1-0.2,0.1-0.4,0.1l-0.3,0L1,46.1c-0.2-0.1-0.4-0.2-0.5-0.4c-0.1-0.2-0.1-0.4-0.1-0.6
		c0.1-0.3,0.4-0.6,0.8-0.6l6.6,2l-1.3-1.9c-0.2-0.3-0.4-0.8-0.5-0.9C-1.5,29.3,4,11.5,18.3,3.9c4.2-2.2,9-3.4,13.7-3.4
		c4.7,0,9.5,1.2,13.6,3.3c0.2,0.1,0.4,0.3,0.4,0.5c0.1,0.2,0,0.4-0.1,0.6c-0.1,0.3-0.4,0.5-0.7,0.5c-0.1,0-0.2,0-0.4-0.1
		c-4-2.1-8.4-3.2-12.9-3.2c-4.5,0-9,1.1-12.9,3.2C5.6,12.5,0.4,29.4,7.5,42.9c0.1,0.1,0.3,0.6,0.4,0.7"/>
	<path id="XMLID_6_" class="st0" d="M32.1,59.4c-4.5,0-9-1-13-3c-0.4-0.2-0.6-0.7-0.4-1.1c0.1-0.3,0.4-0.5,0.7-0.5
		c0.1,0,0.2,0,0.4,0.1c3.8,1.9,8,2.8,12.3,2.8c4.5,0,9-1.1,12.9-3.2c13.2-6.9,18.5-23.5,12-36.8l-1.1-2.2l-1.7,6.3
		c-0.1,0.3-0.4,0.6-0.8,0.6c-0.5-0.1-0.6-0.3-0.7-0.5c-0.1-0.2-0.1-0.4-0.1-0.6l2.4-7.9c0.1-0.3,0.4-0.6,0.8-0.6l8,2.5
		c0.4,0.1,0.7,0.6,0.6,1c-0.1,0.2-0.2,0.4-0.4,0.5c-0.1,0.1-0.3,0.1-0.4,0.1l-6.4-2l1.2,1.9c7.1,14.2,1.4,31.8-12.6,39.2
		C41.6,58.2,36.8,59.4,32.1,59.4z"/>
</g>
</svg>
