<svg id="Layer_1" xmlns="http://www.w3.org/2000/svg" viewBox="0 0 20.5 22"><style>.st0{fill:#021829;}</style><path class="st0" d="M16.6 1.5v-1c0-.2-.2-.5-.5-.5-.2 0-.5.2-.5.5v1H4.9v-1c0-.3-.2-.5-.5-.5s-.5.2-.5.5v1H0V22h20.5V1.5h-3.9zM1 7.3h3.9v3.9H1V7.3zm13.7 3.9h-3.9V7.3h3.9v3.9zm-8.8 1h3.9v3.9H5.9v-3.9zm3.9-1H5.9V7.3h3.9v3.9zm-8.8 1h3.9v3.9H1v-3.9zM1 21v-3.9h3.9V21H1zm4.9 0v-3.9h3.9V21H5.9zm4.8 0v-3.9h3.9V21h-3.9zm8.8 0h-3.9v-3.9h3.9V21zm0-4.9h-3.9v-3.9h3.9v3.9zm-3.8-4.9V7.3h3.9v3.9h-3.9zm0-4.8H1v-4h2.9v1c0 .2.2.5.5.5s.5-.2.5-.5v-1h10.7v1c0 .2.2.5.5.5.2 0 .5-.2.5-.5v-1h2.9v3.9l-3.8.1z"/></svg>