<svg id="Layer_1" xmlns="http://www.w3.org/2000/svg" viewBox="0 0 52.8 79.3"><style>.st0{fill:#021829;}</style><path class="st0" d="M46.2 35.5v-17C46.2 8.9 36.7 0 26.4 0S6.6 8.8 6.6 18.5v17C2.5 40.1 0 46.2 0 52.8c0 14.6 11.9 26.4 26.4 26.4s26.4-11.9 26.4-26.4c0-6.6-2.5-12.8-6.6-17.3zM26.4 2.7c8.8 0 17.1 7.6 17.1 15.8v14.3c-4.7-4-10.6-6.4-17.1-6.4s-12.6 2.4-17.1 6.4V18.5c-.1-8.2 8.2-15.8 17.1-15.8zm0 73.9C13.3 76.6 2.7 66 2.7 52.8s10.6-23.7 23.7-23.7 23.7 10.6 23.7 23.7-10.7 23.8-23.7 23.8z"/><path class="st0" d="M26.4 50.2c-1.4 0-2.7 1.1-2.7 2.7 0 1 .6 1.8 1.3 2.3v9.6c0 .7.6 1.3 1.3 1.3.7 0 1.3-.6 1.3-1.3v-9.6c.8-.4 1.3-1.3 1.3-2.3.1-1.6-1.1-2.7-2.5-2.7z"/></svg>