<svg id="Layer_1" xmlns="http://www.w3.org/2000/svg" viewBox="0 0 40.3 40.3"><style>.st0{fill:#687781;}</style><path class="st0" d="M21 19.3v-7.7c1.7.2 3 .8 4 1.8 0 0 .5.7 1 .2.5-.5 0-1 0-1-1.2-1.3-3-2-5-2.2v-2s0-.7-.7-.7-.7.7-.7.7v2c-3.9.2-5.7 2.7-5.7 5 0 3.4 3 4.2 5.7 5v8.7c-2.5-.2-4.2-1.5-5-2.3 0 0-.5-.5-1 0-.3.3 0 1 0 1 1.3 1.7 3.5 2.7 6 2.7v1.7s0 .7.7.7.7-.7.7-.7v-1.8c4.4-.3 5.9-2.9 5.9-5.2-.1-3.9-2.9-5.1-5.9-5.9zm-1.2-.3c-2.5-.8-4.4-1.5-4.4-3.7 0-2 1.8-3.5 4.4-3.7V19zm1.2 9.9v-8.2c2.5.8 4.5 1.7 4.5 4.2 0 .8-.3 3.6-4.5 4z"/><path class="st0" d="M20.1 0C9.1 0 0 9.1 0 20.1s9.1 20.1 20.1 20.1 20.1-9.1 20.1-20.1S31.2 0 20.1 0zm0 39.3C9.6 39.3 1 30.7 1 20.1S9.6 1 20.1 1s19.1 8.6 19.1 19.1-8.5 19.2-19.1 19.2z"/></svg>