<svg id="Layer_1" xmlns="http://www.w3.org/2000/svg" viewBox="0 0 58.8 58.8"><style>.st0{fill:#687781;}</style><path class="st0" d="M30.6 28.2V16.9c2.5.2 4.4 1.2 5.9 2.7 0 0 .7 1 1.5.2.7-.7 0-1.5 0-1.5-1.7-2-4.4-2.9-7.4-3.2v-2.9s0-1-1-1-1 1-1 1v2.9c-5.6.2-8.3 3.9-8.3 7.4 0 4.9 4.4 6.1 8.3 7.4v12.7c-3.7-.2-6.1-2.2-7.4-3.4 0 0-.7-.7-1.5 0-.5.5 0 1.5 0 1.5 2 2.5 5.1 3.9 8.8 3.9v2.5s0 1 1 1 1-1 1-1v-2.7c6.4-.5 8.6-4.2 8.6-7.6.1-5.7-4.1-7.4-8.5-8.6zm-1.7-.5c-3.7-1.2-6.4-2.2-6.4-5.4 0-2.9 2.7-5.1 6.4-5.4v10.8zm1.7 14.4v-12c3.7 1.2 6.6 2.5 6.6 6.1 0 1.3-.4 5.5-6.6 5.9z"/><path class="st0" d="M29.4 0C13.2 0 0 13.2 0 29.4s13.2 29.4 29.4 29.4 29.4-13.2 29.4-29.4S45.6 0 29.4 0zm0 57.3C14 57.3 1.5 44.8 1.5 29.4S14 1.5 29.4 1.5 57.3 14 57.3 29.4 44.8 57.3 29.4 57.3z"/></svg>