<svg width="35" height="47" viewBox="0 0 35 47" xmlns="http://www.w3.org/2000/svg"><title>lock</title><g fill="#018BBB" fill-rule="evenodd"><path d="M33.056 43.083c0 1.08-.873 1.96-1.945 1.96H3.89c-1.073 0-1.946-.88-1.946-1.96v-21.54c0-1.08.873-1.96 1.945-1.96H31.11c1.072 0 1.946.88 1.946 1.96v21.54zM7.778 11.75c0-5.4 4.36-9.792 9.722-9.792 5.36 0 9.722 4.393 9.722 9.792v5.875H7.778V11.75zm23.333 5.875h-1.943V11.75C29.167 5.26 23.944 0 17.5 0S5.833 5.26 5.833 11.75v5.875H3.89c-2.15 0-3.89 1.753-3.89 3.917v21.54C0 45.248 1.74 47 3.89 47h27.22c2.15 0 3.89-1.753 3.89-3.917v-21.54c0-2.165-1.74-3.918-3.89-3.918z"/><path d="M17.5 27.417c-1.61 0-2.917 1.316-2.917 2.937 0 1.277.815 2.354 1.945 2.758v4.096c0 .54.435.98.972.98.537 0 .972-.44.972-.98v-4.096c1.13-.404 1.945-1.48 1.945-2.758 0-1.62-1.307-2.937-2.917-2.937"/></g></svg>