<svg width="46" height="61" viewBox="0 0 46 61" xmlns="http://www.w3.org/2000/svg" xmlns:xlink="http://www.w3.org/1999/xlink"><title>pin icon</title><defs><path id="a" d="M31.236.028H.014v39.84h31.222z"/></defs><g fill="none" fill-rule="evenodd"><g transform="translate(14.59 20.952)"><mask id="b" fill="#fff"><use xlink:href="#a"/></mask><path d="M12.458 12.142v7.735c-.002 1.43-.62 2.43-1.758 2.852-1.164.43-2.246.087-3.17-1.01-.547-.65-1.088-1.305-1.64-1.95-.914-1.063-2.21-1.21-3.15-.37-.938.843-.93 2.15-.01 3.19 2.83 3.196 5.308 6.62 6.875 10.65.884 2.273 2.54 3.693 4.942 4.205 2.126.453 4.27.516 6.405.2 3.254-.48 5.762-2.088 7.172-5.18.724-1.588 1.062-3.27 1.063-5.02 0-3.516.003-7.034-.002-10.552 0-1.266-.892-2.208-2.074-2.22-1.23-.01-2.134.915-2.145 2.214-.008.96.028 1.924-.02 2.884-.015.32-.15.737-.378.91-.243.185-.69.24-1 .162-.51-.126-.634-.595-.634-1.093.004-2.404.014-4.807-.005-7.21-.01-1.16-.957-2.062-2.096-2.063-1.153 0-2.078.883-2.116 2.043-.02.61-.004 1.223-.004 1.835 0 1.136.013 2.273-.01 3.408-.01.662-.478 1.124-1.045 1.103-.546-.02-.94-.47-.973-1.11-.007-.13-.002-.26-.002-.392 0-4.326.003-8.652-.002-12.98 0-1.368-.877-2.305-2.125-2.3-1.242.005-2.096.947-2.097 2.323-.002 2.578 0 5.156 0 7.735m6.323-3.206c3.14-1.49 6.33.652 6.227 4.217.377-.134.723-.29 1.086-.382 2.54-.64 5.064 1.233 5.105 3.896.057 3.758.048 7.52-.012 11.277-.03 1.82-.442 3.594-1.19 5.267-1.632 3.638-4.474 5.696-8.33 6.373-2.418.424-4.84.363-7.25-.1-3.22-.617-5.484-2.46-6.685-5.51-1.43-3.632-3.66-6.718-6.145-9.662C1.01 23.63.433 22.845.18 22.01c-.573-1.9.38-3.844 2.116-4.73 1.715-.873 3.715-.462 5.017 1.045.583.676 1.12 1.394 1.733 2.042.222.235.614.47.9.442.473-.048.487-.522.486-.935-.005-5.006-.01-10.01.004-15.016.002-.627.038-1.278.21-1.874.55-1.924 2.526-3.2 4.403-2.914 2.124.323 3.625 1.996 3.658 4.116.024 1.53.01 3.06.015 4.59 0 .04.028.08.058.162" fill="#018BBB" mask="url(#b)"/></g><path d="M29.17 6.248c-.87 0-1.736.01-2.604-.003-.962-.012-1.534-.584-1.546-1.55-.012-1.048-.013-2.097.003-3.145C25.038.577 25.6.02 26.58.013 28.313 0 30.05 0 31.783.013c.923.007 1.5.584 1.514 1.515.017 1.07.017 2.14-.003 3.21-.017.93-.588 1.49-1.524 1.506-.866.016-1.734.004-2.6.004M29.17 16.74c-.867 0-1.734.008-2.602-.003-.963-.013-1.536-.583-1.548-1.55-.012-1.047-.013-2.095.003-3.143.015-.973.576-1.532 1.554-1.54 1.735-.012 3.47-.012 5.205 0 .924.007 1.5.583 1.516 1.514.017 1.07.017 2.14-.003 3.21-.017.93-.587 1.49-1.522 1.508-.867.016-1.735.003-2.602.003M16.655 6.248c-.846 0-1.692.006-2.537-.002-1.023-.01-1.586-.553-1.6-1.562-.017-1.047-.018-2.096-.002-3.143.013-.934.58-1.52 1.5-1.528 1.758-.016 3.514-.016 5.27 0 .923.01 1.493.597 1.505 1.526.015 1.048.014 2.096 0 3.144-.01.974-.574 1.546-1.533 1.562-.867.015-1.735.003-2.602.004M16.632 10.5c.846 0 1.69-.006 2.537 0 1.046.008 1.614.568 1.623 1.608.008 1.004.01 2.008 0 3.012-.01 1.05-.567 1.612-1.614 1.617-1.692.008-3.384.01-5.075 0-1.015-.006-1.574-.56-1.588-1.574-.015-1.047-.018-2.096 0-3.143.014-.93.586-1.5 1.513-1.517.867-.017 1.735-.004 2.602-.004M16.62 27.23c-.825 0-1.65.006-2.473 0-1.06-.01-1.618-.55-1.63-1.598-.014-1.026-.015-2.052-.002-3.078.012-.972.578-1.552 1.538-1.56 1.735-.013 3.47-.013 5.204 0 .958.008 1.525.594 1.535 1.563.01 1.048.015 2.096-.002 3.144-.014.936-.58 1.5-1.504 1.528-.455.014-.91.005-1.366.005h-1.3v-.002zM4.15 6.247c-.87 0-1.736.012-2.604-.003C.58 6.228.024 5.664.012 4.684 0 3.633-.002 2.586.012 1.538.024.6.584.02 1.51.013 3.266 0 5.023-.003 6.78.014 7.713.025 8.27.6 8.285 1.54c.016 1.048.014 2.096 0 3.144-.01.977-.57 1.546-1.534 1.562-.866.015-1.734.003-2.6.003M4.146 16.74c-.846 0-1.692.006-2.538-.003-1.02-.01-1.584-.558-1.596-1.565-.014-1.048-.014-2.096 0-3.144.012-.94.573-1.515 1.5-1.523 1.736-.014 3.47-.013 5.206 0 1.01.007 1.56.574 1.57 1.593.01 1.026.01 2.052-.002 3.08-.013.974-.573 1.542-1.537 1.558-.87.014-1.736.003-2.604.003M4.16 20.993c.845 0 1.69-.01 2.537.002 1.02.014 1.578.565 1.59 1.573.01 1.027.01 2.053 0 3.08-.012 1.01-.574 1.574-1.583 1.58-1.713.01-3.426.012-5.14 0-.975-.007-1.538-.57-1.552-1.543-.015-1.07-.017-2.14 0-3.21.016-.896.585-1.46 1.48-1.478.89-.017 1.778-.004 2.667-.004" fill="#018BBB"/></g></svg>