<svg xmlns="http://www.w3.org/2000/svg" viewBox="0 0 100 100"><circle fill="#99D6ED" cx="50" cy="50" r="50"/><path fill="#FFF" d="M18 20h64v80H18z"/><g fill="#C9CFD2"><path d="M50 32H25c-.6 0-1-.4-1-1s.4-1 1-1h25c.6 0 1 .4 1 1s-.4 1-1 1zM43 39H25c-.6 0-1-.4-1-1s.4-1 1-1h18c.6 0 1 .4 1 1s-.4 1-1 1zM48 46H25c-.6 0-1-.4-1-1s.4-1 1-1h23c.6 0 1 .4 1 1s-.4 1-1 1zM50 53H25c-.6 0-1-.4-1-1s.4-1 1-1h25c.6 0 1 .4 1 1s-.4 1-1 1zM43 60H25c-.6 0-1-.4-1-1s.4-1 1-1h18c.6 0 1 .4 1 1s-.4 1-1 1zM56 67H25c-.6 0-1-.4-1-1s.4-1 1-1h31c.6 0 1 .4 1 1s-.4 1-1 1zM48 74H25c-.6 0-1-.4-1-1s.4-1 1-1h23c.6 0 1 .4 1 1s-.4 1-1 1zM53 81H25c-.6 0-1-.4-1-1s.4-1 1-1h28c.6 0 1 .4 1 1s-.4 1-1 1z"/></g><g fill="#C9CFD2"><path d="M75 32h-9c-.6 0-1-.4-1-1s.4-1 1-1h9c.6 0 1 .4 1 1s-.4 1-1 1zM75 39h-7c-.6 0-1-.4-1-1s.4-1 1-1h7c.6 0 1 .4 1 1s-.4 1-1 1zM75 46h-8c-.6 0-1-.4-1-1s.4-1 1-1h8c.6 0 1 .4 1 1s-.4 1-1 1zM75 53h-9c-.6 0-1-.4-1-1s.4-1 1-1h9c.6 0 1 .4 1 1s-.4 1-1 1zM75 60h-7c-.6 0-1-.4-1-1s.4-1 1-1h7c.6 0 1 .4 1 1s-.4 1-1 1zM75 67h-8c-.6 0-1-.4-1-1s.4-1 1-1h8c.6 0 1 .4 1 1s-.4 1-1 1zM75 74H64c-.6 0-1-.4-1-1s.4-1 1-1h11c.6 0 1 .4 1 1s-.4 1-1 1zM75 81h-7c-.6 0-1-.4-1-1s.4-1 1-1h7c.6 0 1 .4 1 1s-.4 1-1 1z"/></g><path fill-rule="evenodd" clip-rule="evenodd" fill="#FFF" d="M82 70c-6.6 0-12 5.4-12 12s5.4 12 12 12 12-5.4 12-12-5.4-12-12-12zm5.5 13.5l-5 5c-.1.1-.3.2-.5.2H81.7c-.1 0-.2-.1-.3-.2l-5-5c-.3-.3-.3-.8 0-1.1s.8-.3 1.1 0l3.7 3.7V75c0-.4.3-.8.8-.8s.8.3.8.8v11.2l3.7-3.7c.3-.3.8-.3 1.1 0s.2.7-.1 1z"/><circle fill="#008BC1" cx="82" cy="82" r="18"/><g fill="#FFF"><path d="M82 70c-6.6 0-12 5.4-12 12s5.4 12 12 12 12-5.4 12-12-5.4-12-12-12zm0 23c-6.1 0-11-4.9-11-11s4.9-11 11-11 11 4.9 11 11-4.9 11-11 11z"/><path d="M86.6 82.6l-4.1 4.1V75c0-.3-.2-.5-.5-.5s-.5.2-.5.5v11.8l-4.1-4.1c-.2-.2-.5-.2-.7 0s-.2.5 0 .7l5 5c.1.1.1.1.2.1h.1c.1 0 .3 0 .4-.1l5-5c.2-.2.2-.5 0-.7s-.6-.2-.8-.1z"/></g></svg>