<svg xmlns="http://www.w3.org/2000/svg" xmlns:xlink="http://www.w3.org/1999/xlink" viewBox="0 0 100 99.5"><ellipse fill="#99D6ED" cx="50" cy="49.8" rx="50" ry="49.8"/><defs><ellipse id="a" cx="50" cy="49.8" rx="50" ry="49.8"/></defs><clipPath id="b"><use xlink:href="#a" overflow="visible"/></clipPath><path clip-path="url(#b)" fill="#273C4A" d="M80 119.8H21c-4.4 0-8-3.6-8-8v-84c0-4.4 3.6-8 8-8h59c4.4 0 8 3.6 8 8v84c0 4.4-3.6 8-8 8z"/><path fill="#C2E5F3" d="M59 59.8H23c-1.1 0-2-.9-2-2v-28c0-1.1.9-2 2-2h36c1.1 0 2 .9 2 2v28c0 1.1-.9 2-2 2z"/><path fill="#697780" d="M79 73.8H23c-1.1 0-2-.9-2-2v-4c0-1.1.9-2 2-2h56c1.1 0 2 .9 2 2v4c0 1.1-.9 2-2 2z"/><path fill="#273C4A" d="M78.5 71.8h-55c-.3 0-.5-.2-.5-.5v-3c0-.3.2-.5.5-.5h55c.3 0 .5.2.5.5v3c0 .2-.2.5-.5.5z"/><path fill="#4EB748" d="M27 69.8h48v14H27z"/><path fill="#1A9847" d="M34 73.8c1.7 0 3-1.8 3-4h-6c0 2.2 1.3 4 3 4zM68 73.8c1.7 0 3-1.8 3-4h-6c0 2.2 1.3 4 3 4zM51 81.8c5 0 9-5.4 9-12H42c0 6.6 4 12 9 12z"/><defs><path id="c" d="M51 81.8c5 0 9-5.4 9-12H42c0 6.6 4 12 9 12z"/></defs><clipPath id="d"><use xlink:href="#c" overflow="visible"/></clipPath><g clip-path="url(#d)"><path fill="#4EB748" d="M48.1 70.8s.4.2 1.5.3c.1.3.2.7.2 1-.8.5-1.3 1.6-1.3 2.8 0 1.7.2 3 2.5 3h.2c2.3 0 2.5-1.3 2.5-3 0-1.1-.5-2.2-1.3-2.7 0-.3.1-.7.2-1 1.1-.1 1.4-.4 1.4-.4 1.1-.4 1.9-1 1.9-4h-9.8c.1 3 .5 3.6 2 4z"/></g><path fill="#697780" d="M80 31.8H66c-.6 0-1-.4-1-1v-2c0-.6.4-1 1-1h14c.6 0 1 .4 1 1v2c0 .5-.4 1-1 1zM68 45.8h-2c-.6 0-1-.4-1-1v-2c0-.6.4-1 1-1h2c.6 0 1 .4 1 1v2c0 .5-.4 1-1 1zM80 45.8h-2c-.6 0-1-.4-1-1v-2c0-.6.4-1 1-1h2c.6 0 1 .4 1 1v2c0 .5-.4 1-1 1zM68 52.8h-2c-.6 0-1-.4-1-1v-2c0-.6.4-1 1-1h2c.6 0 1 .4 1 1v2c0 .5-.4 1-1 1zM80 52.8h-2c-.6 0-1-.4-1-1v-2c0-.6.4-1 1-1h2c.6 0 1 .4 1 1v2c0 .5-.4 1-1 1zM74 52.8h-2c-.6 0-1-.4-1-1v-2c0-.6.4-1 1-1h2c.6 0 1 .4 1 1v2c0 .5-.4 1-1 1zM68 59.8h-2c-.6 0-1-.4-1-1v-2c0-.6.4-1 1-1h2c.6 0 1 .4 1 1v2c0 .5-.4 1-1 1zM80 59.8h-2c-.6 0-1-.4-1-1v-2c0-.6.4-1 1-1h2c.6 0 1 .4 1 1v2c0 .5-.4 1-1 1zM74 59.8h-2c-.6 0-1-.4-1-1v-2c0-.6.4-1 1-1h2c.6 0 1 .4 1 1v2c0 .5-.4 1-1 1zM74 45.8h-2c-.6 0-1-.4-1-1v-2c0-.6.4-1 1-1h2c.6 0 1 .4 1 1v2c0 .5-.4 1-1 1z"/><path fill="#FFF" d="M24 31.8v16s4.3-17 32-17H25c-.6 0-1 .4-1 1z"/></svg>