<?xml version="1.0" encoding="utf-8"?>
<!-- Generator: Adobe Illustrator 21.0.0, SVG Export Plug-In . SVG Version: 6.00 Build 0)  -->
<svg version="1.1" id="Layer_1" xmlns="http://www.w3.org/2000/svg" xmlns:xlink="http://www.w3.org/1999/xlink" x="0px" y="0px"
	 viewBox="0 0 100 99.5" style="enable-background:new 0 0 100 99.5;" xml:space="preserve">
<style type="text/css">
	.st0{fill-rule:evenodd;clip-rule:evenodd;fill:#008BC1;}
	.st1{clip-path:url(#SVGID_2_);}
	.st2{clip-path:url(#SVGID_4_);fill:#FFFFFF;}
</style>
<circle class="st0" cx="50" cy="49.9" r="49.8"/>
<g>
	<defs>
		<path id="SVGID_1_" d="M50,80.5c-16.8,0-30.5-13.7-30.5-30.5c0-10.8,5.6-20.2,14-25.7l-0.9,1.5l0.8,1.5l-2.5,2.3l-0.5,6.8l1.5,4.5
			l1-2.8l2,5.5l4.9,2.6l3.1,1.2l2,3.3l3,1.7l-1.5,4.4l-1.3,1.5l0,3.7l4.8,4.4l-0.6,6.5l-2.2,5.6l1,1.1l2.8-2.8l5-3.3l3.8-2.5
			l3.6-1.9l3.4-3.6l2.9-3.3l-1-3.7l-4.3-2.1l-1.3-3l-6-2.3l-4.3-1.7L51.7,49l-2.6,1.8L45.6,50l0.1-2.7l-1.9-2.2l-1.1-0.8l-0.2-2.4
			l-2.8,1.5l-1.7-2l1.9-3.5l4.8-0.2l1.7,0.5l0.3,2.2l0.9,0l-0.1-2.6l2.9-2.7l0.4-1.9l4.4-2l2.9-1.1L57.6,29l-1.1-1.4l-3.7-3.6
			l-2.6,0.2l-0.4,2.5l-2.8-1.3l-0.8-2l2.7-1.1l2.6,0.3l-0.8-1l-3.7-0.5l-2,0.4l-4.3-0.6L40.5,21c3-1,6.2-1.5,9.5-1.5
			c16.8,0,30.5,13.7,30.5,30.5S66.8,80.5,50,80.5z M50,16.7c-18.4,0-33.3,14.9-33.3,33.3S31.6,83.2,50,83.2s33.3-14.9,33.3-33.3
			S68.4,16.7,50,16.7z"/>
	</defs>
	<clipPath id="SVGID_2_">
		<use xlink:href="#SVGID_1_"  style="overflow:visible;"/>
	</clipPath>
	<g class="st1">
		<defs>
			<rect id="SVGID_3_" x="16.3" y="15.8" width="67.3" height="68.3"/>
		</defs>
		<clipPath id="SVGID_4_">
			<use xlink:href="#SVGID_3_"  style="overflow:visible;"/>
		</clipPath>
		<rect x="11.6" y="11.6" class="st2" width="76.7" height="76.8"/>
	</g>
</g>
</svg>
