<?xml version="1.0" encoding="utf-8"?>
<!-- Generator: Adobe Illustrator 21.0.0, SVG Export Plug-In . SVG Version: 6.00 Build 0)  -->
<svg version="1.1" id="Layer_1" xmlns="http://www.w3.org/2000/svg" xmlns:xlink="http://www.w3.org/1999/xlink" x="0px" y="0px"
	 viewBox="0 0 100 100" style="enable-background:new 0 0 100 100;" xml:space="preserve">
<style type="text/css">
	.st0{fill:#98D7EE;}
	.st1{fill-rule:evenodd;clip-rule:evenodd;fill:#004977;}
	.st2{fill-rule:evenodd;clip-rule:evenodd;fill:#018BBB;}
	.st3{fill:#008BC1;}
	.st4{fill:#FFFFFF;}
</style>
<g>
	<circle class="st0" cx="50" cy="50" r="50"/>
</g>
<g>
	<path class="st1" d="M79,74H21c-3.3,0-6-2.7-6-6V34c0-3.3,2.7-6,6-6h58c3.3,0,6,2.7,6,6v34C85,71.3,82.3,74,79,74z"/>
</g>
<rect x="15" y="35" class="st2" width="70" height="6"/>
<circle class="st3" cx="82" cy="82" r="18"/>
<g>
	<path class="st4" d="M82,77c-2.8,0-5,2.2-5,5c0,2.8,2.2,5,5,5s5-2.2,5-5C87,79.2,84.8,77,82,77z M82,86c-2.2,0-4-1.8-4-4
		c0-2.2,1.8-4,4-4s4,1.8,4,4C86,84.2,84.2,86,82,86z"/>
	<path class="st4" d="M93.1,79.5h-2c-0.2-0.7-0.5-1.4-0.9-2.1l1.4-1.4c0.4-0.4,0.4-0.9,0-1.3l-2.3-2.3c-0.2-0.2-0.4-0.3-0.6-0.3
		s-0.5,0.1-0.6,0.3l-1.4,1.4c-0.7-0.4-1.4-0.7-2.1-0.9v-1.9c0-0.5-0.4-0.9-0.9-0.9h-3.3c-0.5,0-0.9,0.4-0.9,0.9v1.8
		c-0.8,0.2-1.5,0.5-2.2,0.9L76,72.3c-0.2-0.2-0.4-0.3-0.6-0.3s-0.5,0.1-0.6,0.3l-2.3,2.3C72,75,72,75.6,72.3,76l1.2,1.2
		c-0.4,0.7-0.7,1.5-1,2.3h-1.7c-0.5,0-0.9,0.4-0.9,0.9v3.3c0,0.5,0.4,0.9,0.9,0.9h1.7c0.2,0.8,0.5,1.6,1,2.3L72.3,88
		c-0.4,0.4-0.4,0.9,0,1.3l2.3,2.3c0.2,0.2,0.4,0.3,0.6,0.3c0.2,0,0.5-0.1,0.6-0.3l1.3-1.3c0.7,0.4,1.5,0.7,2.2,0.9v1.8
		c0,0.5,0.4,0.9,0.9,0.9h3.3c0.5,0,0.9-0.4,0.9-0.9v-1.9c0.8-0.2,1.5-0.5,2.1-0.9l1.4,1.4c0.2,0.2,0.4,0.3,0.6,0.3s0.5-0.1,0.6-0.3
		l2.3-2.3c0.4-0.4,0.4-0.9,0-1.3l-1.4-1.4c0.4-0.7,0.7-1.4,0.9-2.1h2c0.5,0,0.9-0.4,0.9-0.9v-3.3C94,79.9,93.6,79.5,93.1,79.5z
		 M93,83.5h-1.9h-0.8l-0.2,0.7c-0.2,0.7-0.4,1.3-0.8,1.9L89,86.8l0.5,0.5l1.3,1.3l-2.2,2.2l-1.3-1.3L86.8,89l-0.7,0.4
		c-0.6,0.4-1.2,0.6-1.9,0.8l-0.7,0.2v0.7V93h-3.1v-1.7v-0.8l-0.8-0.2c-0.7-0.2-1.4-0.4-2-0.8L77,89.2l-0.5,0.5l-1.2,1.2l-2.2-2.2
		l1.1-1.1l0.5-0.5l-0.4-0.7c-0.4-0.6-0.7-1.3-0.9-2l-0.2-0.7h-0.8H71v-3.1h1.6h0.8l0.2-0.7c0.2-0.7,0.5-1.4,0.9-2l0.4-0.7l-0.5-0.5
		l-1.1-1.1l2.2-2.2l1.2,1.2l0.5,0.5l0.7-0.4c0.6-0.4,1.3-0.6,2-0.8l0.8-0.2v-0.8V71h3.1v1.8v0.7l0.7,0.2c0.7,0.2,1.3,0.5,1.9,0.8
		l0.7,0.4l0.5-0.5l1.3-1.3l2.2,2.2l-1.3,1.3L89,77.2l0.4,0.7c0.3,0.6,0.6,1.2,0.8,1.9l0.2,0.7h0.8H93V83.5z"/>
</g>
</svg>
