<svg id="Layer_1" xmlns="http://www.w3.org/2000/svg" viewBox="0 0 98 97" enable-background="new 0 0 98 97"><style>.st0{filter:url(#Adobe_OpacityMaskFilter);} .st1{fill:#FFFFFF;} .st2{mask:url(#mask-2);fill:#273B49;} .st3{filter:url(#Adobe_OpacityMaskFilter_1_);} .st4{mask:url(#mask-4);fill:#FFFFFF;} .st5{filter:url(#Adobe_OpacityMaskFilter_2_);} .st6{mask:url(#mask-6);fill:#687680;} .st7{filter:url(#Adobe_OpacityMaskFilter_3_);} .st8{mask:url(#mask-8);fill:#687680;} .st9{filter:url(#Adobe_OpacityMaskFilter_4_);} .st10{mask:url(#mask-10);fill:#687680;} .st11{filter:url(#Adobe_OpacityMaskFilter_5_);} .st12{mask:url(#mask-12);fill:#687680;} .st13{filter:url(#Adobe_OpacityMaskFilter_6_);} .st14{mask:url(#mask-14);fill:#687680;} .st15{filter:url(#Adobe_OpacityMaskFilter_7_);} .st16{mask:url(#mask-16);fill:#687680;} .st17{filter:url(#Adobe_OpacityMaskFilter_8_);} .st18{mask:url(#mask-18);fill:#687680;} .st19{filter:url(#Adobe_OpacityMaskFilter_9_);} .st20{mask:url(#mask-20);fill:#687680;} .st21{filter:url(#Adobe_OpacityMaskFilter_10_);} .st22{mask:url(#mask-22);fill:#687680;} .st23{filter:url(#Adobe_OpacityMaskFilter_11_);} .st24{mask:url(#mask-24);fill:#687680;} .st25{filter:url(#Adobe_OpacityMaskFilter_12_);} .st26{mask:url(#mask-26);fill:#687680;} .st27{filter:url(#Adobe_OpacityMaskFilter_13_);} .st28{mask:url(#mask-28);fill:#687680;} .st29{filter:url(#Adobe_OpacityMaskFilter_14_);} .st30{mask:url(#mask-30);fill:#687680;} .st31{filter:url(#Adobe_OpacityMaskFilter_15_);} .st32{mask:url(#mask-32);fill:#687680;} .st33{filter:url(#Adobe_OpacityMaskFilter_16_);} .st34{mask:url(#mask-34);fill:#687680;} .st35{filter:url(#Adobe_OpacityMaskFilter_17_);} .st36{mask:url(#mask-36);fill:#DFE2E4;} .st37{filter:url(#Adobe_OpacityMaskFilter_18_);} .st38{mask:url(#mask-38);fill:#FFFFFF;} .st39{fill:none;stroke:#019ED5;stroke-width:2;} .st40{filter:url(#Adobe_OpacityMaskFilter_19_);} .st41{mask:url(#mask-40);fill:#019ED5;} .st42{fill:none;stroke:#019ED5;stroke-width:2;stroke-linecap:round;}</style><title>Page 1</title><g id="Page-1_1_"><g id="Review-Purchases---Default"><g id="Page-1"><g id="Group-3"><defs><filter id="Adobe_OpacityMaskFilter" filterUnits="userSpaceOnUse" x="-7.3" y="-7.5" width="110" height="110.5"><feColorMatrix values="1 0 0 0 0 0 1 0 0 0 0 0 1 0 0 0 0 0 1 0"/></filter></defs><mask maskUnits="userSpaceOnUse" x="-7.3" y="-7.5" width="110" height="110.5" id="mask-2"><g class="st0"><path id="path-1" class="st1" d="M.2 47.8c0 26.4 21.3 47.8 47.5 47.8 26.3 0 47.5-21.4 47.5-47.8S74 0 47.7 0C21.5 0 .2 21.4.2 47.8z"/></g></mask><path id="Fill-1" class="st2" d="M-7.3 103h110V-7.5h-110z"/></g><g id="Group-6" transform="translate(16.415 24.853)"><defs><filter id="Adobe_OpacityMaskFilter_1_" filterUnits="userSpaceOnUse" x="-6.6" y="-6.5" width="75.8" height="93.3"><feColorMatrix values="1 0 0 0 0 0 1 0 0 0 0 0 1 0 0 0 0 0 1 0"/></filter></defs><mask maskUnits="userSpaceOnUse" x="-6.6" y="-6.5" width="75.8" height="93.3" id="mask-4"><g class="st3"><path id="path-3" class="st1" d="M.9 1v61.1c5.3 4.5 11.7 7.8 18.6 9.6h23.7c6.9-1.8 13.3-5.1 18.6-9.6V10.5L47.3 1H.9z"/></g></mask><path id="Fill-4" class="st4" d="M-6.6 86.8h75.8V-6.5H-6.6z"/></g><g id="Group-9" transform="translate(22.385 34.333)"><defs><filter id="Adobe_OpacityMaskFilter_2_" filterUnits="userSpaceOnUse" x="-6.8" y="-7.4" width="42.5" height="16.8"><feColorMatrix values="1 0 0 0 0 0 1 0 0 0 0 0 1 0 0 0 0 0 1 0"/></filter></defs><mask maskUnits="userSpaceOnUse" x="-6.8" y="-7.4" width="42.5" height="16.8" id="mask-6"><g class="st5"><path id="path-5" class="st1" d="M1.6.1c-.5 0-1 .4-1 1 0 .5.4 1 1 1h25.7c.5 0 1-.4 1-1 0-.5-.4-1-1-1H1.6z"/></g></mask><path id="Fill-7" class="st6" d="M-6.8 9.4h42.5V-7.4H-6.8z"/></g><g id="Group-12" transform="translate(22.385 40.303)"><defs><filter id="Adobe_OpacityMaskFilter_3_" filterUnits="userSpaceOnUse" x="-6.8" y="-6.7" width="33.9" height="16.8"><feColorMatrix values="1 0 0 0 0 0 1 0 0 0 0 0 1 0 0 0 0 0 1 0"/></filter></defs><mask maskUnits="userSpaceOnUse" x="-6.8" y="-6.7" width="33.9" height="16.8" id="mask-8"><g class="st7"><path id="path-7" class="st1" d="M1.6.8c-.5 0-1 .4-1 1s.4 1 1 1h17.1c.5 0 1-.4 1-1s-.4-1-1-1H1.6z"/></g></mask><path id="Fill-10" class="st8" d="M-6.8 10.2h33.9V-6.7H-6.8z"/></g><g id="Group-15" transform="translate(22.385 47.767)"><defs><filter id="Adobe_OpacityMaskFilter_4_" filterUnits="userSpaceOnUse" x="-6.8" y="-7.5" width="38.7" height="16.8"><feColorMatrix values="1 0 0 0 0 0 1 0 0 0 0 0 1 0 0 0 0 0 1 0"/></filter></defs><mask maskUnits="userSpaceOnUse" x="-6.8" y="-7.5" width="38.7" height="16.8" id="mask-10"><g class="st9"><path id="path-9" class="st1" d="M1.6 0c-.5 0-1 .4-1 1 0 .5.4 1 1 1h21.9c.5 0 1-.4 1-1 0-.5-.4-1-1-1H1.6z"/></g></mask><path id="Fill-13" class="st10" d="M-6.8 9.4h38.6V-7.5H-6.8z"/></g><g id="Group-18" transform="translate(22.385 53.738)"><defs><filter id="Adobe_OpacityMaskFilter_5_" filterUnits="userSpaceOnUse" x="-6.8" y="-6.7" width="40.6" height="16.8"><feColorMatrix values="1 0 0 0 0 0 1 0 0 0 0 0 1 0 0 0 0 0 1 0"/></filter></defs><mask maskUnits="userSpaceOnUse" x="-6.8" y="-6.7" width="40.6" height="16.8" id="mask-12"><g class="st11"><path id="path-11" class="st1" d="M1.6.7c-.5 0-1 .4-1 1s.4 1 1 1h23.8c.5 0 1-.4 1-1s-.4-1-1-1H1.6z"/></g></mask><path id="Fill-16" class="st12" d="M-6.8 10.1h40.6V-6.7H-6.8z"/></g><g id="Group-21" transform="translate(22.385 61.074)"><defs><filter id="Adobe_OpacityMaskFilter_6_" filterUnits="userSpaceOnUse" x="-6.8" y="-7.4" width="33.9" height="16.8"><feColorMatrix values="1 0 0 0 0 0 1 0 0 0 0 0 1 0 0 0 0 0 1 0"/></filter></defs><mask maskUnits="userSpaceOnUse" x="-6.8" y="-7.4" width="33.9" height="16.8" id="mask-14"><g class="st13"><path id="path-13" class="st1" d="M1.6.1c-.5 0-1 .4-1 1s.4 1 1 1h17.1c.5 0 1-.4 1-1s-.4-1-1-1H1.6z"/></g></mask><path id="Fill-19" class="st14" d="M-6.8 9.4h33.9V-7.4H-6.8z"/></g><g id="Group-24" transform="translate(22.385 67.172)"><defs><filter id="Adobe_OpacityMaskFilter_7_" filterUnits="userSpaceOnUse" x="-6.8" y="-6.8" width="46.3" height="16.8"><feColorMatrix values="1 0 0 0 0 0 1 0 0 0 0 0 1 0 0 0 0 0 1 0"/></filter></defs><mask maskUnits="userSpaceOnUse" x="-6.8" y="-6.8" width="46.3" height="16.8" id="mask-16"><g class="st15"><path id="path-15" class="st1" d="M1.6.7c-.5 0-1 .4-1 1 0 .5.4 1 1 1H31c.5 0 1-.4 1-1 0-.5-.4-1-1-1H1.6z"/></g></mask><path id="Fill-22" class="st16" d="M-6.8 10h46.3V-6.8H-6.8z"/></g><g id="Group-27" transform="translate(22.385 74.508)"><defs><filter id="Adobe_OpacityMaskFilter_8_" filterUnits="userSpaceOnUse" x="-6.8" y="-7.5" width="38.7" height="16.8"><feColorMatrix values="1 0 0 0 0 0 1 0 0 0 0 0 1 0 0 0 0 0 1 0"/></filter></defs><mask maskUnits="userSpaceOnUse" x="-6.8" y="-7.5" width="38.7" height="16.8" id="mask-18"><g class="st17"><path id="path-17" class="st1" d="M1.6 0c-.5 0-1 .4-1 1 0 .5.4 1 1 1h21.9c.5 0 1-.4 1-1 0-.5-.4-1-1-1H1.6z"/></g></mask><path id="Fill-25" class="st18" d="M-6.8 9.4h38.6V-7.5H-6.8z"/></g><g id="Group-30" transform="translate(22.385 80.607)"><defs><filter id="Adobe_OpacityMaskFilter_9_" filterUnits="userSpaceOnUse" x="-6.8" y="-6.9" width="43.5" height="16.8"><feColorMatrix values="1 0 0 0 0 0 1 0 0 0 0 0 1 0 0 0 0 0 1 0"/></filter></defs><mask maskUnits="userSpaceOnUse" x="-6.8" y="-6.9" width="43.5" height="16.8" id="mask-20"><g class="st19"><path id="path-19" class="st1" d="M1.6.6c-.5 0-1 .4-1 1s.4 1 1 1h26.6c.5 0 1-.4 1-1s-.4-1-1-1H1.6z"/></g></mask><path id="Fill-28" class="st20" d="M-6.8 10h43.4V-6.9H-6.8z"/></g><g id="Group-33" transform="translate(61.185 34.333)"><defs><filter id="Adobe_OpacityMaskFilter_10_" filterUnits="userSpaceOnUse" x="-6.7" y="-7.4" width="25.4" height="16.8"><feColorMatrix values="1 0 0 0 0 0 1 0 0 0 0 0 1 0 0 0 0 0 1 0"/></filter></defs><mask maskUnits="userSpaceOnUse" x="-6.7" y="-7.4" width="25.4" height="16.8" id="mask-22"><g class="st21"><path id="path-21" class="st1" d="M1.8.1c-.5 0-1 .4-1 1 0 .5.4 1 1 1h8.6c.5 0 1-.4 1-1 0-.5-.4-1-1-1H1.8z"/></g></mask><path id="Fill-31" class="st22" d="M-6.7 9.4h25.4V-7.4H-6.7z"/></g><g id="Group-36" transform="translate(63.647 40.303)"><defs><filter id="Adobe_OpacityMaskFilter_11_" filterUnits="userSpaceOnUse" x="-7.2" y="-6.7" width="23.5" height="16.8"><feColorMatrix values="1 0 0 0 0 0 1 0 0 0 0 0 1 0 0 0 0 0 1 0"/></filter></defs><mask maskUnits="userSpaceOnUse" x="-7.2" y="-6.7" width="23.5" height="16.8" id="mask-24"><g class="st23"><path id="path-23" class="st1" d="M1.2.8c-.5 0-1 .4-1 1s.4 1 1 1h6.7c.5 0 1-.4 1-1s-.4-1-1-1H1.2z"/></g></mask><path id="Fill-34" class="st24" d="M-7.2 10.2h23.5V-6.7H-7.2z"/></g><g id="Group-39" transform="translate(62.677 47.767)"><defs><filter id="Adobe_OpacityMaskFilter_12_" filterUnits="userSpaceOnUse" x="-7.2" y="-7.5" width="24.4" height="16.8"><feColorMatrix values="1 0 0 0 0 0 1 0 0 0 0 0 1 0 0 0 0 0 1 0"/></filter></defs><mask maskUnits="userSpaceOnUse" x="-7.2" y="-7.5" width="24.4" height="16.8" id="mask-26"><g class="st25"><path id="path-25" class="st1" d="M1.2 0C.7 0 .2.4.2 1c0 .5.4 1 1 1h7.6c.5 0 1-.4 1-1 0-.5-.4-1-1-1H1.2z"/></g></mask><path id="Fill-37" class="st26" d="M-7.2 9.4h24.4V-7.5H-7.2z"/></g><g id="Group-42" transform="translate(61.185 53.738)"><defs><filter id="Adobe_OpacityMaskFilter_13_" filterUnits="userSpaceOnUse" x="-6.7" y="-6.7" width="25.4" height="16.8"><feColorMatrix values="1 0 0 0 0 0 1 0 0 0 0 0 1 0 0 0 0 0 1 0"/></filter></defs><mask maskUnits="userSpaceOnUse" x="-6.7" y="-6.7" width="25.4" height="16.8" id="mask-28"><g class="st27"><path id="path-27" class="st1" d="M1.8.7c-.5 0-1 .4-1 1s.4 1 1 1h8.6c.5 0 1-.4 1-1s-.4-1-1-1H1.8z"/></g></mask><path id="Fill-40" class="st28" d="M-6.7 10.1h25.4V-6.7H-6.7z"/></g><g id="Group-45" transform="translate(63.647 61.074)"><defs><filter id="Adobe_OpacityMaskFilter_14_" filterUnits="userSpaceOnUse" x="-7.2" y="-7.4" width="23.5" height="16.8"><feColorMatrix values="1 0 0 0 0 0 1 0 0 0 0 0 1 0 0 0 0 0 1 0"/></filter></defs><mask maskUnits="userSpaceOnUse" x="-7.2" y="-7.4" width="23.5" height="16.8" id="mask-30"><g class="st29"><path id="path-29" class="st1" d="M1.2.1c-.5 0-1 .4-1 1s.4 1 1 1h6.7c.5 0 1-.4 1-1s-.4-1-1-1H1.2z"/></g></mask><path id="Fill-43" class="st30" d="M-7.2 9.4h23.5V-7.4H-7.2z"/></g><g id="Group-48" transform="translate(62.677 67.172)"><defs><filter id="Adobe_OpacityMaskFilter_15_" filterUnits="userSpaceOnUse" x="-7.2" y="-6.8" width="24.4" height="16.8"><feColorMatrix values="1 0 0 0 0 0 1 0 0 0 0 0 1 0 0 0 0 0 1 0"/></filter></defs><mask maskUnits="userSpaceOnUse" x="-7.2" y="-6.8" width="24.4" height="16.8" id="mask-32"><g class="st31"><path id="path-31" class="st1" d="M1.2.7c-.5 0-1 .4-1 1 0 .5.4 1 1 1h7.6c.5 0 1-.4 1-1 0-.5-.4-1-1-1H1.2z"/></g></mask><path id="Fill-46" class="st32" d="M-7.2 10h24.4V-6.8H-7.2z"/></g><g id="Group-51" transform="translate(59.692 74.508)"><defs><filter id="Adobe_OpacityMaskFilter_16_" filterUnits="userSpaceOnUse" x="-7.1" y="-7.5" width="27.3" height="16.8"><feColorMatrix values="1 0 0 0 0 0 1 0 0 0 0 0 1 0 0 0 0 0 1 0"/></filter></defs><mask maskUnits="userSpaceOnUse" x="-7.1" y="-7.5" width="27.3" height="16.8" id="mask-34"><g class="st33"><path id="path-33" class="st1" d="M1.3 0C.8 0 .3.4.3 1c0 .5.4 1 1 1h10.5c.5 0 1-.4 1-1 0-.5-.4-1-1-1H1.3z"/></g></mask><path id="Fill-49" class="st34" d="M-7.1 9.4h27.3V-7.5H-7.1z"/></g><g id="Group-54" transform="translate(49.246 14.403)"><defs><filter id="Adobe_OpacityMaskFilter_17_" filterUnits="userSpaceOnUse" x="-7.2" y="-8.6" width="55.4" height="55.6"><feColorMatrix values="1 0 0 0 0 0 1 0 0 0 0 0 1 0 0 0 0 0 1 0"/></filter></defs><mask maskUnits="userSpaceOnUse" x="-7.2" y="-8.6" width="55.4" height="55.6" id="mask-36"><g class="st35"><path id="path-35" class="st1" d="M.2 19.2c0 10.6 8.5 19.1 19 19.1s19-8.6 19-19.1S29.7.1 19.2.1C8.8.1.2 8.7.2 19.2z"/></g></mask><path id="Fill-52" class="st36" d="M-7.2 47h55.4V-8.6H-7.2z"/></g><g id="Group-57" transform="translate(49.246 22.39)"><defs><filter id="Adobe_OpacityMaskFilter_18_" filterUnits="userSpaceOnUse" x="-59.6" y="-7" width="97.9" height="70.5"><feColorMatrix values="1 0 0 0 0 0 1 0 0 0 0 0 1 0 0 0 0 0 1 0"/></filter></defs><mask maskUnits="userSpaceOnUse" x="-59.6" y="-7" width="97.9" height="70.5" id="mask-38"><g class="st37"><path id="path-37" class="st1" d="M3.5.5C1.5 3.6.2 7.3.2 11.3c0 10.6 8.5 19.1 19 19.1 4.4 0 8.4-1.5 11.6-4V.5H3.5z"/></g></mask><path id="Fill-55" class="st38" d="M-59.6 63.5h97.9V-7h-97.9z"/></g><path id="Stroke-58" class="st39" d="M87.5 33.6c0 10.6-8.5 19.1-19 19.1s-19-8.6-19-19.1 8.5-19.1 19-19.1 19 8.6 19 19.1z"/><g id="Group-62" transform="translate(64.043 24.14)"><defs><filter id="Adobe_OpacityMaskFilter_19_" filterUnits="userSpaceOnUse" x="-7.3" y="-7.9" width="24.2" height="32.3"><feColorMatrix values="1 0 0 0 0 0 1 0 0 0 0 0 1 0 0 0 0 0 1 0"/></filter></defs><mask maskUnits="userSpaceOnUse" x="-7.3" y="-7.9" width="24.2" height="32.3" id="mask-40"><g class="st40"><path id="path-39" class="st1" d="M4.2 1.4v1.4c-2.3.1-4 1.5-4 3.5 0 2.4 2 3 4 3.5v4.7c-1.2-.1-2.1-.6-2.9-1.2-.3-.3-.7-.2-1 .1-.2.3-.2.8.1 1 .9.8 2.2 1.4 3.9 1.5v1.7s0 .6.6.6.6-.6.6-.6V16c2.9-.2 4-2 4-3.7 0-2.5-2.1-3.2-4-3.8V4.3c.8.1 1.6.4 2.3 1 .3.3.8.2 1-.1.2-.4.1-.9-.2-1.1-.9-.7-1.9-1.1-3.2-1.2V1.4S5.3.8 4.8.8s-.6.6-.6.6zM1.9 6.3c0-1.1 1-1.9 2.3-2v3.9c-1.3-.4-2.3-.9-2.3-1.9zm3.5 3.9c1.3.4 2.4.9 2.4 2.2 0 .9-.6 2-2.4 2.2v-4.4z"/></g></mask><path id="Fill-60" class="st41" d="M-7.3 24.4h24.2V-7.9H-7.3z"/></g><path id="Stroke-63" class="st42" d="M82 47.2l14.1 14.2"/><path id="Stroke-64" class="st39" d="M87.5 33.6c0 10.6-8.5 19.1-19 19.1s-19-8.6-19-19.1 8.5-19.1 19-19.1 19 8.6 19 19.1z"/></g></g></g></svg>