<svg id="Layer_1" xmlns="http://www.w3.org/2000/svg" width="612" height="612" viewBox="0 90 612 612"><style><![CDATA[
	.st0{fill:#C9CFD2;}
	.st1{fill:#FEDB22;}
	.st2{fill:#FFFFFF;}
	.st3{fill:#D03228;}
]]></style><circle class="st1" cx="306.25" cy="396.25" r="305.75"/><path class="st2" d="M110.6 212.8h391.377V702H110.6z"/><path class="st0" d="M471.324 341.2H141.176c-3.706 0-6.1-2.47-6.1-6.1 0-3.706 2.47-6.1 6.1-6.1H471.4c3.706 0 6.1 2.47 6.1 6.1 0 3.706-2.47 6.1-6.176 6.1zM385.776 292.326H226.724c-3.706 0-6.1-2.47-6.1-6.1 0-3.706 2.47-6.1 6.1-6.1h159.052c3.706 0 6.1 2.47 6.1 6.1 0 3.63-2.472 6.1-6.1 6.1zM361.3 261.75H251.2c-3.706 0-6.1-2.47-6.1-6.1 0-3.706 2.47-6.1 6.1-6.1h110.1c3.706 0 6.1 2.472 6.1 6.1 0 3.63-2.47 6.1-6.1 6.1zM446.926 371.774h-305.75c-3.706 0-6.1-2.47-6.1-6.1 0-3.706 2.47-6.1 6.1-6.1h305.75c3.706 0 6.1 2.472 6.1 6.1 0 3.707-2.47 6.1-6.1 6.1zM459.125 402.35h-317.95c-3.705 0-6.1-2.472-6.1-6.1 0-3.706 2.472-6.1 6.1-6.1h317.95c3.706 0 6.1 2.47 6.1 6.1 0 3.706-2.394 6.1-6.1 6.1zM397.976 432.925h-256.8c-3.706 0-6.1-2.47-6.1-6.1 0-3.706 2.47-6.1 6.1-6.1h256.8c3.704 0 6.098 2.47 6.098 6.1 0 3.706-2.393 6.1-6.098 6.1zM446.926 481.876h-305.75c-3.706 0-6.1-2.472-6.1-6.1 0-3.707 2.47-6.1 6.1-6.1h305.75c3.706 0 6.1 2.47 6.1 6.1 0 3.628-2.47 6.1-6.1 6.1zM465.225 512.45h-324.05c-3.705 0-6.1-2.47-6.1-6.1 0-3.705 2.472-6.1 6.1-6.1h324.126c3.707 0 6.1 2.472 6.1 6.1-.076 3.63-2.47 6.1-6.175 6.1zM459.125 543.025h-317.95c-3.705 0-6.1-2.47-6.1-6.1 0-3.705 2.472-6.1 6.1-6.1h317.95c3.706 0 6.1 2.47 6.1 6.1 0 3.63-2.394 6.1-6.1 6.1zM397.976 573.6h-256.8c-3.706 0-6.1-2.47-6.1-6.1 0-3.705 2.47-6.1 6.1-6.1h256.8c3.704 0 6.098 2.472 6.098 6.1 0 3.63-2.393 6.1-6.098 6.1zM214.525 604.176h-73.35c-3.705 0-6.1-2.472-6.1-6.1 0-3.706 2.472-6.1 6.1-6.1h73.35c3.706 0 6.1 2.47 6.1 6.1 0 3.628-2.394 6.1-6.1 6.1z"/><path class="st3" d="M190.05 298.425l-24.477-12.2-24.476 12.2V212.8c0-3.707 2.47-6.1 6.1-6.1h36.674c3.707 0 6.1 2.47 6.1 6.1v85.625h.08z"/></svg>