<svg xmlns="http://www.w3.org/2000/svg" xmlns:xlink="http://www.w3.org/1999/xlink" viewBox="0 0 100 100"><circle fill="#273C4A" cx="50" cy="50" r="50"/><defs><circle id="a" cx="50" cy="50" r="50"/></defs><clipPath id="b"><use xlink:href="#a" overflow="visible"/></clipPath><g clip-path="url(#b)"><path fill-rule="evenodd" clip-rule="evenodd" fill="#079ED4" d="M73 64H19c-3.3 0-6-2.7-6-6V26c0-3.3 2.7-6 6-6h54c3.3 0 6 2.7 6 6v32c0 3.3-2.7 6-6 6z"/></g><path clip-path="url(#b)" fill-rule="evenodd" clip-rule="evenodd" fill="#074A77" d="M13 26h66v6H13z"/><path fill-rule="evenodd" clip-rule="evenodd" fill="#AEB5BB" d="M81 82H27c-3.3 0-6-2.7-6-6V44c0-3.3 2.7-6 6-6h54c3.3 0 6 2.7 6 6v32c0 3.3-2.7 6-6 6z"/><path fill-rule="evenodd" clip-rule="evenodd" fill="#697780" d="M21 44h66v6H21z"/><circle fill="#008BC1" cx="82" cy="82" r="18"/><g fill="#F3F3F3"><path d="M82.2 86.4L79 89.5c-.9.9-2.6.9-3.5 0l-.7-.7c-1-1-1-2.6 0-3.5l4.6-4.6c.9-.9 2.6-.9 3.5 0l.7.7c.2.2.5.2.7 0 .2-.2.2-.5 0-.7l-.7-.7c-1.3-1.3-3.6-1.3-4.9 0L74 84.6c-1.4 1.4-1.4 3.6 0 4.9l.7.7c.7.7 1.5 1 2.5 1 .9 0 1.8-.4 2.5-1l3.2-3.2c.2-.2.2-.5 0-.7-.2-.1-.5-.1-.7.1z"/><path d="M90.3 74.7l-.7-.7c-1.3-1.3-3.6-1.3-4.9 0l-3.2 3.2c-.2.2-.2.5 0 .7.2.2.5.2.7 0l3.2-3.2c.9-.9 2.6-.9 3.5 0l.7.7c.5.5.7 1.1.7 1.8s-.3 1.3-.7 1.8L85 83.5c-.9.9-2.6.9-3.5 0-.2-.2-.5-.2-.7 0-.2.2-.2.5 0 .7.7.7 1.5 1 2.5 1 .9 0 1.8-.4 2.5-1l4.6-4.6c.7-.7 1-1.5 1-2.5-.1-.9-.5-1.7-1.1-2.4z"/></g></svg>