<svg xmlns="http://www.w3.org/2000/svg" xmlns:xlink="http://www.w3.org/1999/xlink" viewBox="0 0 100 100"><circle fill="#697780" cx="50" cy="50" r="50"/><defs><circle id="a" cx="50" cy="50" r="50"/></defs><clipPath id="b"><use xlink:href="#a" overflow="visible"/></clipPath><g clip-path="url(#b)"><path fill-rule="evenodd" clip-rule="evenodd" fill="#079ED4" d="M102 90H58c-4.4 0-8-3.6-8-8V50c0-4.4 3.6-8 8-8h44c4.4 0 8 3.6 8 8v32c0 4.4-3.6 8-8 8z"/></g><path clip-path="url(#b)" fill-rule="evenodd" clip-rule="evenodd" fill="#074A77" d="M50 50h60v8H50z"/><path transform="rotate(45 16.638 48.638)" clip-path="url(#b)" fill-rule="evenodd" clip-rule="evenodd" fill="#091A29" d="M11.6 13.1h10v71h-10z"/><path transform="rotate(45 38.205 27.07)" clip-path="url(#b)" fill-rule="evenodd" clip-rule="evenodd" fill="#FFF" d="M33.2 22.1h10v10h-10z"/><path fill-rule="evenodd" clip-rule="evenodd" fill="#FEDB22" d="M54.8 15.8l1.4 6.6 6.8.7-5.9 3.4 1.5 6.6-5.1-4.5-5.8 3.4 2.7-6.2-5.1-4.5 6.8.7M39.5 39.3l2.2 4.3 4.7-.8-3.3 3.4 2.2 4.3-4.3-2.2-3.4 3.5.7-4.8-4.3-2.1 4.8-.8M52.2 62.5l.6 3.2 3.2.5-2.9 1.5.6 3.2-2.3-2.2-2.9 1.5 1.4-2.9-2.3-2.3 3.2.5"/></svg>