<svg width="101px" height="100px" viewBox="0 0 101 100" version="1.1" xmlns="http://www.w3.org/2000/svg" xmlns:xlink="http://www.w3.org/1999/xlink">
  <!-- Generator: Sketch 41.2 (35397) - http://www.bohemiancoding.com/sketch -->
  <title>Icon</title>
  <desc>Created with Sketch.</desc>
  <defs>
    <ellipse id="path-1" cx="50.0508" cy="50" rx="50" ry="50"></ellipse>
  </defs>
  <g id="Page-1" stroke="none" stroke-width="1" fill="none" fill-rule="evenodd">
    <g id="Icon">
      <ellipse id="Mask" fill="#FFFFFF" cx="50.0508" cy="50" rx="50" ry="50"></ellipse>
      <mask id="mask-2" fill="white">
        <use xlink:href="#path-1"></use>
      </mask>
      <use id="Mask" fill="#FFFFFF" xlink:href="#path-1"></use>
      <g id="Page-1" mask="url(#mask-2)">
        <g id="Group-5">
          <path d="M100,50 C100,77.614 77.614,100 50,100 C22.386,100 0,77.614 0,50 C0,22.386 22.386,0 50,0 C77.614,0 100,22.386 100,50" id="Fill-1" fill="#98D7EE"></path>
          <polygon id="Fill-3" fill="#FFFFFF" points="48 75 20 75 20 50 48 36"></polygon>
        </g>
        <polygon id="Fill-6" fill="#10BD1B" points="0 100 100 100 100 75 0 75"></polygon>
        <g id="Group-34" transform="translate(16.000000, 15.000000)">
          <path d="M1.1207,37.1282 L1.1207,37.1282 C1.4907,37.8692 2.3917,38.1702 3.1327,37.8002 L41.5797,18.5902 C42.3207,18.2202 42.6217,17.3192 42.2517,16.5782 C41.8817,15.8372 40.9817,15.5362 40.2397,15.9062 L1.7927,35.1162 C1.0517,35.4862 0.7507,36.3872 1.1207,37.1282" id="Fill-8" fill="#003362"></path>
          <path d="M58,27 L53,27 C51.895,27 51,26.105 51,25 L51,7.5 C51,6.672 51.672,6 52.5,6 L58.5,6 C59.328,6 60,6.672 60,7.5 L60,25 C60,26.105 59.105,27 58,27" id="Fill-10" fill="#003362"></path>
          <polygon id="Fill-12" fill="#FFFFFF" points="64 60 31 60 31 4 64 25"></polygon>
          <path d="M67.1723,26.3645 L67.1723,26.3645 C66.7363,27.0685 65.8113,27.2855 65.1073,26.8495 L27.7103,3.6665 C27.0053,3.2295 26.7893,2.3045 27.2253,1.6005 C27.6623,0.8965 28.5863,0.6795 29.2903,1.1165 L66.6873,24.2995 C67.3923,24.7355 67.6083,25.6605 67.1723,26.3645" id="Fill-14" fill="#003362"></path>
          <path d="M45,24 C45,26.761 42.761,29 40,29 C37.239,29 35,26.761 35,24 C35,21.239 37.239,19 40,19 C42.761,19 45,21.239 45,24" id="Fill-16" fill="#019ED5"></path>
          <path d="M25,60 L13,60 L13,43.5 C13,42.672 13.672,42 14.5,42 L23.5,42 C24.328,42 25,42.672 25,43.5 L25,60 Z" id="Fill-18" fill="#019ED5"></path>
          <path d="M24,38 L14,38 C13.448,38 13,38.448 13,39 C13,39.552 13.448,40 14,40 L24,40 C24.552,40 25,39.552 25,39 C25,38.448 24.552,38 24,38" id="Fill-20" fill="#019ED5"></path>
          <path d="M46,54 L36.5,54 C35.672,54 35,53.328 35,52.5 L35,43.5 C35,42.672 35.672,42 36.5,42 L46,42 L46,54 Z" id="Fill-22" fill="#019ED5"></path>
          <path d="M57.5,54 L48,54 L48,42 L57.5,42 C58.328,42 59,42.672 59,43.5 L59,52.5 C59,53.328 58.328,54 57.5,54" id="Fill-24" fill="#019ED5"></path>
        </g>
      </g>
      <g id="Group-4" transform="translate(64.000000, 64.000000)">
        <path d="M36,18 C36,27.941 27.941,36 18,36 C8.059,36 0,27.941 0,18 C0,8.059 8.059,0 18,0 C27.941,0 36,8.059 36,18" id="Fill-26" fill="#018BBB"></path>
        <path d="M28,17.5035907 L18.5,17.5035907 L18.5,8.00017953 C18.5,7.72358025 18.2765,7.5 18,7.5 C17.7235,7.5 17.5,7.72358025 17.5,8.00017953 L17.5,17.5035907 L8,17.5035907 C7.7235,17.5035907 7.5,17.7271709 7.5,18.0037702 C7.5,18.2803695 7.7235,18.5039497 8,18.5039497 L17.5,18.5039497 L17.5,28.0073609 C17.5,28.2839601 17.7235,28.5075404 18,28.5075404 C18.2765,28.5075404 18.5,28.2839601 18.5,28.0073609 L18.5,18.5039497 L28,18.5039497 C28.2765,18.5039497 28.5,18.2803695 28.5,18.0037702 C28.5,17.7271709 28.2765,17.5035907 28,17.5035907" id="icons/stroked/plus" fill="#FFFFFF"></path>
      </g>
    </g>
  </g>
</svg>
