<svg xmlns="http://www.w3.org/2000/svg" xmlns:xlink="http://www.w3.org/1999/xlink" viewBox="0 0 100 100"><circle fill="#697780" cx="50" cy="50" r="50"/><defs><circle id="a" cx="50" cy="50" r="50"/></defs><clipPath id="b"><use xlink:href="#a" overflow="visible"/></clipPath><path clip-path="url(#b)" fill="#697780" d="M89.2 82.9c-2.6-5.3-11.6-8.6-24.1-13.2-1.4-.5-2.9-1.1-4.4-1.6v-8.6c1.6-1.3 4.9-4.8 5.3-10.5.8-.7 1.5-1.9 1.8-3.5.6-2.5.3-5.5-1.5-7.3.1-.2.2-.5.3-.8 1.4-3.5 3.9-9.9 2.9-15-1.1-6.2-9.9-8.4-17-8.4-5.6 0-12.3 1.4-14.4 5.2-2.1.2-3.8 1.1-4.9 2.6-3.1 4.2-.9 11.7.4 15.7.1.2.1.4.2.6-1.8 1.8-2.2 4.8-1.6 7.4.4 1.6 1 2.8 1.8 3.5.4 5.7 3.8 9.2 5.3 10.5v8.6c-1.5.6-3 1.1-4.4 1.6-12.4 4.6-21.4 7.9-24.1 13.1C7 90.4 7 97.9 7 98.3c0 1 .8 1.8 1.8 1.8h82.5c1 0 1.8-.8 1.8-1.8-.1-.4-.1-7.9-3.9-15.4z"/><path clip-path="url(#b)" fill-rule="evenodd" clip-rule="evenodd" fill="#AEB5BB" d="M8.6 100c0-9 4.3-21.1 16.3-25.6 0 0 2.5-1.2 12.1-1.9 1.2-2.2 1.7-5.6 2-8.4-6.4-4.7-10.8-13.5-10.8-23.5C28.2 25.5 30.1 15 50 15c20 0 21.9 10.6 21.9 25.6 0 10.1-4.4 18.9-10.9 23.6.2 2.8.6 6.2 1.9 8.4 8.8.6 12.3 1.7 12.3 1.7C87.7 77.8 91.4 91 91.4 100H8.6z"/><circle fill="#008BC1" cx="82" cy="82" r="18"/><g fill="#FFF"><path d="M89 78h-1v-3c0-3.3-2.7-6-6-6s-6 2.7-6 6v3h-1c-1.1 0-2 .9-2 2v11c0 1.1.9 2 2 2h14c1.1 0 2-.9 2-2V80c0-1.1-.9-2-2-2zm-12-3c0-2.8 2.2-5 5-5s5 2.2 5 5v3H77v-3zm13 16c0 .6-.4 1-1 1H75c-.6 0-1-.4-1-1V80c0-.6.4-1 1-1h14c.6 0 1 .4 1 1v11z"/><path d="M82 83c-.8 0-1.5.7-1.5 1.5 0 .7.4 1.2 1 1.4V88c0 .3.2.5.5.5s.5-.2.5-.5v-2.1c.6-.2 1-.8 1-1.4 0-.8-.7-1.5-1.5-1.5z"/></g></svg>