<svg xmlns="http://www.w3.org/2000/svg" xmlns:xlink="http://www.w3.org/1999/xlink" viewBox="0 0 100 100"><circle fill="#E8E4E7" cx="50" cy="50" r="50"/><defs><circle id="a" cx="50" cy="50" r="50"/></defs><clipPath id="b"><use xlink:href="#a" overflow="visible"/></clipPath><g clip-path="url(#b)"><path fill-rule="evenodd" clip-rule="evenodd" fill="#AEB5BB" d="M54 60H0c-3.3 0-6-2.7-6-6V22c0-3.3 2.7-6 6-6h54c3.3 0 6 2.7 6 6v32c0 3.3-2.7 6-6 6z"/></g><path clip-path="url(#b)" fill-rule="evenodd" clip-rule="evenodd" fill="#697780" d="M-6 22h66v6H-6z"/><g><path fill-rule="evenodd" clip-rule="evenodd" fill="#079ED4" d="M94 85H40c-3.3 0-6-2.7-6-6V47c0-3.3 2.7-6 6-6h54c3.3 0 6 2.7 6 6v32c0 3.3-2.7 6-6 6z"/></g><path fill-rule="evenodd" clip-rule="evenodd" fill="#074A77" d="M34 47h66v6H34z"/><path fill="#FED110" d="M49.8 62.6l-1.7-1.1-9.8-6.4c-.5-.3-1.3.1-1.3.7v4h-.8-3.3c-.4 0-.9 0-1.3-.1h-.2c-.4 0-.8 0-1.1-.1h-.5c-.3 0-.7-.1-1-.1h-.5c-.4 0-.8-.1-1.2-.1h-.3c-.5-.1-1-.1-1.5-.2-.1 0-.2 0-.4-.1-.4-.1-.7-.1-1.1-.2-.2 0-.3-.1-.5-.1-.3-.1-.7-.1-1-.2-.1 0-.3-.1-.4-.1l-1.2-.3h-.1c-.4-.1-.8-.3-1.2-.4-.1 0-.2-.1-.3-.1-.3-.1-.5-.2-.8-.3-.1-.1-.2-.1-.4-.2-.6-.3-1.1-.6-1.5-.9-.4-.3-.8-.2-.6.2.2.6.4 1.1.7 1.6.2.3.4.7.6 1 0 0 0 .1.1.1.3.4.6.7.9 1.1l.3.3.7.7c.1.1.3.2.4.4.2.2.5.4.7.6.1.1.3.2.4.4l.9.6c.1.1.3.2.4.3.4.2.8.5 1.2.7.1 0 .1.1.2.1.5.3 1 .5 1.4.8.1.1.3.1.4.2.4.2.7.3 1.1.5.2.1.4.2.6.2.3.1.7.3 1 .4.2.1.4.1.6.2.4.1.7.2 1.1.3.2.1.4.1.5.2.4.1.9.2 1.4.4.1 0 .2 0 .2.1.5.1 1.1.2 1.6.3.2 0 .3 0 .5.1.4.1.7.1 1.1.2.2 0 .8 0 1 .1.4 0 .9.1 1.3.1v4c0 .7.8 1.1 1.3.7l10.4-8.1 1.1-.8c.4-.7.4-1.4-.1-1.7z"/></svg>