<svg id="Layer_1" xmlns="http://www.w3.org/2000/svg" viewBox="0 0 97 96" enable-background="new 0 0 97 96"><style>.st0{fill:#273B49;} .st1{filter:url(#Adobe_OpacityMaskFilter);} .st2{fill:#FFFFFF;} .st3{mask:url(#mask-2);fill:#FFFFFF;} .st4{filter:url(#Adobe_OpacityMaskFilter_1_);} .st5{mask:url(#mask-4);fill:#AEB5BB;} .st6{fill:#AEB5BB;} .st7{fill:#D03027;} .st8{fill:#019ED5;} .st9{fill:#0178A2;}</style><title>Page 1</title><g id="Page-1_1_"><g id="Get-New-Card---Default"><g id="Page-1"><path id="Fill-1" class="st0" d="M95.4 47.8c0 26.4-21.4 47.8-47.7 47.8S0 74.3 0 47.8 21.4 0 47.7 0s47.7 21.4 47.7 47.8"/><g id="Group-8" transform="translate(.954)"><g id="Group-5" transform="translate(24.815 25.834)"><defs><filter id="Adobe_OpacityMaskFilter" filterUnits="userSpaceOnUse" x="0" y="0" width="80.2" height="44"><feColorMatrix values="1 0 0 0 0 0 1 0 0 0 0 0 1 0 0 0 0 0 1 0"/></filter></defs><mask maskUnits="userSpaceOnUse" x="0" y="0" width="80.2" height="44" id="mask-2"><g class="st1"><path id="path-1" class="st2" d="M65.3 44c3.4-6.6 5.3-14.1 5.3-22S68.7 6.6 65.3 0H0v44h65.3z"/></g></mask><path id="Fill-3" class="st3" d="M80.2 44H0V16.3C0 7.3 7.3 0 16.2 0h63.9v44z"/></g><defs><filter id="Adobe_OpacityMaskFilter_1_" filterUnits="userSpaceOnUse" x="57.3" y="69.8" width="11.5" height="26.8"><feColorMatrix values="1 0 0 0 0 0 1 0 0 0 0 0 1 0 0 0 0 0 1 0"/></filter></defs><mask maskUnits="userSpaceOnUse" x="57.3" y="69.8" width="11.5" height="26.8" id="mask-4"><g class="st4"><path id="path-3" class="st2" d="M47.7 0C21.4 0 0 21.4 0 47.8s21.4 47.8 47.7 47.8c26.4 0 47.7-21.4 47.7-47.8S74.1 0 47.7 0z"/></g></mask><path id="Fill-6" class="st5" d="M57.3 96.6h11.4V69.8H57.3z"/></g><g id="Group-21"><path id="Fill-9" class="st6" d="M57.285 69.848h-32.5v-27.7c0-9 7.3-16.3 16.2-16.3s16.2 7.3 16.2 16.3v27.7h.1z"/><path id="Fill-11" class="st2" d="M59.185 69.848h-47.7c-1.1 0-1.9-.9-1.9-1.9 0-1.1.9-1.9 1.9-1.9h47.7v3.8z"/><path id="Fill-13" class="st7" d="M66.785 15.348c-1.1 0-1.9.9-1.9 1.9v26.8c0 1.1.9 1.9 1.9 1.9 1.1 0 1.9-.9 1.9-1.9v-26.8c0-1.1-.8-1.9-1.9-1.9"/><path id="Fill-15" class="st7" d="M65.885 22.048h9.5c.5 0 1-.4 1-1v-5.7c0-.5-.4-1-1-1h-9.5c-.5 0-1 .4-1 1v5.7c0 .5.4 1 1 1"/><path id="Fill-17" class="st8" d="M57.285 66.048h-18.2c-1.6 0-2.9-1.3-2.9-2.9v-15.3c0-1.6 1.3-2.9 2.9-2.9h18.1v21.1z"/><path id="Fill-19" class="st9" d="M36.285 52.648h21v-3.9h-21z"/></g></g></g></g></svg>