<svg xmlns="http://www.w3.org/2000/svg" viewBox="0 0 100 100"><circle fill="#0D4978" cx="50" cy="50" r="50"/><circle fill="#D22E2F" cx="76.5" cy="50.5" r="7.5"/><path fill="#FFF" d="M77 24.3c0-.6-.1-1.7-.6-2-.5-.3-1.2-.4-1.8-.1l-3.2 1.6C58.2 29.8 56.8 35 34.2 36H33v31.5c0 3.3 1.7 9.5 8.9 10.4h.3c1.1 0 2-.8 2.2-1.9.2-1.2-.8-2.6-2-2.7-5.1-.7-4.7-5.3-4.7-5.8v-4.7c18.8 1.5 21.4 7.1 33.7 12.8l3.2 1.6c.6.3 1.2.2 1.8-.1.5-.3.6-.7.6-1.4V24.3z"/><path fill="#66C4E6" d="M25.8 36C18.7 36 13 41.9 13 49v-.2C13 55.9 18.9 62 26 62h4V36h-4.2z"/><path fill="#079ED4" d="M30 36h3v26h-3z"/></svg>