<svg xmlns="http://www.w3.org/2000/svg" viewBox="0 0 100 100"><circle fill="#697780" cx="50" cy="50" r="50"/><path fill="#FFF" d="M21 18h58v64H21z"/><path fill="#99D6ED" d="M24 21h52v52H24z"/><path fill="#FEEB9E" d="M24 64h52v9H24z"/><path fill="#FFD942" d="M43 47.4L62 24l14 17.1V64H44"/><path fill="#EFC519" d="M24 48l13-17 24.4 33H24"/><path fill-rule="evenodd" clip-rule="evenodd" fill="#88592A" d="M43 68.4c0-2.4 1.4-7.1 5.5-8.6 0 0 .9-.4 4.1-.6.4-.7.6-1.9.7-2.8-2.2-1.6-3.6-4.5-3.6-7.9 0-5 .6-8.6 7.3-8.6s7.3 3.5 7.3 8.6c0 3.4-1.5 6.3-3.6 7.9.1 1 .2 2.1.6 2.8 2.9.2 4.1.6 4.1.6 4.2 1.1 5.5 5.8 5.5 8.6V73H43v-4.6z"/><path fill-rule="evenodd" clip-rule="evenodd" fill="#091A29" d="M61.1 59.3c2.9.2 4.1.6 4.1.6 4.2 1.1 5.5 5.8 5.5 8.6v4.6H43v-4.6s1.4-7.1 5.5-8.6c0 0 .9-.4 4.1-.6l4.3 4.6 4.2-4.6z"/><circle fill="#008BC1" cx="82" cy="82" r="18"/><path fill="#FFF" d="M88.5 76h-18c-.3 0-.5-.2-.5-.5s.2-.5.5-.5h18c.3 0 .5.2.5.5s-.2.5-.5.5z"/><path fill="#FFF" d="M88.5 75c.3 0 .5.2.5.5v13c0 .3-.2.5-.5.5s-.5-.2-.5-.5v-13c0-.3.2-.5.5-.5z"/><path fill="#FFF" d="M75.5 88h18c.3 0 .5.2.5.5s-.2.5-.5.5h-18c-.3 0-.5-.2-.5-.5s.2-.5.5-.5z"/><path fill="#FFF" d="M76 89h-.5l-.5-.5V77h1v12zM75.5 76c-.3 0-.5-.2-.5-.5v-5c0-.3.2-.5.5-.5s.5.2.5.5v5c0 .3-.2.5-.5.5zM89 93.5s0 .5-.5.5-.5-.5-.5-.5V90h1v3.5z"/><path fill-rule="evenodd" clip-rule="evenodd" fill="#091A29" d="M49.6 48.8l1.4-3.9s2.3-1.9 6-1.9 5.6 1.9 5.6 1.9l1.5 3.7S66.3 39 57 39s-7.4 9.8-7.4 9.8z"/></svg>