<svg xmlns="http://www.w3.org/2000/svg" viewBox="0 0 100 100"><path fill="#FFF" d="M93.5 80l-2.5-.1c-.2-.8-.5-1.7-.8-2.4l1.7-1.9c.1-.1.1-.2.1-.4 0-.1-.1-.3-.1-.4L89.1 72c-.2-.2-.5-.2-.7 0l-1.9 1.7c-.7-.3-1.6-.6-2.4-.8l-.1-2.4c0-.3-.2-.5-.5-.5h-3c-.3 0-.5.2-.5.5l-.1 2.5c-.8.2-1.7.5-2.4.8l-1.9-1.7c-.2-.2-.5-.2-.7 0l-2.8 2.8c-.2.2-.2.5 0 .7l1.7 1.9c-.3.7-.6 1.6-.8 2.4l-2.5.1c-.3 0-.5.2-.5.5v3c0 .3.2.5.5.5l2.5.1c.2.8.5 1.7.8 2.4l-1.7 1.9c-.1.1-.1.2-.1.3 0 .1.1.3.1.4l2.8 2.8c.2.2.5.2.7 0l1.9-1.7c.7.3 1.6.6 2.4.8l.1 2.5c0 .3.2.5.5.5h3c.3 0 .5-.2.5-.5l.1-2.5c.8-.2 1.7-.5 2.4-.8l1.9 1.7c.2.2.5.2.7 0l2.8-2.8c.2-.2.2-.5 0-.7l-1.7-1.9c.3-.7.6-1.6.8-2.4l2.5-.1c.3 0 .5-.2.5-.5v-3c0-.3-.2-.5-.5-.5zM82 86c-2.2 0-4-1.8-4-4s1.8-4 4-4 4 1.8 4 4-1.8 4-4 4z"/><circle fill="#99D6ED" cx="50" cy="50" r="50"/><path fill-rule="evenodd" clip-rule="evenodd" fill="#1B8140" d="M11 36h72v34H11z"/><path fill-rule="evenodd" clip-rule="evenodd" fill="#19A249" d="M14 33h72v34H14z"/><path fill-rule="evenodd" clip-rule="evenodd" fill="#4EB748" d="M17 30h72v34H17z"/><ellipse fill-rule="evenodd" clip-rule="evenodd" fill="#1A9847" cx="77" cy="47" rx="6" ry="7"/><ellipse fill-rule="evenodd" clip-rule="evenodd" fill="#1A9847" cx="29" cy="47" rx="6" ry="7"/><path fill-rule="evenodd" clip-rule="evenodd" fill="#1A9847" d="M41 48c0 8.3 5.6 15 12.5 15S65 56.3 65 48s-4.6-15-11.5-15S41 39.7 41 48z"/><path fill="#4EB748" d="M47.6 52.4s.8-.2 2.7-.4c.3-.5.4-1.2.4-1.8-1.4-1-2.4-2.8-2.4-4.9 0-3.2.4-5.3 4.6-5.3h.4c4.2 0 4.6 2.2 4.6 5.3 0 2.1-1 3.9-2.4 4.9 0 .6.2 1.3.4 1.8 2.1.1 2.7.4 2.7.4 2 .7 5.6 3.1 6.2 10.3l-13.1.7L42 63c0-5.6 2.8-9.9 5.6-10.6z"/><circle fill="#008BC1" cx="82" cy="82" r="18"/><g fill="#FFF"><path d="M82 77c-2.8 0-5 2.2-5 5s2.2 5 5 5 5-2.2 5-5-2.2-5-5-5zm0 9c-2.2 0-4-1.8-4-4s1.8-4 4-4 4 1.8 4 4-1.8 4-4 4z"/><path d="M93.1 79.5h-2c-.2-.7-.5-1.4-.9-2.1l1.4-1.4c.4-.4.4-.9 0-1.3l-2.3-2.3c-.2-.2-.4-.3-.6-.3s-.5.1-.6.3l-1.4 1.4c-.7-.4-1.4-.7-2.1-.9V71c0-.5-.4-.9-.9-.9h-3.3c-.5 0-.9.4-.9.9v1.8c-.8.2-1.5.5-2.2.9L76 72.3c-.2-.2-.4-.3-.6-.3s-.5.1-.6.3l-2.3 2.3c-.5.4-.5 1-.2 1.4l1.2 1.2c-.4.7-.7 1.5-1 2.3h-1.7c-.5 0-.9.4-.9.9v3.3c0 .5.4.9.9.9h1.7c.2.8.5 1.6 1 2.3L72.3 88c-.4.4-.4.9 0 1.3l2.3 2.3c.2.2.4.3.6.3.2 0 .5-.1.6-.3l1.3-1.3c.7.4 1.5.7 2.2.9V93c0 .5.4.9.9.9h3.3c.5 0 .9-.4.9-.9v-1.9c.8-.2 1.5-.5 2.1-.9l1.4 1.4c.2.2.4.3.6.3s.5-.1.6-.3l2.3-2.3c.4-.4.4-.9 0-1.3L90 86.6c.4-.7.7-1.4.9-2.1h2c.5 0 .9-.4.9-.9v-3.3c.2-.4-.2-.8-.7-.8zm-.1 4h-2.7l-.2.7c-.2.7-.4 1.3-.8 1.9l-.3.7.5.5 1.3 1.3-2.2 2.2-1.3-1.3-.5-.5-.7.4c-.6.4-1.2.6-1.9.8l-.7.2V93h-3.1v-2.5l-.8-.2c-.7-.2-1.4-.4-2-.8l-.6-.3-.5.5-1.2 1.2-2.2-2.2 1.1-1.1.5-.5-.4-.7c-.4-.6-.7-1.3-.9-2l-.2-.7H71v-3.1H73.4l.2-.7c.2-.7.5-1.4.9-2l.4-.7-.5-.5-1.1-1.1 2.2-2.2 1.2 1.2.5.5.7-.4c.6-.4 1.3-.6 2-.8l.8-.2V71h3.1v2.5l.7.2c.7.2 1.3.5 1.9.8l.7.4.5-.5 1.3-1.3 2.2 2.2-1.3 1.3-.8.6.4.7c.3.6.6 1.2.8 1.9l.2.7H93v3z"/></g></svg>