<?xml version="1.0" encoding="utf-8"?>
<!-- Generator: Adobe Illustrator 19.2.1, SVG Export Plug-In . SVG Version: 6.00 Build 0)  -->
<svg version="1.1" id="Layer_1" xmlns="http://www.w3.org/2000/svg" xmlns:xlink="http://www.w3.org/1999/xlink" x="0px" y="0px"
	 viewBox="0 0 31.8 31.8" style="enable-background:new 0 0 31.8 31.8;" xml:space="preserve">
<style type="text/css">
	.st0{fill:#878B8F;}
</style>
<path class="st0" d="M15.9,0C7.1,0,0,7.1,0,15.9s7.1,15.9,15.9,15.9s15.9-7.1,15.9-15.9S24.7,0,15.9,0L15.9,0z M23.2,21.8
	c0.4,0.4,0.4,1,0,1.4c-0.2,0.2-0.4,0.3-0.7,0.3s-0.5-0.1-0.7-0.3l-5.9-5.9L10,23.2c-0.2,0.2-0.4,0.3-0.7,0.3s-0.5-0.1-0.7-0.3
	c-0.4-0.4-0.4-1,0-1.4l5.9-5.9L8.6,10c-0.4-0.4-0.4-1,0-1.4s1-0.4,1.4,0l5.9,5.9l5.9-5.9c0.4-0.4,1-0.4,1.4,0s0.4,1,0,1.4l-5.9,5.9
	L23.2,21.8L23.2,21.8z"/>
</svg>
