<?xml version="1.0" encoding="utf-8"?>
<!-- Generator: Adobe Illustrator 19.2.1, SVG Export Plug-In . SVG Version: 6.00 Build 0)  -->
<svg version="1.1" id="Layer_1" xmlns="http://www.w3.org/2000/svg" xmlns:xlink="http://www.w3.org/1999/xlink" x="0px" y="0px"
	 viewBox="0 0 28 20.2" style="enable-background:new 0 0 28 20.2;" xml:space="preserve">
<g>
	<path d="M8,20.2H0v-6h8V20.2z M0.9,19.3h6.3v-4.2H0.9V19.3z"/>
</g>
<g>
	<path d="M23.2,13h-8V7h8V13z M16.1,12.1h6.3V7.9h-6.3V12.1z"/>
</g>
<g>
	<path d="M12.8,13h-8V7h8V13z M5.6,12.1h6.3V7.9H5.6V12.1z"/>
</g>
<g>
	<path d="M18,6h-8V0h8V6z M10.9,5.1h6.3V0.9h-6.3V5.1z"/>
</g>
<g>
	<path d="M18,20.2h-8v-6h8V20.2z M10.9,19.3h6.3v-4.2h-6.3V19.3z"/>
</g>
<g>
	<path d="M28,20.2h-8v-6h8V20.2z M20.9,19.3h6.3v-4.2h-6.3V19.3z"/>
</g>
</svg>
