<?xml version="1.0" encoding="utf-8"?>
<!-- Generator: Adobe Illustrator 19.2.1, SVG Export Plug-In . SVG Version: 6.00 Build 0)  -->
<svg version="1.1" id="Layer_1" xmlns="http://www.w3.org/2000/svg" xmlns:xlink="http://www.w3.org/1999/xlink" x="0px" y="0px"
	 viewBox="0 0 32 32" style="enable-background:new 0 0 32 32;" xml:space="preserve">
<style type="text/css">
	.st0{fill:#444444;}
</style>
<path class="st0" d="M29.9,7.8l-0.2,0.2l-5.7-5.7L24.2,2c0.6-0.6,1.4-1,2-1c0.4,0,0.7,0.1,1,0.4l3.2,3.2C31.3,5.6,30.8,6.9,29.9,7.8
	L29.9,7.8L29.9,7.8z M28.2,9.6l-5.7-5.7L23.3,3L29,8.7C29,8.7,28.2,9.6,28.2,9.6z M9.2,28.5l-5.7-5.7L21.7,4.6l5.7,5.7
	C27.4,10.3,9.2,28.5,9.2,28.5z M1.3,30.7L3,23.8L8.1,29L1.3,30.7L1.3,30.7z M31.3,4L28,0.7C27.5,0.3,26.9,0,26.2,0
	c-0.9,0-2,0.5-2.8,1.3L2.3,22.4c-0.1,0.1-0.1,0.2-0.1,0.3L0,31.3c0,0.2,0,0.4,0.1,0.5C0.3,31.9,0.4,32,0.5,32c0,0,0.1,0,0.1,0
	l8.7-2.2c0.1,0,0.2-0.1,0.3-0.1L30.7,8.5C32,7.3,32.6,5.3,31.3,4L31.3,4L31.3,4z"/>
</svg>
