<svg width="21px" height="23px" viewBox="0 0 21 23" version="1.1" xmlns="http://www.w3.org/2000/svg" xmlns:xlink="http://www.w3.org/1999/xlink">
    <g id="calendars" stroke="none" stroke-width="1" fill="none" fill-rule="evenodd">
        <g id="Payment-Calendar" transform="translate(-393.000000, -395.000000)" fill="#0D161D">
            <g id="Group-Copy-5" transform="translate(130.000000, 364.000000)">
                <g id="Group-2" transform="translate(263.000000, 31.000000)">
                    <path d="M17,1.53355045 L17,0.511183483 C17,0.229082226 16.776,0 16.5,0 C16.224,0 16,0.229082226 16,0.511183483 L16,1.53355045 L5,1.53355045 L5,0.511183483 C5,0.229082226 4.776,0 4.5,0 C4.224,0 4,0.229082226 4,0.511183483 L4,1.53355045 L0,1.53355045 L0,22.9987551 L21,22.9987551 L21,1.53355045 L17,1.53355045 L17,1.53355045 Z M1,7.9963702 L5,7.9963702 L5,11.9838014 L1,11.9838014 L1,7.9963702 Z M11,7.9963702 L15,7.9963702 L15,11.9838014 L11,11.9838014 L11,7.9963702 Z M6,13.0056682 L10,13.0056682 L10,16.9675903 L6,16.9675903 L6,13.0056682 Z M6,7.9963702 L10,7.9963702 L10,11.9838014 L6,11.9838014 L6,7.9963702 Z M1,13.0056682 L5,13.0056682 L5,16.9675903 L1,16.9675903 L1,13.0056682 Z M1,17.9894571 L5,17.9894571 L5,21.9768883 L1,21.9768883 L1,17.9894571 Z M6,17.9894571 L10,17.9894571 L10,21.9768883 L6,21.9768883 L6,17.9894571 Z M11,17.9894571 L15,17.9894571 L15,21.9768883 L11,21.9768883 L11,17.9894571 Z M16,17.9894571 L20,17.9894571 L20,21.9768883 L16,21.9768883 L16,17.9894571 Z M16,13.0056682 L20,13.0056682 L20,16.9675903 L16,16.9675903 L16,13.0056682 Z M16,7.9963702 L20,7.9963702 L20,11.9838014 L16,11.9838014 L16,7.9963702 Z M16,6.97400323 L1,6.97400323 L1,2.5048991 L4,2.5048991 L4,3.5777842 C4,3.85988546 4.224,4.08896768 4.5,4.08896768 C4.776,4.08896768 5,3.85988546 5,3.5777842 L5,2.5048991 L16,2.5048991 L16,3.5777842 C16,3.85988546 16.224,4.08896768 16.5,4.08896768 C16.776,4.08896768 17,3.85988546 17,3.5777842 L17,2.5048991 L20,2.5048991 L20,6.97400323 L16,6.97400323 L16,6.97400323 Z" id="icons/stroked/calendar-copy"></path>
                </g>
            </g>
        </g>
    </g>
</svg>
