<?xml version="1.0" encoding="UTF-8" standalone="no"?>
<svg width="14px" height="18px" viewBox="0 0 14 18" version="1.1" xmlns="http://www.w3.org/2000/svg" xmlns:xlink="http://www.w3.org/1999/xlink">
    <!-- Generator: Sketch 39.1 (31720) - http://www.bohemiancoding.com/sketch -->
    <title>icons/stroked/locked</title>
    <desc>Created with Sketch.</desc>
    <defs></defs>
    <g id="Page-1" stroke="none" stroke-width="1" fill="none" fill-rule="evenodd">
        <g id="Artboard" fill="#011728">
            <g id="icons/stroked/locked">
                <path d="M11.88,6.58573788 L11.16,6.58573788 L11.16,4.4249623 C11.16,2.03838567 9.22572,0.103411131 6.84036,0.103411131 C4.45428,0.103411131 2.52,2.03838567 2.52,4.4249623 L2.52,6.58573788 L1.8,6.58573788 C1.00476,6.58573788 0.36,7.23072939 0.36,8.02625494 L0.36,15.9490987 C0.36,16.7449844 1.00476,17.3896158 1.8,17.3896158 L11.88,17.3896158 C12.6756,17.3896158 13.32,16.7449844 13.32,15.9490987 L13.32,8.02625494 C13.32,7.23072939 12.6756,6.58573788 11.88,6.58573788 L11.88,6.58573788 Z M3.24,4.4249623 C3.24,2.43920954 4.85496,0.823669659 6.84036,0.823669659 C8.82504,0.823669659 10.44,2.43920954 10.44,4.4249623 L10.44,6.58573788 L3.24,6.58573788 L3.24,4.4249623 L3.24,4.4249623 Z M12.6,15.9490987 C12.6,16.3463213 12.27708,16.6693573 11.88,16.6693573 L1.8,16.6693573 C1.40292,16.6693573 1.08,16.3463213 1.08,15.9490987 L1.08,8.02625494 C1.08,7.62939249 1.40292,7.30599641 1.8,7.30599641 L11.88,7.30599641 C12.27708,7.30599641 12.6,7.62939249 12.6,8.02625494 L12.6,15.9490987 Z M6.84036,10.1870305 C6.24348,10.1870305 5.76,10.6710443 5.76,11.2674183 C5.76,11.737387 6.06132,12.1328089 6.48,12.2815423 L6.48,13.7883232 C6.48,13.9874746 6.64092,14.1484524 6.84036,14.1484524 C7.03908,14.1484524 7.2,13.9874746 7.2,13.7883232 L7.2,12.2815423 C7.61868,12.1328089 7.92,11.737387 7.92,11.2674183 C7.92,10.6710443 7.43652,10.1870305 6.84036,10.1870305 Z"></path>
            </g>
        </g>
    </g>
</svg>