<svg id="Layer_1" xmlns="http://www.w3.org/2000/svg" xmlns:xlink="http://www.w3.org/1999/xlink" viewBox="0 0 157.9 157.8"><style>.st0{clip-path:url(#SVGID_2_);fill:#A12830;} .st1{clip-path:url(#SVGID_2_);fill:#FFFFFF;} .st2{fill:#FFFFFF;} .st3{fill:#A12830;}</style><defs><path id="SVGID_1_" d="M0 79c0 43.5 35.3 78.8 78.9 78.8 43.6 0 78.9-35.3 78.9-78.8S122.5.2 78.9.2C35.3.2 0 35.5 0 79"/></defs><clipPath id="SVGID_2_"><use xlink:href="#SVGID_1_" overflow="visible"/></clipPath><path class="st0" d="M157.9 79C157.9 35.5 122.6.2 79 .2 35.3.2 0 35.5 0 79s35.3 78.8 78.9 78.8c43.6 0 79-35.3 79-78.8z"/><path class="st1" d="M.8 111.9c83.5-4.7 221.3-5.9 50.2 55 0 0 156.1-61.1-50.4-55h.2z"/><g><path class="st2" d="M55.3 54.1c.5 0 1 0 1.5.1 1.4.3 2.6 1 3.4 2.2 1 1.6 1.1 3.7.4 5.7l-.9 2.7L54 81.5l-1 2.7-3.8 11c-.7 2.1-2.2 4.1-4.3 5.7-2.1 1.6-4.5 2.4-6.5 2.4H17c-2.1 0-3.9-.8-4.9-2.4-1-1.6-1.1-3.7-.4-5.7l.9-2.7h26.8l2.9-8.3H23.6c-2.1 0-3.9-.8-4.9-2.4-1-1.6-1.1-3.7-.4-5.7l.9-2.7H46l2.9-8.5H30.3c-2.1 0-3.9-.8-4.9-2.4-1-1.6-1.1-3.7-.4-5.7l.9-2.7H55.3zM146.1 56.5c1 1.6 1.1 3.7.4 5.7l-11.4 33c-.7 2.1-2.2 4.1-4.3 5.7-2.1 1.6-4.5 2.4-6.6 2.4h-21.3c-2.1 0-3.9-.8-4.9-2.4-1-1.6-1.1-3.7-.4-5.7l11.4-33c.7-2.1 2.2-4.2 4.4-5.7 2.1-1.6 4.5-2.4 6.5-2.4h21.4c1.9 0 3.7.8 4.8 2.4m-20.9 36.1l9.5-27.6h-15.9l-9.5 27.6h15.9M97 81.4l-1 2.9-3.6 10.5-.2.6c-.7 2.1-2.2 4.1-4.3 5.7-2.1 1.6-4.5 2.4-6.5 2.4H59.9c-2.1 0-3.9-.8-4.9-2.4-1-1.6-1.1-3.7-.4-5.7l3.8-11 .9-2.7L65 65.1l.9-2.7c.7-2.1 2.2-4.2 4.4-5.7 1.6-1.2 3.3-1.9 4.9-2.2.6-.1 1.1-.1 1.6-.1h29.4l-.9 2.7c-.7 2.1-2.2 4.1-4.3 5.7-2.1 1.6-4.5 2.4-6.6 2.4H75.9L73 73.7h18.6c2.1 0 3.9.8 4.9 2.4 1 1.3 1.1 3.2.5 5.3M82.3 92.6l2.9-8.3h-16l-2.9 8.3h16"/></g><g><path class="st3" d="M148.7 2.3c-.1-1.1-1-1.5-1.8-1.5-.6 0-1.7.2-1.7 1.3 0 .6.4.8.9.9l2.1.5c.9.2 1.6.8 1.6 1.9 0 1.7-1.6 2.2-2.8 2.2-1.3 0-1.9-.4-2.2-.7-.6-.6-.7-1.2-.7-1.8h.9c0 1.3 1.1 1.7 2 1.7.7 0 1.9-.2 1.9-1.2 0-.8-.4-1-1.5-1.3l-1.5-.3c-.5-.1-1.5-.4-1.5-1.7 0-1.1.7-2.2 2.5-2.2 2.5 0 2.8 1.5 2.8 2.3h-1zM156.9 7.5V3.2 1.4l-2 6.1h-1l-2-6.1v6.1h-1V.2h1.4l2.1 6.1 2.1-6.1h1.4v7.3h-1z"/></g></svg>