<svg id="Layer_1" xmlns="http://www.w3.org/2000/svg" viewBox="0 0 62.4 28.3"><style>.st0{fill:#FFFFFF;} .st1{fill:none;}</style><path class="st0" d="M1.3 20c2.1 4.5 6.5 7.8 11.7 8.2 6-2.9 14.8-8.8-11.7-8.2zM14.2 0C6.4 0 0 6.3 0 14.2c0 2.1.5 4.1 1.3 5.9 14.3-.7 35.5-.7 12.3 8.3h.6c7.8 0 14.2-6.3 14.2-14.2C28.4 6.3 22 0 14.2 0zM9.5 15.1l-.7 2c-.1.4-.4.7-.8 1-.4.3-.8.4-1.2.4H3.1c-.4 0-.7-.1-.9-.4-.2-.3-.2-.7-.1-1l.2-.5h4.8l.5-1.5H4.2c-.4 0-.7-.1-.9-.4-.2-.3-.2-.7-.1-1l.2-.5h4.8l.5-1.5H5.4c-.4 0-.7-.1-.9-.4-.2-.3-.2-.7-.1-1l.2-.5h5.6c.3.1.5.2.6.4.2.3.2.7.1 1l-.2.5-1 3-.2.4zm7.8 0l-.7 1.9v.1c-.1.4-.4.7-.8 1-.4.3-.8.4-1.2.4h-3.8c-.4 0-.7-.1-.9-.4-.2-.3-.2-.7-.1-1l.7-2 .2-.5 1-3 .2-.5c.1-.4.4-.7.8-1 .3-.2.6-.3.9-.4h5.6l-.2.5c-.1.4-.4.7-.8 1-.4.3-.8.4-1.2.4h-3.4l-.5 1.5h3.3c.4 0 .7.1.9.4.2.3.2.6.1 1l-.1.6zm7 2c-.1.4-.4.7-.8 1-.4.3-.8.4-1.2.4h-3.8c-.4 0-.7-.1-.9-.4-.2-.3-.2-.7-.1-1l2-5.9c.1-.4.4-.7.8-1 .4-.3.8-.4 1.2-.4h3.8c.4 0 .7.1.9.4.2.3.2.7.1 1l-2 5.9zm-4.7-.5h2.9l1.7-5h-2.9l-1.7 5zm-7.7 0h2.9l.5-1.5h-2.9l-.5 1.5z"/><path class="st1" d="M0 14.2C0 22 6.4 28.3 14.2 28.3c7.8 0 14.2-6.3 14.2-14.2C28.4 6.3 22 0 14.2 0 6.4 0 0 6.3 0 14.2"/><path class="st0" d="M43.7 11.3h-5L39.8 8c.3-1 .5-1.6.5-1.8 0-.2-.2-.4-.6-.4-.4 0-.7.1-.9.4-.2.3-.5.9-.8 1.9L35 17c-.3.9-.5 1.5-.5 1.8 0 .3.2.4.6.4.4 0 .7-.1.9-.4.2-.3.5-1 .9-2l.8-2.4h5l-.3.7c-.7 2-1.3 3.4-1.9 4.2-.6.8-1.4 1.6-2.6 2.2-1.2.6-2.5.9-3.9.9-1.5 0-2.6-.3-3.3-.8-.8-.5-1.1-1.3-1.1-2.2 0-.9.3-2.3 1-4.2l1.9-5.6c.5-1.4.9-2.4 1.2-3.1.3-.7.8-1.4 1.5-2 .7-.6 1.5-1.1 2.5-1.5 1-.4 2-.5 3.1-.5 1.5 0 2.6.3 3.3.8.8.6 1.1 1.3 1.1 2.1s-.3 2.2-.9 3.9l-.6 2zM48.1 2.5H52c2.5 0 4.2.1 5 .3.8.2 1.3.6 1.6 1.1.3.5.4 1.1.3 1.8-.1.6-.5 1.9-1.1 3.8l-2.4 7c-.6 1.8-1.1 3-1.5 3.6-.4.6-.8 1.1-1.4 1.4-.5.3-1.1.6-1.8.7-.7.1-1.6.2-2.9.2h-6.5l6.8-19.9zm4 3.4L47.6 19c.7 0 1.3-.1 1.5-.4.3-.3.6-1.1 1.1-2.4l2.7-7.7c.3-.9.5-1.5.5-1.7 0-.3 0-.4-.2-.6-.2-.2-.6-.3-1.1-.3z"/><g><path class="st0" d="M60.8 2.9c0-.2-.2-.3-.3-.3-.1 0-.3 0-.3.2 0 .1.1.1.2.2l.4.1c.2 0 .3.1.3.3 0 .3-.3.4-.5.4s-.3-.1-.4-.1c-.1-.1-.1-.2-.1-.3h.2c0 .2.2.3.4.3.1 0 .3 0 .3-.2 0-.1-.1-.2-.3-.2l-.3-.1c-.1 0-.3-.1-.3-.3 0-.2.1-.4.4-.4.5 0 .5.3.5.4h-.2z"/><path class="st0" d="M62.2 3.9v-.8-.3l-.4 1.1h-.2l-.4-1.1v1.1H61V2.6h.3l.4 1.1.4-1.1h.3v1.3h-.2z"/></g></svg>