<svg id="Layer_1" xmlns="http://www.w3.org/2000/svg" viewBox="0 0 187.4 42"><style>.st0{fill:#FFFFFF;}</style><path class="st0" d="M29.1 24.6h4.2l2.5-7.4h-4.2l-2.5 7.4zM1.9 29.7c3.1 6.7 9.6 11.5 17.3 12.2 9-4.4 22-13.1-17.3-12.2zm15.8-5.1H22l.8-2.2h-4.2l-.9 2.2zM21.1 0C9.4 0 0 9.4 0 21c0 3.1.7 6 1.9 8.7C23 28.6 54.5 28.6 20.2 42h.9c11.6 0 21.1-9.4 21.1-21-.1-11.6-9.5-21-21.1-21zm-7 22.4l-1 2.9c-.2.6-.6 1.1-1.2 1.5-.6.4-1.2.6-1.7.6H4.5c-.6 0-1-.2-1.3-.6-.3-.4-.3-1-.1-1.5l.2-.7h7.1l.8-2.2h-5c-.6 0-1-.2-1.3-.6-.3-.4-.3-1-.1-1.5l.2-.7h7.1l.8-2.3h-5c-.6 0-1-.2-1.3-.6-.3-.4-.3-1-.1-1.5l.2-.7h8.4c.4.1.7.3.9.6.3.4.3 1 .1 1.5l-.2.7-1.5 4.4-.3.7zm11.5 0l-1 2.8-.1.1c-.2.6-.6 1.1-1.2 1.5-.6.4-1.2.6-1.7.6H16c-.6 0-1-.2-1.3-.6-.3-.4-.3-1-.1-1.5l1-2.9.2-.7 1.5-4.4.2-.7c.2-.6.6-1.1 1.2-1.5.4-.3.9-.5 1.3-.6h8.2l-.2.7c-.2.6-.6 1.1-1.2 1.5-.6.4-1.2.6-1.7.6h-5l-.8 2.3h5c.6 0 1 .2 1.3.6.3.4.3.9.1 1.5l-.1.7zm10.4 3c-.2.6-.6 1.1-1.2 1.5-.6.4-1.2.6-1.7.6h-5.7c-.6 0-1-.2-1.3-.6-.3-.4-.3-1-.1-1.5l3-8.8c.2-.6.6-1.1 1.2-1.5.6-.4 1.2-.6 1.7-.6h5.7c.6 0 1 .2 1.3.6.3.4.3 1 .1 1.5l-3 8.8zM64.5 17h-7.3l1.7-4.8c.5-1.4.7-2.3.7-2.6 0-.3-.3-.5-.8-.5-.6 0-1 .2-1.4.6-.3.4-.7 1.3-1.2 2.8l-4.5 13c-.4 1.2-.7 2.1-.7 2.5 0 .4.3.6.9.6.5 0 1-.2 1.3-.6.3-.4.7-1.4 1.3-2.9l1.2-3.5H63l-.4 1.1c-1 2.9-1.9 4.9-2.7 6.1C59 30 57.7 31.1 56 32c-1.7.9-3.6 1.4-5.6 1.4-2.1 0-3.7-.4-4.9-1.2-1.1-.8-1.7-1.8-1.6-3.2 0-1.4.5-3.4 1.4-6.1l2.8-8.1c.7-2 1.3-3.5 1.8-4.5s1.2-2 2.2-2.9c1-.9 2.2-1.7 3.6-2.2 1.4-.5 2.9-.8 4.5-.8 2.1 0 3.8.4 4.9 1.2 1.1.8 1.7 1.9 1.7 3.1 0 1.2-.4 3.2-1.3 5.8l-1 2.5zM77.8 4.3l-2.5 7.1c.8-.6 1.6-1 2.5-1.3.8-.3 1.6-.4 2.5-.4 1.3 0 2.2.3 2.9 1 .7.6 1 1.4.9 2.2-.1.8-.5 2.4-1.3 4.6l-5.5 15.8H70l5.6-16.2c.5-1.4.7-2.3.7-2.7 0-.4-.2-.6-.7-.6-.4 0-.8.2-1.1.6-.3.4-.7 1.2-1.1 2.4l-5.7 16.4h-7.3l10-29.1h7.4zM99.2 21.8h-9.1l-1.7 5c-.4 1-.5 1.7-.5 2 0 .3.3.5.7.5.5 0 1-.2 1.3-.6.3-.4.7-1.2 1.1-2.3l1-3h6.6l-.5 1.6c-.5 1.4-1 2.5-1.4 3.3-.4.8-1.1 1.6-2.1 2.4-1 .9-2 1.5-3.2 2-1.2.4-2.5.7-4 .7s-2.7-.2-3.7-.6c-1-.4-1.7-1-2-1.8-.4-.7-.5-1.6-.5-2.5.1-.9.4-2.2 1-3.9l2.3-6.7c.7-2 1.5-3.6 2.5-4.8.9-1.2 2.1-2.1 3.6-2.7 1.5-.6 3-.9 4.6-.9 2 0 3.5.4 4.5 1.1 1 .7 1.6 1.7 1.7 3 .1 1.2-.2 3-1 5.2l-1.2 3zm-5.8-3.7l.6-1.7c.4-1.2.6-2 .6-2.3 0-.3-.2-.5-.6-.5-.5 0-.8.1-1.1.4-.2.3-.5 1.1-1 2.4l-.6 1.7h2.1zM117.8 18.6h-6.6l.9-2.7c.3-.9.5-1.6.4-1.9 0-.3-.3-.5-.7-.5-.4 0-.7.1-1 .4-.2.3-.5.9-.9 1.9l-3.7 10.9c-.3.8-.4 1.4-.3 1.8.1.4.3.6.7.6.5 0 .9-.2 1.2-.6.3-.4.7-1.2 1.1-2.4l.9-2.7h6.2c-.6 1.8-1.2 3.2-1.6 4.1-.4.9-1.1 1.9-2.1 2.8-1 1-2.1 1.7-3.3 2.2-1.2.5-2.6.7-4.2.7-2 0-3.4-.3-4.4-1-.9-.7-1.4-1.6-1.5-2.8-.1-1.2.3-3 1.1-5.2l2.3-6.5c.7-2 1.4-3.4 2.1-4.4.7-1 1.9-1.9 3.4-2.7 1.6-.8 3.2-1.2 5.1-1.2 1.8 0 3.3.4 4.3 1.2 1 .8 1.6 1.8 1.6 2.9.1 1.2-.3 2.9-1 5.1zM137.9 9.5l-6.2 9.5-1.1 14.3h-7l1.3-10.4-3.6 10.4H114l10-29.1h7.3l-4.2 12.2 4.7-7h6.1zM146.9 9.5l-8.2 23.9h-7.2l8.2-23.9h7.2zM155.7 9.4l-.9 2.1c.8-.8 1.6-1.5 2.5-1.9.9-.4 1.8-.6 2.8-.6 1.2 0 2.1.3 2.7.9.6.6.8 1.3.7 2.1-.1.9-.5 2.3-1.2 4.3l-5.9 17.1h-7l5.8-16.9c.5-1.6.8-2.6.8-2.9 0-.3-.2-.5-.7-.5-.5 0-.9.2-1.1.6-.3.4-.7 1.5-1.3 3.2l-5.7 16.5h-7l8.2-23.9h7.3zM175.2 9.5h-1.5c-1.6 0-3.1.3-4.6.9-1.5.6-2.6 1.5-3.6 2.7-.9 1.2-1.8 2.8-2.5 4.8l-2.3 6.7c-.6 1.7-.9 3-1 3.9-.1.9.1 1.7.5 2.5.4.7 1.1 1.3 2 1.8 1 .4 2.2.6 3.7.6h1l-.1.2c-.3 1-.7 1.7-.9 2-.3.3-.7.5-1.2.5-.7 0-.9-.5-.6-1.5h-6.8c-.7 2.2-.5 3.7.6 4.5 1.1.8 2.8 1.1 5 1.1 1.8 0 3.4-.2 4.7-.6 1.3-.4 2.5-1 3.4-1.8.9-.8 1.6-1.5 1.9-2.2.4-.7 2-5.4 2.9-7.8L182 9.7h-6.8zm-7.9 19.8c-.4 0-.7-.2-.7-.5s.1-1 .5-2l1.7-5 1.3-3.7.6-1.7c.4-1.3.8-2.1 1-2.4.2-.3.6-.4 1.1-.4 0 0 1.2-.1.7 1.2l-4.7 13.7c0 .1-.1.1-.1.2-.5.4-.9.6-1.4.6z"/><g><path class="st0" d="M185 10.1c0-.3-.3-.4-.5-.4s-.4 0-.4.3c0 .2.1.2.2.2l.6.1c.3.1.4.2.4.5 0 .5-.4.6-.8.6s-.5-.1-.6-.2c-.2-.1-.2-.3-.2-.5h.2c0 .4.3.5.5.5s.5 0 .5-.3c0-.2-.1-.3-.4-.3l-.4-.1c-.1 0-.4-.1-.4-.5 0-.3.2-.6.7-.6.7 0 .7.4.8.6h-.2zM187.2 11.5v-1.1-.5l-.5 1.6h-.3l-.5-1.6v1.6h-.3V9.6h.4l.6 1.6.6-1.6h.4v1.9h-.4z"/></g></svg>