<svg id="Layer_1" xmlns="http://www.w3.org/2000/svg" viewBox="0 0 39.7 39.7"><style>.st0{fill:#021829;}</style><path class="st0" d="M21.5 29.8c0 .9-.7 1.7-1.7 1.7-.9 0-1.7-.7-1.7-1.7 0-.9.7-1.7 1.7-1.7s1.7.8 1.7 1.7z"/><path class="st0" d="M19.9 0C8.9 0 0 8.9 0 19.9s8.9 19.9 19.9 19.9 19.9-8.9 19.9-19.9S30.8 0 19.9 0zm0 38.1c-10 0-18.2-8.2-18.2-18.2S9.8 1.7 19.9 1.7s18.2 8.2 18.2 18.2-8.2 18.2-18.2 18.2z"/><path class="st0" d="M19.9 9.9c-3.2 0-5.8 2.6-5.8 5.8 0 .5.3.8.8.8s.8-.3.8-.8c0-2.3 1.8-4.1 4.1-4.1s4.1 1.8 4.1 4.1-1.8 4.1-4.1 4.1c-.5 0-.8.3-.8.8v5c0 .5.3.8.8.8s.8-.3.8-.8v-4.2c2.8-.4 5-2.8 5-5.7 0-3.2-2.5-5.8-5.7-5.8z"/></svg>