<svg id="Layer_1" xmlns="http://www.w3.org/2000/svg" viewBox="0 0 194.4 44.8"><style>.st0{fill:#FFFFFF;}</style><path class="st0" d="M174.9 12.5l-.3.4-7.3 10.4-2-10.9h-8.5l4 20L159 35c-1.1 1.6-2.5 2.9-4.7 2.9-.9 0-1.4-.1-1.8-.2l-.7-.2-4.6 6.5 1.5.4c1.2.3 2.6.4 3.7.4 3.4 0 10.2-1.2 14.3-7l17.7-25.3h-9.5zM32.9 12.5L18.6 37.2c-1.7 2.9-4.2 4.7-6.8 5.7-2.5 1-5 1.3-6.7 1.3-1.1 0-2.6-.1-3.7-.4L0 43.5 3.7 37l.8.2c.4.1 1 .2 1.9.2 2.1 0 3.3-1.2 4.2-2.8L23.1 13l.3-.5h9.5zM33.6 0c2.7 0 3.9 2.2 2.6 4.9C35 7.6 31.7 9.8 29 9.8s-3.9-2.2-2.6-4.9C27.7 2.2 30.9 0 33.6 0zM105.3 12.1s-1.1-.1-1.7-.1c-6.9 0-13.3 2.3-16.8 9.9l-6.4 13.8h8.1l5.7-12.2c1.3-2.9 3-4.9 6.4-5h2.2l2.5-6.4zM56.2 24c-3.6 7.8-12.1 12.2-19.4 12.2-7.3 0-11.8-4.4-8.1-12.2 3.6-7.8 12.1-12.2 19.5-12.2 7.2 0 11.6 4.4 8 12.2zm-19 0c-1.3 2.9-.5 5.1 2.8 5.1s6.3-2.2 7.6-5.1c1.3-2.8.5-5.2-2.8-5.2s-6.3 2.4-7.6 5.2zM71.8 12.5l-5.7 12.2c-1.3 2.9-1.6 5 1.8 5 3.3 0 5-2.1 6.4-5L80 12.5h8l-6.4 13.8c-3.5 7.5-9.9 9.9-16.8 9.9s-11.1-2.3-7.6-9.9l6.4-13.8h8.2z"/><path class="st0" d="M154 25.3h-17.1c-1.5 3.3-.6 5.1 2.7 5.1 1.7 0 3.3-.6 4.9-2.1h7.8c-3.8 5.4-10.1 7.8-15.3 7.8-7.6 0-11.3-4.3-7.6-12.2 3.5-7.6 10.9-12.2 18.3-12.2 7.9 0 10.3 4.9 6.6 12.7l-.3.9zm-5.4-4.7c.6-2.2-.7-3.6-2.9-3.6-2.4 0-4.9 1.2-6.5 3.6h9.4zM113.9 35.5l5.7-12.2c1.3-2.9 1.6-5-1.8-5-3.3 0-5 2.1-6.4 5l-5.7 12.2h-8.1l6.4-13.8c3.5-7.5 9.9-9.9 16.8-9.9s11.1 2.3 7.6 9.9L122 35.5h-8.1z"/><g><path class="st0" d="M187.7 15.8c0-1.9 1.5-3.3 3.3-3.3 1.8 0 3.3 1.4 3.3 3.3s-1.5 3.3-3.3 3.3c-1.7-.1-3.3-1.4-3.3-3.3zm3.4 2.7c1.5 0 2.6-1.2 2.6-2.7 0-1.5-1.2-2.7-2.6-2.7-1.5 0-2.7 1.2-2.7 2.7 0 1.5 1.2 2.7 2.7 2.7zm-.7-.8h-.6v-3.8h1.4c.9 0 1.3.3 1.3 1.1 0 .7-.4 1-1 1l1.1 1.7h-.6l-1-1.6h-.7v1.6zm.7-2.2c.5 0 .9 0 .9-.6 0-.5-.4-.6-.8-.6h-.8v1.2h.7z"/></g></svg>