<svg id="Layer_1" xmlns="http://www.w3.org/2000/svg" viewBox="0 0 33.8 36.2"><style>.st0{fill:#FFFFFF;}</style><path class="st0" d="M27.4 2.4V.8c0-.4-.4-.8-.8-.8s-.8.4-.8.8v1.6H8.1V.8c0-.4-.4-.8-.9-.8s-.8.4-.8.8v1.6H0v33.8h33.8V2.4h-6.4zM1.6 12.1H8v6.4H1.6v-6.4zm22.6 6.4h-6.4v-6.4h6.4v6.4zM9.7 20.1h6.4v6.4H9.7v-6.4zm6.4-1.6H9.7v-6.4h6.4v6.4zM1.6 20.1H8v6.4H1.6v-6.4zm0 14.5v-6.4H8v6.4H1.6zm8.1 0v-6.4h6.4v6.4H9.7zm8 0v-6.4h6.4v6.4h-6.4zm14.5 0h-6.4v-6.4h6.4v6.4zm0-8h-6.4v-6.4h6.4v6.4zm-6.4-8.1v-6.4h6.4v6.4h-6.4zm0-8H1.6V4h4.8v1.6c0 .4.4.8.8.8S8 6 8 5.6V4h17.7v1.6c0 .4.4.8.8.8s.8-.4.8-.8V4h4.8v6.4h-6.3z"/></svg>