<svg width="50" height="66" viewBox="0 0 50 66" xmlns="http://www.w3.org/2000/svg"><title>piggy bank</title><g stroke="#018BBB" fill="none" fill-rule="evenodd" stroke-linecap="round"><path d="M48.67 10.163c0 5.06-4.116 9.163-9.195 9.163-5.078 0-9.195-4.102-9.195-9.163C30.28 5.103 34.397 1 39.475 1c5.08 0 9.195 4.103 9.195 9.163z" stroke-width="1.5" stroke-linejoin="round"/><path d="M39.48 14.02v.966M39.48 5.34v.965" stroke-width="2" stroke-linejoin="round"/><path d="M37.54 12.092c0 1.066.867 1.93 1.936 1.93 1.07 0 1.936-.864 1.936-1.93 0-1.066-.867-1.93-1.936-1.93-1.07 0-1.936-.863-1.936-1.928s.867-1.93 1.936-1.93c1.07 0 1.936.865 1.936 1.93" stroke-width="1.5" stroke-linejoin="round"/><path d="M29.8 23.666v.965M29.8 14.985v.965" stroke-width="2" stroke-linejoin="round"/><path d="M27.86 21.737c0 1.066.867 1.93 1.936 1.93 1.07 0 1.936-.864 1.936-1.93 0-1.066-.867-1.93-1.936-1.93-1.07 0-1.936-.862-1.936-1.928 0-1.066.867-1.93 1.936-1.93 1.07 0 1.936.864 1.936 1.93" stroke-width="1.5" stroke-linejoin="round"/><path d="M30.315 10.67c-.17-.01-.338-.025-.51-.025-5.077 0-9.195 4.103-9.195 9.163 0 5.06 4.118 9.163 9.195 9.163 5.08 0 9.196-4.1 9.196-9.162 0-.17-.015-.34-.025-.508M19.93 37.73c3.034-.2 6.314.84 8.788 2.693" stroke-width="1.5" stroke-linejoin="round"/><path d="M40.21 43.792c0 1.877-1.496 3.368-3.38 3.368" stroke-width="2"/><path d="M16.422 34.016c-1.64-2.888-5.303-3.878-8.177-2.222 1.553.895 2.66 2.45 2.923 4.293-3.57 2.155-6.214 5.684-6.788 9.726H1v6.737h4.732c2.404 5.39 8.08 8.084 14.874 8.084 8.944 0 16.195-6.018 16.195-13.525 0-7.506-7.25-13.423-16.194-13.423-1.45 0-2.847.03-4.184.33z" stroke-width="1.5" stroke-linejoin="round"/><path d="M14.52 59.826v4.85M26.69 59.652v5.024" stroke-width="2" stroke-linejoin="round"/><path d="M12.494 44.465c0 .744-.605 1.348-1.352 1.348-.746 0-1.352-.604-1.352-1.348 0-.744.606-1.347 1.352-1.347.747 0 1.352.603 1.352 1.347z" stroke-width="1.5" stroke-linejoin="round"/></g></svg>