<svg id="Layer_1" xmlns="http://www.w3.org/2000/svg" viewBox="0 0 23.1 23.1"><style>.st0{fill:#FFDC23;}</style><path class="st0" d="M11.7 0h-.2c-3.1.1-6 1.3-8.2 3.5C1.2 5.8 0 8.7 0 11.7.1 18.1 5.1 23 11.3 23h.2c3.1-.1 6-1.3 8.2-3.5s3.4-5.2 3.4-8.2C23 5 17.9 0 11.7 0zM19 18.8c-2 2-4.7 3.2-7.5 3.2h-.2C5.7 22.1 1.1 17.5 1 11.7c0-2.8 1.1-5.4 3.1-7.4s4.7-3.2 7.5-3.2h.2c5.7 0 10.2 4.6 10.3 10.3 0 2.8-1.1 5.4-3.1 7.4z"/><path class="st0" d="M11.5 13.5c.3 0 .5-.2.5-.5V6c0-.3-.2-.5-.5-.5s-.5.2-.5.5v7c0 .3.2.5.5.5zM11.5 15.5c-.6 0-1 .5-1 1s.5 1 1 1c.6 0 1-.5 1-1s-.4-1-1-1z"/></svg>