<svg id="Layer_1" xmlns="http://www.w3.org/2000/svg" viewBox="0 0 64.2 59"><style>.st0{fill:#444444;}</style><path class="st0" d="M32.9 28.2V16.9c2.4.2 4.4 1.2 5.9 2.8 0 0 .8.9 1.5.2s-.1-1.5-.1-1.5c-1.8-1.9-4.3-3-7.2-3.2v-2.9s0-.9-.9-.9-.9.9-.9.9v2.8c-5.7.3-8.3 3.9-8.3 7.2 0 4.9 4.3 6.2 8.3 7.3v12.6c-3.7-.2-6-2.2-7.3-3.6 0 0-.7-.8-1.4-.1-.6.6 0 1.4 0 1.4 2.1 2.4 5.2 3.9 8.7 4.1v2.7s0 .9.9.9.9-.9.9-.9V44c6.3-.4 8.5-4.2 8.5-7.6-.1-5.2-4.1-6.9-8.6-8.2zm-1.9-.5c-3.6-1.1-6.3-2.2-6.3-5.3 0-2.9 2.7-5.3 6.3-5.5v10.8zm1.9 14.6V30.2c3.6 1.1 6.6 2.4 6.6 6.1-.1 1.3-.6 5.5-6.6 6z"/><path class="st0" d="M8.7 45.4l1.7-6.1c.1-.4.4-.6.8-.6.4.1.6.2.7.4.1.2.1.4.1.6l-2.5 7.9c-.1.3-.3.4-.4.5-.1.1-.2.1-.4.1h-.3L.6 45.7c-.2-.1-.4-.2-.5-.4-.1-.2-.1-.4-.1-.6.1-.3.4-.6.8-.6l6.6 2-1.3-1.9c-.2-.3-.4-.8-.5-.9-7.5-14.4-2-32.3 12.3-39.9C22.2 1.2 27 0 31.7 0s9.5 1.2 13.6 3.3c.2.1.4.3.4.5.1.2 0 .4-.1.6-.1.3-.4.5-.7.5-.1 0-.2 0-.4-.1-4-2.1-8.4-3.2-12.9-3.2s-9 1.1-12.9 3.2C5.2 12 0 29 7.1 42.5c.1.1.3.6.4.7l1.2 2.2zM31.8 59c-4.5 0-9-1-13-3-.4-.2-.6-.7-.4-1.1.1-.3.4-.5.7-.5.1 0 .2 0 .4.1 3.8 1.9 8 2.8 12.3 2.8 4.5 0 9-1.1 12.9-3.2 13.2-6.9 18.5-23.6 12-36.9L55.6 15l-1.7 6.3c-.1.3-.4.6-.8.6-.5-.1-.6-.3-.7-.5-.1-.2-.1-.4-.1-.6l2.4-7.9c.1-.3.4-.6.8-.6l8 2.5c.4.1.7.6.6 1-.1.2-.2.4-.4.5-.1.1-.3.1-.4.1l-6.4-2 1.2 1.9c7.1 14.2 1.4 31.9-12.6 39.3-4.2 2.2-9 3.4-13.7 3.4z"/></svg>