<svg id="Layer_1" xmlns="http://www.w3.org/2000/svg" viewBox="0 0 41.3 38"><style>.st0{fill:#444444;}</style><path class="st0" d="M21.2 18.1v-7.2c1.5.1 2.8.8 3.8 1.8 0 0 .5.6 1 .1.4-.4-.1-1-.1-1-1.2-1.2-2.8-1.9-4.6-2.1V7.9s0-.6-.6-.6-.6.6-.6.6v1.8c-3.7.2-5.4 2.5-5.4 4.6 0 3.2 2.8 4 5.4 4.7v8.1c-2.4-.1-3.9-1.4-4.7-2.3 0 0-.4-.5-.9-.1-.4.4 0 .9 0 .9 1.4 1.5 3.4 2.5 5.6 2.6v1.7s0 .6.6.6.6-.6.6-.6v-1.7c4.1-.3 5.5-2.7 5.5-4.9-.2-3.2-2.7-4.3-5.6-5.2zm-1.3-.3c-2.3-.7-4.1-1.4-4.1-3.4 0-1.9 1.7-3.4 4.1-3.5v6.9zm1.3 9.4v-7.8c2.3.7 4.3 1.5 4.3 3.9-.2.9-.5 3.6-4.3 3.9z"/><path class="st0" d="M5.6 29.2l1.1-3.9c.1-.3.3-.4.5-.4.3.1.4.1.5.3.1.1.1.3.1.4l-1.6 5.1c-.1.2-.2.3-.3.3h-.5l-5-1.6c-.1-.1-.3-.1-.3-.3-.1-.1-.1-.2-.1-.3.1-.2.3-.4.5-.4l4.3 1.3-.8-1.2c-.1-.2-.3-.5-.3-.6-4.8-9.3-1.3-20.8 7.9-25.7C14.3.8 17.3 0 20.4 0s6.1.8 8.8 2.1c.1.1.3.2.3.3.1.1 0 .3-.1.4-.1.2-.3.3-.4.3-.1 0-.1 0-.3-.1-2.6-1.3-5.5-2-8.4-2s-5.8.7-8.3 2.1C3.4 7.7 0 18.6 4.6 27.4c.1.1.2.4.3.4l.7 1.4zM20.4 38c-2.9 0-5.8-.6-8.4-1.9-.3-.1-.4-.4-.3-.7.1-.2.3-.3.4-.3.1 0 .1 0 .3.1 2.5 1.2 5.2 1.8 7.9 1.8 2.9 0 5.8-.7 8.3-2.1 8.5-4.5 11.9-15.2 7.7-23.7l-.7-1.4-1.1 4.1c-.1.2-.3.4-.5.4-.3-.1-.4-.2-.4-.3-.1-.1-.1-.3-.1-.4L35 8.5c.1-.2.3-.4.5-.4l5.2 1.6c.3.1.4.4.4.6-.1.1-.1.3-.3.3-.1.1-.2.1-.3.1l-4.1-1.3.8 1.2c4.6 9.2.9 20.5-8.1 25.3-2.5 1.3-5.6 2.1-8.7 2.1z"/></svg>