<svg id="Layer_1" xmlns="http://www.w3.org/2000/svg" viewBox="0 0 25.8 38.8"><style>.st0{fill:#021829;}</style><path class="st0" d="M22.6 17.3V9.1C22.6 4.4 18 0 12.9 0S3.2 4.3 3.2 9.1v8.3c-2 2.3-3.2 5.3-3.2 8.5C0 33 5.8 38.8 12.9 38.8s12.9-5.8 12.9-13c0-3.2-1.2-6.2-3.2-8.5zm-9.7-16c4.3 0 8.4 3.7 8.4 7.7v7c-2.3-1.9-5.2-3.1-8.4-3.1S6.8 14.1 4.6 16V9c-.1-4 4-7.7 8.3-7.7zm0 36.1c-6.4 0-11.6-5.2-11.6-11.6s5.2-11.6 11.6-11.6 11.6 5.2 11.6 11.6-5.2 11.6-11.6 11.6z"/><path class="st0" d="M12.9 24.5c-.7 0-1.3.6-1.3 1.3 0 .5.3.9.6 1.1v4.7c0 .3.3.6.6.6s.6-.3.6-.6v-4.7c.4-.2.6-.6.6-1.1.2-.7-.4-1.3-1.1-1.3z"/></svg>