<?xml version="1.0" encoding="utf-8"?>
<!-- Generator: Adobe Illustrator 18.0.0, SVG Export Plug-In . SVG Version: 6.00 Build 0)  -->
<!DOCTYPE svg PUBLIC "-//W3C//DTD SVG 1.1//EN" "http://www.w3.org/Graphics/SVG/1.1/DTD/svg11.dtd">
<svg version="1.1" id="Layer_1" xmlns="http://www.w3.org/2000/svg" xmlns:xlink="http://www.w3.org/1999/xlink" x="0px" y="0px"
	 viewBox="0 0 100 100" enable-background="new 0 0 100 100" xml:space="preserve">
<g>
	<circle fill="#99D6ED" cx="61" cy="3052" r="50"/>
	<rect x="25" y="3074" fill="#FFFFFF" width="73" height="3"/>
	<rect x="32" y="3036" fill="#DDD8DB" width="58" height="32"/>
	<rect x="27" y="3071" fill="#DDD8DB" width="68" height="3"/>
	<rect x="28" y="3068" fill="#FFFFFF" width="64" height="3"/>
	<rect x="35" y="3032" fill="#FFFFFF" width="6" height="36"/>
	<rect x="44" y="3032" fill="#FFFFFF" width="6" height="36"/>
	<rect x="72" y="3032" fill="#FFFFFF" width="6" height="36"/>
	<rect x="81" y="3032" fill="#FFFFFF" width="6" height="36"/>
	<g>
		<defs>
			<circle id="SVGID_1_" cx="61" cy="3052" r="50"/>
		</defs>
		<clipPath id="SVGID_2_">
			<use xlink:href="#SVGID_1_"  overflow="visible"/>
		</clipPath>
		<rect x="10.9" y="3077" clip-path="url(#SVGID_2_)" fill="#273C4A" width="100" height="25"/>
	</g>
	<path fill="#FFFFFF" d="M91,3038H30c-0.3,0-0.6-0.1-0.8-0.4l-2-2.7c-0.4-0.5-0.2-1.1,0.3-1.5l32.5-20.1c0.3-0.2,0.7-0.2,1.1,0
		l32.5,20.1c0.5,0.3,0.6,1,0.3,1.5l-2,2.7C91.7,3037.9,91.4,3038,91,3038z"/>
	<circle fill="#008BC1" cx="93" cy="3084" r="18"/>
	<rect x="55" y="3048" fill="#C2C0C5" width="12" height="20"/>
	<path fill="#FFFFFF" d="M104,3078v12H82v-12H104 M105,3077H81v14h24V3077L105,3077z"/>
	<path fill="#FFFFFF" d="M100.5,3080c0.8,0,1.5,0.7,1.5,1.5v5c0,0.8-0.7,1.5-1.5,1.5h-15c-0.8,0-1.5-0.7-1.5-1.5v-5
		c0-0.8,0.7-1.5,1.5-1.5H100.5 M100.5,3079h-15c-1.4,0-2.5,1.1-2.5,2.5v5c0,1.4,1.1,2.5,2.5,2.5h15c1.4,0,2.5-1.1,2.5-2.5v-5
		C103,3080.1,101.9,3079,100.5,3079L100.5,3079z"/>
	<path fill="#FFFFFF" d="M93,3082c1.1,0,2,0.9,2,2s-0.9,2-2,2s-2-0.9-2-2S91.9,3082,93,3082 M93,3081c-1.7,0-3,1.3-3,3s1.3,3,3,3
		c1.7,0,3-1.3,3-3S94.7,3081,93,3081L93,3081z"/>
	<circle fill="#FFFFFF" cx="99" cy="3084" r="1"/>
	<circle fill="#FFFFFF" cx="87" cy="3084" r="1"/>
</g>
<g>
	<circle fill="#99D6ED" cx="61" cy="3052" r="50"/>
	<rect x="25" y="3074" fill="#FFFFFF" width="73" height="3"/>
	<rect x="32" y="3036" fill="#DDD8DB" width="58" height="32"/>
	<rect x="27" y="3071" fill="#DDD8DB" width="68" height="3"/>
	<rect x="28" y="3068" fill="#FFFFFF" width="64" height="3"/>
	<rect x="35" y="3032" fill="#FFFFFF" width="6" height="36"/>
	<rect x="44" y="3032" fill="#FFFFFF" width="6" height="36"/>
	<rect x="72" y="3032" fill="#FFFFFF" width="6" height="36"/>
	<rect x="81" y="3032" fill="#FFFFFF" width="6" height="36"/>
	<g>
		<defs>
			<circle id="SVGID_3_" cx="61" cy="3052" r="50"/>
		</defs>
		<clipPath id="SVGID_4_">
			<use xlink:href="#SVGID_3_"  overflow="visible"/>
		</clipPath>
		<rect x="10.9" y="3077" clip-path="url(#SVGID_4_)" fill="#273C4A" width="100" height="25"/>
	</g>
	<path fill="#FFFFFF" d="M91,3038H30c-0.3,0-0.6-0.1-0.8-0.4l-2-2.7c-0.4-0.5-0.2-1.1,0.3-1.5l32.5-20.1c0.3-0.2,0.7-0.2,1.1,0
		l32.5,20.1c0.5,0.3,0.6,1,0.3,1.5l-2,2.7C91.7,3037.9,91.4,3038,91,3038z"/>
	<circle fill="#008BC1" cx="93" cy="3084" r="18"/>
	<rect x="55" y="3048" fill="#C2C0C5" width="12" height="20"/>
	<g>
		<path fill="#FFFFFF" d="M104,3076v12H82v-12H104 M105,3075H81v14h24V3075L105,3075z"/>
		<path fill="#FFFFFF" d="M93,3080c1.1,0,2,0.9,2,2s-0.9,2-2,2s-2-0.9-2-2S91.9,3080,93,3080 M93,3079c-1.7,0-3,1.3-3,3s1.3,3,3,3
			s3-1.3,3-3S94.7,3079,93,3079L93,3079z"/>
		<circle fill="#FFFFFF" cx="99" cy="3082" r="1"/>
		<circle fill="#FFFFFF" cx="87" cy="3082" r="1"/>
	</g>
	<polygon fill="#FFFFFF" points="101,3093 81,3093 81,3092 102,3092 	"/>
	<path fill="#008BC1" d="M103,3086l3,3v1h-4v-1l-2-2h3C103,3087,103,3086,103,3086z"/>
	<g>
		<path fill="#FFFFFF" d="M81,3091h22.9l-1.5,1.8c-0.2,0.2-0.2,0.5,0,0.7s0.5,0.2,0.7,0l2.5-2.7c0,0,0,0,0,0c0,0,0.1-0.1,0.1-0.1
			c0,0,0,0,0,0c0-0.1,0-0.1,0-0.2s0-0.1,0-0.2c0,0,0,0,0,0c0,0-0.1-0.1-0.1-0.1c0,0,0,0,0,0l-2.5-2.7c-0.1-0.1-0.2-0.1-0.3-0.1
			c-0.1,0-0.3,0.1-0.4,0.2c-0.2,0.2-0.2,0.5,0,0.7l1.5,1.8H81V3091z"/>
	</g>
	<path fill="#FFFFFF" d="M100.5,3078c0.8,0,1.5,0.7,1.5,1.5v5c0,0.8-0.7,1.5-1.5,1.5h-15c-0.8,0-1.5-0.7-1.5-1.5v-5
		c0-0.8,0.7-1.5,1.5-1.5H100.5 M100.5,3077h-15c-1.4,0-2.5,1.1-2.5,2.5v5c0,1.4,1.1,2.5,2.5,2.5h15c1.4,0,2.5-1.1,2.5-2.5v-5
		C103,3078.1,101.9,3077,100.5,3077L100.5,3077z"/>
</g>
<g>
	<circle fill="#99D6ED" cx="61" cy="3052" r="50"/>
	<rect x="25" y="3074" fill="#FFFFFF" width="73" height="3"/>
	<rect x="32" y="3036" fill="#DDD8DB" width="58" height="32"/>
	<rect x="27" y="3071" fill="#DDD8DB" width="68" height="3"/>
	<rect x="28" y="3068" fill="#FFFFFF" width="64" height="3"/>
	<rect x="35" y="3032" fill="#FFFFFF" width="6" height="36"/>
	<rect x="44" y="3032" fill="#FFFFFF" width="6" height="36"/>
	<rect x="72" y="3032" fill="#FFFFFF" width="6" height="36"/>
	<rect x="81" y="3032" fill="#FFFFFF" width="6" height="36"/>
	<g>
		<defs>
			<circle id="SVGID_5_" cx="61" cy="3052" r="50"/>
		</defs>
		<clipPath id="SVGID_6_">
			<use xlink:href="#SVGID_5_"  overflow="visible"/>
		</clipPath>
		<rect x="10.9" y="3077" clip-path="url(#SVGID_6_)" fill="#273C4A" width="100" height="25"/>
	</g>
	<path fill="#FFFFFF" d="M91,3038H30c-0.3,0-0.6-0.1-0.8-0.4l-2-2.7c-0.4-0.5-0.2-1.1,0.3-1.5l32.5-20.1c0.3-0.2,0.7-0.2,1.1,0
		l32.5,20.1c0.5,0.3,0.6,1,0.3,1.5l-2,2.7C91.7,3037.9,91.4,3038,91,3038z"/>
	<circle fill="#008BC1" cx="93" cy="3084" r="18"/>
	<rect x="55" y="3048" fill="#C2C0C5" width="12" height="20"/>
	<g>
		<path fill="#FFFFFF" d="M93,3073c6.1,0,11,4.9,11,11s-4.9,11-11,11s-11-4.9-11-11S86.9,3073,93,3073 M93,3072c-6.6,0-12,5.4-12,12
			s5.4,12,12,12s12-5.4,12-12S99.6,3072,93,3072L93,3072z"/>
	</g>
</g>
<circle fill="#DDD8DB" cx="61" cy="3027" r="5"/>
<line fill="none" stroke="#FFFFFF" stroke-linecap="round" stroke-linejoin="round" stroke-miterlimit="10" x1="93" y1="3077" x2="93" y2="3091"/>
<g>
	<g>
		<g>
			<path fill="#FFFFFF" d="M93,3089.9c-1.5,0-2.9-0.5-3.9-1.4c-0.1-0.1-0.2-0.2-0.2-0.4c0-0.2,0.1-0.3,0.2-0.4
				c0.1-0.1,0.3-0.2,0.4-0.2c0.2,0,0.3,0.1,0.3,0.1c0.6,0.5,1.7,1.2,3.2,1.2c2.1,0,2.8-1.1,2.8-2.1c0-1.5-1.5-1.9-3.1-2.3
				c-1.8-0.5-3.7-1-3.7-3.2c0-1.8,1.6-3.1,3.8-3.1c1.4,0,2.6,0.4,3.6,1.2c0.1,0,0.1,0.2,0.1,0.4c0,0.1,0,0.3-0.2,0.5
				c-0.1,0.1-0.3,0.2-0.4,0.2c-0.1,0-0.2,0-0.2-0.1c-0.8-0.7-1.8-1-3-1c-1.4,0-2.5,0.8-2.5,1.9c0,1.2,1.3,1.6,2.8,2
				c1.9,0.5,4,1.1,4,3.5C97.1,3088.2,96,3089.9,93,3089.9z"/>
		</g>
	</g>
</g>
<g>
	<circle fill="#99D6ED" cx="61" cy="3052" r="50"/>
	<rect x="25" y="3074" fill="#FFFFFF" width="73" height="3"/>
	<rect x="32" y="3036" fill="#DDD8DB" width="58" height="32"/>
	<rect x="27" y="3071" fill="#DDD8DB" width="68" height="3"/>
	<rect x="28" y="3068" fill="#FFFFFF" width="64" height="3"/>
	<rect x="35" y="3032" fill="#FFFFFF" width="6" height="36"/>
	<rect x="44" y="3032" fill="#FFFFFF" width="6" height="36"/>
	<rect x="72" y="3032" fill="#FFFFFF" width="6" height="36"/>
	<rect x="81" y="3032" fill="#FFFFFF" width="6" height="36"/>
	<g>
		<defs>
			<circle id="SVGID_7_" cx="61" cy="3052" r="50"/>
		</defs>
		<clipPath id="SVGID_8_">
			<use xlink:href="#SVGID_7_"  overflow="visible"/>
		</clipPath>
		<rect x="10.9" y="3077" clip-path="url(#SVGID_8_)" fill="#273C4A" width="100" height="25"/>
	</g>
	<path fill="#FFFFFF" d="M91,3038H30c-0.3,0-0.6-0.1-0.8-0.4l-2-2.7c-0.4-0.5-0.2-1.1,0.3-1.5l32.5-20.1c0.3-0.2,0.7-0.2,1.1,0
		l32.5,20.1c0.5,0.3,0.6,1,0.3,1.5l-2,2.7C91.7,3037.9,91.4,3038,91,3038z"/>
	<circle fill="#008BC1" cx="93" cy="3084" r="18"/>
	<rect x="55" y="3048" fill="#C2C0C5" width="12" height="20"/>
	<path fill="#FFFFFF" d="M104,3078v12H82v-12H104 M105,3077H81v14h24V3077L105,3077z"/>
	<path fill="#FFFFFF" d="M100.5,3080c0.8,0,1.5,0.7,1.5,1.5v5c0,0.8-0.7,1.5-1.5,1.5h-15c-0.8,0-1.5-0.7-1.5-1.5v-5
		c0-0.8,0.7-1.5,1.5-1.5H100.5 M100.5,3079h-15c-1.4,0-2.5,1.1-2.5,2.5v5c0,1.4,1.1,2.5,2.5,2.5h15c1.4,0,2.5-1.1,2.5-2.5v-5
		C103,3080.1,101.9,3079,100.5,3079L100.5,3079z"/>
	<path fill="#FFFFFF" d="M93,3082c1.1,0,2,0.9,2,2s-0.9,2-2,2s-2-0.9-2-2S91.9,3082,93,3082 M93,3081c-1.7,0-3,1.3-3,3s1.3,3,3,3
		c1.7,0,3-1.3,3-3S94.7,3081,93,3081L93,3081z"/>
	<circle fill="#FFFFFF" cx="99" cy="3084" r="1"/>
	<circle fill="#FFFFFF" cx="87" cy="3084" r="1"/>
</g>
<g>
	<circle fill="#99D6ED" cx="61" cy="3052" r="50"/>
	<rect x="25" y="3074" fill="#FFFFFF" width="73" height="3"/>
	<rect x="32" y="3036" fill="#DDD8DB" width="58" height="32"/>
	<rect x="27" y="3071" fill="#DDD8DB" width="68" height="3"/>
	<rect x="28" y="3068" fill="#FFFFFF" width="64" height="3"/>
	<rect x="35" y="3032" fill="#FFFFFF" width="6" height="36"/>
	<rect x="44" y="3032" fill="#FFFFFF" width="6" height="36"/>
	<rect x="72" y="3032" fill="#FFFFFF" width="6" height="36"/>
	<rect x="81" y="3032" fill="#FFFFFF" width="6" height="36"/>
	<g>
		<defs>
			<circle id="SVGID_9_" cx="61" cy="3052" r="50"/>
		</defs>
		<clipPath id="SVGID_10_">
			<use xlink:href="#SVGID_9_"  overflow="visible"/>
		</clipPath>
		<rect x="10.9" y="3077" clip-path="url(#SVGID_10_)" fill="#273C4A" width="100" height="25"/>
	</g>
	<path fill="#FFFFFF" d="M91,3038H30c-0.3,0-0.6-0.1-0.8-0.4l-2-2.7c-0.4-0.5-0.2-1.1,0.3-1.5l32.5-20.1c0.3-0.2,0.7-0.2,1.1,0
		l32.5,20.1c0.5,0.3,0.6,1,0.3,1.5l-2,2.7C91.7,3037.9,91.4,3038,91,3038z"/>
	<circle fill="#008BC1" cx="93" cy="3084" r="18"/>
	<rect x="55" y="3048" fill="#C2C0C5" width="12" height="20"/>
	<g>
		<path fill="#FFFFFF" d="M104,3076v12H82v-12H104 M105,3075H81v14h24V3075L105,3075z"/>
		<path fill="#FFFFFF" d="M93,3080c1.1,0,2,0.9,2,2s-0.9,2-2,2s-2-0.9-2-2S91.9,3080,93,3080 M93,3079c-1.7,0-3,1.3-3,3s1.3,3,3,3
			s3-1.3,3-3S94.7,3079,93,3079L93,3079z"/>
		<circle fill="#FFFFFF" cx="99" cy="3082" r="1"/>
		<circle fill="#FFFFFF" cx="87" cy="3082" r="1"/>
	</g>
	<polygon fill="#FFFFFF" points="101,3093 81,3093 81,3092 102,3092 	"/>
	<path fill="#008BC1" d="M103,3086l3,3v1h-4v-1l-2-2h3C103,3087,103,3086,103,3086z"/>
	<g>
		<path fill="#FFFFFF" d="M81,3091h22.9l-1.5,1.8c-0.2,0.2-0.2,0.5,0,0.7s0.5,0.2,0.7,0l2.5-2.7c0,0,0,0,0,0c0,0,0.1-0.1,0.1-0.1
			c0,0,0,0,0,0c0-0.1,0-0.1,0-0.2s0-0.1,0-0.2c0,0,0,0,0,0c0,0-0.1-0.1-0.1-0.1c0,0,0,0,0,0l-2.5-2.7c-0.1-0.1-0.2-0.1-0.3-0.1
			c-0.1,0-0.3,0.1-0.4,0.2c-0.2,0.2-0.2,0.5,0,0.7l1.5,1.8H81V3091z"/>
	</g>
	<path fill="#FFFFFF" d="M100.5,3078c0.8,0,1.5,0.7,1.5,1.5v5c0,0.8-0.7,1.5-1.5,1.5h-15c-0.8,0-1.5-0.7-1.5-1.5v-5
		c0-0.8,0.7-1.5,1.5-1.5H100.5 M100.5,3077h-15c-1.4,0-2.5,1.1-2.5,2.5v5c0,1.4,1.1,2.5,2.5,2.5h15c1.4,0,2.5-1.1,2.5-2.5v-5
		C103,3078.1,101.9,3077,100.5,3077L100.5,3077z"/>
</g>
<g>
	<circle fill="#99D6ED" cx="61" cy="3052" r="50"/>
	<rect x="25" y="3074" fill="#FFFFFF" width="73" height="3"/>
	<rect x="32" y="3036" fill="#DDD8DB" width="58" height="32"/>
	<rect x="27" y="3071" fill="#DDD8DB" width="68" height="3"/>
	<rect x="28" y="3068" fill="#FFFFFF" width="64" height="3"/>
	<rect x="35" y="3032" fill="#FFFFFF" width="6" height="36"/>
	<rect x="44" y="3032" fill="#FFFFFF" width="6" height="36"/>
	<rect x="72" y="3032" fill="#FFFFFF" width="6" height="36"/>
	<rect x="81" y="3032" fill="#FFFFFF" width="6" height="36"/>
	<g>
		<defs>
			<circle id="SVGID_11_" cx="61" cy="3052" r="50"/>
		</defs>
		<clipPath id="SVGID_12_">
			<use xlink:href="#SVGID_11_"  overflow="visible"/>
		</clipPath>
		<rect x="10.9" y="3077" clip-path="url(#SVGID_12_)" fill="#273C4A" width="100" height="25"/>
	</g>
	<path fill="#FFFFFF" d="M91,3038H30c-0.3,0-0.6-0.1-0.8-0.4l-2-2.7c-0.4-0.5-0.2-1.1,0.3-1.5l32.5-20.1c0.3-0.2,0.7-0.2,1.1,0
		l32.5,20.1c0.5,0.3,0.6,1,0.3,1.5l-2,2.7C91.7,3037.9,91.4,3038,91,3038z"/>
	<circle fill="#008BC1" cx="93" cy="3084" r="18"/>
	<rect x="55" y="3048" fill="#C2C0C5" width="12" height="20"/>
	<g>
		<path fill="#FFFFFF" d="M93,3073c6.1,0,11,4.9,11,11s-4.9,11-11,11s-11-4.9-11-11S86.9,3073,93,3073 M93,3072c-6.6,0-12,5.4-12,12
			s5.4,12,12,12s12-5.4,12-12S99.6,3072,93,3072L93,3072z"/>
	</g>
</g>
<circle fill="#DDD8DB" cx="61" cy="3027" r="5"/>
<line fill="none" stroke="#FFFFFF" stroke-linecap="round" stroke-linejoin="round" stroke-miterlimit="10" x1="93" y1="3077" x2="93" y2="3091"/>
<g>
	<g>
		<g>
			<path fill="#FFFFFF" d="M93,3089.9c-1.5,0-2.9-0.5-3.9-1.4c-0.1-0.1-0.2-0.2-0.2-0.4c0-0.2,0.1-0.3,0.2-0.4
				c0.1-0.1,0.3-0.2,0.4-0.2c0.2,0,0.3,0.1,0.3,0.1c0.6,0.5,1.7,1.2,3.2,1.2c2.1,0,2.8-1.1,2.8-2.1c0-1.5-1.5-1.9-3.1-2.3
				c-1.8-0.5-3.7-1-3.7-3.2c0-1.8,1.6-3.1,3.8-3.1c1.4,0,2.6,0.4,3.6,1.2c0.1,0,0.1,0.2,0.1,0.4c0,0.1,0,0.3-0.2,0.5
				c-0.1,0.1-0.3,0.2-0.4,0.2c-0.1,0-0.2,0-0.2-0.1c-0.8-0.7-1.8-1-3-1c-1.4,0-2.5,0.8-2.5,1.9c0,1.2,1.3,1.6,2.8,2
				c1.9,0.5,4,1.1,4,3.5C97.1,3088.2,96,3089.9,93,3089.9z"/>
		</g>
	</g>
</g>
<g>
	<circle fill="#99D6ED" cx="61" cy="3052" r="50"/>
	<rect x="25" y="3074" fill="#FFFFFF" width="73" height="3"/>
	<rect x="32" y="3036" fill="#DDD8DB" width="58" height="32"/>
	<rect x="27" y="3071" fill="#DDD8DB" width="68" height="3"/>
	<rect x="28" y="3068" fill="#FFFFFF" width="64" height="3"/>
	<rect x="35" y="3032" fill="#FFFFFF" width="6" height="36"/>
	<rect x="44" y="3032" fill="#FFFFFF" width="6" height="36"/>
	<rect x="72" y="3032" fill="#FFFFFF" width="6" height="36"/>
	<rect x="81" y="3032" fill="#FFFFFF" width="6" height="36"/>
	<g>
		<defs>
			<circle id="SVGID_13_" cx="61" cy="3052" r="50"/>
		</defs>
		<clipPath id="SVGID_14_">
			<use xlink:href="#SVGID_13_"  overflow="visible"/>
		</clipPath>
		<rect x="10.9" y="3077" clip-path="url(#SVGID_14_)" fill="#273C4A" width="100" height="25"/>
	</g>
	<path fill="#FFFFFF" d="M91,3038H30c-0.3,0-0.6-0.1-0.8-0.4l-2-2.7c-0.4-0.5-0.2-1.1,0.3-1.5l32.5-20.1c0.3-0.2,0.7-0.2,1.1,0
		l32.5,20.1c0.5,0.3,0.6,1,0.3,1.5l-2,2.7C91.7,3037.9,91.4,3038,91,3038z"/>
	<circle fill="#008BC1" cx="93" cy="3084" r="18"/>
	<rect x="55" y="3048" fill="#C2C0C5" width="12" height="20"/>
	<path fill="#FFFFFF" d="M104,3078v12H82v-12H104 M105,3077H81v14h24V3077L105,3077z"/>
	<path fill="#FFFFFF" d="M100.5,3080c0.8,0,1.5,0.7,1.5,1.5v5c0,0.8-0.7,1.5-1.5,1.5h-15c-0.8,0-1.5-0.7-1.5-1.5v-5
		c0-0.8,0.7-1.5,1.5-1.5H100.5 M100.5,3079h-15c-1.4,0-2.5,1.1-2.5,2.5v5c0,1.4,1.1,2.5,2.5,2.5h15c1.4,0,2.5-1.1,2.5-2.5v-5
		C103,3080.1,101.9,3079,100.5,3079L100.5,3079z"/>
	<path fill="#FFFFFF" d="M93,3082c1.1,0,2,0.9,2,2s-0.9,2-2,2s-2-0.9-2-2S91.9,3082,93,3082 M93,3081c-1.7,0-3,1.3-3,3s1.3,3,3,3
		c1.7,0,3-1.3,3-3S94.7,3081,93,3081L93,3081z"/>
	<circle fill="#FFFFFF" cx="99" cy="3084" r="1"/>
	<circle fill="#FFFFFF" cx="87" cy="3084" r="1"/>
</g>
<g>
	<circle fill="#99D6ED" cx="61" cy="3052" r="50"/>
	<rect x="25" y="3074" fill="#FFFFFF" width="73" height="3"/>
	<rect x="32" y="3036" fill="#DDD8DB" width="58" height="32"/>
	<rect x="27" y="3071" fill="#DDD8DB" width="68" height="3"/>
	<rect x="28" y="3068" fill="#FFFFFF" width="64" height="3"/>
	<rect x="35" y="3032" fill="#FFFFFF" width="6" height="36"/>
	<rect x="44" y="3032" fill="#FFFFFF" width="6" height="36"/>
	<rect x="72" y="3032" fill="#FFFFFF" width="6" height="36"/>
	<rect x="81" y="3032" fill="#FFFFFF" width="6" height="36"/>
	<g>
		<defs>
			<circle id="SVGID_15_" cx="61" cy="3052" r="50"/>
		</defs>
		<clipPath id="SVGID_16_">
			<use xlink:href="#SVGID_15_"  overflow="visible"/>
		</clipPath>
		<rect x="10.9" y="3077" clip-path="url(#SVGID_16_)" fill="#273C4A" width="100" height="25"/>
	</g>
	<path fill="#FFFFFF" d="M91,3038H30c-0.3,0-0.6-0.1-0.8-0.4l-2-2.7c-0.4-0.5-0.2-1.1,0.3-1.5l32.5-20.1c0.3-0.2,0.7-0.2,1.1,0
		l32.5,20.1c0.5,0.3,0.6,1,0.3,1.5l-2,2.7C91.7,3037.9,91.4,3038,91,3038z"/>
	<circle fill="#008BC1" cx="93" cy="3084" r="18"/>
	<rect x="55" y="3048" fill="#C2C0C5" width="12" height="20"/>
	<g>
		<path fill="#FFFFFF" d="M104,3076v12H82v-12H104 M105,3075H81v14h24V3075L105,3075z"/>
		<path fill="#FFFFFF" d="M93,3080c1.1,0,2,0.9,2,2s-0.9,2-2,2s-2-0.9-2-2S91.9,3080,93,3080 M93,3079c-1.7,0-3,1.3-3,3s1.3,3,3,3
			s3-1.3,3-3S94.7,3079,93,3079L93,3079z"/>
		<circle fill="#FFFFFF" cx="99" cy="3082" r="1"/>
		<circle fill="#FFFFFF" cx="87" cy="3082" r="1"/>
	</g>
	<polygon fill="#FFFFFF" points="101,3093 81,3093 81,3092 102,3092 	"/>
	<path fill="#008BC1" d="M103,3086l3,3v1h-4v-1l-2-2h3C103,3087,103,3086,103,3086z"/>
	<g>
		<path fill="#FFFFFF" d="M81,3091h22.9l-1.5,1.8c-0.2,0.2-0.2,0.5,0,0.7s0.5,0.2,0.7,0l2.5-2.7c0,0,0,0,0,0c0,0,0.1-0.1,0.1-0.1
			c0,0,0,0,0,0c0-0.1,0-0.1,0-0.2s0-0.1,0-0.2c0,0,0,0,0,0c0,0-0.1-0.1-0.1-0.1c0,0,0,0,0,0l-2.5-2.7c-0.1-0.1-0.2-0.1-0.3-0.1
			c-0.1,0-0.3,0.1-0.4,0.2c-0.2,0.2-0.2,0.5,0,0.7l1.5,1.8H81V3091z"/>
	</g>
	<path fill="#FFFFFF" d="M100.5,3078c0.8,0,1.5,0.7,1.5,1.5v5c0,0.8-0.7,1.5-1.5,1.5h-15c-0.8,0-1.5-0.7-1.5-1.5v-5
		c0-0.8,0.7-1.5,1.5-1.5H100.5 M100.5,3077h-15c-1.4,0-2.5,1.1-2.5,2.5v5c0,1.4,1.1,2.5,2.5,2.5h15c1.4,0,2.5-1.1,2.5-2.5v-5
		C103,3078.1,101.9,3077,100.5,3077L100.5,3077z"/>
</g>
<g>
	<circle fill="#99D6ED" cx="61" cy="3052" r="50"/>
	<rect x="25" y="3074" fill="#FFFFFF" width="73" height="3"/>
	<rect x="32" y="3036" fill="#DDD8DB" width="58" height="32"/>
	<rect x="27" y="3071" fill="#DDD8DB" width="68" height="3"/>
	<rect x="28" y="3068" fill="#FFFFFF" width="64" height="3"/>
	<rect x="35" y="3032" fill="#FFFFFF" width="6" height="36"/>
	<rect x="44" y="3032" fill="#FFFFFF" width="6" height="36"/>
	<rect x="72" y="3032" fill="#FFFFFF" width="6" height="36"/>
	<rect x="81" y="3032" fill="#FFFFFF" width="6" height="36"/>
	<g>
		<defs>
			<circle id="SVGID_17_" cx="61" cy="3052" r="50"/>
		</defs>
		<clipPath id="SVGID_18_">
			<use xlink:href="#SVGID_17_"  overflow="visible"/>
		</clipPath>
		<rect x="10.9" y="3077" clip-path="url(#SVGID_18_)" fill="#273C4A" width="100" height="25"/>
	</g>
	<path fill="#FFFFFF" d="M91,3038H30c-0.3,0-0.6-0.1-0.8-0.4l-2-2.7c-0.4-0.5-0.2-1.1,0.3-1.5l32.5-20.1c0.3-0.2,0.7-0.2,1.1,0
		l32.5,20.1c0.5,0.3,0.6,1,0.3,1.5l-2,2.7C91.7,3037.9,91.4,3038,91,3038z"/>
	<circle fill="#008BC1" cx="93" cy="3084" r="18"/>
	<rect x="55" y="3048" fill="#C2C0C5" width="12" height="20"/>
	<g>
		<path fill="#FFFFFF" d="M93,3073c6.1,0,11,4.9,11,11s-4.9,11-11,11s-11-4.9-11-11S86.9,3073,93,3073 M93,3072c-6.6,0-12,5.4-12,12
			s5.4,12,12,12s12-5.4,12-12S99.6,3072,93,3072L93,3072z"/>
	</g>
</g>
<circle fill="#DDD8DB" cx="61" cy="3027" r="5"/>
<line fill="none" stroke="#FFFFFF" stroke-linecap="round" stroke-linejoin="round" stroke-miterlimit="10" x1="93" y1="3077" x2="93" y2="3091"/>
<g>
	<g>
		<g>
			<path fill="#FFFFFF" d="M93,3089.9c-1.5,0-2.9-0.5-3.9-1.4c-0.1-0.1-0.2-0.2-0.2-0.4c0-0.2,0.1-0.3,0.2-0.4
				c0.1-0.1,0.3-0.2,0.4-0.2c0.2,0,0.3,0.1,0.3,0.1c0.6,0.5,1.7,1.2,3.2,1.2c2.1,0,2.8-1.1,2.8-2.1c0-1.5-1.5-1.9-3.1-2.3
				c-1.8-0.5-3.7-1-3.7-3.2c0-1.8,1.6-3.1,3.8-3.1c1.4,0,2.6,0.4,3.6,1.2c0.1,0,0.1,0.2,0.1,0.4c0,0.1,0,0.3-0.2,0.5
				c-0.1,0.1-0.3,0.2-0.4,0.2c-0.1,0-0.2,0-0.2-0.1c-0.8-0.7-1.8-1-3-1c-1.4,0-2.5,0.8-2.5,1.9c0,1.2,1.3,1.6,2.8,2
				c1.9,0.5,4,1.1,4,3.5C97.1,3088.2,96,3089.9,93,3089.9z"/>
		</g>
	</g>
</g>
<g>
	<circle fill="#99D6ED" cx="61" cy="3052" r="50"/>
	<rect x="25" y="3074" fill="#FFFFFF" width="73" height="3"/>
	<rect x="32" y="3036" fill="#DDD8DB" width="58" height="32"/>
	<rect x="27" y="3071" fill="#DDD8DB" width="68" height="3"/>
	<rect x="28" y="3068" fill="#FFFFFF" width="64" height="3"/>
	<rect x="35" y="3032" fill="#FFFFFF" width="6" height="36"/>
	<rect x="44" y="3032" fill="#FFFFFF" width="6" height="36"/>
	<rect x="72" y="3032" fill="#FFFFFF" width="6" height="36"/>
	<rect x="81" y="3032" fill="#FFFFFF" width="6" height="36"/>
	<g>
		<defs>
			<circle id="SVGID_19_" cx="61" cy="3052" r="50"/>
		</defs>
		<clipPath id="SVGID_20_">
			<use xlink:href="#SVGID_19_"  overflow="visible"/>
		</clipPath>
		<rect x="10.9" y="3077" clip-path="url(#SVGID_20_)" fill="#273C4A" width="100" height="25"/>
	</g>
	<path fill="#FFFFFF" d="M91,3038H30c-0.3,0-0.6-0.1-0.8-0.4l-2-2.7c-0.4-0.5-0.2-1.1,0.3-1.5l32.5-20.1c0.3-0.2,0.7-0.2,1.1,0
		l32.5,20.1c0.5,0.3,0.6,1,0.3,1.5l-2,2.7C91.7,3037.9,91.4,3038,91,3038z"/>
	<circle fill="#008BC1" cx="93" cy="3084" r="18"/>
	<rect x="55" y="3048" fill="#C2C0C5" width="12" height="20"/>
	<path fill="#FFFFFF" d="M104,3078v12H82v-12H104 M105,3077H81v14h24V3077L105,3077z"/>
	<path fill="#FFFFFF" d="M100.5,3080c0.8,0,1.5,0.7,1.5,1.5v5c0,0.8-0.7,1.5-1.5,1.5h-15c-0.8,0-1.5-0.7-1.5-1.5v-5
		c0-0.8,0.7-1.5,1.5-1.5H100.5 M100.5,3079h-15c-1.4,0-2.5,1.1-2.5,2.5v5c0,1.4,1.1,2.5,2.5,2.5h15c1.4,0,2.5-1.1,2.5-2.5v-5
		C103,3080.1,101.9,3079,100.5,3079L100.5,3079z"/>
	<path fill="#FFFFFF" d="M93,3082c1.1,0,2,0.9,2,2s-0.9,2-2,2s-2-0.9-2-2S91.9,3082,93,3082 M93,3081c-1.7,0-3,1.3-3,3s1.3,3,3,3
		c1.7,0,3-1.3,3-3S94.7,3081,93,3081L93,3081z"/>
	<circle fill="#FFFFFF" cx="99" cy="3084" r="1"/>
	<circle fill="#FFFFFF" cx="87" cy="3084" r="1"/>
</g>
<g>
	<circle fill="#99D6ED" cx="61" cy="3052" r="50"/>
	<rect x="25" y="3074" fill="#FFFFFF" width="73" height="3"/>
	<rect x="32" y="3036" fill="#DDD8DB" width="58" height="32"/>
	<rect x="27" y="3071" fill="#DDD8DB" width="68" height="3"/>
	<rect x="28" y="3068" fill="#FFFFFF" width="64" height="3"/>
	<rect x="35" y="3032" fill="#FFFFFF" width="6" height="36"/>
	<rect x="44" y="3032" fill="#FFFFFF" width="6" height="36"/>
	<rect x="72" y="3032" fill="#FFFFFF" width="6" height="36"/>
	<rect x="81" y="3032" fill="#FFFFFF" width="6" height="36"/>
	<g>
		<defs>
			<circle id="SVGID_21_" cx="61" cy="3052" r="50"/>
		</defs>
		<clipPath id="SVGID_22_">
			<use xlink:href="#SVGID_21_"  overflow="visible"/>
		</clipPath>
		<rect x="10.9" y="3077" clip-path="url(#SVGID_22_)" fill="#273C4A" width="100" height="25"/>
	</g>
	<path fill="#FFFFFF" d="M91,3038H30c-0.3,0-0.6-0.1-0.8-0.4l-2-2.7c-0.4-0.5-0.2-1.1,0.3-1.5l32.5-20.1c0.3-0.2,0.7-0.2,1.1,0
		l32.5,20.1c0.5,0.3,0.6,1,0.3,1.5l-2,2.7C91.7,3037.9,91.4,3038,91,3038z"/>
	<circle fill="#008BC1" cx="93" cy="3084" r="18"/>
	<rect x="55" y="3048" fill="#C2C0C5" width="12" height="20"/>
	<g>
		<path fill="#FFFFFF" d="M104,3076v12H82v-12H104 M105,3075H81v14h24V3075L105,3075z"/>
		<path fill="#FFFFFF" d="M93,3080c1.1,0,2,0.9,2,2s-0.9,2-2,2s-2-0.9-2-2S91.9,3080,93,3080 M93,3079c-1.7,0-3,1.3-3,3s1.3,3,3,3
			s3-1.3,3-3S94.7,3079,93,3079L93,3079z"/>
		<circle fill="#FFFFFF" cx="99" cy="3082" r="1"/>
		<circle fill="#FFFFFF" cx="87" cy="3082" r="1"/>
	</g>
	<polygon fill="#FFFFFF" points="101,3093 81,3093 81,3092 102,3092 	"/>
	<path fill="#008BC1" d="M103,3086l3,3v1h-4v-1l-2-2h3C103,3087,103,3086,103,3086z"/>
	<g>
		<path fill="#FFFFFF" d="M81,3091h22.9l-1.5,1.8c-0.2,0.2-0.2,0.5,0,0.7s0.5,0.2,0.7,0l2.5-2.7c0,0,0,0,0,0c0,0,0.1-0.1,0.1-0.1
			c0,0,0,0,0,0c0-0.1,0-0.1,0-0.2s0-0.1,0-0.2c0,0,0,0,0,0c0,0-0.1-0.1-0.1-0.1c0,0,0,0,0,0l-2.5-2.7c-0.1-0.1-0.2-0.1-0.3-0.1
			c-0.1,0-0.3,0.1-0.4,0.2c-0.2,0.2-0.2,0.5,0,0.7l1.5,1.8H81V3091z"/>
	</g>
	<path fill="#FFFFFF" d="M100.5,3078c0.8,0,1.5,0.7,1.5,1.5v5c0,0.8-0.7,1.5-1.5,1.5h-15c-0.8,0-1.5-0.7-1.5-1.5v-5
		c0-0.8,0.7-1.5,1.5-1.5H100.5 M100.5,3077h-15c-1.4,0-2.5,1.1-2.5,2.5v5c0,1.4,1.1,2.5,2.5,2.5h15c1.4,0,2.5-1.1,2.5-2.5v-5
		C103,3078.1,101.9,3077,100.5,3077L100.5,3077z"/>
</g>
<g>
	<circle fill="#99D6ED" cx="61" cy="3052" r="50"/>
	<rect x="25" y="3074" fill="#FFFFFF" width="73" height="3"/>
	<rect x="32" y="3036" fill="#DDD8DB" width="58" height="32"/>
	<rect x="27" y="3071" fill="#DDD8DB" width="68" height="3"/>
	<rect x="28" y="3068" fill="#FFFFFF" width="64" height="3"/>
	<rect x="35" y="3032" fill="#FFFFFF" width="6" height="36"/>
	<rect x="44" y="3032" fill="#FFFFFF" width="6" height="36"/>
	<rect x="72" y="3032" fill="#FFFFFF" width="6" height="36"/>
	<rect x="81" y="3032" fill="#FFFFFF" width="6" height="36"/>
	<g>
		<defs>
			<circle id="SVGID_23_" cx="61" cy="3052" r="50"/>
		</defs>
		<clipPath id="SVGID_24_">
			<use xlink:href="#SVGID_23_"  overflow="visible"/>
		</clipPath>
		<rect x="10.9" y="3077" clip-path="url(#SVGID_24_)" fill="#273C4A" width="100" height="25"/>
	</g>
	<path fill="#FFFFFF" d="M91,3038H30c-0.3,0-0.6-0.1-0.8-0.4l-2-2.7c-0.4-0.5-0.2-1.1,0.3-1.5l32.5-20.1c0.3-0.2,0.7-0.2,1.1,0
		l32.5,20.1c0.5,0.3,0.6,1,0.3,1.5l-2,2.7C91.7,3037.9,91.4,3038,91,3038z"/>
	<circle fill="#008BC1" cx="93" cy="3084" r="18"/>
	<rect x="55" y="3048" fill="#C2C0C5" width="12" height="20"/>
	<g>
		<path fill="#FFFFFF" d="M93,3073c6.1,0,11,4.9,11,11s-4.9,11-11,11s-11-4.9-11-11S86.9,3073,93,3073 M93,3072c-6.6,0-12,5.4-12,12
			s5.4,12,12,12s12-5.4,12-12S99.6,3072,93,3072L93,3072z"/>
	</g>
</g>
<circle fill="#DDD8DB" cx="61" cy="3027" r="5"/>
<line fill="none" stroke="#FFFFFF" stroke-linecap="round" stroke-linejoin="round" stroke-miterlimit="10" x1="93" y1="3077" x2="93" y2="3091"/>
<g>
	<g>
		<g>
			<path fill="#FFFFFF" d="M93,3089.9c-1.5,0-2.9-0.5-3.9-1.4c-0.1-0.1-0.2-0.2-0.2-0.4c0-0.2,0.1-0.3,0.2-0.4
				c0.1-0.1,0.3-0.2,0.4-0.2c0.2,0,0.3,0.1,0.3,0.1c0.6,0.5,1.7,1.2,3.2,1.2c2.1,0,2.8-1.1,2.8-2.1c0-1.5-1.5-1.9-3.1-2.3
				c-1.8-0.5-3.7-1-3.7-3.2c0-1.8,1.6-3.1,3.8-3.1c1.4,0,2.6,0.4,3.6,1.2c0.1,0,0.1,0.2,0.1,0.4c0,0.1,0,0.3-0.2,0.5
				c-0.1,0.1-0.3,0.2-0.4,0.2c-0.1,0-0.2,0-0.2-0.1c-0.8-0.7-1.8-1-3-1c-1.4,0-2.5,0.8-2.5,1.9c0,1.2,1.3,1.6,2.8,2
				c1.9,0.5,4,1.1,4,3.5C97.1,3088.2,96,3089.9,93,3089.9z"/>
		</g>
	</g>
</g>
<g>
	<circle fill="#99D6ED" cx="50" cy="50" r="50"/>
	<rect x="14" y="72" fill="#FFFFFF" width="73" height="3"/>
	<rect x="21" y="34" fill="#DDD8DB" width="58" height="32"/>
	<rect x="16" y="69" fill="#DDD8DB" width="68" height="3"/>
	<rect x="17" y="66" fill="#FFFFFF" width="64" height="3"/>
	<rect x="24" y="30" fill="#FFFFFF" width="6" height="36"/>
	<rect x="33" y="30" fill="#FFFFFF" width="6" height="36"/>
	<rect x="61" y="30" fill="#FFFFFF" width="6" height="36"/>
	<rect x="70" y="30" fill="#FFFFFF" width="6" height="36"/>
	<g>
		<defs>
			<circle id="SVGID_25_" cx="50" cy="50" r="50"/>
		</defs>
		<clipPath id="SVGID_26_">
			<use xlink:href="#SVGID_25_"  overflow="visible"/>
		</clipPath>
		<rect x="-0.1" y="75" clip-path="url(#SVGID_26_)" fill="#273C4A" width="100" height="25"/>
	</g>
	<path fill="#FFFFFF" d="M80,36H19c-0.3,0-0.6-0.1-0.8-0.4l-2-2.7c-0.4-0.5-0.2-1.1,0.3-1.5L49,11.3c0.3-0.2,0.7-0.2,1.1,0
		l32.5,20.1c0.5,0.3,0.6,1,0.3,1.5l-2,2.7C80.7,35.9,80.4,36,80,36z"/>
	<circle fill="#008BC1" cx="82" cy="82" r="18"/>
	<rect x="44" y="46" fill="#C2C0C5" width="12" height="20"/>
	<path fill="#FFFFFF" d="M93,76v12H71V76H93 M94,75H70v14h24V75L94,75z"/>
	<path fill="#FFFFFF" d="M89.5,78c0.8,0,1.5,0.7,1.5,1.5v5c0,0.8-0.7,1.5-1.5,1.5h-15c-0.8,0-1.5-0.7-1.5-1.5v-5
		c0-0.8,0.7-1.5,1.5-1.5H89.5 M89.5,77h-15c-1.4,0-2.5,1.1-2.5,2.5v5c0,1.4,1.1,2.5,2.5,2.5h15c1.4,0,2.5-1.1,2.5-2.5v-5
		C92,78.1,90.9,77,89.5,77L89.5,77z"/>
	<path fill="#FFFFFF" d="M82,80c1.1,0,2,0.9,2,2s-0.9,2-2,2s-2-0.9-2-2S80.9,80,82,80 M82,79c-1.7,0-3,1.3-3,3s1.3,3,3,3
		c1.7,0,3-1.3,3-3S83.7,79,82,79L82,79z"/>
	<circle fill="#FFFFFF" cx="88" cy="82" r="1"/>
	<circle fill="#FFFFFF" cx="76" cy="82" r="1"/>
</g>
<g>
	<circle fill="#99D6ED" cx="50" cy="50" r="50"/>
	<rect x="14" y="72" fill="#FFFFFF" width="73" height="3"/>
	<rect x="21" y="34" fill="#DDD8DB" width="58" height="32"/>
	<rect x="16" y="69" fill="#DDD8DB" width="68" height="3"/>
	<rect x="17" y="66" fill="#FFFFFF" width="64" height="3"/>
	<rect x="24" y="30" fill="#FFFFFF" width="6" height="36"/>
	<rect x="33" y="30" fill="#FFFFFF" width="6" height="36"/>
	<rect x="61" y="30" fill="#FFFFFF" width="6" height="36"/>
	<rect x="70" y="30" fill="#FFFFFF" width="6" height="36"/>
	<g>
		<defs>
			<circle id="SVGID_27_" cx="50" cy="50" r="50"/>
		</defs>
		<clipPath id="SVGID_28_">
			<use xlink:href="#SVGID_27_"  overflow="visible"/>
		</clipPath>
		<rect x="-0.1" y="75" clip-path="url(#SVGID_28_)" fill="#273C4A" width="100" height="25"/>
	</g>
	<path fill="#FFFFFF" d="M80,36H19c-0.3,0-0.6-0.1-0.8-0.4l-2-2.7c-0.4-0.5-0.2-1.1,0.3-1.5L49,11.3c0.3-0.2,0.7-0.2,1.1,0
		l32.5,20.1c0.5,0.3,0.6,1,0.3,1.5l-2,2.7C80.7,35.9,80.4,36,80,36z"/>
	<circle fill="#008BC1" cx="82" cy="82" r="18"/>
	<rect x="44" y="46" fill="#C2C0C5" width="12" height="20"/>
	<g>
		<path fill="#FFFFFF" d="M93,74v12H71V74H93 M94,73H70v14h24V73L94,73z"/>
		<path fill="#FFFFFF" d="M82,78c1.1,0,2,0.9,2,2s-0.9,2-2,2s-2-0.9-2-2S80.9,78,82,78 M82,77c-1.7,0-3,1.3-3,3s1.3,3,3,3s3-1.3,3-3
			S83.7,77,82,77L82,77z"/>
		<circle fill="#FFFFFF" cx="88" cy="80" r="1"/>
		<circle fill="#FFFFFF" cx="76" cy="80" r="1"/>
	</g>
	<polygon fill="#FFFFFF" points="90,91 70,91 70,90 91,90 	"/>
	<path fill="#008BC1" d="M92,84l3,3v1h-4v-1l-2-2h3C92,85,92,84,92,84z"/>
	<g>
		<path fill="#FFFFFF" d="M70,89h22.9l-1.5,1.8c-0.2,0.2-0.2,0.5,0,0.7s0.5,0.2,0.7,0l2.5-2.7c0,0,0,0,0,0c0,0,0.1-0.1,0.1-0.1
			c0,0,0,0,0,0c0-0.1,0-0.1,0-0.2s0-0.1,0-0.2c0,0,0,0,0,0c0,0-0.1-0.1-0.1-0.1c0,0,0,0,0,0L92,85.5c-0.1-0.1-0.2-0.1-0.3-0.1
			c-0.1,0-0.3,0.1-0.4,0.2c-0.2,0.2-0.2,0.5,0,0.7l1.5,1.8H70V89z"/>
	</g>
	<path fill="#FFFFFF" d="M89.5,76c0.8,0,1.5,0.7,1.5,1.5v5c0,0.8-0.7,1.5-1.5,1.5h-15c-0.8,0-1.5-0.7-1.5-1.5v-5
		c0-0.8,0.7-1.5,1.5-1.5H89.5 M89.5,75h-15c-1.4,0-2.5,1.1-2.5,2.5v5c0,1.4,1.1,2.5,2.5,2.5h15c1.4,0,2.5-1.1,2.5-2.5v-5
		C92,76.1,90.9,75,89.5,75L89.5,75z"/>
</g>
<g>
	<circle fill="#99D6ED" cx="50" cy="50" r="50"/>
	<rect x="14" y="72" fill="#FFFFFF" width="73" height="3"/>
	<rect x="21" y="34" fill="#DDD8DB" width="58" height="32"/>
	<rect x="16" y="69" fill="#DDD8DB" width="68" height="3"/>
	<rect x="17" y="66" fill="#FFFFFF" width="64" height="3"/>
	<rect x="24" y="30" fill="#FFFFFF" width="6" height="36"/>
	<rect x="33" y="30" fill="#FFFFFF" width="6" height="36"/>
	<rect x="61" y="30" fill="#FFFFFF" width="6" height="36"/>
	<rect x="70" y="30" fill="#FFFFFF" width="6" height="36"/>
	<g>
		<defs>
			<circle id="SVGID_29_" cx="50" cy="50" r="50"/>
		</defs>
		<clipPath id="SVGID_30_">
			<use xlink:href="#SVGID_29_"  overflow="visible"/>
		</clipPath>
		<rect x="-0.1" y="75" clip-path="url(#SVGID_30_)" fill="#273C4A" width="100" height="25"/>
	</g>
	<path fill="#FFFFFF" d="M80,36H19c-0.3,0-0.6-0.1-0.8-0.4l-2-2.7c-0.4-0.5-0.2-1.1,0.3-1.5L49,11.3c0.3-0.2,0.7-0.2,1.1,0
		l32.5,20.1c0.5,0.3,0.6,1,0.3,1.5l-2,2.7C80.7,35.9,80.4,36,80,36z"/>
	<circle fill="#008BC1" cx="82" cy="82" r="18"/>
	<rect x="44" y="46" fill="#C2C0C5" width="12" height="20"/>
	<g>
		<path fill="#FFFFFF" d="M82,71c6.1,0,11,4.9,11,11s-4.9,11-11,11s-11-4.9-11-11S75.9,71,82,71 M82,70c-6.6,0-12,5.4-12,12
			s5.4,12,12,12s12-5.4,12-12S88.6,70,82,70L82,70z"/>
	</g>
</g>
<circle fill="#DDD8DB" cx="50" cy="25" r="5"/>
<line fill="none" stroke="#FFFFFF" stroke-linecap="round" stroke-linejoin="round" stroke-miterlimit="10" x1="82" y1="75" x2="82" y2="89"/>
<g>
	<g>
		<g>
			<path fill="#FFFFFF" d="M82,87.9c-1.5,0-2.9-0.5-3.9-1.4c-0.1-0.1-0.2-0.2-0.2-0.4c0-0.2,0.1-0.3,0.2-0.4
				c0.1-0.1,0.3-0.2,0.4-0.2c0.2,0,0.3,0.1,0.3,0.1c0.6,0.5,1.7,1.2,3.2,1.2c2.1,0,2.8-1.1,2.8-2.1c0-1.5-1.5-1.9-3.1-2.3
				c-1.8-0.5-3.7-1-3.7-3.2c0-1.8,1.6-3.1,3.8-3.1c1.4,0,2.6,0.4,3.6,1.2c0.1,0,0.1,0.2,0.1,0.4c0,0.1,0,0.3-0.2,0.5
				c-0.1,0.1-0.3,0.2-0.4,0.2c-0.1,0-0.2,0-0.2-0.1c-0.8-0.7-1.8-1-3-1c-1.4,0-2.5,0.8-2.5,1.9c0,1.2,1.3,1.6,2.8,2
				c1.9,0.5,4,1.1,4,3.5C86.1,86.2,85,87.9,82,87.9z"/>
		</g>
	</g>
</g>
</svg>
